<?xml version="1.0" encoding="UTF-8" standalone="no"?>
<svg
   xmlns:dc="http://purl.org/dc/elements/1.1/"
   xmlns:cc="http://creativecommons.org/ns#"
   xmlns:rdf="http://www.w3.org/1999/02/22-rdf-syntax-ns#"
   xmlns:svg="http://www.w3.org/2000/svg"
   xmlns="http://www.w3.org/2000/svg"
   xmlns:sodipodi="http://sodipodi.sourceforge.net/DTD/sodipodi-0.dtd"
   xmlns:inkscape="http://www.inkscape.org/namespaces/inkscape"
   width="67mm"
   height="31.999999999999993mm"
   viewBox="-34 -4.999999999999999 67 31.999999999999993"
   version="1.1"
   id="svg8"
   sodipodi:docname="BottomGrille_JointLayer_NoNubs_Flat.svg"
   inkscape:version="0.92.5 (2060ec1f9f, 2020-04-08)">
  <metadata
     id="metadata14">
    <rdf:RDF>
      <cc:Work
         rdf:about="">
        <dc:format>image/svg+xml</dc:format>
        <dc:type
           rdf:resource="http://purl.org/dc/dcmitype/StillImage" />
        <dc:title>svgOutput</dc:title>
      </cc:Work>
    </rdf:RDF>
  </metadata>
  <defs
     id="defs12" />
  <sodipodi:namedview
     pagecolor="#ffffff"
     bordercolor="#666666"
     borderopacity="1"
     objecttolerance="10"
     gridtolerance="10"
     guidetolerance="10"
     inkscape:pageopacity="0"
     inkscape:pageshadow="2"
     inkscape:window-width="2560"
     inkscape:window-height="1384"
     id="namedview10"
     showgrid="false"
     inkscape:zoom="5.6568543"
     inkscape:cx="141.03794"
     inkscape:cy="27.454016"
     inkscape:window-x="0"
     inkscape:window-y="1"
     inkscape:window-maximized="1"
     inkscape:current-layer="svg8"
     inkscape:snap-bbox="false" />
  <title
     id="title2">svgOutput</title>
  <desc
     id="desc4">made with tinkercad</desc>
  <path
     style="opacity:1;fill:#000000;fill-opacity:1;stroke:none;stroke-width:0.38336131;stroke-miterlimit:4;stroke-dasharray:none;stroke-dashoffset:0;stroke-opacity:1"
     d="M 15.119141 3.7792969 L 13.148438 3.953125 L 11.240234 4.4628906 L 9.4492188 5.2988281 L 7.8320312 6.4335938 L 6.7050781 7.5585938 L 6.4335938 7.8320312 L 6.0019531 8.4472656 L 5.2988281 9.4492188 L 4.8691406 10.371094 L 4.5019531 11.15625 L 4.4628906 11.240234 L 3.953125 13.148438 L 3.7792969 15.117188 L 3.7792969 15.685547 L 3.7792969 18.898438 L 3.7792969 25.134766 L 3.7792969 31.748047 L 3.7792969 34.378906 L 3.7792969 49.859375 L 3.7792969 80.822266 L 3.7792969 96.302734 L 3.7792969 105.82617 L 3.953125 107.79688 L 4.4628906 109.70508 L 5.2988281 111.49609 L 5.5 111.7832 L 6.4335938 113.11328 L 6.7050781 113.38672 L 7.8320312 114.51172 L 9.4492188 115.64648 L 11.240234 116.48047 L 13.148438 116.99219 L 15.119141 117.16602 L 31.839844 117.16602 L 62.800781 117.16602 L 93.761719 117.16602 L 124.72461 117.16602 L 155.68555 117.16602 L 186.64844 117.16602 L 217.60938 117.16602 L 226.67969 117.16602 L 232.85938 117.16602 L 236.16016 117.16602 L 238.11133 117.16602 L 240.08008 116.99219 L 241.98828 116.48047 L 243.7793 115.64648 L 245.39648 114.51172 L 246.79492 113.11328 L 247.72852 111.7832 L 247.92969 111.49609 L 248.57227 110.11719 L 248.76562 109.70508 L 249.27539 107.79688 L 249.44922 105.82617 L 249.44922 15.117188 L 249.27539 13.148438 L 248.76562 11.240234 L 248.57227 10.826172 L 247.92969 9.4492188 L 246.79492 7.8320312 L 245.39648 6.4335938 L 243.7793 5.2988281 L 241.98828 4.4628906 L 240.83203 4.1542969 L 240.08008 3.953125 L 238.11133 3.7792969 L 233.0918 3.7792969 L 228.66211 3.7792969 L 227.15039 3.7792969 L 224.88281 3.7792969 L 28.345703 3.7792969 L 16.357422 3.7792969 L 15.119141 3.7792969 z M 17.880859 13.011719 L 21.794922 13.011719 L 13.880859 57.162109 L 13.880859 17.011719 C 13.880859 14.795719 15.664859 13.011719 17.880859 13.011719 z M 41.494141 13.011719 L 47.496094 13.011719 L 30.480469 107.93359 L 24.478516 107.93359 L 41.494141 13.011719 z M 67.195312 13.011719 L 73.375 13.011719 L 56.416016 107.625 L 58.136719 107.93359 L 50.179688 107.93359 L 67.195312 13.011719 z M 93.074219 13.011719 L 99.410156 13.011719 L 82.394531 107.93359 L 76.060547 107.93359 L 93.074219 13.011719 z M 119.10938 13.011719 L 124.96094 13.011719 L 107.94727 107.93359 L 102.09375 107.93359 L 119.10938 13.011719 z M 144.66016 13.011719 L 150.96289 13.011719 L 133.94922 107.93359 L 127.64648 107.93359 L 144.66016 13.011719 z M 170.64062 13.011719 L 202.69336 13.011719 L 185.67773 107.93359 L 153.625 107.93359 L 170.64062 13.011719 z M 222.39258 13.011719 L 228.52344 13.011719 L 211.50781 107.93359 L 205.37695 107.93359 L 222.39258 13.011719 z M 239.34766 62.521484 L 239.34766 103.93359 C 239.34766 106.14959 237.56366 107.93359 235.34766 107.93359 L 231.20703 107.93359 L 239.34766 62.521484 z "
     transform="matrix(0.26458333,0,0,0.26458333,-34,-5)"
     id="rect941-3-1-0-8-6-0-1-5" />
</svg>
