<?xml version="1.0" encoding="UTF-8" standalone="no"?>
<svg
   xmlns:dc="http://purl.org/dc/elements/1.1/"
   xmlns:cc="http://creativecommons.org/ns#"
   xmlns:rdf="http://www.w3.org/1999/02/22-rdf-syntax-ns#"
   xmlns:svg="http://www.w3.org/2000/svg"
   xmlns="http://www.w3.org/2000/svg"
   xmlns:sodipodi="http://sodipodi.sourceforge.net/DTD/sodipodi-0.dtd"
   xmlns:inkscape="http://www.inkscape.org/namespaces/inkscape"
   width="67mm"
   height="31.999999999999993mm"
   viewBox="-34 -4.999999999999999 67 31.999999999999993"
   version="1.1"
   id="svg8"
   sodipodi:docname="TopGrilleUnderlayer_Flat.svg"
   inkscape:version="0.92.5 (2060ec1f9f, 2020-04-08)">
  <metadata
     id="metadata14">
    <rdf:RDF>
      <cc:Work
         rdf:about="">
        <dc:format>image/svg+xml</dc:format>
        <dc:type
           rdf:resource="http://purl.org/dc/dcmitype/StillImage" />
        <dc:title>svgOutput</dc:title>
      </cc:Work>
    </rdf:RDF>
  </metadata>
  <defs
     id="defs12" />
  <sodipodi:namedview
     pagecolor="#ffffff"
     bordercolor="#666666"
     borderopacity="1"
     objecttolerance="10"
     gridtolerance="10"
     guidetolerance="10"
     inkscape:pageopacity="0"
     inkscape:pageshadow="2"
     inkscape:window-width="2560"
     inkscape:window-height="1384"
     id="namedview10"
     showgrid="false"
     inkscape:zoom="6.0340796"
     inkscape:cx="117.95536"
     inkscape:cy="61.945734"
     inkscape:window-x="0"
     inkscape:window-y="1"
     inkscape:window-maximized="1"
     inkscape:current-layer="svg8"
     inkscape:snap-bbox="false"
     inkscape:snap-text-baseline="true"
     inkscape:object-paths="true"
     inkscape:object-nodes="false" />
  <title
     id="title2">svgOutput</title>
  <desc
     id="desc4">made with tinkercad</desc>
  <path
     style="opacity:1;fill:#000000;fill-opacity:1;stroke:none;stroke-width:0.34187111;stroke-miterlimit:4;stroke-dasharray:none;stroke-dashoffset:0;stroke-opacity:1"
     d="M 15.119141 3.7792969 L 13.148438 3.953125 L 11.240234 4.4648438 L 9.4492188 5.2988281 L 7.8320312 6.4335938 L 6.7050781 7.5585938 L 6.4335938 7.8320312 L 5.5 9.1621094 L 5.2988281 9.4492188 L 4.4628906 11.240234 L 3.953125 13.148438 L 3.7792969 15.119141 L 3.7792969 24.642578 L 3.7792969 40.123047 L 3.7792969 71.085938 L 3.7792969 86.566406 L 3.7792969 89.197266 L 3.7792969 95.810547 L 3.7792969 102.04688 L 3.7792969 105.25977 L 3.7792969 105.82812 L 3.953125 107.79688 L 4.4628906 109.70508 L 4.5019531 109.78906 L 4.8691406 110.57422 L 5.2988281 111.49609 L 6.0019531 112.49805 L 6.4335938 113.11328 L 6.7050781 113.38672 L 7.8320312 114.51172 L 9.4492188 115.64648 L 11.240234 116.48242 L 13.148438 116.99219 L 15.119141 117.16602 L 16.357422 117.16602 L 28.345703 117.16602 L 224.88281 117.16602 L 227.15039 117.16602 L 228.66211 117.16602 L 233.0918 117.16602 L 238.11133 117.16602 L 240.08008 116.99219 L 240.83203 116.79102 L 241.98828 116.48242 L 243.7793 115.64648 L 245.39648 114.51172 L 246.79492 113.11328 L 247.92969 111.49609 L 248.57227 110.11914 L 248.76562 109.70508 L 249.27539 107.79688 L 249.44922 105.82812 L 249.44922 15.119141 L 249.27539 13.148438 L 248.76562 11.240234 L 248.57227 10.828125 L 247.92969 9.4492188 L 247.72852 9.1621094 L 246.79492 7.8320312 L 245.39648 6.4335938 L 243.7793 5.2988281 L 241.98828 4.4648438 L 240.08008 3.953125 L 238.11133 3.7792969 L 236.16016 3.7792969 L 232.85938 3.7792969 L 226.67969 3.7792969 L 225.07227 3.7792969 L 225.07227 13.011719 L 225.07227 27.716797 L 225.07227 28.324219 L 27.517578 28.324219 L 27.517578 27.716797 L 27.246094 27.716797 L 27.246094 3.7792969 L 22.835938 3.7792969 L 15.119141 3.7792969 z M 28.167969 33.587891 L 34.167969 33.587891 L 47.494141 107.93359 L 41.494141 107.93359 L 28.167969 33.587891 z M 53.867188 33.587891 L 60.048828 33.587891 L 73.375 107.93359 L 67.193359 107.93359 L 53.867188 33.587891 z M 79.748047 33.587891 L 86.082031 33.587891 L 99.408203 107.93359 L 93.074219 107.93359 L 79.748047 33.587891 z M 105.78125 33.587891 L 111.55273 33.587891 L 124.87891 107.93359 L 119.10742 107.93359 L 105.78125 33.587891 z M 131.25 33.587891 L 137.61523 33.587891 L 141.53125 55.439453 L 135.36523 56.542969 L 131.25 33.587891 z M 157.31445 33.587891 L 163.08008 33.587891 L 176.4082 107.93359 L 170.64062 107.93359 L 157.31445 33.587891 z M 182.7793 33.587891 L 189.36523 33.587891 L 202.69336 107.93359 L 196.10742 107.93359 L 182.7793 33.587891 z M 209.06445 33.587891 L 215.19531 33.587891 L 228.52344 107.93359 L 222.39258 107.93359 L 209.06445 33.587891 z M 235.05859 34.503906 L 239.34766 34.503906 L 239.34766 58.425781 L 235.05859 34.503906 z M 13.880859 63.78125 L 21.794922 107.93359 L 17.880859 107.93359 C 15.664862 107.93359 13.880859 106.1496 13.880859 103.93359 L 13.880859 63.78125 z M 143.25781 65.070312 L 150.94141 107.93359 L 144.57812 107.93359 L 137.0918 66.175781 L 143.25781 65.070312 z "
     transform="matrix(0.26458333,0,0,0.26458333,-34,-5)"
     id="rect941-2" />
</svg>
