%TF.GenerationSoftware,KiCad,Pcbnew,9.0.3*%
%TF.CreationDate,2025-07-23T11:06:39+02:00*%
%TF.ProjectId,icepi-zero,69636570-692d-47a6-9572-6f2e6b696361,v1.3*%
%TF.SameCoordinates,Original*%
%TF.FileFunction,Drillmap*%
%TF.FilePolarity,Positive*%
%FSLAX45Y45*%
G04 Gerber Fmt 4.5, Leading zero omitted, Abs format (unit mm)*
G04 Created by KiCad (PCBNEW 9.0.3) date 2025-07-23 11:06:39*
%MOMM*%
%LPD*%
G01*
G04 APERTURE LIST*
%ADD10C,0.050000*%
%ADD11C,0.200000*%
%ADD12C,0.100000*%
G04 APERTURE END LIST*
D10*
X11600000Y-9350000D02*
G75*
G02*
X11950000Y-9000000I350000J0D01*
G01*
X18100000Y-9350000D02*
X18100000Y-11650000D01*
X11600000Y-11650000D02*
X11600000Y-9350000D01*
X17750000Y-9000000D02*
G75*
G02*
X18100000Y-9350000I0J-350000D01*
G01*
X17750000Y-12000000D02*
X11950000Y-12000000D01*
X11950000Y-12000000D02*
G75*
G02*
X11600000Y-11650000I0J350000D01*
G01*
X11950000Y-9000000D02*
X17750000Y-9000000D01*
X18100000Y-11650000D02*
G75*
G02*
X17750000Y-12000000I-350000J0D01*
G01*
D11*
D12*
X12008000Y-10986000D02*
X12028000Y-11006000D01*
X12028000Y-10986000D02*
X12008000Y-11006000D01*
X12470466Y-11213500D02*
X12490466Y-11233500D01*
X12490466Y-11213500D02*
X12470466Y-11233500D01*
X13364440Y-11703500D02*
X13384440Y-11723500D01*
X13384440Y-11703500D02*
X13364440Y-11723500D01*
X13402000Y-11658000D02*
X13422000Y-11678000D01*
X13422000Y-11658000D02*
X13402000Y-11678000D01*
X13930166Y-10264900D02*
X13950166Y-10284900D01*
X13950166Y-10264900D02*
X13930166Y-10284900D01*
X13988132Y-10275894D02*
X14008132Y-10295894D01*
X14008132Y-10275894D02*
X13988132Y-10295894D01*
X14090000Y-10530000D02*
X14110000Y-10550000D01*
X14110000Y-10530000D02*
X14090000Y-10550000D01*
X14120000Y-10687500D02*
X14140000Y-10707500D01*
X14140000Y-10687500D02*
X14120000Y-10707500D01*
X14158500Y-10786787D02*
X14178500Y-10806787D01*
X14178500Y-10786787D02*
X14158500Y-10806787D01*
X14212000Y-10263900D02*
X14232000Y-10283900D01*
X14232000Y-10263900D02*
X14212000Y-10283900D01*
X14215000Y-9740000D02*
X14235000Y-9760000D01*
X14235000Y-9740000D02*
X14215000Y-9760000D01*
X14220000Y-10707650D02*
X14240000Y-10727650D01*
X14240000Y-10707650D02*
X14220000Y-10727650D01*
X14270529Y-10298500D02*
X14290529Y-10318500D01*
X14290529Y-10298500D02*
X14270529Y-10318500D01*
X14279678Y-10430000D02*
X14299678Y-10450000D01*
X14299678Y-10430000D02*
X14279678Y-10450000D01*
X14303372Y-11534151D02*
X14323372Y-11554151D01*
X14323372Y-11534151D02*
X14303372Y-11554151D01*
X14313627Y-10340000D02*
X14333627Y-10360000D01*
X14333627Y-10340000D02*
X14313627Y-10360000D01*
X14333000Y-10136000D02*
X14353000Y-10156000D01*
X14353000Y-10136000D02*
X14333000Y-10156000D01*
X14335012Y-11585000D02*
X14355012Y-11605000D01*
X14355012Y-11585000D02*
X14335012Y-11605000D01*
X14343358Y-10560900D02*
X14363358Y-10580900D01*
X14363358Y-10560900D02*
X14343358Y-10580900D01*
X14345000Y-10625000D02*
X14365000Y-10645000D01*
X14365000Y-10625000D02*
X14345000Y-10645000D01*
X14355197Y-10700789D02*
X14375197Y-10720789D01*
X14375197Y-10700789D02*
X14355197Y-10720789D01*
X14366125Y-11109000D02*
X14386125Y-11129000D01*
X14386125Y-11109000D02*
X14366125Y-11129000D01*
X14428307Y-10140900D02*
X14448307Y-10160900D01*
X14448307Y-10140900D02*
X14428307Y-10160900D01*
X14430000Y-10710996D02*
X14450000Y-10730996D01*
X14450000Y-10710996D02*
X14430000Y-10730996D01*
X14432877Y-10617896D02*
X14452877Y-10637896D01*
X14452877Y-10617896D02*
X14432877Y-10637896D01*
X14439475Y-10542286D02*
X14459475Y-10562286D01*
X14459475Y-10542286D02*
X14439475Y-10562286D01*
X14465000Y-11295000D02*
X14485000Y-11315000D01*
X14485000Y-11295000D02*
X14465000Y-11315000D01*
X14493773Y-10936853D02*
X14513773Y-10956853D01*
X14513773Y-10936853D02*
X14493773Y-10956853D01*
X14505619Y-11641619D02*
X14525619Y-11661619D01*
X14525619Y-11641619D02*
X14505619Y-11661619D01*
X14508307Y-10140900D02*
X14528307Y-10160900D01*
X14528307Y-10140900D02*
X14508307Y-10160900D01*
X14510000Y-11030996D02*
X14530000Y-11050996D01*
X14530000Y-11030996D02*
X14510000Y-11050996D01*
X14510000Y-10625000D02*
X14530000Y-10645000D01*
X14530000Y-10625000D02*
X14510000Y-10645000D01*
X14510000Y-10310996D02*
X14530000Y-10330996D01*
X14530000Y-10310996D02*
X14510000Y-10330996D01*
X14515121Y-10065761D02*
X14535121Y-10085761D01*
X14535121Y-10065761D02*
X14515121Y-10085761D01*
X14575000Y-11708500D02*
X14595000Y-11728500D01*
X14595000Y-11708500D02*
X14575000Y-11728500D01*
X14582500Y-10063769D02*
X14602500Y-10083769D01*
X14602500Y-10063769D02*
X14582500Y-10083769D01*
X14584004Y-11025000D02*
X14604004Y-11045000D01*
X14604004Y-11025000D02*
X14584004Y-11045000D01*
X14587123Y-9902123D02*
X14607123Y-9922123D01*
X14607123Y-9902123D02*
X14587123Y-9922123D01*
X14590797Y-10939920D02*
X14610797Y-10959920D01*
X14610797Y-10939920D02*
X14590797Y-10959920D01*
X14591000Y-10139000D02*
X14611000Y-10159000D01*
X14611000Y-10139000D02*
X14591000Y-10159000D01*
X14594415Y-10783600D02*
X14614415Y-10803600D01*
X14614415Y-10783600D02*
X14594415Y-10803600D01*
X14609085Y-10616846D02*
X14629085Y-10636846D01*
X14629085Y-10616846D02*
X14609085Y-10636846D01*
X14664853Y-10944262D02*
X14684853Y-10964262D01*
X14684853Y-10944262D02*
X14664853Y-10964262D01*
X14670000Y-10390996D02*
X14690000Y-10410996D01*
X14690000Y-10390996D02*
X14670000Y-10410996D01*
X14670000Y-10465000D02*
X14690000Y-10485000D01*
X14690000Y-10465000D02*
X14670000Y-10485000D01*
X14672500Y-10541742D02*
X14692500Y-10561742D01*
X14692500Y-10541742D02*
X14672500Y-10561742D01*
X14675996Y-11025000D02*
X14695996Y-11045000D01*
X14695996Y-11025000D02*
X14675996Y-11045000D01*
X14710000Y-11133761D02*
X14730000Y-11153761D01*
X14730000Y-11133761D02*
X14710000Y-11153761D01*
X14710000Y-11194601D02*
X14730000Y-11214601D01*
X14730000Y-11194601D02*
X14710000Y-11214601D01*
X14737822Y-11020478D02*
X14757822Y-11040478D01*
X14757822Y-11020478D02*
X14737822Y-11040478D01*
X14747123Y-10942123D02*
X14767123Y-10962123D01*
X14767123Y-10942123D02*
X14747123Y-10962123D01*
X14750000Y-10219004D02*
X14770000Y-10239004D01*
X14770000Y-10219004D02*
X14750000Y-10239004D01*
X14752500Y-10623000D02*
X14772500Y-10643000D01*
X14772500Y-10623000D02*
X14752500Y-10643000D01*
X14755000Y-10700000D02*
X14775000Y-10720000D01*
X14775000Y-10700000D02*
X14755000Y-10720000D01*
X14800000Y-11107500D02*
X14820000Y-11127500D01*
X14820000Y-11107500D02*
X14800000Y-11127500D01*
X14823245Y-10305633D02*
X14843245Y-10325633D01*
X14843245Y-10305633D02*
X14823245Y-10325633D01*
X14827172Y-10387925D02*
X14847172Y-10407925D01*
X14847172Y-10387925D02*
X14827172Y-10407925D01*
X14830000Y-10465000D02*
X14850000Y-10485000D01*
X14850000Y-10465000D02*
X14830000Y-10485000D01*
X14830000Y-10545000D02*
X14850000Y-10565000D01*
X14850000Y-10545000D02*
X14830000Y-10565000D01*
X14831000Y-10626000D02*
X14851000Y-10646000D01*
X14851000Y-10626000D02*
X14831000Y-10646000D01*
X14832000Y-10224000D02*
X14852000Y-10244000D01*
X14852000Y-10224000D02*
X14832000Y-10244000D01*
X14832500Y-10942500D02*
X14852500Y-10962500D01*
X14852500Y-10942500D02*
X14832500Y-10962500D01*
X14832500Y-11022500D02*
X14852500Y-11042500D01*
X14852500Y-11022500D02*
X14832500Y-11042500D01*
X14841519Y-11150839D02*
X14861519Y-11170839D01*
X14861519Y-11150839D02*
X14841519Y-11170839D01*
X14908000Y-10546000D02*
X14928000Y-10566000D01*
X14928000Y-10546000D02*
X14908000Y-10566000D01*
X14909073Y-9980066D02*
X14929073Y-10000066D01*
X14929073Y-9980066D02*
X14909073Y-10000066D01*
X14910000Y-11030996D02*
X14930000Y-11050996D01*
X14930000Y-11030996D02*
X14910000Y-11050996D01*
X14910000Y-10139004D02*
X14930000Y-10159004D01*
X14930000Y-10139004D02*
X14910000Y-10159004D01*
X14910877Y-10629991D02*
X14930877Y-10649991D01*
X14930877Y-10629991D02*
X14910877Y-10649991D01*
X14911400Y-10303697D02*
X14931400Y-10323697D01*
X14931400Y-10303697D02*
X14911400Y-10323697D01*
X14914000Y-10466000D02*
X14934000Y-10486000D01*
X14934000Y-10466000D02*
X14914000Y-10486000D01*
X14947000Y-11933000D02*
X14967000Y-11953000D01*
X14967000Y-11933000D02*
X14947000Y-11953000D01*
X14977000Y-10542000D02*
X14997000Y-10562000D01*
X14997000Y-10542000D02*
X14977000Y-10562000D01*
X14980577Y-10622323D02*
X15000577Y-10642323D01*
X15000577Y-10622323D02*
X14980577Y-10642323D01*
X14986000Y-10786000D02*
X15006000Y-10806000D01*
X15006000Y-10786000D02*
X14986000Y-10806000D01*
X14992000Y-9983000D02*
X15012000Y-10003000D01*
X15012000Y-9983000D02*
X14992000Y-10003000D01*
X14992000Y-10228000D02*
X15012000Y-10248000D01*
X15012000Y-10228000D02*
X14992000Y-10248000D01*
X14997473Y-10703790D02*
X15017473Y-10723790D01*
X15017473Y-10703790D02*
X14997473Y-10723790D01*
X15011000Y-11654000D02*
X15031000Y-11674000D01*
X15031000Y-11654000D02*
X15011000Y-11674000D01*
X15060940Y-10886310D02*
X15080940Y-10906310D01*
X15080940Y-10886310D02*
X15060940Y-10906310D01*
X15071000Y-10302000D02*
X15091000Y-10322000D01*
X15091000Y-10302000D02*
X15071000Y-10322000D01*
X15071000Y-10384000D02*
X15091000Y-10404000D01*
X15091000Y-10384000D02*
X15071000Y-10404000D01*
X15072877Y-9982123D02*
X15092877Y-10002123D01*
X15092877Y-9982123D02*
X15072877Y-10002123D01*
X15075000Y-10460000D02*
X15095000Y-10480000D01*
X15095000Y-10460000D02*
X15075000Y-10480000D01*
X15083100Y-10950085D02*
X15103100Y-10970085D01*
X15103100Y-10950085D02*
X15083100Y-10970085D01*
X15115000Y-11237500D02*
X15135000Y-11257500D01*
X15135000Y-11237500D02*
X15115000Y-11257500D01*
X15146000Y-9983213D02*
X15166000Y-10003213D01*
X15166000Y-9983213D02*
X15146000Y-10003213D01*
X15146000Y-10463000D02*
X15166000Y-10483000D01*
X15166000Y-10463000D02*
X15146000Y-10483000D01*
X15146000Y-10785000D02*
X15166000Y-10805000D01*
X15166000Y-10785000D02*
X15146000Y-10805000D01*
X15147000Y-10542000D02*
X15167000Y-10562000D01*
X15167000Y-10542000D02*
X15147000Y-10562000D01*
X15149000Y-10389000D02*
X15169000Y-10409000D01*
X15169000Y-10389000D02*
X15149000Y-10409000D01*
X15149000Y-11579250D02*
X15169000Y-11599250D01*
X15169000Y-11579250D02*
X15149000Y-11599250D01*
X15150000Y-10703790D02*
X15170000Y-10723790D01*
X15170000Y-10703790D02*
X15150000Y-10723790D01*
X15150000Y-10863000D02*
X15170000Y-10883000D01*
X15170000Y-10863000D02*
X15150000Y-10883000D01*
X15150000Y-10940000D02*
X15170000Y-10960000D01*
X15170000Y-10940000D02*
X15150000Y-10960000D01*
X15151000Y-10301000D02*
X15171000Y-10321000D01*
X15171000Y-10301000D02*
X15151000Y-10321000D01*
X15151000Y-10621000D02*
X15171000Y-10641000D01*
X15171000Y-10621000D02*
X15151000Y-10641000D01*
X15159000Y-11185000D02*
X15179000Y-11205000D01*
X15179000Y-11185000D02*
X15159000Y-11205000D01*
X15224004Y-10865000D02*
X15244004Y-10885000D01*
X15244004Y-10865000D02*
X15224004Y-10885000D01*
X15229000Y-10067000D02*
X15249000Y-10087000D01*
X15249000Y-10067000D02*
X15229000Y-10087000D01*
X15230000Y-10939004D02*
X15250000Y-10959004D01*
X15250000Y-10939004D02*
X15230000Y-10959004D01*
X15232500Y-10222000D02*
X15252500Y-10242000D01*
X15252500Y-10222000D02*
X15232500Y-10242000D01*
X15235000Y-10145000D02*
X15255000Y-10165000D01*
X15255000Y-10145000D02*
X15235000Y-10165000D01*
X15235996Y-9985000D02*
X15255996Y-10005000D01*
X15255996Y-9985000D02*
X15235996Y-10005000D01*
X15304004Y-11025000D02*
X15324004Y-11045000D01*
X15324004Y-11025000D02*
X15304004Y-11045000D01*
X15309996Y-10544785D02*
X15329996Y-10564785D01*
X15329996Y-10544785D02*
X15309996Y-10564785D01*
X15311000Y-10064000D02*
X15331000Y-10084000D01*
X15331000Y-10064000D02*
X15311000Y-10084000D01*
X15315360Y-10784521D02*
X15335360Y-10804521D01*
X15335360Y-10784521D02*
X15315360Y-10804521D01*
X15315946Y-10864958D02*
X15335946Y-10884958D01*
X15335946Y-10864958D02*
X15315946Y-10884958D01*
X15315996Y-10705000D02*
X15335996Y-10725000D01*
X15335996Y-10705000D02*
X15315996Y-10725000D01*
X15378411Y-10874000D02*
X15398411Y-10894000D01*
X15398411Y-10874000D02*
X15378411Y-10894000D01*
X15387000Y-10624000D02*
X15407000Y-10644000D01*
X15407000Y-10624000D02*
X15387000Y-10644000D01*
X15389000Y-9984000D02*
X15409000Y-10004000D01*
X15409000Y-9984000D02*
X15389000Y-10004000D01*
X15389000Y-10066000D02*
X15409000Y-10086000D01*
X15409000Y-10066000D02*
X15389000Y-10086000D01*
X15391253Y-10140426D02*
X15411253Y-10160426D01*
X15411253Y-10140426D02*
X15391253Y-10160426D01*
X15395000Y-10385000D02*
X15415000Y-10405000D01*
X15415000Y-10385000D02*
X15395000Y-10405000D01*
X15467630Y-10216000D02*
X15487630Y-10236000D01*
X15487630Y-10216000D02*
X15467630Y-10236000D01*
X15469182Y-10150057D02*
X15489182Y-10170057D01*
X15489182Y-10150057D02*
X15469182Y-10170057D01*
X15470000Y-10465000D02*
X15490000Y-10485000D01*
X15490000Y-10465000D02*
X15470000Y-10485000D01*
X15470000Y-10545000D02*
X15490000Y-10565000D01*
X15490000Y-10545000D02*
X15470000Y-10565000D01*
X15471030Y-10860180D02*
X15491030Y-10880180D01*
X15491030Y-10860180D02*
X15471030Y-10880180D01*
X15472000Y-10386000D02*
X15492000Y-10406000D01*
X15492000Y-10386000D02*
X15472000Y-10406000D01*
X15475000Y-10785000D02*
X15495000Y-10805000D01*
X15495000Y-10785000D02*
X15475000Y-10805000D01*
X15660040Y-9858600D02*
X15680040Y-9878600D01*
X15680040Y-9858600D02*
X15660040Y-9878600D01*
X16037474Y-9802800D02*
X16057474Y-9822800D01*
X16057474Y-9802800D02*
X16037474Y-9822800D01*
X16081652Y-11124199D02*
X16101652Y-11144199D01*
X16101652Y-11124199D02*
X16081652Y-11144199D01*
X16157500Y-11755000D02*
X16177500Y-11775000D01*
X16177500Y-11755000D02*
X16157500Y-11775000D01*
X16158500Y-11400000D02*
X16178500Y-11420000D01*
X16178500Y-11400000D02*
X16158500Y-11420000D01*
X16158500Y-11500000D02*
X16178500Y-11520000D01*
X16178500Y-11500000D02*
X16158500Y-11520000D01*
X16254000Y-11864648D02*
X16274000Y-11884648D01*
X16274000Y-11864648D02*
X16254000Y-11884648D01*
X16265000Y-11675000D02*
X16285000Y-11695000D01*
X16285000Y-11675000D02*
X16265000Y-11695000D01*
X16436000Y-11278000D02*
X16456000Y-11298000D01*
X16456000Y-11278000D02*
X16436000Y-11298000D01*
X16705000Y-11300000D02*
X16725000Y-11320000D01*
X16725000Y-11300000D02*
X16705000Y-11320000D01*
X16746150Y-10929850D02*
X16766150Y-10949850D01*
X16766150Y-10929850D02*
X16746150Y-10949850D01*
X16768891Y-11181410D02*
X16788891Y-11201409D01*
X16788891Y-11181410D02*
X16768891Y-11201409D01*
X16775000Y-11311000D02*
X16795000Y-11331000D01*
X16795000Y-11311000D02*
X16775000Y-11331000D01*
X16972000Y-11302000D02*
X16992000Y-11322000D01*
X16992000Y-11302000D02*
X16972000Y-11322000D01*
X16998000Y-11501000D02*
X17018000Y-11521000D01*
X17018000Y-11501000D02*
X16998000Y-11521000D01*
X17235000Y-11305000D02*
X17255000Y-11325000D01*
X17255000Y-11305000D02*
X17235000Y-11325000D01*
X11699000Y-11397000D02*
G75*
G02*
X11669000Y-11397000I-15000J0D01*
G01*
X11669000Y-11397000D02*
G75*
G02*
X11699000Y-11397000I15000J0D01*
G01*
X11706000Y-9578000D02*
G75*
G02*
X11676000Y-9578000I-15000J0D01*
G01*
X11676000Y-9578000D02*
G75*
G02*
X11706000Y-9578000I15000J0D01*
G01*
X11915000Y-10967500D02*
G75*
G02*
X11885000Y-10967500I-15000J0D01*
G01*
X11885000Y-10967500D02*
G75*
G02*
X11915000Y-10967500I15000J0D01*
G01*
X11975000Y-10773500D02*
G75*
G02*
X11945000Y-10773500I-15000J0D01*
G01*
X11945000Y-10773500D02*
G75*
G02*
X11975000Y-10773500I15000J0D01*
G01*
X11980000Y-9917500D02*
G75*
G02*
X11950000Y-9917500I-15000J0D01*
G01*
X11950000Y-9917500D02*
G75*
G02*
X11980000Y-9917500I15000J0D01*
G01*
X11980000Y-10137500D02*
G75*
G02*
X11950000Y-10137500I-15000J0D01*
G01*
X11950000Y-10137500D02*
G75*
G02*
X11980000Y-10137500I15000J0D01*
G01*
X11980000Y-10577500D02*
G75*
G02*
X11950000Y-10577500I-15000J0D01*
G01*
X11950000Y-10577500D02*
G75*
G02*
X11980000Y-10577500I15000J0D01*
G01*
X11980000Y-10687500D02*
G75*
G02*
X11950000Y-10687500I-15000J0D01*
G01*
X11950000Y-10687500D02*
G75*
G02*
X11980000Y-10687500I15000J0D01*
G01*
X11982000Y-10027500D02*
G75*
G02*
X11952000Y-10027500I-15000J0D01*
G01*
X11952000Y-10027500D02*
G75*
G02*
X11982000Y-10027500I15000J0D01*
G01*
X11983000Y-9807500D02*
G75*
G02*
X11953000Y-9807500I-15000J0D01*
G01*
X11953000Y-9807500D02*
G75*
G02*
X11983000Y-9807500I15000J0D01*
G01*
X11983000Y-10247500D02*
G75*
G02*
X11953000Y-10247500I-15000J0D01*
G01*
X11953000Y-10247500D02*
G75*
G02*
X11983000Y-10247500I15000J0D01*
G01*
X11984000Y-10467500D02*
G75*
G02*
X11954000Y-10467500I-15000J0D01*
G01*
X11954000Y-10467500D02*
G75*
G02*
X11984000Y-10467500I15000J0D01*
G01*
X11985000Y-10357500D02*
G75*
G02*
X11955000Y-10357500I-15000J0D01*
G01*
X11955000Y-10357500D02*
G75*
G02*
X11985000Y-10357500I15000J0D01*
G01*
X12010300Y-11072500D02*
G75*
G02*
X11980300Y-11072500I-15000J0D01*
G01*
X11980300Y-11072500D02*
G75*
G02*
X12010300Y-11072500I15000J0D01*
G01*
X12212500Y-11317500D02*
G75*
G02*
X12182500Y-11317500I-15000J0D01*
G01*
X12182500Y-11317500D02*
G75*
G02*
X12212500Y-11317500I15000J0D01*
G01*
X12242500Y-10985000D02*
G75*
G02*
X12212500Y-10985000I-15000J0D01*
G01*
X12212500Y-10985000D02*
G75*
G02*
X12242500Y-10985000I15000J0D01*
G01*
X12248000Y-9110000D02*
G75*
G02*
X12218000Y-9110000I-15000J0D01*
G01*
X12218000Y-9110000D02*
G75*
G02*
X12248000Y-9110000I15000J0D01*
G01*
X12315000Y-11055000D02*
G75*
G02*
X12285000Y-11055000I-15000J0D01*
G01*
X12285000Y-11055000D02*
G75*
G02*
X12315000Y-11055000I15000J0D01*
G01*
X12445000Y-10524000D02*
G75*
G02*
X12415000Y-10524000I-15000J0D01*
G01*
X12415000Y-10524000D02*
G75*
G02*
X12445000Y-10524000I15000J0D01*
G01*
X12454000Y-10619000D02*
G75*
G02*
X12424000Y-10619000I-15000J0D01*
G01*
X12424000Y-10619000D02*
G75*
G02*
X12454000Y-10619000I15000J0D01*
G01*
X12502500Y-9815000D02*
G75*
G02*
X12472500Y-9815000I-15000J0D01*
G01*
X12472500Y-9815000D02*
G75*
G02*
X12502500Y-9815000I15000J0D01*
G01*
X12509000Y-11709000D02*
G75*
G02*
X12479000Y-11709000I-15000J0D01*
G01*
X12479000Y-11709000D02*
G75*
G02*
X12509000Y-11709000I15000J0D01*
G01*
X12587000Y-10495000D02*
G75*
G02*
X12557000Y-10495000I-15000J0D01*
G01*
X12557000Y-10495000D02*
G75*
G02*
X12587000Y-10495000I15000J0D01*
G01*
X12592000Y-9609000D02*
G75*
G02*
X12562000Y-9609000I-15000J0D01*
G01*
X12562000Y-9609000D02*
G75*
G02*
X12592000Y-9609000I15000J0D01*
G01*
X12667000Y-10205000D02*
G75*
G02*
X12637000Y-10205000I-15000J0D01*
G01*
X12637000Y-10205000D02*
G75*
G02*
X12667000Y-10205000I15000J0D01*
G01*
X12714000Y-10433000D02*
G75*
G02*
X12684000Y-10433000I-15000J0D01*
G01*
X12684000Y-10433000D02*
G75*
G02*
X12714000Y-10433000I15000J0D01*
G01*
X12777000Y-11772000D02*
G75*
G02*
X12747000Y-11772000I-15000J0D01*
G01*
X12747000Y-11772000D02*
G75*
G02*
X12777000Y-11772000I15000J0D01*
G01*
X12795000Y-10010000D02*
G75*
G02*
X12765000Y-10010000I-15000J0D01*
G01*
X12765000Y-10010000D02*
G75*
G02*
X12795000Y-10010000I15000J0D01*
G01*
X12814000Y-10780645D02*
G75*
G02*
X12784000Y-10780645I-15000J0D01*
G01*
X12784000Y-10780645D02*
G75*
G02*
X12814000Y-10780645I15000J0D01*
G01*
X12824000Y-9789000D02*
G75*
G02*
X12794000Y-9789000I-15000J0D01*
G01*
X12794000Y-9789000D02*
G75*
G02*
X12824000Y-9789000I15000J0D01*
G01*
X12884000Y-10708000D02*
G75*
G02*
X12854000Y-10708000I-15000J0D01*
G01*
X12854000Y-10708000D02*
G75*
G02*
X12884000Y-10708000I15000J0D01*
G01*
X12945000Y-10380000D02*
G75*
G02*
X12915000Y-10380000I-15000J0D01*
G01*
X12915000Y-10380000D02*
G75*
G02*
X12945000Y-10380000I15000J0D01*
G01*
X13027500Y-10380000D02*
G75*
G02*
X12997500Y-10380000I-15000J0D01*
G01*
X12997500Y-10380000D02*
G75*
G02*
X13027500Y-10380000I15000J0D01*
G01*
X13064000Y-9803000D02*
G75*
G02*
X13034000Y-9803000I-15000J0D01*
G01*
X13034000Y-9803000D02*
G75*
G02*
X13064000Y-9803000I15000J0D01*
G01*
X13075000Y-10530000D02*
G75*
G02*
X13045000Y-10530000I-15000J0D01*
G01*
X13045000Y-10530000D02*
G75*
G02*
X13075000Y-10530000I15000J0D01*
G01*
X13100132Y-10643000D02*
G75*
G02*
X13070132Y-10643000I-15000J0D01*
G01*
X13070132Y-10643000D02*
G75*
G02*
X13100132Y-10643000I15000J0D01*
G01*
X13105000Y-10465000D02*
G75*
G02*
X13075000Y-10465000I-15000J0D01*
G01*
X13075000Y-10465000D02*
G75*
G02*
X13105000Y-10465000I15000J0D01*
G01*
X13115000Y-10380000D02*
G75*
G02*
X13085000Y-10380000I-15000J0D01*
G01*
X13085000Y-10380000D02*
G75*
G02*
X13115000Y-10380000I15000J0D01*
G01*
X13131000Y-9947000D02*
G75*
G02*
X13101000Y-9947000I-15000J0D01*
G01*
X13101000Y-9947000D02*
G75*
G02*
X13131000Y-9947000I15000J0D01*
G01*
X13135000Y-11880000D02*
G75*
G02*
X13105000Y-11880000I-15000J0D01*
G01*
X13105000Y-11880000D02*
G75*
G02*
X13135000Y-11880000I15000J0D01*
G01*
X13158000Y-9807867D02*
G75*
G02*
X13128000Y-9807867I-15000J0D01*
G01*
X13128000Y-9807867D02*
G75*
G02*
X13158000Y-9807867I15000J0D01*
G01*
X13195000Y-10420000D02*
G75*
G02*
X13165000Y-10420000I-15000J0D01*
G01*
X13165000Y-10420000D02*
G75*
G02*
X13195000Y-10420000I15000J0D01*
G01*
X13220000Y-10166000D02*
G75*
G02*
X13190000Y-10166000I-15000J0D01*
G01*
X13190000Y-10166000D02*
G75*
G02*
X13220000Y-10166000I15000J0D01*
G01*
X13271000Y-11393000D02*
G75*
G02*
X13241000Y-11393000I-15000J0D01*
G01*
X13241000Y-11393000D02*
G75*
G02*
X13271000Y-11393000I15000J0D01*
G01*
X13275000Y-10420000D02*
G75*
G02*
X13245000Y-10420000I-15000J0D01*
G01*
X13245000Y-10420000D02*
G75*
G02*
X13275000Y-10420000I15000J0D01*
G01*
X13283000Y-9724500D02*
G75*
G02*
X13253000Y-9724500I-15000J0D01*
G01*
X13253000Y-9724500D02*
G75*
G02*
X13283000Y-9724500I15000J0D01*
G01*
X13289500Y-11709983D02*
G75*
G02*
X13259500Y-11709983I-15000J0D01*
G01*
X13259500Y-11709983D02*
G75*
G02*
X13289500Y-11709983I15000J0D01*
G01*
X13294000Y-10501000D02*
G75*
G02*
X13264000Y-10501000I-15000J0D01*
G01*
X13264000Y-10501000D02*
G75*
G02*
X13294000Y-10501000I15000J0D01*
G01*
X13301000Y-10153000D02*
G75*
G02*
X13271000Y-10153000I-15000J0D01*
G01*
X13271000Y-10153000D02*
G75*
G02*
X13301000Y-10153000I15000J0D01*
G01*
X13316500Y-9828000D02*
G75*
G02*
X13286500Y-9828000I-15000J0D01*
G01*
X13286500Y-9828000D02*
G75*
G02*
X13316500Y-9828000I15000J0D01*
G01*
X13358496Y-11654638D02*
G75*
G02*
X13328496Y-11654638I-15000J0D01*
G01*
X13328496Y-11654638D02*
G75*
G02*
X13358496Y-11654638I15000J0D01*
G01*
X13392500Y-9837000D02*
G75*
G02*
X13362500Y-9837000I-15000J0D01*
G01*
X13362500Y-9837000D02*
G75*
G02*
X13392500Y-9837000I15000J0D01*
G01*
X13440000Y-10150000D02*
G75*
G02*
X13410000Y-10150000I-15000J0D01*
G01*
X13410000Y-10150000D02*
G75*
G02*
X13440000Y-10150000I15000J0D01*
G01*
X13443000Y-9779000D02*
G75*
G02*
X13413000Y-9779000I-15000J0D01*
G01*
X13413000Y-9779000D02*
G75*
G02*
X13443000Y-9779000I15000J0D01*
G01*
X13485000Y-10511000D02*
G75*
G02*
X13455000Y-10511000I-15000J0D01*
G01*
X13455000Y-10511000D02*
G75*
G02*
X13485000Y-10511000I15000J0D01*
G01*
X13515000Y-11940000D02*
G75*
G02*
X13485000Y-11940000I-15000J0D01*
G01*
X13485000Y-11940000D02*
G75*
G02*
X13515000Y-11940000I15000J0D01*
G01*
X13584000Y-10593000D02*
G75*
G02*
X13554000Y-10593000I-15000J0D01*
G01*
X13554000Y-10593000D02*
G75*
G02*
X13584000Y-10593000I15000J0D01*
G01*
X13584000Y-11574000D02*
G75*
G02*
X13554000Y-11574000I-15000J0D01*
G01*
X13554000Y-11574000D02*
G75*
G02*
X13584000Y-11574000I15000J0D01*
G01*
X13585000Y-11662500D02*
G75*
G02*
X13555000Y-11662500I-15000J0D01*
G01*
X13555000Y-11662500D02*
G75*
G02*
X13585000Y-11662500I15000J0D01*
G01*
X13610038Y-11942629D02*
G75*
G02*
X13580038Y-11942629I-15000J0D01*
G01*
X13580038Y-11942629D02*
G75*
G02*
X13610038Y-11942629I15000J0D01*
G01*
X13640000Y-9975000D02*
G75*
G02*
X13610000Y-9975000I-15000J0D01*
G01*
X13610000Y-9975000D02*
G75*
G02*
X13640000Y-9975000I15000J0D01*
G01*
X13641250Y-11372077D02*
G75*
G02*
X13611250Y-11372077I-15000J0D01*
G01*
X13611250Y-11372077D02*
G75*
G02*
X13641250Y-11372077I15000J0D01*
G01*
X13654326Y-9887732D02*
G75*
G02*
X13624326Y-9887732I-15000J0D01*
G01*
X13624326Y-9887732D02*
G75*
G02*
X13654326Y-9887732I15000J0D01*
G01*
X13669276Y-11651478D02*
G75*
G02*
X13639276Y-11651478I-15000J0D01*
G01*
X13639276Y-11651478D02*
G75*
G02*
X13669276Y-11651478I15000J0D01*
G01*
X13684000Y-11945000D02*
G75*
G02*
X13654000Y-11945000I-15000J0D01*
G01*
X13654000Y-11945000D02*
G75*
G02*
X13684000Y-11945000I15000J0D01*
G01*
X13714000Y-11576000D02*
G75*
G02*
X13684000Y-11576000I-15000J0D01*
G01*
X13684000Y-11576000D02*
G75*
G02*
X13714000Y-11576000I15000J0D01*
G01*
X13722000Y-9972000D02*
G75*
G02*
X13692000Y-9972000I-15000J0D01*
G01*
X13692000Y-9972000D02*
G75*
G02*
X13722000Y-9972000I15000J0D01*
G01*
X13758000Y-11944841D02*
G75*
G02*
X13728000Y-11944841I-15000J0D01*
G01*
X13728000Y-11944841D02*
G75*
G02*
X13758000Y-11944841I15000J0D01*
G01*
X13765000Y-10300000D02*
G75*
G02*
X13735000Y-10300000I-15000J0D01*
G01*
X13735000Y-10300000D02*
G75*
G02*
X13765000Y-10300000I15000J0D01*
G01*
X13787090Y-9792910D02*
G75*
G02*
X13757090Y-9792910I-15000J0D01*
G01*
X13757090Y-9792910D02*
G75*
G02*
X13787090Y-9792910I15000J0D01*
G01*
X13836000Y-11420250D02*
G75*
G02*
X13806000Y-11420250I-15000J0D01*
G01*
X13806000Y-11420250D02*
G75*
G02*
X13836000Y-11420250I15000J0D01*
G01*
X13872000Y-9970000D02*
G75*
G02*
X13842000Y-9970000I-15000J0D01*
G01*
X13842000Y-9970000D02*
G75*
G02*
X13872000Y-9970000I15000J0D01*
G01*
X13884000Y-11861750D02*
G75*
G02*
X13854000Y-11861750I-15000J0D01*
G01*
X13854000Y-11861750D02*
G75*
G02*
X13884000Y-11861750I15000J0D01*
G01*
X13909000Y-9805000D02*
G75*
G02*
X13879000Y-9805000I-15000J0D01*
G01*
X13879000Y-9805000D02*
G75*
G02*
X13909000Y-9805000I15000J0D01*
G01*
X13925000Y-10705000D02*
G75*
G02*
X13895000Y-10705000I-15000J0D01*
G01*
X13895000Y-10705000D02*
G75*
G02*
X13925000Y-10705000I15000J0D01*
G01*
X14040000Y-9805000D02*
G75*
G02*
X14010000Y-9805000I-15000J0D01*
G01*
X14010000Y-9805000D02*
G75*
G02*
X14040000Y-9805000I15000J0D01*
G01*
X14040462Y-9945000D02*
G75*
G02*
X14010462Y-9945000I-15000J0D01*
G01*
X14010462Y-9945000D02*
G75*
G02*
X14040462Y-9945000I15000J0D01*
G01*
X14060754Y-10733359D02*
G75*
G02*
X14030754Y-10733359I-15000J0D01*
G01*
X14030754Y-10733359D02*
G75*
G02*
X14060754Y-10733359I15000J0D01*
G01*
X14122000Y-11912000D02*
G75*
G02*
X14092000Y-11912000I-15000J0D01*
G01*
X14092000Y-11912000D02*
G75*
G02*
X14122000Y-11912000I15000J0D01*
G01*
X14133000Y-10614000D02*
G75*
G02*
X14103000Y-10614000I-15000J0D01*
G01*
X14103000Y-10614000D02*
G75*
G02*
X14133000Y-10614000I15000J0D01*
G01*
X14151000Y-9977000D02*
G75*
G02*
X14121000Y-9977000I-15000J0D01*
G01*
X14121000Y-9977000D02*
G75*
G02*
X14151000Y-9977000I15000J0D01*
G01*
X14197276Y-11319236D02*
G75*
G02*
X14167276Y-11319236I-15000J0D01*
G01*
X14167276Y-11319236D02*
G75*
G02*
X14197276Y-11319236I15000J0D01*
G01*
X14212962Y-11504808D02*
G75*
G02*
X14182962Y-11504808I-15000J0D01*
G01*
X14182962Y-11504808D02*
G75*
G02*
X14212962Y-11504808I15000J0D01*
G01*
X14235000Y-9925000D02*
G75*
G02*
X14205000Y-9925000I-15000J0D01*
G01*
X14205000Y-9925000D02*
G75*
G02*
X14235000Y-9925000I15000J0D01*
G01*
X14263116Y-10044052D02*
G75*
G02*
X14233116Y-10044052I-15000J0D01*
G01*
X14233116Y-10044052D02*
G75*
G02*
X14263116Y-10044052I15000J0D01*
G01*
X14298696Y-11317983D02*
G75*
G02*
X14268696Y-11317983I-15000J0D01*
G01*
X14268696Y-11317983D02*
G75*
G02*
X14298696Y-11317983I15000J0D01*
G01*
X14307000Y-10757000D02*
G75*
G02*
X14277000Y-10757000I-15000J0D01*
G01*
X14277000Y-10757000D02*
G75*
G02*
X14307000Y-10757000I15000J0D01*
G01*
X14313316Y-9989684D02*
G75*
G02*
X14283316Y-9989684I-15000J0D01*
G01*
X14283316Y-9989684D02*
G75*
G02*
X14313316Y-9989684I15000J0D01*
G01*
X14376000Y-9817000D02*
G75*
G02*
X14346000Y-9817000I-15000J0D01*
G01*
X14346000Y-9817000D02*
G75*
G02*
X14376000Y-9817000I15000J0D01*
G01*
X14585506Y-11322041D02*
G75*
G02*
X14555506Y-11322041I-15000J0D01*
G01*
X14555506Y-11322041D02*
G75*
G02*
X14585506Y-11322041I15000J0D01*
G01*
X14659127Y-11311627D02*
G75*
G02*
X14629127Y-11311627I-15000J0D01*
G01*
X14629127Y-11311627D02*
G75*
G02*
X14659127Y-11311627I15000J0D01*
G01*
X15035000Y-9811000D02*
G75*
G02*
X15005000Y-9811000I-15000J0D01*
G01*
X15005000Y-9811000D02*
G75*
G02*
X15035000Y-9811000I15000J0D01*
G01*
X15040000Y-9627000D02*
G75*
G02*
X15010000Y-9627000I-15000J0D01*
G01*
X15010000Y-9627000D02*
G75*
G02*
X15040000Y-9627000I15000J0D01*
G01*
X15390864Y-11215209D02*
G75*
G02*
X15360864Y-11215209I-15000J0D01*
G01*
X15360864Y-11215209D02*
G75*
G02*
X15390864Y-11215209I15000J0D01*
G01*
X15435700Y-11325700D02*
G75*
G02*
X15405700Y-11325700I-15000J0D01*
G01*
X15405700Y-11325700D02*
G75*
G02*
X15435700Y-11325700I15000J0D01*
G01*
X15460000Y-11910000D02*
G75*
G02*
X15430000Y-11910000I-15000J0D01*
G01*
X15430000Y-11910000D02*
G75*
G02*
X15460000Y-11910000I15000J0D01*
G01*
X15473000Y-11533000D02*
G75*
G02*
X15443000Y-11533000I-15000J0D01*
G01*
X15443000Y-11533000D02*
G75*
G02*
X15473000Y-11533000I15000J0D01*
G01*
X15571724Y-11518902D02*
G75*
G02*
X15541724Y-11518902I-15000J0D01*
G01*
X15541724Y-11518902D02*
G75*
G02*
X15571724Y-11518902I15000J0D01*
G01*
X15686000Y-11088000D02*
G75*
G02*
X15656000Y-11088000I-15000J0D01*
G01*
X15656000Y-11088000D02*
G75*
G02*
X15686000Y-11088000I15000J0D01*
G01*
X15807371Y-11507545D02*
G75*
G02*
X15777371Y-11507545I-15000J0D01*
G01*
X15777371Y-11507545D02*
G75*
G02*
X15807371Y-11507545I15000J0D01*
G01*
X15815000Y-11875000D02*
G75*
G02*
X15785000Y-11875000I-15000J0D01*
G01*
X15785000Y-11875000D02*
G75*
G02*
X15815000Y-11875000I15000J0D01*
G01*
X15850000Y-9875000D02*
G75*
G02*
X15820000Y-9875000I-15000J0D01*
G01*
X15820000Y-9875000D02*
G75*
G02*
X15850000Y-9875000I15000J0D01*
G01*
X15861062Y-11086938D02*
G75*
G02*
X15831062Y-11086938I-15000J0D01*
G01*
X15831062Y-11086938D02*
G75*
G02*
X15861062Y-11086938I15000J0D01*
G01*
X15875000Y-11590000D02*
G75*
G02*
X15845000Y-11590000I-15000J0D01*
G01*
X15845000Y-11590000D02*
G75*
G02*
X15875000Y-11590000I15000J0D01*
G01*
X16293000Y-11166000D02*
G75*
G02*
X16263000Y-11166000I-15000J0D01*
G01*
X16263000Y-11166000D02*
G75*
G02*
X16293000Y-11166000I15000J0D01*
G01*
X16308316Y-9784684D02*
G75*
G02*
X16278316Y-9784684I-15000J0D01*
G01*
X16278316Y-9784684D02*
G75*
G02*
X16308316Y-9784684I15000J0D01*
G01*
X16490000Y-11220000D02*
G75*
G02*
X16460000Y-11220000I-15000J0D01*
G01*
X16460000Y-11220000D02*
G75*
G02*
X16490000Y-11220000I15000J0D01*
G01*
X16541870Y-9787870D02*
G75*
G02*
X16511870Y-9787870I-15000J0D01*
G01*
X16511870Y-9787870D02*
G75*
G02*
X16541870Y-9787870I15000J0D01*
G01*
X16727000Y-11512000D02*
G75*
G02*
X16697000Y-11512000I-15000J0D01*
G01*
X16697000Y-11512000D02*
G75*
G02*
X16727000Y-11512000I15000J0D01*
G01*
X16805000Y-9787500D02*
G75*
G02*
X16775000Y-9787500I-15000J0D01*
G01*
X16775000Y-9787500D02*
G75*
G02*
X16805000Y-9787500I15000J0D01*
G01*
X16840000Y-11825000D02*
G75*
G02*
X16810000Y-11825000I-15000J0D01*
G01*
X16810000Y-11825000D02*
G75*
G02*
X16840000Y-11825000I15000J0D01*
G01*
X16916100Y-10931271D02*
G75*
G02*
X16886100Y-10931271I-15000J0D01*
G01*
X16886100Y-10931271D02*
G75*
G02*
X16916100Y-10931271I15000J0D01*
G01*
X16941000Y-10012000D02*
G75*
G02*
X16911000Y-10012000I-15000J0D01*
G01*
X16911000Y-10012000D02*
G75*
G02*
X16941000Y-10012000I15000J0D01*
G01*
X17042000Y-9686000D02*
G75*
G02*
X17012000Y-9686000I-15000J0D01*
G01*
X17012000Y-9686000D02*
G75*
G02*
X17042000Y-9686000I15000J0D01*
G01*
X17091461Y-11168195D02*
G75*
G02*
X17061461Y-11168195I-15000J0D01*
G01*
X17061461Y-11168195D02*
G75*
G02*
X17091461Y-11168195I15000J0D01*
G01*
X17111000Y-11512000D02*
G75*
G02*
X17081000Y-11512000I-15000J0D01*
G01*
X17081000Y-11512000D02*
G75*
G02*
X17111000Y-11512000I15000J0D01*
G01*
X17137000Y-11302000D02*
G75*
G02*
X17107000Y-11302000I-15000J0D01*
G01*
X17107000Y-11302000D02*
G75*
G02*
X17137000Y-11302000I15000J0D01*
G01*
X17198000Y-11665000D02*
G75*
G02*
X17168000Y-11665000I-15000J0D01*
G01*
X17168000Y-11665000D02*
G75*
G02*
X17198000Y-11665000I15000J0D01*
G01*
X17390803Y-11169404D02*
G75*
G02*
X17360803Y-11169404I-15000J0D01*
G01*
X17360803Y-11169404D02*
G75*
G02*
X17390803Y-11169404I15000J0D01*
G01*
X17483000Y-9656000D02*
G75*
G02*
X17453000Y-9656000I-15000J0D01*
G01*
X17453000Y-9656000D02*
G75*
G02*
X17483000Y-9656000I15000J0D01*
G01*
X17556000Y-10460000D02*
G75*
G02*
X17526000Y-10460000I-15000J0D01*
G01*
X17526000Y-10460000D02*
G75*
G02*
X17556000Y-10460000I15000J0D01*
G01*
X17690290Y-11169500D02*
G75*
G02*
X17660290Y-11169500I-15000J0D01*
G01*
X17660290Y-11169500D02*
G75*
G02*
X17690290Y-11169500I15000J0D01*
G01*
X17740000Y-10275000D02*
G75*
G02*
X17710000Y-10275000I-15000J0D01*
G01*
X17710000Y-10275000D02*
G75*
G02*
X17740000Y-10275000I15000J0D01*
G01*
X17765000Y-10675000D02*
G75*
G02*
X17735000Y-10675000I-15000J0D01*
G01*
X17735000Y-10675000D02*
G75*
G02*
X17765000Y-10675000I15000J0D01*
G01*
X17866766Y-11169500D02*
G75*
G02*
X17836766Y-11169500I-15000J0D01*
G01*
X17836766Y-11169500D02*
G75*
G02*
X17866766Y-11169500I15000J0D01*
G01*
X17965000Y-10910000D02*
G75*
G02*
X17935000Y-10910000I-15000J0D01*
G01*
X17935000Y-10910000D02*
G75*
G02*
X17965000Y-10910000I15000J0D01*
G01*
X17975000Y-10245000D02*
G75*
G02*
X17945000Y-10245000I-15000J0D01*
G01*
X17945000Y-10245000D02*
G75*
G02*
X17975000Y-10245000I15000J0D01*
G01*
X17995000Y-9735000D02*
G75*
G02*
X17965000Y-9735000I-15000J0D01*
G01*
X17965000Y-9735000D02*
G75*
G02*
X17995000Y-9735000I15000J0D01*
G01*
X17995000Y-10615000D02*
G75*
G02*
X17965000Y-10615000I-15000J0D01*
G01*
X17965000Y-10615000D02*
G75*
G02*
X17995000Y-10615000I15000J0D01*
G01*
X18025000Y-11355000D02*
G75*
G02*
X17995000Y-11355000I-15000J0D01*
G01*
X17995000Y-11355000D02*
G75*
G02*
X18025000Y-11355000I15000J0D01*
G01*
X13968000Y-11434500D02*
X13968000Y-11494500D01*
X13938000Y-11464500D02*
X13998000Y-11464500D01*
X13938000Y-11409500D02*
X13938000Y-11519500D01*
X13998000Y-11519500D02*
G75*
G02*
X13938000Y-11519500I-30000J0D01*
G01*
X13998000Y-11519500D02*
X13998000Y-11409500D01*
X13998000Y-11409500D02*
G75*
G03*
X13938000Y-11409500I-30000J0D01*
G01*
X13968000Y-11852500D02*
X13968000Y-11912500D01*
X13938000Y-11882500D02*
X13998000Y-11882500D01*
X13938000Y-11842500D02*
X13938000Y-11922500D01*
X13998000Y-11922500D02*
G75*
G02*
X13938000Y-11922500I-30000J0D01*
G01*
X13998000Y-11922500D02*
X13998000Y-11842500D01*
X13998000Y-11842500D02*
G75*
G03*
X13938000Y-11842500I-30000J0D01*
G01*
X14832000Y-11434500D02*
X14832000Y-11494500D01*
X14802000Y-11464500D02*
X14862000Y-11464500D01*
X14802000Y-11409500D02*
X14802000Y-11519500D01*
X14862000Y-11519500D02*
G75*
G02*
X14802000Y-11519500I-30000J0D01*
G01*
X14862000Y-11519500D02*
X14862000Y-11409500D01*
X14862000Y-11409500D02*
G75*
G03*
X14802000Y-11409500I-30000J0D01*
G01*
X14832000Y-11852500D02*
X14832000Y-11912500D01*
X14802000Y-11882500D02*
X14862000Y-11882500D01*
X14802000Y-11842500D02*
X14802000Y-11922500D01*
X14862000Y-11922500D02*
G75*
G02*
X14802000Y-11922500I-30000J0D01*
G01*
X14862000Y-11922500D02*
X14862000Y-11842500D01*
X14862000Y-11842500D02*
G75*
G03*
X14802000Y-11842500I-30000J0D01*
G01*
X15218000Y-11434500D02*
X15218000Y-11494500D01*
X15188000Y-11464500D02*
X15248000Y-11464500D01*
X15188000Y-11409500D02*
X15188000Y-11519500D01*
X15248000Y-11519500D02*
G75*
G02*
X15188000Y-11519500I-30000J0D01*
G01*
X15248000Y-11519500D02*
X15248000Y-11409500D01*
X15248000Y-11409500D02*
G75*
G03*
X15188000Y-11409500I-30000J0D01*
G01*
X15218000Y-11852500D02*
X15218000Y-11912500D01*
X15188000Y-11882500D02*
X15248000Y-11882500D01*
X15188000Y-11842500D02*
X15188000Y-11922500D01*
X15248000Y-11922500D02*
G75*
G02*
X15188000Y-11922500I-30000J0D01*
G01*
X15248000Y-11922500D02*
X15248000Y-11842500D01*
X15248000Y-11842500D02*
G75*
G03*
X15188000Y-11842500I-30000J0D01*
G01*
X16082000Y-11434500D02*
X16082000Y-11494500D01*
X16052000Y-11464500D02*
X16112000Y-11464500D01*
X16052000Y-11409500D02*
X16052000Y-11519500D01*
X16112000Y-11519500D02*
G75*
G02*
X16052000Y-11519500I-30000J0D01*
G01*
X16112000Y-11519500D02*
X16112000Y-11409500D01*
X16112000Y-11409500D02*
G75*
G03*
X16052000Y-11409500I-30000J0D01*
G01*
X16082000Y-11852500D02*
X16082000Y-11912500D01*
X16052000Y-11882500D02*
X16112000Y-11882500D01*
X16052000Y-11842500D02*
X16052000Y-11922500D01*
X16112000Y-11922500D02*
G75*
G02*
X16052000Y-11922500I-30000J0D01*
G01*
X16112000Y-11922500D02*
X16112000Y-11842500D01*
X16112000Y-11842500D02*
G75*
G03*
X16052000Y-11842500I-30000J0D01*
G01*
X16468000Y-11434500D02*
X16468000Y-11494500D01*
X16438000Y-11464500D02*
X16498000Y-11464500D01*
X16438000Y-11409500D02*
X16438000Y-11519500D01*
X16498000Y-11519500D02*
G75*
G02*
X16438000Y-11519500I-30000J0D01*
G01*
X16498000Y-11519500D02*
X16498000Y-11409500D01*
X16498000Y-11409500D02*
G75*
G03*
X16438000Y-11409500I-30000J0D01*
G01*
X16468000Y-11852500D02*
X16468000Y-11912500D01*
X16438000Y-11882500D02*
X16498000Y-11882500D01*
X16438000Y-11842500D02*
X16438000Y-11922500D01*
X16498000Y-11922500D02*
G75*
G02*
X16438000Y-11922500I-30000J0D01*
G01*
X16498000Y-11922500D02*
X16498000Y-11842500D01*
X16498000Y-11842500D02*
G75*
G03*
X16438000Y-11842500I-30000J0D01*
G01*
X17332000Y-11434500D02*
X17332000Y-11494500D01*
X17302000Y-11464500D02*
X17362000Y-11464500D01*
X17302000Y-11409500D02*
X17302000Y-11519500D01*
X17362000Y-11519500D02*
G75*
G02*
X17302000Y-11519500I-30000J0D01*
G01*
X17362000Y-11519500D02*
X17362000Y-11409500D01*
X17362000Y-11409500D02*
G75*
G03*
X17302000Y-11409500I-30000J0D01*
G01*
X17332000Y-11852500D02*
X17332000Y-11912500D01*
X17302000Y-11882500D02*
X17362000Y-11882500D01*
X17302000Y-11842500D02*
X17302000Y-11922500D01*
X17362000Y-11922500D02*
G75*
G02*
X17302000Y-11922500I-30000J0D01*
G01*
X17362000Y-11922500D02*
X17362000Y-11842500D01*
X17362000Y-11842500D02*
G75*
G03*
X17302000Y-11842500I-30000J0D01*
G01*
X12320481Y-11457981D02*
X12320481Y-11412019D01*
X12274519Y-11412019D01*
X12274519Y-11457981D01*
X12320481Y-11457981D01*
X12265000Y-11407500D02*
X12265000Y-11462500D01*
X12330000Y-11462500D02*
G75*
G02*
X12265000Y-11462500I-32500J0D01*
G01*
X12330000Y-11462500D02*
X12330000Y-11407500D01*
X12330000Y-11407500D02*
G75*
G03*
X12265000Y-11407500I-32500J0D01*
G01*
X12322981Y-11907981D02*
X12322981Y-11862019D01*
X12277019Y-11862019D01*
X12277019Y-11907981D01*
X12322981Y-11907981D01*
X12267500Y-11857500D02*
X12267500Y-11912500D01*
X12332500Y-11912500D02*
G75*
G02*
X12267500Y-11912500I-32500J0D01*
G01*
X12332500Y-11912500D02*
X12332500Y-11857500D01*
X12332500Y-11857500D02*
G75*
G03*
X12267500Y-11857500I-32500J0D01*
G01*
X13405481Y-11457981D02*
X13405481Y-11412019D01*
X13359519Y-11412019D01*
X13359519Y-11457981D01*
X13405481Y-11457981D01*
X13350000Y-11407500D02*
X13350000Y-11462500D01*
X13415000Y-11462500D02*
G75*
G02*
X13350000Y-11462500I-32500J0D01*
G01*
X13415000Y-11462500D02*
X13415000Y-11407500D01*
X13415000Y-11407500D02*
G75*
G03*
X13350000Y-11407500I-32500J0D01*
G01*
X13405481Y-11907981D02*
X13405481Y-11862019D01*
X13359519Y-11862019D01*
X13359519Y-11907981D01*
X13405481Y-11907981D01*
X13350000Y-11857500D02*
X13350000Y-11912500D01*
X13415000Y-11912500D02*
G75*
G02*
X13350000Y-11912500I-32500J0D01*
G01*
X13415000Y-11912500D02*
X13415000Y-11857500D01*
X13415000Y-11857500D02*
G75*
G03*
X13350000Y-11857500I-32500J0D01*
G01*
X12437500Y-9273500D02*
X12487500Y-9223500D01*
X12437500Y-9173500D01*
X12387500Y-9223500D01*
X12437500Y-9273500D01*
X12437500Y-9527500D02*
X12487500Y-9477500D01*
X12437500Y-9427500D01*
X12387500Y-9477500D01*
X12437500Y-9527500D01*
X12691500Y-9273500D02*
X12741500Y-9223500D01*
X12691500Y-9173500D01*
X12641500Y-9223500D01*
X12691500Y-9273500D01*
X12691500Y-9527500D02*
X12741500Y-9477500D01*
X12691500Y-9427500D01*
X12641500Y-9477500D01*
X12691500Y-9527500D01*
X12945500Y-9273500D02*
X12995500Y-9223500D01*
X12945500Y-9173500D01*
X12895500Y-9223500D01*
X12945500Y-9273500D01*
X12945500Y-9527500D02*
X12995500Y-9477500D01*
X12945500Y-9427500D01*
X12895500Y-9477500D01*
X12945500Y-9527500D01*
X13199500Y-9273500D02*
X13249500Y-9223500D01*
X13199500Y-9173500D01*
X13149500Y-9223500D01*
X13199500Y-9273500D01*
X13199500Y-9527500D02*
X13249500Y-9477500D01*
X13199500Y-9427500D01*
X13149500Y-9477500D01*
X13199500Y-9527500D01*
X13453500Y-9273500D02*
X13503500Y-9223500D01*
X13453500Y-9173500D01*
X13403500Y-9223500D01*
X13453500Y-9273500D01*
X13453500Y-9527500D02*
X13503500Y-9477500D01*
X13453500Y-9427500D01*
X13403500Y-9477500D01*
X13453500Y-9527500D01*
X13707500Y-9273500D02*
X13757500Y-9223500D01*
X13707500Y-9173500D01*
X13657500Y-9223500D01*
X13707500Y-9273500D01*
X13707500Y-9527500D02*
X13757500Y-9477500D01*
X13707500Y-9427500D01*
X13657500Y-9477500D01*
X13707500Y-9527500D01*
X13961500Y-9273500D02*
X14011500Y-9223500D01*
X13961500Y-9173500D01*
X13911500Y-9223500D01*
X13961500Y-9273500D01*
X13961500Y-9527500D02*
X14011500Y-9477500D01*
X13961500Y-9427500D01*
X13911500Y-9477500D01*
X13961500Y-9527500D01*
X14215500Y-9273500D02*
X14265500Y-9223500D01*
X14215500Y-9173500D01*
X14165500Y-9223500D01*
X14215500Y-9273500D01*
X14215500Y-9527500D02*
X14265500Y-9477500D01*
X14215500Y-9427500D01*
X14165500Y-9477500D01*
X14215500Y-9527500D01*
X14469500Y-9273500D02*
X14519500Y-9223500D01*
X14469500Y-9173500D01*
X14419500Y-9223500D01*
X14469500Y-9273500D01*
X14469500Y-9527500D02*
X14519500Y-9477500D01*
X14469500Y-9427500D01*
X14419500Y-9477500D01*
X14469500Y-9527500D01*
X14723500Y-9273500D02*
X14773500Y-9223500D01*
X14723500Y-9173500D01*
X14673500Y-9223500D01*
X14723500Y-9273500D01*
X14723500Y-9527500D02*
X14773500Y-9477500D01*
X14723500Y-9427500D01*
X14673500Y-9477500D01*
X14723500Y-9527500D01*
X14977500Y-9273500D02*
X15027500Y-9223500D01*
X14977500Y-9173500D01*
X14927500Y-9223500D01*
X14977500Y-9273500D01*
X14977500Y-9527500D02*
X15027500Y-9477500D01*
X14977500Y-9427500D01*
X14927500Y-9477500D01*
X14977500Y-9527500D01*
X15231500Y-9273500D02*
X15281500Y-9223500D01*
X15231500Y-9173500D01*
X15181500Y-9223500D01*
X15231500Y-9273500D01*
X15231500Y-9527500D02*
X15281500Y-9477500D01*
X15231500Y-9427500D01*
X15181500Y-9477500D01*
X15231500Y-9527500D01*
X15485500Y-9273500D02*
X15535500Y-9223500D01*
X15485500Y-9173500D01*
X15435500Y-9223500D01*
X15485500Y-9273500D01*
X15485500Y-9527500D02*
X15535500Y-9477500D01*
X15485500Y-9427500D01*
X15435500Y-9477500D01*
X15485500Y-9527500D01*
X15739500Y-9273500D02*
X15789500Y-9223500D01*
X15739500Y-9173500D01*
X15689500Y-9223500D01*
X15739500Y-9273500D01*
X15739500Y-9527500D02*
X15789500Y-9477500D01*
X15739500Y-9427500D01*
X15689500Y-9477500D01*
X15739500Y-9527500D01*
X15993500Y-9273500D02*
X16043500Y-9223500D01*
X15993500Y-9173500D01*
X15943500Y-9223500D01*
X15993500Y-9273500D01*
X15993500Y-9527500D02*
X16043500Y-9477500D01*
X15993500Y-9427500D01*
X15943500Y-9477500D01*
X15993500Y-9527500D01*
X16247500Y-9273500D02*
X16297500Y-9223500D01*
X16247500Y-9173500D01*
X16197500Y-9223500D01*
X16247500Y-9273500D01*
X16247500Y-9527500D02*
X16297500Y-9477500D01*
X16247500Y-9427500D01*
X16197500Y-9477500D01*
X16247500Y-9527500D01*
X16501500Y-9273500D02*
X16551500Y-9223500D01*
X16501500Y-9173500D01*
X16451500Y-9223500D01*
X16501500Y-9273500D01*
X16501500Y-9527500D02*
X16551500Y-9477500D01*
X16501500Y-9427500D01*
X16451500Y-9477500D01*
X16501500Y-9527500D01*
X16755500Y-9273500D02*
X16805500Y-9223500D01*
X16755500Y-9173500D01*
X16705500Y-9223500D01*
X16755500Y-9273500D01*
X16755500Y-9527500D02*
X16805500Y-9477500D01*
X16755500Y-9427500D01*
X16705500Y-9477500D01*
X16755500Y-9527500D01*
X17009500Y-9273500D02*
X17059500Y-9223500D01*
X17009500Y-9173500D01*
X16959500Y-9223500D01*
X17009500Y-9273500D01*
X17009500Y-9527500D02*
X17059500Y-9477500D01*
X17009500Y-9427500D01*
X16959500Y-9477500D01*
X17009500Y-9527500D01*
X17263500Y-9273500D02*
X17313500Y-9223500D01*
X17263500Y-9173500D01*
X17213500Y-9223500D01*
X17263500Y-9273500D01*
X17263500Y-9527500D02*
X17313500Y-9477500D01*
X17263500Y-9427500D01*
X17213500Y-9477500D01*
X17263500Y-9527500D01*
D11*
X11858277Y-12313984D02*
X11858277Y-12113984D01*
X11858277Y-12113984D02*
X11905896Y-12113984D01*
X11905896Y-12113984D02*
X11934467Y-12123508D01*
X11934467Y-12123508D02*
X11953515Y-12142555D01*
X11953515Y-12142555D02*
X11963039Y-12161603D01*
X11963039Y-12161603D02*
X11972562Y-12199698D01*
X11972562Y-12199698D02*
X11972562Y-12228269D01*
X11972562Y-12228269D02*
X11963039Y-12266365D01*
X11963039Y-12266365D02*
X11953515Y-12285412D01*
X11953515Y-12285412D02*
X11934467Y-12304460D01*
X11934467Y-12304460D02*
X11905896Y-12313984D01*
X11905896Y-12313984D02*
X11858277Y-12313984D01*
X12058277Y-12313984D02*
X12058277Y-12180650D01*
X12058277Y-12218746D02*
X12067801Y-12199698D01*
X12067801Y-12199698D02*
X12077324Y-12190174D01*
X12077324Y-12190174D02*
X12096372Y-12180650D01*
X12096372Y-12180650D02*
X12115420Y-12180650D01*
X12182086Y-12313984D02*
X12182086Y-12180650D01*
X12182086Y-12113984D02*
X12172562Y-12123508D01*
X12172562Y-12123508D02*
X12182086Y-12133031D01*
X12182086Y-12133031D02*
X12191610Y-12123508D01*
X12191610Y-12123508D02*
X12182086Y-12113984D01*
X12182086Y-12113984D02*
X12182086Y-12133031D01*
X12305896Y-12313984D02*
X12286848Y-12304460D01*
X12286848Y-12304460D02*
X12277324Y-12285412D01*
X12277324Y-12285412D02*
X12277324Y-12113984D01*
X12410658Y-12313984D02*
X12391610Y-12304460D01*
X12391610Y-12304460D02*
X12382086Y-12285412D01*
X12382086Y-12285412D02*
X12382086Y-12113984D01*
X12639229Y-12313984D02*
X12639229Y-12113984D01*
X12639229Y-12113984D02*
X12705896Y-12256841D01*
X12705896Y-12256841D02*
X12772562Y-12113984D01*
X12772562Y-12113984D02*
X12772562Y-12313984D01*
X12953515Y-12313984D02*
X12953515Y-12209222D01*
X12953515Y-12209222D02*
X12943991Y-12190174D01*
X12943991Y-12190174D02*
X12924943Y-12180650D01*
X12924943Y-12180650D02*
X12886848Y-12180650D01*
X12886848Y-12180650D02*
X12867801Y-12190174D01*
X12953515Y-12304460D02*
X12934467Y-12313984D01*
X12934467Y-12313984D02*
X12886848Y-12313984D01*
X12886848Y-12313984D02*
X12867801Y-12304460D01*
X12867801Y-12304460D02*
X12858277Y-12285412D01*
X12858277Y-12285412D02*
X12858277Y-12266365D01*
X12858277Y-12266365D02*
X12867801Y-12247317D01*
X12867801Y-12247317D02*
X12886848Y-12237793D01*
X12886848Y-12237793D02*
X12934467Y-12237793D01*
X12934467Y-12237793D02*
X12953515Y-12228269D01*
X13048753Y-12180650D02*
X13048753Y-12380650D01*
X13048753Y-12190174D02*
X13067801Y-12180650D01*
X13067801Y-12180650D02*
X13105896Y-12180650D01*
X13105896Y-12180650D02*
X13124943Y-12190174D01*
X13124943Y-12190174D02*
X13134467Y-12199698D01*
X13134467Y-12199698D02*
X13143991Y-12218746D01*
X13143991Y-12218746D02*
X13143991Y-12275888D01*
X13143991Y-12275888D02*
X13134467Y-12294936D01*
X13134467Y-12294936D02*
X13124943Y-12304460D01*
X13124943Y-12304460D02*
X13105896Y-12313984D01*
X13105896Y-12313984D02*
X13067801Y-12313984D01*
X13067801Y-12313984D02*
X13048753Y-12304460D01*
X13229705Y-12294936D02*
X13239229Y-12304460D01*
X13239229Y-12304460D02*
X13229705Y-12313984D01*
X13229705Y-12313984D02*
X13220182Y-12304460D01*
X13220182Y-12304460D02*
X13229705Y-12294936D01*
X13229705Y-12294936D02*
X13229705Y-12313984D01*
X13229705Y-12190174D02*
X13239229Y-12199698D01*
X13239229Y-12199698D02*
X13229705Y-12209222D01*
X13229705Y-12209222D02*
X13220182Y-12199698D01*
X13220182Y-12199698D02*
X13229705Y-12190174D01*
X13229705Y-12190174D02*
X13229705Y-12209222D01*
D12*
X11577500Y-12632500D02*
X11597500Y-12652500D01*
X11597500Y-12632500D02*
X11577500Y-12652500D01*
D11*
X11896372Y-12533984D02*
X11915420Y-12533984D01*
X11915420Y-12533984D02*
X11934467Y-12543508D01*
X11934467Y-12543508D02*
X11943991Y-12553031D01*
X11943991Y-12553031D02*
X11953515Y-12572079D01*
X11953515Y-12572079D02*
X11963039Y-12610174D01*
X11963039Y-12610174D02*
X11963039Y-12657793D01*
X11963039Y-12657793D02*
X11953515Y-12695888D01*
X11953515Y-12695888D02*
X11943991Y-12714936D01*
X11943991Y-12714936D02*
X11934467Y-12724460D01*
X11934467Y-12724460D02*
X11915420Y-12733984D01*
X11915420Y-12733984D02*
X11896372Y-12733984D01*
X11896372Y-12733984D02*
X11877324Y-12724460D01*
X11877324Y-12724460D02*
X11867801Y-12714936D01*
X11867801Y-12714936D02*
X11858277Y-12695888D01*
X11858277Y-12695888D02*
X11848753Y-12657793D01*
X11848753Y-12657793D02*
X11848753Y-12610174D01*
X11848753Y-12610174D02*
X11858277Y-12572079D01*
X11858277Y-12572079D02*
X11867801Y-12553031D01*
X11867801Y-12553031D02*
X11877324Y-12543508D01*
X11877324Y-12543508D02*
X11896372Y-12533984D01*
X12048753Y-12714936D02*
X12058277Y-12724460D01*
X12058277Y-12724460D02*
X12048753Y-12733984D01*
X12048753Y-12733984D02*
X12039229Y-12724460D01*
X12039229Y-12724460D02*
X12048753Y-12714936D01*
X12048753Y-12714936D02*
X12048753Y-12733984D01*
X12134467Y-12553031D02*
X12143991Y-12543508D01*
X12143991Y-12543508D02*
X12163039Y-12533984D01*
X12163039Y-12533984D02*
X12210658Y-12533984D01*
X12210658Y-12533984D02*
X12229705Y-12543508D01*
X12229705Y-12543508D02*
X12239229Y-12553031D01*
X12239229Y-12553031D02*
X12248753Y-12572079D01*
X12248753Y-12572079D02*
X12248753Y-12591127D01*
X12248753Y-12591127D02*
X12239229Y-12619698D01*
X12239229Y-12619698D02*
X12124943Y-12733984D01*
X12124943Y-12733984D02*
X12248753Y-12733984D01*
X12372562Y-12533984D02*
X12391610Y-12533984D01*
X12391610Y-12533984D02*
X12410658Y-12543508D01*
X12410658Y-12543508D02*
X12420182Y-12553031D01*
X12420182Y-12553031D02*
X12429705Y-12572079D01*
X12429705Y-12572079D02*
X12439229Y-12610174D01*
X12439229Y-12610174D02*
X12439229Y-12657793D01*
X12439229Y-12657793D02*
X12429705Y-12695888D01*
X12429705Y-12695888D02*
X12420182Y-12714936D01*
X12420182Y-12714936D02*
X12410658Y-12724460D01*
X12410658Y-12724460D02*
X12391610Y-12733984D01*
X12391610Y-12733984D02*
X12372562Y-12733984D01*
X12372562Y-12733984D02*
X12353515Y-12724460D01*
X12353515Y-12724460D02*
X12343991Y-12714936D01*
X12343991Y-12714936D02*
X12334467Y-12695888D01*
X12334467Y-12695888D02*
X12324943Y-12657793D01*
X12324943Y-12657793D02*
X12324943Y-12610174D01*
X12324943Y-12610174D02*
X12334467Y-12572079D01*
X12334467Y-12572079D02*
X12343991Y-12553031D01*
X12343991Y-12553031D02*
X12353515Y-12543508D01*
X12353515Y-12543508D02*
X12372562Y-12533984D01*
X12563039Y-12533984D02*
X12582086Y-12533984D01*
X12582086Y-12533984D02*
X12601134Y-12543508D01*
X12601134Y-12543508D02*
X12610658Y-12553031D01*
X12610658Y-12553031D02*
X12620182Y-12572079D01*
X12620182Y-12572079D02*
X12629705Y-12610174D01*
X12629705Y-12610174D02*
X12629705Y-12657793D01*
X12629705Y-12657793D02*
X12620182Y-12695888D01*
X12620182Y-12695888D02*
X12610658Y-12714936D01*
X12610658Y-12714936D02*
X12601134Y-12724460D01*
X12601134Y-12724460D02*
X12582086Y-12733984D01*
X12582086Y-12733984D02*
X12563039Y-12733984D01*
X12563039Y-12733984D02*
X12543991Y-12724460D01*
X12543991Y-12724460D02*
X12534467Y-12714936D01*
X12534467Y-12714936D02*
X12524943Y-12695888D01*
X12524943Y-12695888D02*
X12515420Y-12657793D01*
X12515420Y-12657793D02*
X12515420Y-12610174D01*
X12515420Y-12610174D02*
X12524943Y-12572079D01*
X12524943Y-12572079D02*
X12534467Y-12553031D01*
X12534467Y-12553031D02*
X12543991Y-12543508D01*
X12543991Y-12543508D02*
X12563039Y-12533984D01*
X12715420Y-12733984D02*
X12715420Y-12600650D01*
X12715420Y-12619698D02*
X12724943Y-12610174D01*
X12724943Y-12610174D02*
X12743991Y-12600650D01*
X12743991Y-12600650D02*
X12772563Y-12600650D01*
X12772563Y-12600650D02*
X12791610Y-12610174D01*
X12791610Y-12610174D02*
X12801134Y-12629222D01*
X12801134Y-12629222D02*
X12801134Y-12733984D01*
X12801134Y-12629222D02*
X12810658Y-12610174D01*
X12810658Y-12610174D02*
X12829705Y-12600650D01*
X12829705Y-12600650D02*
X12858277Y-12600650D01*
X12858277Y-12600650D02*
X12877324Y-12610174D01*
X12877324Y-12610174D02*
X12886848Y-12629222D01*
X12886848Y-12629222D02*
X12886848Y-12733984D01*
X12982086Y-12733984D02*
X12982086Y-12600650D01*
X12982086Y-12619698D02*
X12991610Y-12610174D01*
X12991610Y-12610174D02*
X13010658Y-12600650D01*
X13010658Y-12600650D02*
X13039229Y-12600650D01*
X13039229Y-12600650D02*
X13058277Y-12610174D01*
X13058277Y-12610174D02*
X13067801Y-12629222D01*
X13067801Y-12629222D02*
X13067801Y-12733984D01*
X13067801Y-12629222D02*
X13077324Y-12610174D01*
X13077324Y-12610174D02*
X13096372Y-12600650D01*
X13096372Y-12600650D02*
X13124943Y-12600650D01*
X13124943Y-12600650D02*
X13143991Y-12610174D01*
X13143991Y-12610174D02*
X13153515Y-12629222D01*
X13153515Y-12629222D02*
X13153515Y-12733984D01*
X13543991Y-12524460D02*
X13372563Y-12781603D01*
X13801134Y-12533984D02*
X13820182Y-12533984D01*
X13820182Y-12533984D02*
X13839229Y-12543508D01*
X13839229Y-12543508D02*
X13848753Y-12553031D01*
X13848753Y-12553031D02*
X13858277Y-12572079D01*
X13858277Y-12572079D02*
X13867801Y-12610174D01*
X13867801Y-12610174D02*
X13867801Y-12657793D01*
X13867801Y-12657793D02*
X13858277Y-12695888D01*
X13858277Y-12695888D02*
X13848753Y-12714936D01*
X13848753Y-12714936D02*
X13839229Y-12724460D01*
X13839229Y-12724460D02*
X13820182Y-12733984D01*
X13820182Y-12733984D02*
X13801134Y-12733984D01*
X13801134Y-12733984D02*
X13782086Y-12724460D01*
X13782086Y-12724460D02*
X13772563Y-12714936D01*
X13772563Y-12714936D02*
X13763039Y-12695888D01*
X13763039Y-12695888D02*
X13753515Y-12657793D01*
X13753515Y-12657793D02*
X13753515Y-12610174D01*
X13753515Y-12610174D02*
X13763039Y-12572079D01*
X13763039Y-12572079D02*
X13772563Y-12553031D01*
X13772563Y-12553031D02*
X13782086Y-12543508D01*
X13782086Y-12543508D02*
X13801134Y-12533984D01*
X13953515Y-12714936D02*
X13963039Y-12724460D01*
X13963039Y-12724460D02*
X13953515Y-12733984D01*
X13953515Y-12733984D02*
X13943991Y-12724460D01*
X13943991Y-12724460D02*
X13953515Y-12714936D01*
X13953515Y-12714936D02*
X13953515Y-12733984D01*
X14086848Y-12533984D02*
X14105896Y-12533984D01*
X14105896Y-12533984D02*
X14124944Y-12543508D01*
X14124944Y-12543508D02*
X14134467Y-12553031D01*
X14134467Y-12553031D02*
X14143991Y-12572079D01*
X14143991Y-12572079D02*
X14153515Y-12610174D01*
X14153515Y-12610174D02*
X14153515Y-12657793D01*
X14153515Y-12657793D02*
X14143991Y-12695888D01*
X14143991Y-12695888D02*
X14134467Y-12714936D01*
X14134467Y-12714936D02*
X14124944Y-12724460D01*
X14124944Y-12724460D02*
X14105896Y-12733984D01*
X14105896Y-12733984D02*
X14086848Y-12733984D01*
X14086848Y-12733984D02*
X14067801Y-12724460D01*
X14067801Y-12724460D02*
X14058277Y-12714936D01*
X14058277Y-12714936D02*
X14048753Y-12695888D01*
X14048753Y-12695888D02*
X14039229Y-12657793D01*
X14039229Y-12657793D02*
X14039229Y-12610174D01*
X14039229Y-12610174D02*
X14048753Y-12572079D01*
X14048753Y-12572079D02*
X14058277Y-12553031D01*
X14058277Y-12553031D02*
X14067801Y-12543508D01*
X14067801Y-12543508D02*
X14086848Y-12533984D01*
X14277325Y-12533984D02*
X14296372Y-12533984D01*
X14296372Y-12533984D02*
X14315420Y-12543508D01*
X14315420Y-12543508D02*
X14324944Y-12553031D01*
X14324944Y-12553031D02*
X14334467Y-12572079D01*
X14334467Y-12572079D02*
X14343991Y-12610174D01*
X14343991Y-12610174D02*
X14343991Y-12657793D01*
X14343991Y-12657793D02*
X14334467Y-12695888D01*
X14334467Y-12695888D02*
X14324944Y-12714936D01*
X14324944Y-12714936D02*
X14315420Y-12724460D01*
X14315420Y-12724460D02*
X14296372Y-12733984D01*
X14296372Y-12733984D02*
X14277325Y-12733984D01*
X14277325Y-12733984D02*
X14258277Y-12724460D01*
X14258277Y-12724460D02*
X14248753Y-12714936D01*
X14248753Y-12714936D02*
X14239229Y-12695888D01*
X14239229Y-12695888D02*
X14229706Y-12657793D01*
X14229706Y-12657793D02*
X14229706Y-12610174D01*
X14229706Y-12610174D02*
X14239229Y-12572079D01*
X14239229Y-12572079D02*
X14248753Y-12553031D01*
X14248753Y-12553031D02*
X14258277Y-12543508D01*
X14258277Y-12543508D02*
X14277325Y-12533984D01*
X14410658Y-12533984D02*
X14543991Y-12533984D01*
X14543991Y-12533984D02*
X14458277Y-12733984D01*
X14629706Y-12733984D02*
X14667801Y-12733984D01*
X14667801Y-12733984D02*
X14686848Y-12724460D01*
X14686848Y-12724460D02*
X14696372Y-12714936D01*
X14696372Y-12714936D02*
X14715420Y-12686365D01*
X14715420Y-12686365D02*
X14724944Y-12648269D01*
X14724944Y-12648269D02*
X14724944Y-12572079D01*
X14724944Y-12572079D02*
X14715420Y-12553031D01*
X14715420Y-12553031D02*
X14705896Y-12543508D01*
X14705896Y-12543508D02*
X14686848Y-12533984D01*
X14686848Y-12533984D02*
X14648753Y-12533984D01*
X14648753Y-12533984D02*
X14629706Y-12543508D01*
X14629706Y-12543508D02*
X14620182Y-12553031D01*
X14620182Y-12553031D02*
X14610658Y-12572079D01*
X14610658Y-12572079D02*
X14610658Y-12619698D01*
X14610658Y-12619698D02*
X14620182Y-12638746D01*
X14620182Y-12638746D02*
X14629706Y-12648269D01*
X14629706Y-12648269D02*
X14648753Y-12657793D01*
X14648753Y-12657793D02*
X14686848Y-12657793D01*
X14686848Y-12657793D02*
X14705896Y-12648269D01*
X14705896Y-12648269D02*
X14715420Y-12638746D01*
X14715420Y-12638746D02*
X14724944Y-12619698D01*
X14801134Y-12533984D02*
X14801134Y-12572079D01*
X14877325Y-12533984D02*
X14877325Y-12572079D01*
X15172563Y-12810174D02*
X15163039Y-12800650D01*
X15163039Y-12800650D02*
X15143991Y-12772079D01*
X15143991Y-12772079D02*
X15134468Y-12753031D01*
X15134468Y-12753031D02*
X15124944Y-12724460D01*
X15124944Y-12724460D02*
X15115420Y-12676841D01*
X15115420Y-12676841D02*
X15115420Y-12638746D01*
X15115420Y-12638746D02*
X15124944Y-12591127D01*
X15124944Y-12591127D02*
X15134468Y-12562555D01*
X15134468Y-12562555D02*
X15143991Y-12543508D01*
X15143991Y-12543508D02*
X15163039Y-12514936D01*
X15163039Y-12514936D02*
X15172563Y-12505412D01*
X15353515Y-12733984D02*
X15239229Y-12733984D01*
X15296372Y-12733984D02*
X15296372Y-12533984D01*
X15296372Y-12533984D02*
X15277325Y-12562555D01*
X15277325Y-12562555D02*
X15258277Y-12581603D01*
X15258277Y-12581603D02*
X15239229Y-12591127D01*
X15420182Y-12533984D02*
X15543991Y-12533984D01*
X15543991Y-12533984D02*
X15477325Y-12610174D01*
X15477325Y-12610174D02*
X15505896Y-12610174D01*
X15505896Y-12610174D02*
X15524944Y-12619698D01*
X15524944Y-12619698D02*
X15534468Y-12629222D01*
X15534468Y-12629222D02*
X15543991Y-12648269D01*
X15543991Y-12648269D02*
X15543991Y-12695888D01*
X15543991Y-12695888D02*
X15534468Y-12714936D01*
X15534468Y-12714936D02*
X15524944Y-12724460D01*
X15524944Y-12724460D02*
X15505896Y-12733984D01*
X15505896Y-12733984D02*
X15448753Y-12733984D01*
X15448753Y-12733984D02*
X15429706Y-12724460D01*
X15429706Y-12724460D02*
X15420182Y-12714936D01*
X15639229Y-12733984D02*
X15677325Y-12733984D01*
X15677325Y-12733984D02*
X15696372Y-12724460D01*
X15696372Y-12724460D02*
X15705896Y-12714936D01*
X15705896Y-12714936D02*
X15724944Y-12686365D01*
X15724944Y-12686365D02*
X15734468Y-12648269D01*
X15734468Y-12648269D02*
X15734468Y-12572079D01*
X15734468Y-12572079D02*
X15724944Y-12553031D01*
X15724944Y-12553031D02*
X15715420Y-12543508D01*
X15715420Y-12543508D02*
X15696372Y-12533984D01*
X15696372Y-12533984D02*
X15658277Y-12533984D01*
X15658277Y-12533984D02*
X15639229Y-12543508D01*
X15639229Y-12543508D02*
X15629706Y-12553031D01*
X15629706Y-12553031D02*
X15620182Y-12572079D01*
X15620182Y-12572079D02*
X15620182Y-12619698D01*
X15620182Y-12619698D02*
X15629706Y-12638746D01*
X15629706Y-12638746D02*
X15639229Y-12648269D01*
X15639229Y-12648269D02*
X15658277Y-12657793D01*
X15658277Y-12657793D02*
X15696372Y-12657793D01*
X15696372Y-12657793D02*
X15715420Y-12648269D01*
X15715420Y-12648269D02*
X15724944Y-12638746D01*
X15724944Y-12638746D02*
X15734468Y-12619698D01*
X15972563Y-12733984D02*
X15972563Y-12533984D01*
X16058277Y-12733984D02*
X16058277Y-12629222D01*
X16058277Y-12629222D02*
X16048753Y-12610174D01*
X16048753Y-12610174D02*
X16029706Y-12600650D01*
X16029706Y-12600650D02*
X16001134Y-12600650D01*
X16001134Y-12600650D02*
X15982087Y-12610174D01*
X15982087Y-12610174D02*
X15972563Y-12619698D01*
X16182087Y-12733984D02*
X16163039Y-12724460D01*
X16163039Y-12724460D02*
X16153515Y-12714936D01*
X16153515Y-12714936D02*
X16143991Y-12695888D01*
X16143991Y-12695888D02*
X16143991Y-12638746D01*
X16143991Y-12638746D02*
X16153515Y-12619698D01*
X16153515Y-12619698D02*
X16163039Y-12610174D01*
X16163039Y-12610174D02*
X16182087Y-12600650D01*
X16182087Y-12600650D02*
X16210658Y-12600650D01*
X16210658Y-12600650D02*
X16229706Y-12610174D01*
X16229706Y-12610174D02*
X16239230Y-12619698D01*
X16239230Y-12619698D02*
X16248753Y-12638746D01*
X16248753Y-12638746D02*
X16248753Y-12695888D01*
X16248753Y-12695888D02*
X16239230Y-12714936D01*
X16239230Y-12714936D02*
X16229706Y-12724460D01*
X16229706Y-12724460D02*
X16210658Y-12733984D01*
X16210658Y-12733984D02*
X16182087Y-12733984D01*
X16363039Y-12733984D02*
X16343991Y-12724460D01*
X16343991Y-12724460D02*
X16334468Y-12705412D01*
X16334468Y-12705412D02*
X16334468Y-12533984D01*
X16515420Y-12724460D02*
X16496372Y-12733984D01*
X16496372Y-12733984D02*
X16458277Y-12733984D01*
X16458277Y-12733984D02*
X16439230Y-12724460D01*
X16439230Y-12724460D02*
X16429706Y-12705412D01*
X16429706Y-12705412D02*
X16429706Y-12629222D01*
X16429706Y-12629222D02*
X16439230Y-12610174D01*
X16439230Y-12610174D02*
X16458277Y-12600650D01*
X16458277Y-12600650D02*
X16496372Y-12600650D01*
X16496372Y-12600650D02*
X16515420Y-12610174D01*
X16515420Y-12610174D02*
X16524944Y-12629222D01*
X16524944Y-12629222D02*
X16524944Y-12648269D01*
X16524944Y-12648269D02*
X16429706Y-12667317D01*
X16601134Y-12724460D02*
X16620182Y-12733984D01*
X16620182Y-12733984D02*
X16658277Y-12733984D01*
X16658277Y-12733984D02*
X16677325Y-12724460D01*
X16677325Y-12724460D02*
X16686849Y-12705412D01*
X16686849Y-12705412D02*
X16686849Y-12695888D01*
X16686849Y-12695888D02*
X16677325Y-12676841D01*
X16677325Y-12676841D02*
X16658277Y-12667317D01*
X16658277Y-12667317D02*
X16629706Y-12667317D01*
X16629706Y-12667317D02*
X16610658Y-12657793D01*
X16610658Y-12657793D02*
X16601134Y-12638746D01*
X16601134Y-12638746D02*
X16601134Y-12629222D01*
X16601134Y-12629222D02*
X16610658Y-12610174D01*
X16610658Y-12610174D02*
X16629706Y-12600650D01*
X16629706Y-12600650D02*
X16658277Y-12600650D01*
X16658277Y-12600650D02*
X16677325Y-12610174D01*
X16753515Y-12810174D02*
X16763039Y-12800650D01*
X16763039Y-12800650D02*
X16782087Y-12772079D01*
X16782087Y-12772079D02*
X16791611Y-12753031D01*
X16791611Y-12753031D02*
X16801134Y-12724460D01*
X16801134Y-12724460D02*
X16810658Y-12676841D01*
X16810658Y-12676841D02*
X16810658Y-12638746D01*
X16810658Y-12638746D02*
X16801134Y-12591127D01*
X16801134Y-12591127D02*
X16791611Y-12562555D01*
X16791611Y-12562555D02*
X16782087Y-12543508D01*
X16782087Y-12543508D02*
X16763039Y-12514936D01*
X16763039Y-12514936D02*
X16753515Y-12505412D01*
D12*
X11597500Y-12906500D02*
G75*
G02*
X11567500Y-12906500I-15000J0D01*
G01*
X11567500Y-12906500D02*
G75*
G02*
X11597500Y-12906500I15000J0D01*
G01*
D11*
X11896372Y-12797984D02*
X11915420Y-12797984D01*
X11915420Y-12797984D02*
X11934467Y-12807508D01*
X11934467Y-12807508D02*
X11943991Y-12817031D01*
X11943991Y-12817031D02*
X11953515Y-12836079D01*
X11953515Y-12836079D02*
X11963039Y-12874174D01*
X11963039Y-12874174D02*
X11963039Y-12921793D01*
X11963039Y-12921793D02*
X11953515Y-12959888D01*
X11953515Y-12959888D02*
X11943991Y-12978936D01*
X11943991Y-12978936D02*
X11934467Y-12988460D01*
X11934467Y-12988460D02*
X11915420Y-12997984D01*
X11915420Y-12997984D02*
X11896372Y-12997984D01*
X11896372Y-12997984D02*
X11877324Y-12988460D01*
X11877324Y-12988460D02*
X11867801Y-12978936D01*
X11867801Y-12978936D02*
X11858277Y-12959888D01*
X11858277Y-12959888D02*
X11848753Y-12921793D01*
X11848753Y-12921793D02*
X11848753Y-12874174D01*
X11848753Y-12874174D02*
X11858277Y-12836079D01*
X11858277Y-12836079D02*
X11867801Y-12817031D01*
X11867801Y-12817031D02*
X11877324Y-12807508D01*
X11877324Y-12807508D02*
X11896372Y-12797984D01*
X12048753Y-12978936D02*
X12058277Y-12988460D01*
X12058277Y-12988460D02*
X12048753Y-12997984D01*
X12048753Y-12997984D02*
X12039229Y-12988460D01*
X12039229Y-12988460D02*
X12048753Y-12978936D01*
X12048753Y-12978936D02*
X12048753Y-12997984D01*
X12124943Y-12797984D02*
X12248753Y-12797984D01*
X12248753Y-12797984D02*
X12182086Y-12874174D01*
X12182086Y-12874174D02*
X12210658Y-12874174D01*
X12210658Y-12874174D02*
X12229705Y-12883698D01*
X12229705Y-12883698D02*
X12239229Y-12893222D01*
X12239229Y-12893222D02*
X12248753Y-12912269D01*
X12248753Y-12912269D02*
X12248753Y-12959888D01*
X12248753Y-12959888D02*
X12239229Y-12978936D01*
X12239229Y-12978936D02*
X12229705Y-12988460D01*
X12229705Y-12988460D02*
X12210658Y-12997984D01*
X12210658Y-12997984D02*
X12153515Y-12997984D01*
X12153515Y-12997984D02*
X12134467Y-12988460D01*
X12134467Y-12988460D02*
X12124943Y-12978936D01*
X12372562Y-12797984D02*
X12391610Y-12797984D01*
X12391610Y-12797984D02*
X12410658Y-12807508D01*
X12410658Y-12807508D02*
X12420182Y-12817031D01*
X12420182Y-12817031D02*
X12429705Y-12836079D01*
X12429705Y-12836079D02*
X12439229Y-12874174D01*
X12439229Y-12874174D02*
X12439229Y-12921793D01*
X12439229Y-12921793D02*
X12429705Y-12959888D01*
X12429705Y-12959888D02*
X12420182Y-12978936D01*
X12420182Y-12978936D02*
X12410658Y-12988460D01*
X12410658Y-12988460D02*
X12391610Y-12997984D01*
X12391610Y-12997984D02*
X12372562Y-12997984D01*
X12372562Y-12997984D02*
X12353515Y-12988460D01*
X12353515Y-12988460D02*
X12343991Y-12978936D01*
X12343991Y-12978936D02*
X12334467Y-12959888D01*
X12334467Y-12959888D02*
X12324943Y-12921793D01*
X12324943Y-12921793D02*
X12324943Y-12874174D01*
X12324943Y-12874174D02*
X12334467Y-12836079D01*
X12334467Y-12836079D02*
X12343991Y-12817031D01*
X12343991Y-12817031D02*
X12353515Y-12807508D01*
X12353515Y-12807508D02*
X12372562Y-12797984D01*
X12563039Y-12797984D02*
X12582086Y-12797984D01*
X12582086Y-12797984D02*
X12601134Y-12807508D01*
X12601134Y-12807508D02*
X12610658Y-12817031D01*
X12610658Y-12817031D02*
X12620182Y-12836079D01*
X12620182Y-12836079D02*
X12629705Y-12874174D01*
X12629705Y-12874174D02*
X12629705Y-12921793D01*
X12629705Y-12921793D02*
X12620182Y-12959888D01*
X12620182Y-12959888D02*
X12610658Y-12978936D01*
X12610658Y-12978936D02*
X12601134Y-12988460D01*
X12601134Y-12988460D02*
X12582086Y-12997984D01*
X12582086Y-12997984D02*
X12563039Y-12997984D01*
X12563039Y-12997984D02*
X12543991Y-12988460D01*
X12543991Y-12988460D02*
X12534467Y-12978936D01*
X12534467Y-12978936D02*
X12524943Y-12959888D01*
X12524943Y-12959888D02*
X12515420Y-12921793D01*
X12515420Y-12921793D02*
X12515420Y-12874174D01*
X12515420Y-12874174D02*
X12524943Y-12836079D01*
X12524943Y-12836079D02*
X12534467Y-12817031D01*
X12534467Y-12817031D02*
X12543991Y-12807508D01*
X12543991Y-12807508D02*
X12563039Y-12797984D01*
X12715420Y-12997984D02*
X12715420Y-12864650D01*
X12715420Y-12883698D02*
X12724943Y-12874174D01*
X12724943Y-12874174D02*
X12743991Y-12864650D01*
X12743991Y-12864650D02*
X12772563Y-12864650D01*
X12772563Y-12864650D02*
X12791610Y-12874174D01*
X12791610Y-12874174D02*
X12801134Y-12893222D01*
X12801134Y-12893222D02*
X12801134Y-12997984D01*
X12801134Y-12893222D02*
X12810658Y-12874174D01*
X12810658Y-12874174D02*
X12829705Y-12864650D01*
X12829705Y-12864650D02*
X12858277Y-12864650D01*
X12858277Y-12864650D02*
X12877324Y-12874174D01*
X12877324Y-12874174D02*
X12886848Y-12893222D01*
X12886848Y-12893222D02*
X12886848Y-12997984D01*
X12982086Y-12997984D02*
X12982086Y-12864650D01*
X12982086Y-12883698D02*
X12991610Y-12874174D01*
X12991610Y-12874174D02*
X13010658Y-12864650D01*
X13010658Y-12864650D02*
X13039229Y-12864650D01*
X13039229Y-12864650D02*
X13058277Y-12874174D01*
X13058277Y-12874174D02*
X13067801Y-12893222D01*
X13067801Y-12893222D02*
X13067801Y-12997984D01*
X13067801Y-12893222D02*
X13077324Y-12874174D01*
X13077324Y-12874174D02*
X13096372Y-12864650D01*
X13096372Y-12864650D02*
X13124943Y-12864650D01*
X13124943Y-12864650D02*
X13143991Y-12874174D01*
X13143991Y-12874174D02*
X13153515Y-12893222D01*
X13153515Y-12893222D02*
X13153515Y-12997984D01*
X13543991Y-12788460D02*
X13372563Y-13045603D01*
X13801134Y-12797984D02*
X13820182Y-12797984D01*
X13820182Y-12797984D02*
X13839229Y-12807508D01*
X13839229Y-12807508D02*
X13848753Y-12817031D01*
X13848753Y-12817031D02*
X13858277Y-12836079D01*
X13858277Y-12836079D02*
X13867801Y-12874174D01*
X13867801Y-12874174D02*
X13867801Y-12921793D01*
X13867801Y-12921793D02*
X13858277Y-12959888D01*
X13858277Y-12959888D02*
X13848753Y-12978936D01*
X13848753Y-12978936D02*
X13839229Y-12988460D01*
X13839229Y-12988460D02*
X13820182Y-12997984D01*
X13820182Y-12997984D02*
X13801134Y-12997984D01*
X13801134Y-12997984D02*
X13782086Y-12988460D01*
X13782086Y-12988460D02*
X13772563Y-12978936D01*
X13772563Y-12978936D02*
X13763039Y-12959888D01*
X13763039Y-12959888D02*
X13753515Y-12921793D01*
X13753515Y-12921793D02*
X13753515Y-12874174D01*
X13753515Y-12874174D02*
X13763039Y-12836079D01*
X13763039Y-12836079D02*
X13772563Y-12817031D01*
X13772563Y-12817031D02*
X13782086Y-12807508D01*
X13782086Y-12807508D02*
X13801134Y-12797984D01*
X13953515Y-12978936D02*
X13963039Y-12988460D01*
X13963039Y-12988460D02*
X13953515Y-12997984D01*
X13953515Y-12997984D02*
X13943991Y-12988460D01*
X13943991Y-12988460D02*
X13953515Y-12978936D01*
X13953515Y-12978936D02*
X13953515Y-12997984D01*
X14086848Y-12797984D02*
X14105896Y-12797984D01*
X14105896Y-12797984D02*
X14124944Y-12807508D01*
X14124944Y-12807508D02*
X14134467Y-12817031D01*
X14134467Y-12817031D02*
X14143991Y-12836079D01*
X14143991Y-12836079D02*
X14153515Y-12874174D01*
X14153515Y-12874174D02*
X14153515Y-12921793D01*
X14153515Y-12921793D02*
X14143991Y-12959888D01*
X14143991Y-12959888D02*
X14134467Y-12978936D01*
X14134467Y-12978936D02*
X14124944Y-12988460D01*
X14124944Y-12988460D02*
X14105896Y-12997984D01*
X14105896Y-12997984D02*
X14086848Y-12997984D01*
X14086848Y-12997984D02*
X14067801Y-12988460D01*
X14067801Y-12988460D02*
X14058277Y-12978936D01*
X14058277Y-12978936D02*
X14048753Y-12959888D01*
X14048753Y-12959888D02*
X14039229Y-12921793D01*
X14039229Y-12921793D02*
X14039229Y-12874174D01*
X14039229Y-12874174D02*
X14048753Y-12836079D01*
X14048753Y-12836079D02*
X14058277Y-12817031D01*
X14058277Y-12817031D02*
X14067801Y-12807508D01*
X14067801Y-12807508D02*
X14086848Y-12797984D01*
X14343991Y-12997984D02*
X14229706Y-12997984D01*
X14286848Y-12997984D02*
X14286848Y-12797984D01*
X14286848Y-12797984D02*
X14267801Y-12826555D01*
X14267801Y-12826555D02*
X14248753Y-12845603D01*
X14248753Y-12845603D02*
X14229706Y-12855127D01*
X14534467Y-12997984D02*
X14420182Y-12997984D01*
X14477325Y-12997984D02*
X14477325Y-12797984D01*
X14477325Y-12797984D02*
X14458277Y-12826555D01*
X14458277Y-12826555D02*
X14439229Y-12845603D01*
X14439229Y-12845603D02*
X14420182Y-12855127D01*
X14648753Y-12883698D02*
X14629706Y-12874174D01*
X14629706Y-12874174D02*
X14620182Y-12864650D01*
X14620182Y-12864650D02*
X14610658Y-12845603D01*
X14610658Y-12845603D02*
X14610658Y-12836079D01*
X14610658Y-12836079D02*
X14620182Y-12817031D01*
X14620182Y-12817031D02*
X14629706Y-12807508D01*
X14629706Y-12807508D02*
X14648753Y-12797984D01*
X14648753Y-12797984D02*
X14686848Y-12797984D01*
X14686848Y-12797984D02*
X14705896Y-12807508D01*
X14705896Y-12807508D02*
X14715420Y-12817031D01*
X14715420Y-12817031D02*
X14724944Y-12836079D01*
X14724944Y-12836079D02*
X14724944Y-12845603D01*
X14724944Y-12845603D02*
X14715420Y-12864650D01*
X14715420Y-12864650D02*
X14705896Y-12874174D01*
X14705896Y-12874174D02*
X14686848Y-12883698D01*
X14686848Y-12883698D02*
X14648753Y-12883698D01*
X14648753Y-12883698D02*
X14629706Y-12893222D01*
X14629706Y-12893222D02*
X14620182Y-12902746D01*
X14620182Y-12902746D02*
X14610658Y-12921793D01*
X14610658Y-12921793D02*
X14610658Y-12959888D01*
X14610658Y-12959888D02*
X14620182Y-12978936D01*
X14620182Y-12978936D02*
X14629706Y-12988460D01*
X14629706Y-12988460D02*
X14648753Y-12997984D01*
X14648753Y-12997984D02*
X14686848Y-12997984D01*
X14686848Y-12997984D02*
X14705896Y-12988460D01*
X14705896Y-12988460D02*
X14715420Y-12978936D01*
X14715420Y-12978936D02*
X14724944Y-12959888D01*
X14724944Y-12959888D02*
X14724944Y-12921793D01*
X14724944Y-12921793D02*
X14715420Y-12902746D01*
X14715420Y-12902746D02*
X14705896Y-12893222D01*
X14705896Y-12893222D02*
X14686848Y-12883698D01*
X14801134Y-12797984D02*
X14801134Y-12836079D01*
X14877325Y-12797984D02*
X14877325Y-12836079D01*
X15172563Y-13074174D02*
X15163039Y-13064650D01*
X15163039Y-13064650D02*
X15143991Y-13036079D01*
X15143991Y-13036079D02*
X15134468Y-13017031D01*
X15134468Y-13017031D02*
X15124944Y-12988460D01*
X15124944Y-12988460D02*
X15115420Y-12940841D01*
X15115420Y-12940841D02*
X15115420Y-12902746D01*
X15115420Y-12902746D02*
X15124944Y-12855127D01*
X15124944Y-12855127D02*
X15134468Y-12826555D01*
X15134468Y-12826555D02*
X15143991Y-12807508D01*
X15143991Y-12807508D02*
X15163039Y-12778936D01*
X15163039Y-12778936D02*
X15172563Y-12769412D01*
X15353515Y-12997984D02*
X15239229Y-12997984D01*
X15296372Y-12997984D02*
X15296372Y-12797984D01*
X15296372Y-12797984D02*
X15277325Y-12826555D01*
X15277325Y-12826555D02*
X15258277Y-12845603D01*
X15258277Y-12845603D02*
X15239229Y-12855127D01*
X15420182Y-12797984D02*
X15543991Y-12797984D01*
X15543991Y-12797984D02*
X15477325Y-12874174D01*
X15477325Y-12874174D02*
X15505896Y-12874174D01*
X15505896Y-12874174D02*
X15524944Y-12883698D01*
X15524944Y-12883698D02*
X15534468Y-12893222D01*
X15534468Y-12893222D02*
X15543991Y-12912269D01*
X15543991Y-12912269D02*
X15543991Y-12959888D01*
X15543991Y-12959888D02*
X15534468Y-12978936D01*
X15534468Y-12978936D02*
X15524944Y-12988460D01*
X15524944Y-12988460D02*
X15505896Y-12997984D01*
X15505896Y-12997984D02*
X15448753Y-12997984D01*
X15448753Y-12997984D02*
X15429706Y-12988460D01*
X15429706Y-12988460D02*
X15420182Y-12978936D01*
X15667801Y-12797984D02*
X15686849Y-12797984D01*
X15686849Y-12797984D02*
X15705896Y-12807508D01*
X15705896Y-12807508D02*
X15715420Y-12817031D01*
X15715420Y-12817031D02*
X15724944Y-12836079D01*
X15724944Y-12836079D02*
X15734468Y-12874174D01*
X15734468Y-12874174D02*
X15734468Y-12921793D01*
X15734468Y-12921793D02*
X15724944Y-12959888D01*
X15724944Y-12959888D02*
X15715420Y-12978936D01*
X15715420Y-12978936D02*
X15705896Y-12988460D01*
X15705896Y-12988460D02*
X15686849Y-12997984D01*
X15686849Y-12997984D02*
X15667801Y-12997984D01*
X15667801Y-12997984D02*
X15648753Y-12988460D01*
X15648753Y-12988460D02*
X15639229Y-12978936D01*
X15639229Y-12978936D02*
X15629706Y-12959888D01*
X15629706Y-12959888D02*
X15620182Y-12921793D01*
X15620182Y-12921793D02*
X15620182Y-12874174D01*
X15620182Y-12874174D02*
X15629706Y-12836079D01*
X15629706Y-12836079D02*
X15639229Y-12817031D01*
X15639229Y-12817031D02*
X15648753Y-12807508D01*
X15648753Y-12807508D02*
X15667801Y-12797984D01*
X15972563Y-12997984D02*
X15972563Y-12797984D01*
X16058277Y-12997984D02*
X16058277Y-12893222D01*
X16058277Y-12893222D02*
X16048753Y-12874174D01*
X16048753Y-12874174D02*
X16029706Y-12864650D01*
X16029706Y-12864650D02*
X16001134Y-12864650D01*
X16001134Y-12864650D02*
X15982087Y-12874174D01*
X15982087Y-12874174D02*
X15972563Y-12883698D01*
X16182087Y-12997984D02*
X16163039Y-12988460D01*
X16163039Y-12988460D02*
X16153515Y-12978936D01*
X16153515Y-12978936D02*
X16143991Y-12959888D01*
X16143991Y-12959888D02*
X16143991Y-12902746D01*
X16143991Y-12902746D02*
X16153515Y-12883698D01*
X16153515Y-12883698D02*
X16163039Y-12874174D01*
X16163039Y-12874174D02*
X16182087Y-12864650D01*
X16182087Y-12864650D02*
X16210658Y-12864650D01*
X16210658Y-12864650D02*
X16229706Y-12874174D01*
X16229706Y-12874174D02*
X16239230Y-12883698D01*
X16239230Y-12883698D02*
X16248753Y-12902746D01*
X16248753Y-12902746D02*
X16248753Y-12959888D01*
X16248753Y-12959888D02*
X16239230Y-12978936D01*
X16239230Y-12978936D02*
X16229706Y-12988460D01*
X16229706Y-12988460D02*
X16210658Y-12997984D01*
X16210658Y-12997984D02*
X16182087Y-12997984D01*
X16363039Y-12997984D02*
X16343991Y-12988460D01*
X16343991Y-12988460D02*
X16334468Y-12969412D01*
X16334468Y-12969412D02*
X16334468Y-12797984D01*
X16515420Y-12988460D02*
X16496372Y-12997984D01*
X16496372Y-12997984D02*
X16458277Y-12997984D01*
X16458277Y-12997984D02*
X16439230Y-12988460D01*
X16439230Y-12988460D02*
X16429706Y-12969412D01*
X16429706Y-12969412D02*
X16429706Y-12893222D01*
X16429706Y-12893222D02*
X16439230Y-12874174D01*
X16439230Y-12874174D02*
X16458277Y-12864650D01*
X16458277Y-12864650D02*
X16496372Y-12864650D01*
X16496372Y-12864650D02*
X16515420Y-12874174D01*
X16515420Y-12874174D02*
X16524944Y-12893222D01*
X16524944Y-12893222D02*
X16524944Y-12912269D01*
X16524944Y-12912269D02*
X16429706Y-12931317D01*
X16601134Y-12988460D02*
X16620182Y-12997984D01*
X16620182Y-12997984D02*
X16658277Y-12997984D01*
X16658277Y-12997984D02*
X16677325Y-12988460D01*
X16677325Y-12988460D02*
X16686849Y-12969412D01*
X16686849Y-12969412D02*
X16686849Y-12959888D01*
X16686849Y-12959888D02*
X16677325Y-12940841D01*
X16677325Y-12940841D02*
X16658277Y-12931317D01*
X16658277Y-12931317D02*
X16629706Y-12931317D01*
X16629706Y-12931317D02*
X16610658Y-12921793D01*
X16610658Y-12921793D02*
X16601134Y-12902746D01*
X16601134Y-12902746D02*
X16601134Y-12893222D01*
X16601134Y-12893222D02*
X16610658Y-12874174D01*
X16610658Y-12874174D02*
X16629706Y-12864650D01*
X16629706Y-12864650D02*
X16658277Y-12864650D01*
X16658277Y-12864650D02*
X16677325Y-12874174D01*
X16753515Y-13074174D02*
X16763039Y-13064650D01*
X16763039Y-13064650D02*
X16782087Y-13036079D01*
X16782087Y-13036079D02*
X16791611Y-13017031D01*
X16791611Y-13017031D02*
X16801134Y-12988460D01*
X16801134Y-12988460D02*
X16810658Y-12940841D01*
X16810658Y-12940841D02*
X16810658Y-12902746D01*
X16810658Y-12902746D02*
X16801134Y-12855127D01*
X16801134Y-12855127D02*
X16791611Y-12826555D01*
X16791611Y-12826555D02*
X16782087Y-12807508D01*
X16782087Y-12807508D02*
X16763039Y-12778936D01*
X16763039Y-12778936D02*
X16753515Y-12769412D01*
D12*
X11567500Y-13140500D02*
X11567500Y-13200500D01*
X11537500Y-13170500D02*
X11597500Y-13170500D01*
D11*
X11896372Y-13061984D02*
X11915420Y-13061984D01*
X11915420Y-13061984D02*
X11934467Y-13071508D01*
X11934467Y-13071508D02*
X11943991Y-13081031D01*
X11943991Y-13081031D02*
X11953515Y-13100079D01*
X11953515Y-13100079D02*
X11963039Y-13138174D01*
X11963039Y-13138174D02*
X11963039Y-13185793D01*
X11963039Y-13185793D02*
X11953515Y-13223888D01*
X11953515Y-13223888D02*
X11943991Y-13242936D01*
X11943991Y-13242936D02*
X11934467Y-13252460D01*
X11934467Y-13252460D02*
X11915420Y-13261984D01*
X11915420Y-13261984D02*
X11896372Y-13261984D01*
X11896372Y-13261984D02*
X11877324Y-13252460D01*
X11877324Y-13252460D02*
X11867801Y-13242936D01*
X11867801Y-13242936D02*
X11858277Y-13223888D01*
X11858277Y-13223888D02*
X11848753Y-13185793D01*
X11848753Y-13185793D02*
X11848753Y-13138174D01*
X11848753Y-13138174D02*
X11858277Y-13100079D01*
X11858277Y-13100079D02*
X11867801Y-13081031D01*
X11867801Y-13081031D02*
X11877324Y-13071508D01*
X11877324Y-13071508D02*
X11896372Y-13061984D01*
X12048753Y-13242936D02*
X12058277Y-13252460D01*
X12058277Y-13252460D02*
X12048753Y-13261984D01*
X12048753Y-13261984D02*
X12039229Y-13252460D01*
X12039229Y-13252460D02*
X12048753Y-13242936D01*
X12048753Y-13242936D02*
X12048753Y-13261984D01*
X12229705Y-13061984D02*
X12191610Y-13061984D01*
X12191610Y-13061984D02*
X12172562Y-13071508D01*
X12172562Y-13071508D02*
X12163039Y-13081031D01*
X12163039Y-13081031D02*
X12143991Y-13109603D01*
X12143991Y-13109603D02*
X12134467Y-13147698D01*
X12134467Y-13147698D02*
X12134467Y-13223888D01*
X12134467Y-13223888D02*
X12143991Y-13242936D01*
X12143991Y-13242936D02*
X12153515Y-13252460D01*
X12153515Y-13252460D02*
X12172562Y-13261984D01*
X12172562Y-13261984D02*
X12210658Y-13261984D01*
X12210658Y-13261984D02*
X12229705Y-13252460D01*
X12229705Y-13252460D02*
X12239229Y-13242936D01*
X12239229Y-13242936D02*
X12248753Y-13223888D01*
X12248753Y-13223888D02*
X12248753Y-13176269D01*
X12248753Y-13176269D02*
X12239229Y-13157222D01*
X12239229Y-13157222D02*
X12229705Y-13147698D01*
X12229705Y-13147698D02*
X12210658Y-13138174D01*
X12210658Y-13138174D02*
X12172562Y-13138174D01*
X12172562Y-13138174D02*
X12153515Y-13147698D01*
X12153515Y-13147698D02*
X12143991Y-13157222D01*
X12143991Y-13157222D02*
X12134467Y-13176269D01*
X12372562Y-13061984D02*
X12391610Y-13061984D01*
X12391610Y-13061984D02*
X12410658Y-13071508D01*
X12410658Y-13071508D02*
X12420182Y-13081031D01*
X12420182Y-13081031D02*
X12429705Y-13100079D01*
X12429705Y-13100079D02*
X12439229Y-13138174D01*
X12439229Y-13138174D02*
X12439229Y-13185793D01*
X12439229Y-13185793D02*
X12429705Y-13223888D01*
X12429705Y-13223888D02*
X12420182Y-13242936D01*
X12420182Y-13242936D02*
X12410658Y-13252460D01*
X12410658Y-13252460D02*
X12391610Y-13261984D01*
X12391610Y-13261984D02*
X12372562Y-13261984D01*
X12372562Y-13261984D02*
X12353515Y-13252460D01*
X12353515Y-13252460D02*
X12343991Y-13242936D01*
X12343991Y-13242936D02*
X12334467Y-13223888D01*
X12334467Y-13223888D02*
X12324943Y-13185793D01*
X12324943Y-13185793D02*
X12324943Y-13138174D01*
X12324943Y-13138174D02*
X12334467Y-13100079D01*
X12334467Y-13100079D02*
X12343991Y-13081031D01*
X12343991Y-13081031D02*
X12353515Y-13071508D01*
X12353515Y-13071508D02*
X12372562Y-13061984D01*
X12563039Y-13061984D02*
X12582086Y-13061984D01*
X12582086Y-13061984D02*
X12601134Y-13071508D01*
X12601134Y-13071508D02*
X12610658Y-13081031D01*
X12610658Y-13081031D02*
X12620182Y-13100079D01*
X12620182Y-13100079D02*
X12629705Y-13138174D01*
X12629705Y-13138174D02*
X12629705Y-13185793D01*
X12629705Y-13185793D02*
X12620182Y-13223888D01*
X12620182Y-13223888D02*
X12610658Y-13242936D01*
X12610658Y-13242936D02*
X12601134Y-13252460D01*
X12601134Y-13252460D02*
X12582086Y-13261984D01*
X12582086Y-13261984D02*
X12563039Y-13261984D01*
X12563039Y-13261984D02*
X12543991Y-13252460D01*
X12543991Y-13252460D02*
X12534467Y-13242936D01*
X12534467Y-13242936D02*
X12524943Y-13223888D01*
X12524943Y-13223888D02*
X12515420Y-13185793D01*
X12515420Y-13185793D02*
X12515420Y-13138174D01*
X12515420Y-13138174D02*
X12524943Y-13100079D01*
X12524943Y-13100079D02*
X12534467Y-13081031D01*
X12534467Y-13081031D02*
X12543991Y-13071508D01*
X12543991Y-13071508D02*
X12563039Y-13061984D01*
X12715420Y-13261984D02*
X12715420Y-13128650D01*
X12715420Y-13147698D02*
X12724943Y-13138174D01*
X12724943Y-13138174D02*
X12743991Y-13128650D01*
X12743991Y-13128650D02*
X12772563Y-13128650D01*
X12772563Y-13128650D02*
X12791610Y-13138174D01*
X12791610Y-13138174D02*
X12801134Y-13157222D01*
X12801134Y-13157222D02*
X12801134Y-13261984D01*
X12801134Y-13157222D02*
X12810658Y-13138174D01*
X12810658Y-13138174D02*
X12829705Y-13128650D01*
X12829705Y-13128650D02*
X12858277Y-13128650D01*
X12858277Y-13128650D02*
X12877324Y-13138174D01*
X12877324Y-13138174D02*
X12886848Y-13157222D01*
X12886848Y-13157222D02*
X12886848Y-13261984D01*
X12982086Y-13261984D02*
X12982086Y-13128650D01*
X12982086Y-13147698D02*
X12991610Y-13138174D01*
X12991610Y-13138174D02*
X13010658Y-13128650D01*
X13010658Y-13128650D02*
X13039229Y-13128650D01*
X13039229Y-13128650D02*
X13058277Y-13138174D01*
X13058277Y-13138174D02*
X13067801Y-13157222D01*
X13067801Y-13157222D02*
X13067801Y-13261984D01*
X13067801Y-13157222D02*
X13077324Y-13138174D01*
X13077324Y-13138174D02*
X13096372Y-13128650D01*
X13096372Y-13128650D02*
X13124943Y-13128650D01*
X13124943Y-13128650D02*
X13143991Y-13138174D01*
X13143991Y-13138174D02*
X13153515Y-13157222D01*
X13153515Y-13157222D02*
X13153515Y-13261984D01*
X13543991Y-13052460D02*
X13372563Y-13309603D01*
X13801134Y-13061984D02*
X13820182Y-13061984D01*
X13820182Y-13061984D02*
X13839229Y-13071508D01*
X13839229Y-13071508D02*
X13848753Y-13081031D01*
X13848753Y-13081031D02*
X13858277Y-13100079D01*
X13858277Y-13100079D02*
X13867801Y-13138174D01*
X13867801Y-13138174D02*
X13867801Y-13185793D01*
X13867801Y-13185793D02*
X13858277Y-13223888D01*
X13858277Y-13223888D02*
X13848753Y-13242936D01*
X13848753Y-13242936D02*
X13839229Y-13252460D01*
X13839229Y-13252460D02*
X13820182Y-13261984D01*
X13820182Y-13261984D02*
X13801134Y-13261984D01*
X13801134Y-13261984D02*
X13782086Y-13252460D01*
X13782086Y-13252460D02*
X13772563Y-13242936D01*
X13772563Y-13242936D02*
X13763039Y-13223888D01*
X13763039Y-13223888D02*
X13753515Y-13185793D01*
X13753515Y-13185793D02*
X13753515Y-13138174D01*
X13753515Y-13138174D02*
X13763039Y-13100079D01*
X13763039Y-13100079D02*
X13772563Y-13081031D01*
X13772563Y-13081031D02*
X13782086Y-13071508D01*
X13782086Y-13071508D02*
X13801134Y-13061984D01*
X13953515Y-13242936D02*
X13963039Y-13252460D01*
X13963039Y-13252460D02*
X13953515Y-13261984D01*
X13953515Y-13261984D02*
X13943991Y-13252460D01*
X13943991Y-13252460D02*
X13953515Y-13242936D01*
X13953515Y-13242936D02*
X13953515Y-13261984D01*
X14086848Y-13061984D02*
X14105896Y-13061984D01*
X14105896Y-13061984D02*
X14124944Y-13071508D01*
X14124944Y-13071508D02*
X14134467Y-13081031D01*
X14134467Y-13081031D02*
X14143991Y-13100079D01*
X14143991Y-13100079D02*
X14153515Y-13138174D01*
X14153515Y-13138174D02*
X14153515Y-13185793D01*
X14153515Y-13185793D02*
X14143991Y-13223888D01*
X14143991Y-13223888D02*
X14134467Y-13242936D01*
X14134467Y-13242936D02*
X14124944Y-13252460D01*
X14124944Y-13252460D02*
X14105896Y-13261984D01*
X14105896Y-13261984D02*
X14086848Y-13261984D01*
X14086848Y-13261984D02*
X14067801Y-13252460D01*
X14067801Y-13252460D02*
X14058277Y-13242936D01*
X14058277Y-13242936D02*
X14048753Y-13223888D01*
X14048753Y-13223888D02*
X14039229Y-13185793D01*
X14039229Y-13185793D02*
X14039229Y-13138174D01*
X14039229Y-13138174D02*
X14048753Y-13100079D01*
X14048753Y-13100079D02*
X14058277Y-13081031D01*
X14058277Y-13081031D02*
X14067801Y-13071508D01*
X14067801Y-13071508D02*
X14086848Y-13061984D01*
X14229706Y-13081031D02*
X14239229Y-13071508D01*
X14239229Y-13071508D02*
X14258277Y-13061984D01*
X14258277Y-13061984D02*
X14305896Y-13061984D01*
X14305896Y-13061984D02*
X14324944Y-13071508D01*
X14324944Y-13071508D02*
X14334467Y-13081031D01*
X14334467Y-13081031D02*
X14343991Y-13100079D01*
X14343991Y-13100079D02*
X14343991Y-13119127D01*
X14343991Y-13119127D02*
X14334467Y-13147698D01*
X14334467Y-13147698D02*
X14220182Y-13261984D01*
X14220182Y-13261984D02*
X14343991Y-13261984D01*
X14410658Y-13061984D02*
X14534467Y-13061984D01*
X14534467Y-13061984D02*
X14467801Y-13138174D01*
X14467801Y-13138174D02*
X14496372Y-13138174D01*
X14496372Y-13138174D02*
X14515420Y-13147698D01*
X14515420Y-13147698D02*
X14524944Y-13157222D01*
X14524944Y-13157222D02*
X14534467Y-13176269D01*
X14534467Y-13176269D02*
X14534467Y-13223888D01*
X14534467Y-13223888D02*
X14524944Y-13242936D01*
X14524944Y-13242936D02*
X14515420Y-13252460D01*
X14515420Y-13252460D02*
X14496372Y-13261984D01*
X14496372Y-13261984D02*
X14439229Y-13261984D01*
X14439229Y-13261984D02*
X14420182Y-13252460D01*
X14420182Y-13252460D02*
X14410658Y-13242936D01*
X14705896Y-13061984D02*
X14667801Y-13061984D01*
X14667801Y-13061984D02*
X14648753Y-13071508D01*
X14648753Y-13071508D02*
X14639229Y-13081031D01*
X14639229Y-13081031D02*
X14620182Y-13109603D01*
X14620182Y-13109603D02*
X14610658Y-13147698D01*
X14610658Y-13147698D02*
X14610658Y-13223888D01*
X14610658Y-13223888D02*
X14620182Y-13242936D01*
X14620182Y-13242936D02*
X14629706Y-13252460D01*
X14629706Y-13252460D02*
X14648753Y-13261984D01*
X14648753Y-13261984D02*
X14686848Y-13261984D01*
X14686848Y-13261984D02*
X14705896Y-13252460D01*
X14705896Y-13252460D02*
X14715420Y-13242936D01*
X14715420Y-13242936D02*
X14724944Y-13223888D01*
X14724944Y-13223888D02*
X14724944Y-13176269D01*
X14724944Y-13176269D02*
X14715420Y-13157222D01*
X14715420Y-13157222D02*
X14705896Y-13147698D01*
X14705896Y-13147698D02*
X14686848Y-13138174D01*
X14686848Y-13138174D02*
X14648753Y-13138174D01*
X14648753Y-13138174D02*
X14629706Y-13147698D01*
X14629706Y-13147698D02*
X14620182Y-13157222D01*
X14620182Y-13157222D02*
X14610658Y-13176269D01*
X14801134Y-13061984D02*
X14801134Y-13100079D01*
X14877325Y-13061984D02*
X14877325Y-13100079D01*
X15172563Y-13338174D02*
X15163039Y-13328650D01*
X15163039Y-13328650D02*
X15143991Y-13300079D01*
X15143991Y-13300079D02*
X15134468Y-13281031D01*
X15134468Y-13281031D02*
X15124944Y-13252460D01*
X15124944Y-13252460D02*
X15115420Y-13204841D01*
X15115420Y-13204841D02*
X15115420Y-13166746D01*
X15115420Y-13166746D02*
X15124944Y-13119127D01*
X15124944Y-13119127D02*
X15134468Y-13090555D01*
X15134468Y-13090555D02*
X15143991Y-13071508D01*
X15143991Y-13071508D02*
X15163039Y-13042936D01*
X15163039Y-13042936D02*
X15172563Y-13033412D01*
X15286848Y-13061984D02*
X15305896Y-13061984D01*
X15305896Y-13061984D02*
X15324944Y-13071508D01*
X15324944Y-13071508D02*
X15334468Y-13081031D01*
X15334468Y-13081031D02*
X15343991Y-13100079D01*
X15343991Y-13100079D02*
X15353515Y-13138174D01*
X15353515Y-13138174D02*
X15353515Y-13185793D01*
X15353515Y-13185793D02*
X15343991Y-13223888D01*
X15343991Y-13223888D02*
X15334468Y-13242936D01*
X15334468Y-13242936D02*
X15324944Y-13252460D01*
X15324944Y-13252460D02*
X15305896Y-13261984D01*
X15305896Y-13261984D02*
X15286848Y-13261984D01*
X15286848Y-13261984D02*
X15267801Y-13252460D01*
X15267801Y-13252460D02*
X15258277Y-13242936D01*
X15258277Y-13242936D02*
X15248753Y-13223888D01*
X15248753Y-13223888D02*
X15239229Y-13185793D01*
X15239229Y-13185793D02*
X15239229Y-13138174D01*
X15239229Y-13138174D02*
X15248753Y-13100079D01*
X15248753Y-13100079D02*
X15258277Y-13081031D01*
X15258277Y-13081031D02*
X15267801Y-13071508D01*
X15267801Y-13071508D02*
X15286848Y-13061984D01*
X15591610Y-13261984D02*
X15591610Y-13061984D01*
X15677325Y-13261984D02*
X15677325Y-13157222D01*
X15677325Y-13157222D02*
X15667801Y-13138174D01*
X15667801Y-13138174D02*
X15648753Y-13128650D01*
X15648753Y-13128650D02*
X15620182Y-13128650D01*
X15620182Y-13128650D02*
X15601134Y-13138174D01*
X15601134Y-13138174D02*
X15591610Y-13147698D01*
X15801134Y-13261984D02*
X15782087Y-13252460D01*
X15782087Y-13252460D02*
X15772563Y-13242936D01*
X15772563Y-13242936D02*
X15763039Y-13223888D01*
X15763039Y-13223888D02*
X15763039Y-13166746D01*
X15763039Y-13166746D02*
X15772563Y-13147698D01*
X15772563Y-13147698D02*
X15782087Y-13138174D01*
X15782087Y-13138174D02*
X15801134Y-13128650D01*
X15801134Y-13128650D02*
X15829706Y-13128650D01*
X15829706Y-13128650D02*
X15848753Y-13138174D01*
X15848753Y-13138174D02*
X15858277Y-13147698D01*
X15858277Y-13147698D02*
X15867801Y-13166746D01*
X15867801Y-13166746D02*
X15867801Y-13223888D01*
X15867801Y-13223888D02*
X15858277Y-13242936D01*
X15858277Y-13242936D02*
X15848753Y-13252460D01*
X15848753Y-13252460D02*
X15829706Y-13261984D01*
X15829706Y-13261984D02*
X15801134Y-13261984D01*
X15982087Y-13261984D02*
X15963039Y-13252460D01*
X15963039Y-13252460D02*
X15953515Y-13233412D01*
X15953515Y-13233412D02*
X15953515Y-13061984D01*
X16134468Y-13252460D02*
X16115420Y-13261984D01*
X16115420Y-13261984D02*
X16077325Y-13261984D01*
X16077325Y-13261984D02*
X16058277Y-13252460D01*
X16058277Y-13252460D02*
X16048753Y-13233412D01*
X16048753Y-13233412D02*
X16048753Y-13157222D01*
X16048753Y-13157222D02*
X16058277Y-13138174D01*
X16058277Y-13138174D02*
X16077325Y-13128650D01*
X16077325Y-13128650D02*
X16115420Y-13128650D01*
X16115420Y-13128650D02*
X16134468Y-13138174D01*
X16134468Y-13138174D02*
X16143991Y-13157222D01*
X16143991Y-13157222D02*
X16143991Y-13176269D01*
X16143991Y-13176269D02*
X16048753Y-13195317D01*
X16220182Y-13252460D02*
X16239230Y-13261984D01*
X16239230Y-13261984D02*
X16277325Y-13261984D01*
X16277325Y-13261984D02*
X16296372Y-13252460D01*
X16296372Y-13252460D02*
X16305896Y-13233412D01*
X16305896Y-13233412D02*
X16305896Y-13223888D01*
X16305896Y-13223888D02*
X16296372Y-13204841D01*
X16296372Y-13204841D02*
X16277325Y-13195317D01*
X16277325Y-13195317D02*
X16248753Y-13195317D01*
X16248753Y-13195317D02*
X16229706Y-13185793D01*
X16229706Y-13185793D02*
X16220182Y-13166746D01*
X16220182Y-13166746D02*
X16220182Y-13157222D01*
X16220182Y-13157222D02*
X16229706Y-13138174D01*
X16229706Y-13138174D02*
X16248753Y-13128650D01*
X16248753Y-13128650D02*
X16277325Y-13128650D01*
X16277325Y-13128650D02*
X16296372Y-13138174D01*
X16543992Y-13185793D02*
X16696373Y-13185793D01*
X16620182Y-13261984D02*
X16620182Y-13109603D01*
X17048754Y-13261984D02*
X16934468Y-13261984D01*
X16991611Y-13261984D02*
X16991611Y-13061984D01*
X16991611Y-13061984D02*
X16972563Y-13090555D01*
X16972563Y-13090555D02*
X16953515Y-13109603D01*
X16953515Y-13109603D02*
X16934468Y-13119127D01*
X17124944Y-13081031D02*
X17134468Y-13071508D01*
X17134468Y-13071508D02*
X17153515Y-13061984D01*
X17153515Y-13061984D02*
X17201135Y-13061984D01*
X17201135Y-13061984D02*
X17220182Y-13071508D01*
X17220182Y-13071508D02*
X17229706Y-13081031D01*
X17229706Y-13081031D02*
X17239230Y-13100079D01*
X17239230Y-13100079D02*
X17239230Y-13119127D01*
X17239230Y-13119127D02*
X17229706Y-13147698D01*
X17229706Y-13147698D02*
X17115420Y-13261984D01*
X17115420Y-13261984D02*
X17239230Y-13261984D01*
X17467801Y-13252460D02*
X17486849Y-13261984D01*
X17486849Y-13261984D02*
X17524944Y-13261984D01*
X17524944Y-13261984D02*
X17543992Y-13252460D01*
X17543992Y-13252460D02*
X17553516Y-13233412D01*
X17553516Y-13233412D02*
X17553516Y-13223888D01*
X17553516Y-13223888D02*
X17543992Y-13204841D01*
X17543992Y-13204841D02*
X17524944Y-13195317D01*
X17524944Y-13195317D02*
X17496373Y-13195317D01*
X17496373Y-13195317D02*
X17477325Y-13185793D01*
X17477325Y-13185793D02*
X17467801Y-13166746D01*
X17467801Y-13166746D02*
X17467801Y-13157222D01*
X17467801Y-13157222D02*
X17477325Y-13138174D01*
X17477325Y-13138174D02*
X17496373Y-13128650D01*
X17496373Y-13128650D02*
X17524944Y-13128650D01*
X17524944Y-13128650D02*
X17543992Y-13138174D01*
X17667801Y-13261984D02*
X17648754Y-13252460D01*
X17648754Y-13252460D02*
X17639230Y-13233412D01*
X17639230Y-13233412D02*
X17639230Y-13061984D01*
X17772563Y-13261984D02*
X17753516Y-13252460D01*
X17753516Y-13252460D02*
X17743992Y-13242936D01*
X17743992Y-13242936D02*
X17734468Y-13223888D01*
X17734468Y-13223888D02*
X17734468Y-13166746D01*
X17734468Y-13166746D02*
X17743992Y-13147698D01*
X17743992Y-13147698D02*
X17753516Y-13138174D01*
X17753516Y-13138174D02*
X17772563Y-13128650D01*
X17772563Y-13128650D02*
X17801135Y-13128650D01*
X17801135Y-13128650D02*
X17820182Y-13138174D01*
X17820182Y-13138174D02*
X17829706Y-13147698D01*
X17829706Y-13147698D02*
X17839230Y-13166746D01*
X17839230Y-13166746D02*
X17839230Y-13223888D01*
X17839230Y-13223888D02*
X17829706Y-13242936D01*
X17829706Y-13242936D02*
X17820182Y-13252460D01*
X17820182Y-13252460D02*
X17801135Y-13261984D01*
X17801135Y-13261984D02*
X17772563Y-13261984D01*
X17896373Y-13128650D02*
X17972563Y-13128650D01*
X17924944Y-13061984D02*
X17924944Y-13233412D01*
X17924944Y-13233412D02*
X17934468Y-13252460D01*
X17934468Y-13252460D02*
X17953516Y-13261984D01*
X17953516Y-13261984D02*
X17972563Y-13261984D01*
X18029706Y-13252460D02*
X18048754Y-13261984D01*
X18048754Y-13261984D02*
X18086849Y-13261984D01*
X18086849Y-13261984D02*
X18105897Y-13252460D01*
X18105897Y-13252460D02*
X18115420Y-13233412D01*
X18115420Y-13233412D02*
X18115420Y-13223888D01*
X18115420Y-13223888D02*
X18105897Y-13204841D01*
X18105897Y-13204841D02*
X18086849Y-13195317D01*
X18086849Y-13195317D02*
X18058277Y-13195317D01*
X18058277Y-13195317D02*
X18039230Y-13185793D01*
X18039230Y-13185793D02*
X18029706Y-13166746D01*
X18029706Y-13166746D02*
X18029706Y-13157222D01*
X18029706Y-13157222D02*
X18039230Y-13138174D01*
X18039230Y-13138174D02*
X18058277Y-13128650D01*
X18058277Y-13128650D02*
X18086849Y-13128650D01*
X18086849Y-13128650D02*
X18105897Y-13138174D01*
X18182087Y-13338174D02*
X18191611Y-13328650D01*
X18191611Y-13328650D02*
X18210658Y-13300079D01*
X18210658Y-13300079D02*
X18220182Y-13281031D01*
X18220182Y-13281031D02*
X18229706Y-13252460D01*
X18229706Y-13252460D02*
X18239230Y-13204841D01*
X18239230Y-13204841D02*
X18239230Y-13166746D01*
X18239230Y-13166746D02*
X18229706Y-13119127D01*
X18229706Y-13119127D02*
X18220182Y-13090555D01*
X18220182Y-13090555D02*
X18210658Y-13071508D01*
X18210658Y-13071508D02*
X18191611Y-13042936D01*
X18191611Y-13042936D02*
X18182087Y-13033412D01*
D12*
X11587981Y-13457481D02*
X11587981Y-13411519D01*
X11542019Y-13411519D01*
X11542019Y-13457481D01*
X11587981Y-13457481D01*
D11*
X11896372Y-13325984D02*
X11915420Y-13325984D01*
X11915420Y-13325984D02*
X11934467Y-13335508D01*
X11934467Y-13335508D02*
X11943991Y-13345031D01*
X11943991Y-13345031D02*
X11953515Y-13364079D01*
X11953515Y-13364079D02*
X11963039Y-13402174D01*
X11963039Y-13402174D02*
X11963039Y-13449793D01*
X11963039Y-13449793D02*
X11953515Y-13487888D01*
X11953515Y-13487888D02*
X11943991Y-13506936D01*
X11943991Y-13506936D02*
X11934467Y-13516460D01*
X11934467Y-13516460D02*
X11915420Y-13525984D01*
X11915420Y-13525984D02*
X11896372Y-13525984D01*
X11896372Y-13525984D02*
X11877324Y-13516460D01*
X11877324Y-13516460D02*
X11867801Y-13506936D01*
X11867801Y-13506936D02*
X11858277Y-13487888D01*
X11858277Y-13487888D02*
X11848753Y-13449793D01*
X11848753Y-13449793D02*
X11848753Y-13402174D01*
X11848753Y-13402174D02*
X11858277Y-13364079D01*
X11858277Y-13364079D02*
X11867801Y-13345031D01*
X11867801Y-13345031D02*
X11877324Y-13335508D01*
X11877324Y-13335508D02*
X11896372Y-13325984D01*
X12048753Y-13506936D02*
X12058277Y-13516460D01*
X12058277Y-13516460D02*
X12048753Y-13525984D01*
X12048753Y-13525984D02*
X12039229Y-13516460D01*
X12039229Y-13516460D02*
X12048753Y-13506936D01*
X12048753Y-13506936D02*
X12048753Y-13525984D01*
X12229705Y-13325984D02*
X12191610Y-13325984D01*
X12191610Y-13325984D02*
X12172562Y-13335508D01*
X12172562Y-13335508D02*
X12163039Y-13345031D01*
X12163039Y-13345031D02*
X12143991Y-13373603D01*
X12143991Y-13373603D02*
X12134467Y-13411698D01*
X12134467Y-13411698D02*
X12134467Y-13487888D01*
X12134467Y-13487888D02*
X12143991Y-13506936D01*
X12143991Y-13506936D02*
X12153515Y-13516460D01*
X12153515Y-13516460D02*
X12172562Y-13525984D01*
X12172562Y-13525984D02*
X12210658Y-13525984D01*
X12210658Y-13525984D02*
X12229705Y-13516460D01*
X12229705Y-13516460D02*
X12239229Y-13506936D01*
X12239229Y-13506936D02*
X12248753Y-13487888D01*
X12248753Y-13487888D02*
X12248753Y-13440269D01*
X12248753Y-13440269D02*
X12239229Y-13421222D01*
X12239229Y-13421222D02*
X12229705Y-13411698D01*
X12229705Y-13411698D02*
X12210658Y-13402174D01*
X12210658Y-13402174D02*
X12172562Y-13402174D01*
X12172562Y-13402174D02*
X12153515Y-13411698D01*
X12153515Y-13411698D02*
X12143991Y-13421222D01*
X12143991Y-13421222D02*
X12134467Y-13440269D01*
X12429705Y-13325984D02*
X12334467Y-13325984D01*
X12334467Y-13325984D02*
X12324943Y-13421222D01*
X12324943Y-13421222D02*
X12334467Y-13411698D01*
X12334467Y-13411698D02*
X12353515Y-13402174D01*
X12353515Y-13402174D02*
X12401134Y-13402174D01*
X12401134Y-13402174D02*
X12420182Y-13411698D01*
X12420182Y-13411698D02*
X12429705Y-13421222D01*
X12429705Y-13421222D02*
X12439229Y-13440269D01*
X12439229Y-13440269D02*
X12439229Y-13487888D01*
X12439229Y-13487888D02*
X12429705Y-13506936D01*
X12429705Y-13506936D02*
X12420182Y-13516460D01*
X12420182Y-13516460D02*
X12401134Y-13525984D01*
X12401134Y-13525984D02*
X12353515Y-13525984D01*
X12353515Y-13525984D02*
X12334467Y-13516460D01*
X12334467Y-13516460D02*
X12324943Y-13506936D01*
X12563039Y-13325984D02*
X12582086Y-13325984D01*
X12582086Y-13325984D02*
X12601134Y-13335508D01*
X12601134Y-13335508D02*
X12610658Y-13345031D01*
X12610658Y-13345031D02*
X12620182Y-13364079D01*
X12620182Y-13364079D02*
X12629705Y-13402174D01*
X12629705Y-13402174D02*
X12629705Y-13449793D01*
X12629705Y-13449793D02*
X12620182Y-13487888D01*
X12620182Y-13487888D02*
X12610658Y-13506936D01*
X12610658Y-13506936D02*
X12601134Y-13516460D01*
X12601134Y-13516460D02*
X12582086Y-13525984D01*
X12582086Y-13525984D02*
X12563039Y-13525984D01*
X12563039Y-13525984D02*
X12543991Y-13516460D01*
X12543991Y-13516460D02*
X12534467Y-13506936D01*
X12534467Y-13506936D02*
X12524943Y-13487888D01*
X12524943Y-13487888D02*
X12515420Y-13449793D01*
X12515420Y-13449793D02*
X12515420Y-13402174D01*
X12515420Y-13402174D02*
X12524943Y-13364079D01*
X12524943Y-13364079D02*
X12534467Y-13345031D01*
X12534467Y-13345031D02*
X12543991Y-13335508D01*
X12543991Y-13335508D02*
X12563039Y-13325984D01*
X12715420Y-13525984D02*
X12715420Y-13392650D01*
X12715420Y-13411698D02*
X12724943Y-13402174D01*
X12724943Y-13402174D02*
X12743991Y-13392650D01*
X12743991Y-13392650D02*
X12772563Y-13392650D01*
X12772563Y-13392650D02*
X12791610Y-13402174D01*
X12791610Y-13402174D02*
X12801134Y-13421222D01*
X12801134Y-13421222D02*
X12801134Y-13525984D01*
X12801134Y-13421222D02*
X12810658Y-13402174D01*
X12810658Y-13402174D02*
X12829705Y-13392650D01*
X12829705Y-13392650D02*
X12858277Y-13392650D01*
X12858277Y-13392650D02*
X12877324Y-13402174D01*
X12877324Y-13402174D02*
X12886848Y-13421222D01*
X12886848Y-13421222D02*
X12886848Y-13525984D01*
X12982086Y-13525984D02*
X12982086Y-13392650D01*
X12982086Y-13411698D02*
X12991610Y-13402174D01*
X12991610Y-13402174D02*
X13010658Y-13392650D01*
X13010658Y-13392650D02*
X13039229Y-13392650D01*
X13039229Y-13392650D02*
X13058277Y-13402174D01*
X13058277Y-13402174D02*
X13067801Y-13421222D01*
X13067801Y-13421222D02*
X13067801Y-13525984D01*
X13067801Y-13421222D02*
X13077324Y-13402174D01*
X13077324Y-13402174D02*
X13096372Y-13392650D01*
X13096372Y-13392650D02*
X13124943Y-13392650D01*
X13124943Y-13392650D02*
X13143991Y-13402174D01*
X13143991Y-13402174D02*
X13153515Y-13421222D01*
X13153515Y-13421222D02*
X13153515Y-13525984D01*
X13543991Y-13316460D02*
X13372563Y-13573603D01*
X13801134Y-13325984D02*
X13820182Y-13325984D01*
X13820182Y-13325984D02*
X13839229Y-13335508D01*
X13839229Y-13335508D02*
X13848753Y-13345031D01*
X13848753Y-13345031D02*
X13858277Y-13364079D01*
X13858277Y-13364079D02*
X13867801Y-13402174D01*
X13867801Y-13402174D02*
X13867801Y-13449793D01*
X13867801Y-13449793D02*
X13858277Y-13487888D01*
X13858277Y-13487888D02*
X13848753Y-13506936D01*
X13848753Y-13506936D02*
X13839229Y-13516460D01*
X13839229Y-13516460D02*
X13820182Y-13525984D01*
X13820182Y-13525984D02*
X13801134Y-13525984D01*
X13801134Y-13525984D02*
X13782086Y-13516460D01*
X13782086Y-13516460D02*
X13772563Y-13506936D01*
X13772563Y-13506936D02*
X13763039Y-13487888D01*
X13763039Y-13487888D02*
X13753515Y-13449793D01*
X13753515Y-13449793D02*
X13753515Y-13402174D01*
X13753515Y-13402174D02*
X13763039Y-13364079D01*
X13763039Y-13364079D02*
X13772563Y-13345031D01*
X13772563Y-13345031D02*
X13782086Y-13335508D01*
X13782086Y-13335508D02*
X13801134Y-13325984D01*
X13953515Y-13506936D02*
X13963039Y-13516460D01*
X13963039Y-13516460D02*
X13953515Y-13525984D01*
X13953515Y-13525984D02*
X13943991Y-13516460D01*
X13943991Y-13516460D02*
X13953515Y-13506936D01*
X13953515Y-13506936D02*
X13953515Y-13525984D01*
X14086848Y-13325984D02*
X14105896Y-13325984D01*
X14105896Y-13325984D02*
X14124944Y-13335508D01*
X14124944Y-13335508D02*
X14134467Y-13345031D01*
X14134467Y-13345031D02*
X14143991Y-13364079D01*
X14143991Y-13364079D02*
X14153515Y-13402174D01*
X14153515Y-13402174D02*
X14153515Y-13449793D01*
X14153515Y-13449793D02*
X14143991Y-13487888D01*
X14143991Y-13487888D02*
X14134467Y-13506936D01*
X14134467Y-13506936D02*
X14124944Y-13516460D01*
X14124944Y-13516460D02*
X14105896Y-13525984D01*
X14105896Y-13525984D02*
X14086848Y-13525984D01*
X14086848Y-13525984D02*
X14067801Y-13516460D01*
X14067801Y-13516460D02*
X14058277Y-13506936D01*
X14058277Y-13506936D02*
X14048753Y-13487888D01*
X14048753Y-13487888D02*
X14039229Y-13449793D01*
X14039229Y-13449793D02*
X14039229Y-13402174D01*
X14039229Y-13402174D02*
X14048753Y-13364079D01*
X14048753Y-13364079D02*
X14058277Y-13345031D01*
X14058277Y-13345031D02*
X14067801Y-13335508D01*
X14067801Y-13335508D02*
X14086848Y-13325984D01*
X14229706Y-13345031D02*
X14239229Y-13335508D01*
X14239229Y-13335508D02*
X14258277Y-13325984D01*
X14258277Y-13325984D02*
X14305896Y-13325984D01*
X14305896Y-13325984D02*
X14324944Y-13335508D01*
X14324944Y-13335508D02*
X14334467Y-13345031D01*
X14334467Y-13345031D02*
X14343991Y-13364079D01*
X14343991Y-13364079D02*
X14343991Y-13383127D01*
X14343991Y-13383127D02*
X14334467Y-13411698D01*
X14334467Y-13411698D02*
X14220182Y-13525984D01*
X14220182Y-13525984D02*
X14343991Y-13525984D01*
X14524944Y-13325984D02*
X14429706Y-13325984D01*
X14429706Y-13325984D02*
X14420182Y-13421222D01*
X14420182Y-13421222D02*
X14429706Y-13411698D01*
X14429706Y-13411698D02*
X14448753Y-13402174D01*
X14448753Y-13402174D02*
X14496372Y-13402174D01*
X14496372Y-13402174D02*
X14515420Y-13411698D01*
X14515420Y-13411698D02*
X14524944Y-13421222D01*
X14524944Y-13421222D02*
X14534467Y-13440269D01*
X14534467Y-13440269D02*
X14534467Y-13487888D01*
X14534467Y-13487888D02*
X14524944Y-13506936D01*
X14524944Y-13506936D02*
X14515420Y-13516460D01*
X14515420Y-13516460D02*
X14496372Y-13525984D01*
X14496372Y-13525984D02*
X14448753Y-13525984D01*
X14448753Y-13525984D02*
X14429706Y-13516460D01*
X14429706Y-13516460D02*
X14420182Y-13506936D01*
X14705896Y-13325984D02*
X14667801Y-13325984D01*
X14667801Y-13325984D02*
X14648753Y-13335508D01*
X14648753Y-13335508D02*
X14639229Y-13345031D01*
X14639229Y-13345031D02*
X14620182Y-13373603D01*
X14620182Y-13373603D02*
X14610658Y-13411698D01*
X14610658Y-13411698D02*
X14610658Y-13487888D01*
X14610658Y-13487888D02*
X14620182Y-13506936D01*
X14620182Y-13506936D02*
X14629706Y-13516460D01*
X14629706Y-13516460D02*
X14648753Y-13525984D01*
X14648753Y-13525984D02*
X14686848Y-13525984D01*
X14686848Y-13525984D02*
X14705896Y-13516460D01*
X14705896Y-13516460D02*
X14715420Y-13506936D01*
X14715420Y-13506936D02*
X14724944Y-13487888D01*
X14724944Y-13487888D02*
X14724944Y-13440269D01*
X14724944Y-13440269D02*
X14715420Y-13421222D01*
X14715420Y-13421222D02*
X14705896Y-13411698D01*
X14705896Y-13411698D02*
X14686848Y-13402174D01*
X14686848Y-13402174D02*
X14648753Y-13402174D01*
X14648753Y-13402174D02*
X14629706Y-13411698D01*
X14629706Y-13411698D02*
X14620182Y-13421222D01*
X14620182Y-13421222D02*
X14610658Y-13440269D01*
X14801134Y-13325984D02*
X14801134Y-13364079D01*
X14877325Y-13325984D02*
X14877325Y-13364079D01*
X15172563Y-13602174D02*
X15163039Y-13592650D01*
X15163039Y-13592650D02*
X15143991Y-13564079D01*
X15143991Y-13564079D02*
X15134468Y-13545031D01*
X15134468Y-13545031D02*
X15124944Y-13516460D01*
X15124944Y-13516460D02*
X15115420Y-13468841D01*
X15115420Y-13468841D02*
X15115420Y-13430746D01*
X15115420Y-13430746D02*
X15124944Y-13383127D01*
X15124944Y-13383127D02*
X15134468Y-13354555D01*
X15134468Y-13354555D02*
X15143991Y-13335508D01*
X15143991Y-13335508D02*
X15163039Y-13306936D01*
X15163039Y-13306936D02*
X15172563Y-13297412D01*
X15286848Y-13325984D02*
X15305896Y-13325984D01*
X15305896Y-13325984D02*
X15324944Y-13335508D01*
X15324944Y-13335508D02*
X15334468Y-13345031D01*
X15334468Y-13345031D02*
X15343991Y-13364079D01*
X15343991Y-13364079D02*
X15353515Y-13402174D01*
X15353515Y-13402174D02*
X15353515Y-13449793D01*
X15353515Y-13449793D02*
X15343991Y-13487888D01*
X15343991Y-13487888D02*
X15334468Y-13506936D01*
X15334468Y-13506936D02*
X15324944Y-13516460D01*
X15324944Y-13516460D02*
X15305896Y-13525984D01*
X15305896Y-13525984D02*
X15286848Y-13525984D01*
X15286848Y-13525984D02*
X15267801Y-13516460D01*
X15267801Y-13516460D02*
X15258277Y-13506936D01*
X15258277Y-13506936D02*
X15248753Y-13487888D01*
X15248753Y-13487888D02*
X15239229Y-13449793D01*
X15239229Y-13449793D02*
X15239229Y-13402174D01*
X15239229Y-13402174D02*
X15248753Y-13364079D01*
X15248753Y-13364079D02*
X15258277Y-13345031D01*
X15258277Y-13345031D02*
X15267801Y-13335508D01*
X15267801Y-13335508D02*
X15286848Y-13325984D01*
X15591610Y-13525984D02*
X15591610Y-13325984D01*
X15677325Y-13525984D02*
X15677325Y-13421222D01*
X15677325Y-13421222D02*
X15667801Y-13402174D01*
X15667801Y-13402174D02*
X15648753Y-13392650D01*
X15648753Y-13392650D02*
X15620182Y-13392650D01*
X15620182Y-13392650D02*
X15601134Y-13402174D01*
X15601134Y-13402174D02*
X15591610Y-13411698D01*
X15801134Y-13525984D02*
X15782087Y-13516460D01*
X15782087Y-13516460D02*
X15772563Y-13506936D01*
X15772563Y-13506936D02*
X15763039Y-13487888D01*
X15763039Y-13487888D02*
X15763039Y-13430746D01*
X15763039Y-13430746D02*
X15772563Y-13411698D01*
X15772563Y-13411698D02*
X15782087Y-13402174D01*
X15782087Y-13402174D02*
X15801134Y-13392650D01*
X15801134Y-13392650D02*
X15829706Y-13392650D01*
X15829706Y-13392650D02*
X15848753Y-13402174D01*
X15848753Y-13402174D02*
X15858277Y-13411698D01*
X15858277Y-13411698D02*
X15867801Y-13430746D01*
X15867801Y-13430746D02*
X15867801Y-13487888D01*
X15867801Y-13487888D02*
X15858277Y-13506936D01*
X15858277Y-13506936D02*
X15848753Y-13516460D01*
X15848753Y-13516460D02*
X15829706Y-13525984D01*
X15829706Y-13525984D02*
X15801134Y-13525984D01*
X15982087Y-13525984D02*
X15963039Y-13516460D01*
X15963039Y-13516460D02*
X15953515Y-13497412D01*
X15953515Y-13497412D02*
X15953515Y-13325984D01*
X16134468Y-13516460D02*
X16115420Y-13525984D01*
X16115420Y-13525984D02*
X16077325Y-13525984D01*
X16077325Y-13525984D02*
X16058277Y-13516460D01*
X16058277Y-13516460D02*
X16048753Y-13497412D01*
X16048753Y-13497412D02*
X16048753Y-13421222D01*
X16048753Y-13421222D02*
X16058277Y-13402174D01*
X16058277Y-13402174D02*
X16077325Y-13392650D01*
X16077325Y-13392650D02*
X16115420Y-13392650D01*
X16115420Y-13392650D02*
X16134468Y-13402174D01*
X16134468Y-13402174D02*
X16143991Y-13421222D01*
X16143991Y-13421222D02*
X16143991Y-13440269D01*
X16143991Y-13440269D02*
X16048753Y-13459317D01*
X16220182Y-13516460D02*
X16239230Y-13525984D01*
X16239230Y-13525984D02*
X16277325Y-13525984D01*
X16277325Y-13525984D02*
X16296372Y-13516460D01*
X16296372Y-13516460D02*
X16305896Y-13497412D01*
X16305896Y-13497412D02*
X16305896Y-13487888D01*
X16305896Y-13487888D02*
X16296372Y-13468841D01*
X16296372Y-13468841D02*
X16277325Y-13459317D01*
X16277325Y-13459317D02*
X16248753Y-13459317D01*
X16248753Y-13459317D02*
X16229706Y-13449793D01*
X16229706Y-13449793D02*
X16220182Y-13430746D01*
X16220182Y-13430746D02*
X16220182Y-13421222D01*
X16220182Y-13421222D02*
X16229706Y-13402174D01*
X16229706Y-13402174D02*
X16248753Y-13392650D01*
X16248753Y-13392650D02*
X16277325Y-13392650D01*
X16277325Y-13392650D02*
X16296372Y-13402174D01*
X16543992Y-13449793D02*
X16696373Y-13449793D01*
X16620182Y-13525984D02*
X16620182Y-13373603D01*
X17029706Y-13392650D02*
X17029706Y-13525984D01*
X16982087Y-13316460D02*
X16934468Y-13459317D01*
X16934468Y-13459317D02*
X17058277Y-13459317D01*
X17277325Y-13516460D02*
X17296373Y-13525984D01*
X17296373Y-13525984D02*
X17334468Y-13525984D01*
X17334468Y-13525984D02*
X17353516Y-13516460D01*
X17353516Y-13516460D02*
X17363039Y-13497412D01*
X17363039Y-13497412D02*
X17363039Y-13487888D01*
X17363039Y-13487888D02*
X17353516Y-13468841D01*
X17353516Y-13468841D02*
X17334468Y-13459317D01*
X17334468Y-13459317D02*
X17305896Y-13459317D01*
X17305896Y-13459317D02*
X17286849Y-13449793D01*
X17286849Y-13449793D02*
X17277325Y-13430746D01*
X17277325Y-13430746D02*
X17277325Y-13421222D01*
X17277325Y-13421222D02*
X17286849Y-13402174D01*
X17286849Y-13402174D02*
X17305896Y-13392650D01*
X17305896Y-13392650D02*
X17334468Y-13392650D01*
X17334468Y-13392650D02*
X17353516Y-13402174D01*
X17477325Y-13525984D02*
X17458277Y-13516460D01*
X17458277Y-13516460D02*
X17448754Y-13497412D01*
X17448754Y-13497412D02*
X17448754Y-13325984D01*
X17582087Y-13525984D02*
X17563039Y-13516460D01*
X17563039Y-13516460D02*
X17553516Y-13506936D01*
X17553516Y-13506936D02*
X17543992Y-13487888D01*
X17543992Y-13487888D02*
X17543992Y-13430746D01*
X17543992Y-13430746D02*
X17553516Y-13411698D01*
X17553516Y-13411698D02*
X17563039Y-13402174D01*
X17563039Y-13402174D02*
X17582087Y-13392650D01*
X17582087Y-13392650D02*
X17610658Y-13392650D01*
X17610658Y-13392650D02*
X17629706Y-13402174D01*
X17629706Y-13402174D02*
X17639230Y-13411698D01*
X17639230Y-13411698D02*
X17648754Y-13430746D01*
X17648754Y-13430746D02*
X17648754Y-13487888D01*
X17648754Y-13487888D02*
X17639230Y-13506936D01*
X17639230Y-13506936D02*
X17629706Y-13516460D01*
X17629706Y-13516460D02*
X17610658Y-13525984D01*
X17610658Y-13525984D02*
X17582087Y-13525984D01*
X17705897Y-13392650D02*
X17782087Y-13392650D01*
X17734468Y-13325984D02*
X17734468Y-13497412D01*
X17734468Y-13497412D02*
X17743992Y-13516460D01*
X17743992Y-13516460D02*
X17763039Y-13525984D01*
X17763039Y-13525984D02*
X17782087Y-13525984D01*
X17839230Y-13516460D02*
X17858277Y-13525984D01*
X17858277Y-13525984D02*
X17896373Y-13525984D01*
X17896373Y-13525984D02*
X17915420Y-13516460D01*
X17915420Y-13516460D02*
X17924944Y-13497412D01*
X17924944Y-13497412D02*
X17924944Y-13487888D01*
X17924944Y-13487888D02*
X17915420Y-13468841D01*
X17915420Y-13468841D02*
X17896373Y-13459317D01*
X17896373Y-13459317D02*
X17867801Y-13459317D01*
X17867801Y-13459317D02*
X17848754Y-13449793D01*
X17848754Y-13449793D02*
X17839230Y-13430746D01*
X17839230Y-13430746D02*
X17839230Y-13421222D01*
X17839230Y-13421222D02*
X17848754Y-13402174D01*
X17848754Y-13402174D02*
X17867801Y-13392650D01*
X17867801Y-13392650D02*
X17896373Y-13392650D01*
X17896373Y-13392650D02*
X17915420Y-13402174D01*
X17991611Y-13602174D02*
X18001135Y-13592650D01*
X18001135Y-13592650D02*
X18020182Y-13564079D01*
X18020182Y-13564079D02*
X18029706Y-13545031D01*
X18029706Y-13545031D02*
X18039230Y-13516460D01*
X18039230Y-13516460D02*
X18048754Y-13468841D01*
X18048754Y-13468841D02*
X18048754Y-13430746D01*
X18048754Y-13430746D02*
X18039230Y-13383127D01*
X18039230Y-13383127D02*
X18029706Y-13354555D01*
X18029706Y-13354555D02*
X18020182Y-13335508D01*
X18020182Y-13335508D02*
X18001135Y-13306936D01*
X18001135Y-13306936D02*
X17991611Y-13297412D01*
D12*
X11547500Y-13748500D02*
X11597500Y-13698500D01*
X11547500Y-13648500D01*
X11497500Y-13698500D01*
X11547500Y-13748500D01*
D11*
X11963039Y-13789984D02*
X11848753Y-13789984D01*
X11905896Y-13789984D02*
X11905896Y-13589984D01*
X11905896Y-13589984D02*
X11886848Y-13618555D01*
X11886848Y-13618555D02*
X11867801Y-13637603D01*
X11867801Y-13637603D02*
X11848753Y-13647127D01*
X12048753Y-13770936D02*
X12058277Y-13780460D01*
X12058277Y-13780460D02*
X12048753Y-13789984D01*
X12048753Y-13789984D02*
X12039229Y-13780460D01*
X12039229Y-13780460D02*
X12048753Y-13770936D01*
X12048753Y-13770936D02*
X12048753Y-13789984D01*
X12182086Y-13589984D02*
X12201134Y-13589984D01*
X12201134Y-13589984D02*
X12220182Y-13599508D01*
X12220182Y-13599508D02*
X12229705Y-13609031D01*
X12229705Y-13609031D02*
X12239229Y-13628079D01*
X12239229Y-13628079D02*
X12248753Y-13666174D01*
X12248753Y-13666174D02*
X12248753Y-13713793D01*
X12248753Y-13713793D02*
X12239229Y-13751888D01*
X12239229Y-13751888D02*
X12229705Y-13770936D01*
X12229705Y-13770936D02*
X12220182Y-13780460D01*
X12220182Y-13780460D02*
X12201134Y-13789984D01*
X12201134Y-13789984D02*
X12182086Y-13789984D01*
X12182086Y-13789984D02*
X12163039Y-13780460D01*
X12163039Y-13780460D02*
X12153515Y-13770936D01*
X12153515Y-13770936D02*
X12143991Y-13751888D01*
X12143991Y-13751888D02*
X12134467Y-13713793D01*
X12134467Y-13713793D02*
X12134467Y-13666174D01*
X12134467Y-13666174D02*
X12143991Y-13628079D01*
X12143991Y-13628079D02*
X12153515Y-13609031D01*
X12153515Y-13609031D02*
X12163039Y-13599508D01*
X12163039Y-13599508D02*
X12182086Y-13589984D01*
X12372562Y-13589984D02*
X12391610Y-13589984D01*
X12391610Y-13589984D02*
X12410658Y-13599508D01*
X12410658Y-13599508D02*
X12420182Y-13609031D01*
X12420182Y-13609031D02*
X12429705Y-13628079D01*
X12429705Y-13628079D02*
X12439229Y-13666174D01*
X12439229Y-13666174D02*
X12439229Y-13713793D01*
X12439229Y-13713793D02*
X12429705Y-13751888D01*
X12429705Y-13751888D02*
X12420182Y-13770936D01*
X12420182Y-13770936D02*
X12410658Y-13780460D01*
X12410658Y-13780460D02*
X12391610Y-13789984D01*
X12391610Y-13789984D02*
X12372562Y-13789984D01*
X12372562Y-13789984D02*
X12353515Y-13780460D01*
X12353515Y-13780460D02*
X12343991Y-13770936D01*
X12343991Y-13770936D02*
X12334467Y-13751888D01*
X12334467Y-13751888D02*
X12324943Y-13713793D01*
X12324943Y-13713793D02*
X12324943Y-13666174D01*
X12324943Y-13666174D02*
X12334467Y-13628079D01*
X12334467Y-13628079D02*
X12343991Y-13609031D01*
X12343991Y-13609031D02*
X12353515Y-13599508D01*
X12353515Y-13599508D02*
X12372562Y-13589984D01*
X12563039Y-13589984D02*
X12582086Y-13589984D01*
X12582086Y-13589984D02*
X12601134Y-13599508D01*
X12601134Y-13599508D02*
X12610658Y-13609031D01*
X12610658Y-13609031D02*
X12620182Y-13628079D01*
X12620182Y-13628079D02*
X12629705Y-13666174D01*
X12629705Y-13666174D02*
X12629705Y-13713793D01*
X12629705Y-13713793D02*
X12620182Y-13751888D01*
X12620182Y-13751888D02*
X12610658Y-13770936D01*
X12610658Y-13770936D02*
X12601134Y-13780460D01*
X12601134Y-13780460D02*
X12582086Y-13789984D01*
X12582086Y-13789984D02*
X12563039Y-13789984D01*
X12563039Y-13789984D02*
X12543991Y-13780460D01*
X12543991Y-13780460D02*
X12534467Y-13770936D01*
X12534467Y-13770936D02*
X12524943Y-13751888D01*
X12524943Y-13751888D02*
X12515420Y-13713793D01*
X12515420Y-13713793D02*
X12515420Y-13666174D01*
X12515420Y-13666174D02*
X12524943Y-13628079D01*
X12524943Y-13628079D02*
X12534467Y-13609031D01*
X12534467Y-13609031D02*
X12543991Y-13599508D01*
X12543991Y-13599508D02*
X12563039Y-13589984D01*
X12715420Y-13789984D02*
X12715420Y-13656650D01*
X12715420Y-13675698D02*
X12724943Y-13666174D01*
X12724943Y-13666174D02*
X12743991Y-13656650D01*
X12743991Y-13656650D02*
X12772563Y-13656650D01*
X12772563Y-13656650D02*
X12791610Y-13666174D01*
X12791610Y-13666174D02*
X12801134Y-13685222D01*
X12801134Y-13685222D02*
X12801134Y-13789984D01*
X12801134Y-13685222D02*
X12810658Y-13666174D01*
X12810658Y-13666174D02*
X12829705Y-13656650D01*
X12829705Y-13656650D02*
X12858277Y-13656650D01*
X12858277Y-13656650D02*
X12877324Y-13666174D01*
X12877324Y-13666174D02*
X12886848Y-13685222D01*
X12886848Y-13685222D02*
X12886848Y-13789984D01*
X12982086Y-13789984D02*
X12982086Y-13656650D01*
X12982086Y-13675698D02*
X12991610Y-13666174D01*
X12991610Y-13666174D02*
X13010658Y-13656650D01*
X13010658Y-13656650D02*
X13039229Y-13656650D01*
X13039229Y-13656650D02*
X13058277Y-13666174D01*
X13058277Y-13666174D02*
X13067801Y-13685222D01*
X13067801Y-13685222D02*
X13067801Y-13789984D01*
X13067801Y-13685222D02*
X13077324Y-13666174D01*
X13077324Y-13666174D02*
X13096372Y-13656650D01*
X13096372Y-13656650D02*
X13124943Y-13656650D01*
X13124943Y-13656650D02*
X13143991Y-13666174D01*
X13143991Y-13666174D02*
X13153515Y-13685222D01*
X13153515Y-13685222D02*
X13153515Y-13789984D01*
X13543991Y-13580460D02*
X13372563Y-13837603D01*
X13801134Y-13589984D02*
X13820182Y-13589984D01*
X13820182Y-13589984D02*
X13839229Y-13599508D01*
X13839229Y-13599508D02*
X13848753Y-13609031D01*
X13848753Y-13609031D02*
X13858277Y-13628079D01*
X13858277Y-13628079D02*
X13867801Y-13666174D01*
X13867801Y-13666174D02*
X13867801Y-13713793D01*
X13867801Y-13713793D02*
X13858277Y-13751888D01*
X13858277Y-13751888D02*
X13848753Y-13770936D01*
X13848753Y-13770936D02*
X13839229Y-13780460D01*
X13839229Y-13780460D02*
X13820182Y-13789984D01*
X13820182Y-13789984D02*
X13801134Y-13789984D01*
X13801134Y-13789984D02*
X13782086Y-13780460D01*
X13782086Y-13780460D02*
X13772563Y-13770936D01*
X13772563Y-13770936D02*
X13763039Y-13751888D01*
X13763039Y-13751888D02*
X13753515Y-13713793D01*
X13753515Y-13713793D02*
X13753515Y-13666174D01*
X13753515Y-13666174D02*
X13763039Y-13628079D01*
X13763039Y-13628079D02*
X13772563Y-13609031D01*
X13772563Y-13609031D02*
X13782086Y-13599508D01*
X13782086Y-13599508D02*
X13801134Y-13589984D01*
X13953515Y-13770936D02*
X13963039Y-13780460D01*
X13963039Y-13780460D02*
X13953515Y-13789984D01*
X13953515Y-13789984D02*
X13943991Y-13780460D01*
X13943991Y-13780460D02*
X13953515Y-13770936D01*
X13953515Y-13770936D02*
X13953515Y-13789984D01*
X14086848Y-13589984D02*
X14105896Y-13589984D01*
X14105896Y-13589984D02*
X14124944Y-13599508D01*
X14124944Y-13599508D02*
X14134467Y-13609031D01*
X14134467Y-13609031D02*
X14143991Y-13628079D01*
X14143991Y-13628079D02*
X14153515Y-13666174D01*
X14153515Y-13666174D02*
X14153515Y-13713793D01*
X14153515Y-13713793D02*
X14143991Y-13751888D01*
X14143991Y-13751888D02*
X14134467Y-13770936D01*
X14134467Y-13770936D02*
X14124944Y-13780460D01*
X14124944Y-13780460D02*
X14105896Y-13789984D01*
X14105896Y-13789984D02*
X14086848Y-13789984D01*
X14086848Y-13789984D02*
X14067801Y-13780460D01*
X14067801Y-13780460D02*
X14058277Y-13770936D01*
X14058277Y-13770936D02*
X14048753Y-13751888D01*
X14048753Y-13751888D02*
X14039229Y-13713793D01*
X14039229Y-13713793D02*
X14039229Y-13666174D01*
X14039229Y-13666174D02*
X14048753Y-13628079D01*
X14048753Y-13628079D02*
X14058277Y-13609031D01*
X14058277Y-13609031D02*
X14067801Y-13599508D01*
X14067801Y-13599508D02*
X14086848Y-13589984D01*
X14220182Y-13589984D02*
X14343991Y-13589984D01*
X14343991Y-13589984D02*
X14277325Y-13666174D01*
X14277325Y-13666174D02*
X14305896Y-13666174D01*
X14305896Y-13666174D02*
X14324944Y-13675698D01*
X14324944Y-13675698D02*
X14334467Y-13685222D01*
X14334467Y-13685222D02*
X14343991Y-13704269D01*
X14343991Y-13704269D02*
X14343991Y-13751888D01*
X14343991Y-13751888D02*
X14334467Y-13770936D01*
X14334467Y-13770936D02*
X14324944Y-13780460D01*
X14324944Y-13780460D02*
X14305896Y-13789984D01*
X14305896Y-13789984D02*
X14248753Y-13789984D01*
X14248753Y-13789984D02*
X14229706Y-13780460D01*
X14229706Y-13780460D02*
X14220182Y-13770936D01*
X14439229Y-13789984D02*
X14477325Y-13789984D01*
X14477325Y-13789984D02*
X14496372Y-13780460D01*
X14496372Y-13780460D02*
X14505896Y-13770936D01*
X14505896Y-13770936D02*
X14524944Y-13742365D01*
X14524944Y-13742365D02*
X14534467Y-13704269D01*
X14534467Y-13704269D02*
X14534467Y-13628079D01*
X14534467Y-13628079D02*
X14524944Y-13609031D01*
X14524944Y-13609031D02*
X14515420Y-13599508D01*
X14515420Y-13599508D02*
X14496372Y-13589984D01*
X14496372Y-13589984D02*
X14458277Y-13589984D01*
X14458277Y-13589984D02*
X14439229Y-13599508D01*
X14439229Y-13599508D02*
X14429706Y-13609031D01*
X14429706Y-13609031D02*
X14420182Y-13628079D01*
X14420182Y-13628079D02*
X14420182Y-13675698D01*
X14420182Y-13675698D02*
X14429706Y-13694746D01*
X14429706Y-13694746D02*
X14439229Y-13704269D01*
X14439229Y-13704269D02*
X14458277Y-13713793D01*
X14458277Y-13713793D02*
X14496372Y-13713793D01*
X14496372Y-13713793D02*
X14515420Y-13704269D01*
X14515420Y-13704269D02*
X14524944Y-13694746D01*
X14524944Y-13694746D02*
X14534467Y-13675698D01*
X14705896Y-13656650D02*
X14705896Y-13789984D01*
X14658277Y-13580460D02*
X14610658Y-13723317D01*
X14610658Y-13723317D02*
X14734467Y-13723317D01*
X14801134Y-13589984D02*
X14801134Y-13628079D01*
X14877325Y-13589984D02*
X14877325Y-13628079D01*
X15172563Y-13866174D02*
X15163039Y-13856650D01*
X15163039Y-13856650D02*
X15143991Y-13828079D01*
X15143991Y-13828079D02*
X15134468Y-13809031D01*
X15134468Y-13809031D02*
X15124944Y-13780460D01*
X15124944Y-13780460D02*
X15115420Y-13732841D01*
X15115420Y-13732841D02*
X15115420Y-13694746D01*
X15115420Y-13694746D02*
X15124944Y-13647127D01*
X15124944Y-13647127D02*
X15134468Y-13618555D01*
X15134468Y-13618555D02*
X15143991Y-13599508D01*
X15143991Y-13599508D02*
X15163039Y-13570936D01*
X15163039Y-13570936D02*
X15172563Y-13561412D01*
X15334468Y-13656650D02*
X15334468Y-13789984D01*
X15286848Y-13580460D02*
X15239229Y-13723317D01*
X15239229Y-13723317D02*
X15363039Y-13723317D01*
X15477325Y-13589984D02*
X15496372Y-13589984D01*
X15496372Y-13589984D02*
X15515420Y-13599508D01*
X15515420Y-13599508D02*
X15524944Y-13609031D01*
X15524944Y-13609031D02*
X15534468Y-13628079D01*
X15534468Y-13628079D02*
X15543991Y-13666174D01*
X15543991Y-13666174D02*
X15543991Y-13713793D01*
X15543991Y-13713793D02*
X15534468Y-13751888D01*
X15534468Y-13751888D02*
X15524944Y-13770936D01*
X15524944Y-13770936D02*
X15515420Y-13780460D01*
X15515420Y-13780460D02*
X15496372Y-13789984D01*
X15496372Y-13789984D02*
X15477325Y-13789984D01*
X15477325Y-13789984D02*
X15458277Y-13780460D01*
X15458277Y-13780460D02*
X15448753Y-13770936D01*
X15448753Y-13770936D02*
X15439229Y-13751888D01*
X15439229Y-13751888D02*
X15429706Y-13713793D01*
X15429706Y-13713793D02*
X15429706Y-13666174D01*
X15429706Y-13666174D02*
X15439229Y-13628079D01*
X15439229Y-13628079D02*
X15448753Y-13609031D01*
X15448753Y-13609031D02*
X15458277Y-13599508D01*
X15458277Y-13599508D02*
X15477325Y-13589984D01*
X15782087Y-13789984D02*
X15782087Y-13589984D01*
X15867801Y-13789984D02*
X15867801Y-13685222D01*
X15867801Y-13685222D02*
X15858277Y-13666174D01*
X15858277Y-13666174D02*
X15839230Y-13656650D01*
X15839230Y-13656650D02*
X15810658Y-13656650D01*
X15810658Y-13656650D02*
X15791610Y-13666174D01*
X15791610Y-13666174D02*
X15782087Y-13675698D01*
X15991610Y-13789984D02*
X15972563Y-13780460D01*
X15972563Y-13780460D02*
X15963039Y-13770936D01*
X15963039Y-13770936D02*
X15953515Y-13751888D01*
X15953515Y-13751888D02*
X15953515Y-13694746D01*
X15953515Y-13694746D02*
X15963039Y-13675698D01*
X15963039Y-13675698D02*
X15972563Y-13666174D01*
X15972563Y-13666174D02*
X15991610Y-13656650D01*
X15991610Y-13656650D02*
X16020182Y-13656650D01*
X16020182Y-13656650D02*
X16039230Y-13666174D01*
X16039230Y-13666174D02*
X16048753Y-13675698D01*
X16048753Y-13675698D02*
X16058277Y-13694746D01*
X16058277Y-13694746D02*
X16058277Y-13751888D01*
X16058277Y-13751888D02*
X16048753Y-13770936D01*
X16048753Y-13770936D02*
X16039230Y-13780460D01*
X16039230Y-13780460D02*
X16020182Y-13789984D01*
X16020182Y-13789984D02*
X15991610Y-13789984D01*
X16172563Y-13789984D02*
X16153515Y-13780460D01*
X16153515Y-13780460D02*
X16143991Y-13761412D01*
X16143991Y-13761412D02*
X16143991Y-13589984D01*
X16324944Y-13780460D02*
X16305896Y-13789984D01*
X16305896Y-13789984D02*
X16267801Y-13789984D01*
X16267801Y-13789984D02*
X16248753Y-13780460D01*
X16248753Y-13780460D02*
X16239230Y-13761412D01*
X16239230Y-13761412D02*
X16239230Y-13685222D01*
X16239230Y-13685222D02*
X16248753Y-13666174D01*
X16248753Y-13666174D02*
X16267801Y-13656650D01*
X16267801Y-13656650D02*
X16305896Y-13656650D01*
X16305896Y-13656650D02*
X16324944Y-13666174D01*
X16324944Y-13666174D02*
X16334468Y-13685222D01*
X16334468Y-13685222D02*
X16334468Y-13704269D01*
X16334468Y-13704269D02*
X16239230Y-13723317D01*
X16410658Y-13780460D02*
X16429706Y-13789984D01*
X16429706Y-13789984D02*
X16467801Y-13789984D01*
X16467801Y-13789984D02*
X16486849Y-13780460D01*
X16486849Y-13780460D02*
X16496372Y-13761412D01*
X16496372Y-13761412D02*
X16496372Y-13751888D01*
X16496372Y-13751888D02*
X16486849Y-13732841D01*
X16486849Y-13732841D02*
X16467801Y-13723317D01*
X16467801Y-13723317D02*
X16439230Y-13723317D01*
X16439230Y-13723317D02*
X16420182Y-13713793D01*
X16420182Y-13713793D02*
X16410658Y-13694746D01*
X16410658Y-13694746D02*
X16410658Y-13685222D01*
X16410658Y-13685222D02*
X16420182Y-13666174D01*
X16420182Y-13666174D02*
X16439230Y-13656650D01*
X16439230Y-13656650D02*
X16467801Y-13656650D01*
X16467801Y-13656650D02*
X16486849Y-13666174D01*
X16563039Y-13866174D02*
X16572563Y-13856650D01*
X16572563Y-13856650D02*
X16591611Y-13828079D01*
X16591611Y-13828079D02*
X16601134Y-13809031D01*
X16601134Y-13809031D02*
X16610658Y-13780460D01*
X16610658Y-13780460D02*
X16620182Y-13732841D01*
X16620182Y-13732841D02*
X16620182Y-13694746D01*
X16620182Y-13694746D02*
X16610658Y-13647127D01*
X16610658Y-13647127D02*
X16601134Y-13618555D01*
X16601134Y-13618555D02*
X16591611Y-13599508D01*
X16591611Y-13599508D02*
X16572563Y-13570936D01*
X16572563Y-13570936D02*
X16563039Y-13561412D01*
M02*
