%TF.GenerationSoftware,KiCad,Pcbnew,9.0.3*%
%TF.CreationDate,2025-07-23T11:06:21+02:00*%
%TF.ProjectId,icepi-zero,69636570-692d-47a6-9572-6f2e6b696361,v1.3*%
%TF.SameCoordinates,Original*%
%TF.FileFunction,Legend,Bot*%
%TF.FilePolarity,Positive*%
%FSLAX46Y46*%
G04 Gerber Fmt 4.6, Leading zero omitted, Abs format (unit mm)*
G04 Created by KiCad (PCBNEW 9.0.3) date 2025-07-23 11:06:21*
%MOMM*%
%LPD*%
G01*
G04 APERTURE LIST*
G04 Aperture macros list*
%AMRoundRect*
0 Rectangle with rounded corners*
0 $1 Rounding radius*
0 $2 $3 $4 $5 $6 $7 $8 $9 X,Y pos of 4 corners*
0 Add a 4 corners polygon primitive as box body*
4,1,4,$2,$3,$4,$5,$6,$7,$8,$9,$2,$3,0*
0 Add four circle primitives for the rounded corners*
1,1,$1+$1,$2,$3*
1,1,$1+$1,$4,$5*
1,1,$1+$1,$6,$7*
1,1,$1+$1,$8,$9*
0 Add four rect primitives between the rounded corners*
20,1,$1+$1,$2,$3,$4,$5,0*
20,1,$1+$1,$4,$5,$6,$7,0*
20,1,$1+$1,$6,$7,$8,$9,0*
20,1,$1+$1,$8,$9,$2,$3,0*%
G04 Aperture macros list end*
%ADD10C,0.000000*%
%ADD11C,0.200000*%
%ADD12C,0.120000*%
%ADD13C,0.100000*%
%ADD14C,5.700000*%
%ADD15R,1.700000X1.700000*%
%ADD16C,1.700000*%
%ADD17C,0.650000*%
%ADD18O,1.000000X2.100000*%
%ADD19O,1.000000X1.800000*%
%ADD20C,1.000000*%
%ADD21O,1.250000X1.800000*%
%ADD22RoundRect,0.140000X-0.170000X0.140000X-0.170000X-0.140000X0.170000X-0.140000X0.170000X0.140000X0*%
%ADD23RoundRect,0.140000X-0.140000X-0.170000X0.140000X-0.170000X0.140000X0.170000X-0.140000X0.170000X0*%
%ADD24RoundRect,0.135000X-0.185000X0.135000X-0.185000X-0.135000X0.185000X-0.135000X0.185000X0.135000X0*%
%ADD25RoundRect,0.150000X-0.200000X0.150000X-0.200000X-0.150000X0.200000X-0.150000X0.200000X0.150000X0*%
%ADD26RoundRect,0.135000X0.135000X0.185000X-0.135000X0.185000X-0.135000X-0.185000X0.135000X-0.185000X0*%
%ADD27RoundRect,0.150000X0.200000X-0.150000X0.200000X0.150000X-0.200000X0.150000X-0.200000X-0.150000X0*%
%ADD28RoundRect,0.135000X-0.135000X-0.185000X0.135000X-0.185000X0.135000X0.185000X-0.135000X0.185000X0*%
%ADD29RoundRect,0.157500X-0.367500X-0.842500X0.367500X-0.842500X0.367500X0.842500X-0.367500X0.842500X0*%
%ADD30C,2.000000*%
%ADD31RoundRect,0.140000X0.140000X0.170000X-0.140000X0.170000X-0.140000X-0.170000X0.140000X-0.170000X0*%
%ADD32RoundRect,0.140000X0.170000X-0.140000X0.170000X0.140000X-0.170000X0.140000X-0.170000X-0.140000X0*%
%ADD33RoundRect,0.225000X-0.225000X-0.250000X0.225000X-0.250000X0.225000X0.250000X-0.225000X0.250000X0*%
%ADD34RoundRect,0.225000X0.250000X-0.225000X0.250000X0.225000X-0.250000X0.225000X-0.250000X-0.225000X0*%
%ADD35RoundRect,0.135000X0.185000X-0.135000X0.185000X0.135000X-0.185000X0.135000X-0.185000X-0.135000X0*%
%ADD36RoundRect,0.150000X-0.150000X-0.200000X0.150000X-0.200000X0.150000X0.200000X-0.150000X0.200000X0*%
%ADD37RoundRect,0.150000X0.150000X0.200000X-0.150000X0.200000X-0.150000X-0.200000X0.150000X-0.200000X0*%
%ADD38RoundRect,0.218750X-0.218750X-0.381250X0.218750X-0.381250X0.218750X0.381250X-0.218750X0.381250X0*%
%ADD39RoundRect,0.225000X0.225000X0.250000X-0.225000X0.250000X-0.225000X-0.250000X0.225000X-0.250000X0*%
%ADD40RoundRect,0.075000X0.075000X-0.075000X0.075000X0.075000X-0.075000X0.075000X-0.075000X-0.075000X0*%
%ADD41RoundRect,0.225000X-0.250000X0.225000X-0.250000X-0.225000X0.250000X-0.225000X0.250000X0.225000X0*%
G04 APERTURE END LIST*
D10*
G36*
X177915938Y-103502948D02*
G01*
X177917161Y-103503039D01*
X177918379Y-103503189D01*
X177919589Y-103503397D01*
X177920789Y-103503660D01*
X177921979Y-103503977D01*
X177923156Y-103504348D01*
X177924317Y-103504769D01*
X177926589Y-103505761D01*
X177928780Y-103506940D01*
X177930875Y-103508295D01*
X177932859Y-103509813D01*
X177934717Y-103511483D01*
X177936435Y-103513293D01*
X177937998Y-103515230D01*
X177938717Y-103516243D01*
X177939391Y-103517283D01*
X177940019Y-103518349D01*
X177940600Y-103519440D01*
X177941130Y-103520554D01*
X177941609Y-103521688D01*
X177942034Y-103522843D01*
X177942403Y-103524017D01*
X177942716Y-103525207D01*
X177942969Y-103526413D01*
X178045045Y-104074894D01*
X178045618Y-104077329D01*
X178046404Y-104079773D01*
X178047389Y-104082209D01*
X178048560Y-104084621D01*
X178049903Y-104086994D01*
X178051405Y-104089311D01*
X178053051Y-104091557D01*
X178054828Y-104093716D01*
X178056723Y-104095771D01*
X178058721Y-104097707D01*
X178060808Y-104099508D01*
X178062972Y-104101158D01*
X178065198Y-104102641D01*
X178067472Y-104103942D01*
X178069782Y-104105043D01*
X178072112Y-104105930D01*
X178439777Y-104256425D01*
X178442070Y-104257428D01*
X178444500Y-104258265D01*
X178447046Y-104258938D01*
X178449686Y-104259448D01*
X178452398Y-104259798D01*
X178455163Y-104259988D01*
X178457958Y-104260021D01*
X178460762Y-104259897D01*
X178463554Y-104259619D01*
X178466313Y-104259189D01*
X178469017Y-104258607D01*
X178471645Y-104257876D01*
X178474176Y-104256996D01*
X178476589Y-104255971D01*
X178478861Y-104254801D01*
X178480973Y-104253488D01*
X178939205Y-103939004D01*
X178940240Y-103938331D01*
X178941307Y-103937710D01*
X178942401Y-103937141D01*
X178943522Y-103936624D01*
X178944666Y-103936159D01*
X178945831Y-103935746D01*
X178948216Y-103935072D01*
X178950658Y-103934603D01*
X178953138Y-103934335D01*
X178955637Y-103934268D01*
X178958136Y-103934400D01*
X178960616Y-103934729D01*
X178963059Y-103935254D01*
X178965446Y-103935972D01*
X178967757Y-103936883D01*
X178969975Y-103937985D01*
X178971043Y-103938606D01*
X178972080Y-103939275D01*
X178973084Y-103939991D01*
X178974053Y-103940753D01*
X178974985Y-103941562D01*
X178975876Y-103942417D01*
X179361797Y-104328338D01*
X179362645Y-104329230D01*
X179363448Y-104330161D01*
X179364205Y-104331130D01*
X179364916Y-104332134D01*
X179365581Y-104333171D01*
X179366200Y-104334239D01*
X179366772Y-104335335D01*
X179367298Y-104336457D01*
X179367776Y-104337602D01*
X179368207Y-104338768D01*
X179368926Y-104341155D01*
X179369452Y-104343598D01*
X179369784Y-104346079D01*
X179369920Y-104348578D01*
X179369858Y-104351076D01*
X179369595Y-104353556D01*
X179369388Y-104354783D01*
X179369131Y-104355998D01*
X179368822Y-104357199D01*
X179368462Y-104358383D01*
X179368050Y-104359548D01*
X179367587Y-104360693D01*
X179367071Y-104361813D01*
X179366504Y-104362908D01*
X179365883Y-104363974D01*
X179365210Y-104365009D01*
X179056203Y-104815383D01*
X179054892Y-104817507D01*
X179053727Y-104819787D01*
X179052711Y-104822202D01*
X179051844Y-104824731D01*
X179051128Y-104827354D01*
X179050565Y-104830049D01*
X179050156Y-104832796D01*
X179049903Y-104835574D01*
X179049807Y-104838363D01*
X179049870Y-104841141D01*
X179050093Y-104843887D01*
X179050477Y-104846581D01*
X179051025Y-104849203D01*
X179051738Y-104851730D01*
X179052617Y-104854143D01*
X179053663Y-104856420D01*
X179216223Y-105235674D01*
X179216654Y-105236841D01*
X179217140Y-105238004D01*
X179217679Y-105239163D01*
X179218270Y-105240314D01*
X179219600Y-105242588D01*
X179221111Y-105244813D01*
X179222788Y-105246976D01*
X179224616Y-105249061D01*
X179226577Y-105251057D01*
X179228655Y-105252948D01*
X179230835Y-105254721D01*
X179233101Y-105256362D01*
X179235435Y-105257857D01*
X179237822Y-105259192D01*
X179240246Y-105260354D01*
X179242690Y-105261329D01*
X179243915Y-105261742D01*
X179245139Y-105262103D01*
X179246360Y-105262410D01*
X179247576Y-105262661D01*
X179777881Y-105361245D01*
X179779086Y-105361505D01*
X179780277Y-105361824D01*
X179781450Y-105362199D01*
X179782605Y-105362629D01*
X179783740Y-105363111D01*
X179784853Y-105363645D01*
X179785944Y-105364228D01*
X179787010Y-105364858D01*
X179788050Y-105365534D01*
X179789063Y-105366254D01*
X179790047Y-105367016D01*
X179791000Y-105367818D01*
X179791922Y-105368659D01*
X179792810Y-105369537D01*
X179793663Y-105370449D01*
X179794480Y-105371395D01*
X179795259Y-105372372D01*
X179795998Y-105373379D01*
X179796697Y-105374414D01*
X179797353Y-105375474D01*
X179797965Y-105376559D01*
X179798532Y-105377667D01*
X179799052Y-105378795D01*
X179799524Y-105379942D01*
X179799946Y-105381106D01*
X179800316Y-105382285D01*
X179800634Y-105383478D01*
X179800897Y-105384682D01*
X179801104Y-105385897D01*
X179801254Y-105387119D01*
X179801345Y-105388348D01*
X179801376Y-105389582D01*
X179801376Y-105935364D01*
X179801345Y-105936598D01*
X179801253Y-105937828D01*
X179801102Y-105939051D01*
X179800893Y-105940267D01*
X179800628Y-105941473D01*
X179800309Y-105942668D01*
X179799936Y-105943850D01*
X179799512Y-105945016D01*
X179799037Y-105946165D01*
X179798514Y-105947296D01*
X179797328Y-105949493D01*
X179795966Y-105951593D01*
X179794440Y-105953581D01*
X179792763Y-105955443D01*
X179790946Y-105957163D01*
X179789002Y-105958728D01*
X179787986Y-105959447D01*
X179786943Y-105960122D01*
X179785874Y-105960751D01*
X179784781Y-105961331D01*
X179783666Y-105961862D01*
X179782529Y-105962340D01*
X179781373Y-105962766D01*
X179780198Y-105963135D01*
X179779007Y-105963448D01*
X179777801Y-105963701D01*
X179260515Y-106059983D01*
X179259299Y-106060235D01*
X179258081Y-106060544D01*
X179255643Y-106061322D01*
X179253215Y-106062305D01*
X179250815Y-106063478D01*
X179248456Y-106064827D01*
X179246156Y-106066337D01*
X179243929Y-106067995D01*
X179241792Y-106069786D01*
X179239760Y-106071696D01*
X179237848Y-106073711D01*
X179236074Y-106075817D01*
X179234451Y-106077999D01*
X179232996Y-106080243D01*
X179231725Y-106082536D01*
X179230653Y-106084863D01*
X179229796Y-106087209D01*
X179068268Y-106490593D01*
X179067265Y-106492885D01*
X179066428Y-106495312D01*
X179065756Y-106497854D01*
X179065247Y-106500490D01*
X179064900Y-106503198D01*
X179064713Y-106505957D01*
X179064686Y-106508747D01*
X179064815Y-106511548D01*
X179065102Y-106514336D01*
X179065543Y-106517093D01*
X179066137Y-106519797D01*
X179066884Y-106522427D01*
X179067782Y-106524962D01*
X179068828Y-106527381D01*
X179070023Y-106529664D01*
X179071364Y-106531788D01*
X179365210Y-106959937D01*
X179365876Y-106960973D01*
X179366490Y-106962039D01*
X179367053Y-106963133D01*
X179367564Y-106964254D01*
X179368024Y-106965398D01*
X179368432Y-106966563D01*
X179369097Y-106968949D01*
X179369560Y-106971390D01*
X179369823Y-106973870D01*
X179369887Y-106976369D01*
X179369754Y-106978868D01*
X179369426Y-106981348D01*
X179368905Y-106983791D01*
X179368191Y-106986178D01*
X179367286Y-106988490D01*
X179366193Y-106990707D01*
X179365576Y-106991775D01*
X179364913Y-106992812D01*
X179364203Y-106993816D01*
X179363447Y-106994785D01*
X179362645Y-106995717D01*
X179361797Y-106996608D01*
X178975796Y-107382529D01*
X178974905Y-107383377D01*
X178973974Y-107384179D01*
X178973005Y-107384935D01*
X178972000Y-107385645D01*
X178970963Y-107386309D01*
X178969896Y-107386926D01*
X178968800Y-107387496D01*
X178967678Y-107388019D01*
X178966533Y-107388495D01*
X178965366Y-107388923D01*
X178962980Y-107389637D01*
X178960537Y-107390159D01*
X178958056Y-107390487D01*
X178955557Y-107390620D01*
X178953058Y-107390555D01*
X178950579Y-107390293D01*
X178948137Y-107389829D01*
X178946936Y-107389522D01*
X178945752Y-107389165D01*
X178944586Y-107388756D01*
X178943442Y-107388296D01*
X178942322Y-107387785D01*
X178941227Y-107387223D01*
X178940161Y-107386609D01*
X178939125Y-107385943D01*
X178518517Y-107097256D01*
X178516397Y-107095951D01*
X178514128Y-107094805D01*
X178511731Y-107093819D01*
X178509225Y-107092993D01*
X178506633Y-107092329D01*
X178503973Y-107091827D01*
X178501267Y-107091488D01*
X178498535Y-107091312D01*
X178495797Y-107091302D01*
X178493074Y-107091457D01*
X178490386Y-107091778D01*
X178487754Y-107092266D01*
X178485199Y-107092922D01*
X178482740Y-107093747D01*
X178480399Y-107094742D01*
X178478195Y-107095906D01*
X178292695Y-107194966D01*
X178291588Y-107195499D01*
X178290472Y-107195968D01*
X178289348Y-107196373D01*
X178288218Y-107196715D01*
X178287084Y-107196996D01*
X178285949Y-107197214D01*
X178284813Y-107197372D01*
X178283680Y-107197470D01*
X178282551Y-107197509D01*
X178281428Y-107197490D01*
X178280312Y-107197412D01*
X178279207Y-107197278D01*
X178278114Y-107197088D01*
X178277035Y-107196842D01*
X178275971Y-107196541D01*
X178274925Y-107196187D01*
X178273899Y-107195779D01*
X178272895Y-107195318D01*
X178271914Y-107194806D01*
X178270959Y-107194243D01*
X178270032Y-107193629D01*
X178269134Y-107192966D01*
X178268268Y-107192255D01*
X178267435Y-107191495D01*
X178266638Y-107190688D01*
X178265878Y-107189834D01*
X178265158Y-107188934D01*
X178264479Y-107187989D01*
X178263843Y-107187000D01*
X178263253Y-107185968D01*
X178262709Y-107184892D01*
X178262215Y-107183774D01*
X177879787Y-106259611D01*
X177879340Y-106258463D01*
X177878952Y-106257297D01*
X177878622Y-106256116D01*
X177878350Y-106254921D01*
X177878134Y-106253715D01*
X177877974Y-106252500D01*
X177877818Y-106250053D01*
X177877877Y-106247597D01*
X177878144Y-106245149D01*
X177878614Y-106242729D01*
X177879281Y-106240353D01*
X177880138Y-106238039D01*
X177881180Y-106235806D01*
X177882400Y-106233670D01*
X177883794Y-106231650D01*
X177885354Y-106229764D01*
X177886195Y-106228876D01*
X177887076Y-106228029D01*
X177887995Y-106227223D01*
X177888953Y-106226462D01*
X177889947Y-106225748D01*
X177890979Y-106225083D01*
X177937413Y-106196667D01*
X177940762Y-106194536D01*
X177944335Y-106192108D01*
X177948066Y-106189434D01*
X177951889Y-106186566D01*
X177955738Y-106183558D01*
X177959547Y-106180460D01*
X177963251Y-106177324D01*
X177966782Y-106174204D01*
X177997510Y-106153169D01*
X178026835Y-106130331D01*
X178054678Y-106105770D01*
X178080958Y-106079564D01*
X178105595Y-106051794D01*
X178128510Y-106022539D01*
X178149622Y-105991878D01*
X178168851Y-105959891D01*
X178186117Y-105926658D01*
X178193990Y-105909599D01*
X178201341Y-105892258D01*
X178208162Y-105874646D01*
X178214442Y-105856771D01*
X178220172Y-105838644D01*
X178225341Y-105820276D01*
X178229939Y-105801675D01*
X178233957Y-105782852D01*
X178237384Y-105763817D01*
X178240210Y-105744580D01*
X178242426Y-105725150D01*
X178244021Y-105705538D01*
X178244985Y-105685754D01*
X178245309Y-105665807D01*
X178244523Y-105634745D01*
X178242192Y-105604090D01*
X178238353Y-105573882D01*
X178233045Y-105544158D01*
X178226304Y-105514955D01*
X178218170Y-105486312D01*
X178208679Y-105458267D01*
X178197871Y-105430857D01*
X178185783Y-105404121D01*
X178172452Y-105378096D01*
X178157918Y-105352820D01*
X178142217Y-105328332D01*
X178125388Y-105304669D01*
X178107469Y-105281868D01*
X178088497Y-105259969D01*
X178068511Y-105239008D01*
X178047548Y-105219024D01*
X178025647Y-105200054D01*
X178002846Y-105182137D01*
X177979182Y-105165311D01*
X177954693Y-105149612D01*
X177929417Y-105135080D01*
X177903393Y-105121752D01*
X177876658Y-105109666D01*
X177849250Y-105098860D01*
X177821207Y-105089372D01*
X177792567Y-105081239D01*
X177763368Y-105074501D01*
X177733648Y-105069193D01*
X177703445Y-105065355D01*
X177672797Y-105063025D01*
X177641741Y-105062240D01*
X177610686Y-105063025D01*
X177580037Y-105065356D01*
X177549834Y-105069195D01*
X177520114Y-105074504D01*
X177490915Y-105081244D01*
X177462275Y-105089379D01*
X177434233Y-105098869D01*
X177406825Y-105109677D01*
X177380089Y-105121766D01*
X177354065Y-105135096D01*
X177328790Y-105149631D01*
X177304301Y-105165331D01*
X177280637Y-105182161D01*
X177257835Y-105200080D01*
X177235934Y-105219051D01*
X177214971Y-105239038D01*
X177194985Y-105260000D01*
X177176014Y-105281901D01*
X177158094Y-105304703D01*
X177141265Y-105328367D01*
X177125565Y-105352856D01*
X177111030Y-105378131D01*
X177097700Y-105404156D01*
X177085611Y-105430891D01*
X177074803Y-105458299D01*
X177065313Y-105486342D01*
X177057178Y-105514981D01*
X177050438Y-105544180D01*
X177045129Y-105573900D01*
X177041290Y-105604103D01*
X177038959Y-105634752D01*
X177038174Y-105665807D01*
X177039462Y-105705539D01*
X177043272Y-105744583D01*
X177049525Y-105782859D01*
X177058141Y-105820287D01*
X177069040Y-105856787D01*
X177082141Y-105892279D01*
X177097365Y-105926684D01*
X177114631Y-105959921D01*
X177133861Y-105991911D01*
X177154973Y-106022574D01*
X177177887Y-106051829D01*
X177202524Y-106079598D01*
X177228804Y-106105799D01*
X177256647Y-106130354D01*
X177285972Y-106153182D01*
X177316700Y-106174204D01*
X177320205Y-106177324D01*
X177323889Y-106180460D01*
X177327684Y-106183558D01*
X177331524Y-106186567D01*
X177335341Y-106189434D01*
X177339069Y-106192108D01*
X177342641Y-106194536D01*
X177345990Y-106196667D01*
X177392424Y-106225083D01*
X177393456Y-106225755D01*
X177394450Y-106226476D01*
X177395408Y-106227242D01*
X177396327Y-106228051D01*
X177397207Y-106228903D01*
X177398048Y-106229793D01*
X177398849Y-106230721D01*
X177399609Y-106231684D01*
X177400327Y-106232679D01*
X177401003Y-106233705D01*
X177401635Y-106234760D01*
X177402223Y-106235841D01*
X177402767Y-106236946D01*
X177403265Y-106238072D01*
X177403717Y-106239219D01*
X177404122Y-106240383D01*
X177404480Y-106241562D01*
X177404789Y-106242755D01*
X177405048Y-106243958D01*
X177405258Y-106245170D01*
X177405418Y-106246389D01*
X177405526Y-106247613D01*
X177405581Y-106248838D01*
X177405584Y-106250064D01*
X177405534Y-106251288D01*
X177405429Y-106252507D01*
X177405269Y-106253720D01*
X177405053Y-106254924D01*
X177404780Y-106256118D01*
X177404451Y-106257298D01*
X177404063Y-106258463D01*
X177403616Y-106259611D01*
X177021187Y-107183774D01*
X177020693Y-107184892D01*
X177020150Y-107185968D01*
X177019560Y-107187000D01*
X177018924Y-107187989D01*
X177018245Y-107188934D01*
X177017524Y-107189834D01*
X177016764Y-107190688D01*
X177015967Y-107191495D01*
X177015135Y-107192255D01*
X177014268Y-107192966D01*
X177013371Y-107193629D01*
X177012443Y-107194243D01*
X177011488Y-107194806D01*
X177010508Y-107195318D01*
X177009503Y-107195779D01*
X177008477Y-107196187D01*
X177007432Y-107196541D01*
X177006368Y-107196842D01*
X177005289Y-107197088D01*
X177004195Y-107197278D01*
X177003090Y-107197412D01*
X177001975Y-107197490D01*
X177000852Y-107197509D01*
X176999723Y-107197470D01*
X176998589Y-107197372D01*
X176997454Y-107197214D01*
X176996319Y-107196996D01*
X176995185Y-107196715D01*
X176994055Y-107196373D01*
X176992931Y-107195968D01*
X176991814Y-107195499D01*
X176990707Y-107194966D01*
X176805208Y-107095906D01*
X176803004Y-107094755D01*
X176800663Y-107093770D01*
X176798204Y-107092952D01*
X176795648Y-107092300D01*
X176793017Y-107091813D01*
X176790329Y-107091492D01*
X176787606Y-107091335D01*
X176784868Y-107091342D01*
X176782136Y-107091513D01*
X176779430Y-107091848D01*
X176776770Y-107092345D01*
X176774178Y-107093004D01*
X176771672Y-107093825D01*
X176769275Y-107094808D01*
X176767006Y-107095952D01*
X176764886Y-107097256D01*
X176344277Y-107385943D01*
X176343242Y-107386609D01*
X176342176Y-107387223D01*
X176341081Y-107387785D01*
X176339961Y-107388296D01*
X176338817Y-107388756D01*
X176337651Y-107389165D01*
X176335267Y-107389829D01*
X176332826Y-107390292D01*
X176330349Y-107390555D01*
X176327852Y-107390619D01*
X176325356Y-107390487D01*
X176322880Y-107390159D01*
X176320442Y-107389637D01*
X176318062Y-107388923D01*
X176315758Y-107388019D01*
X176313550Y-107386926D01*
X176312487Y-107386309D01*
X176311455Y-107385645D01*
X176310457Y-107384935D01*
X176309494Y-107384179D01*
X176308570Y-107383377D01*
X176307686Y-107382529D01*
X175921685Y-106996608D01*
X175920837Y-106995717D01*
X175920034Y-106994784D01*
X175919277Y-106993814D01*
X175918566Y-106992809D01*
X175917901Y-106991770D01*
X175917282Y-106990700D01*
X175916710Y-106989602D01*
X175916185Y-106988478D01*
X175915706Y-106987331D01*
X175915276Y-106986162D01*
X175914557Y-106983770D01*
X175914030Y-106981323D01*
X175913698Y-106978838D01*
X175913562Y-106976336D01*
X175913624Y-106973835D01*
X175913887Y-106971355D01*
X175914094Y-106970129D01*
X175914352Y-106968915D01*
X175914660Y-106967716D01*
X175915021Y-106966534D01*
X175915432Y-106965372D01*
X175915896Y-106964231D01*
X175916411Y-106963115D01*
X175916979Y-106962026D01*
X175917599Y-106960966D01*
X175918272Y-106959937D01*
X176212118Y-106531788D01*
X176213432Y-106529664D01*
X176214605Y-106527381D01*
X176215634Y-106524962D01*
X176216519Y-106522427D01*
X176217256Y-106519797D01*
X176217844Y-106517093D01*
X176218282Y-106514336D01*
X176218567Y-106511548D01*
X176218698Y-106508747D01*
X176218673Y-106505957D01*
X176218489Y-106503198D01*
X176218146Y-106500490D01*
X176217641Y-106497854D01*
X176216972Y-106495312D01*
X176216137Y-106492885D01*
X176215135Y-106490593D01*
X176053607Y-106087209D01*
X176053206Y-106086034D01*
X176052751Y-106084863D01*
X176051681Y-106082536D01*
X176050414Y-106080243D01*
X176048963Y-106077999D01*
X176047346Y-106075817D01*
X176045576Y-106073711D01*
X176043669Y-106071696D01*
X176041641Y-106069786D01*
X176039507Y-106067995D01*
X176037282Y-106066337D01*
X176034982Y-106064827D01*
X176032622Y-106063478D01*
X176030217Y-106062305D01*
X176027783Y-106061322D01*
X176026560Y-106060907D01*
X176025335Y-106060544D01*
X176024111Y-106060235D01*
X176022889Y-106059983D01*
X175505602Y-105963701D01*
X175504396Y-105963448D01*
X175503206Y-105963135D01*
X175502033Y-105962766D01*
X175500878Y-105962340D01*
X175499743Y-105961862D01*
X175498629Y-105961331D01*
X175497539Y-105960751D01*
X175496473Y-105960122D01*
X175495432Y-105959447D01*
X175494420Y-105958728D01*
X175493436Y-105957966D01*
X175492482Y-105957163D01*
X175491561Y-105956321D01*
X175490673Y-105955443D01*
X175489819Y-105954529D01*
X175489003Y-105953581D01*
X175488224Y-105952602D01*
X175487484Y-105951593D01*
X175486786Y-105950556D01*
X175486129Y-105949493D01*
X175485517Y-105948405D01*
X175484950Y-105947296D01*
X175484430Y-105946165D01*
X175483959Y-105945016D01*
X175483537Y-105943850D01*
X175483166Y-105942668D01*
X175482849Y-105941473D01*
X175482586Y-105940267D01*
X175482379Y-105939051D01*
X175482229Y-105937828D01*
X175482138Y-105936598D01*
X175482107Y-105935364D01*
X175482107Y-105389582D01*
X175482130Y-105388348D01*
X175482215Y-105387119D01*
X175482358Y-105385897D01*
X175482560Y-105384682D01*
X175482817Y-105383478D01*
X175483130Y-105382285D01*
X175483495Y-105381105D01*
X175483913Y-105379942D01*
X175484380Y-105378795D01*
X175484896Y-105377667D01*
X175486069Y-105375474D01*
X175487419Y-105373379D01*
X175488933Y-105371395D01*
X175490600Y-105369537D01*
X175492407Y-105367818D01*
X175494342Y-105366254D01*
X175495355Y-105365534D01*
X175496394Y-105364858D01*
X175497460Y-105364227D01*
X175498550Y-105363645D01*
X175499664Y-105363111D01*
X175500798Y-105362629D01*
X175501953Y-105362199D01*
X175503126Y-105361824D01*
X175504317Y-105361505D01*
X175505522Y-105361245D01*
X175505919Y-105361245D01*
X176036223Y-105262661D01*
X176038661Y-105262103D01*
X176041110Y-105261329D01*
X176043554Y-105260354D01*
X176045978Y-105259192D01*
X176048365Y-105257857D01*
X176050699Y-105256362D01*
X176052964Y-105254721D01*
X176055144Y-105252948D01*
X176057223Y-105251057D01*
X176059184Y-105249061D01*
X176061011Y-105246976D01*
X176062689Y-105244813D01*
X176064200Y-105242588D01*
X176065530Y-105240314D01*
X176066661Y-105238004D01*
X176067577Y-105235674D01*
X176230137Y-104856420D01*
X176231184Y-104854144D01*
X176232065Y-104851733D01*
X176232781Y-104849209D01*
X176233333Y-104846593D01*
X176233721Y-104843903D01*
X176233947Y-104841162D01*
X176234012Y-104838388D01*
X176233917Y-104835604D01*
X176233663Y-104832829D01*
X176233251Y-104830084D01*
X176232681Y-104827389D01*
X176231956Y-104824764D01*
X176231076Y-104822231D01*
X176230042Y-104819810D01*
X176228856Y-104817520D01*
X176227517Y-104815383D01*
X175918510Y-104365009D01*
X175917844Y-104363974D01*
X175917229Y-104362909D01*
X175916666Y-104361815D01*
X175916153Y-104360696D01*
X175915692Y-104359553D01*
X175915282Y-104358390D01*
X175914612Y-104356009D01*
X175914144Y-104353572D01*
X175913877Y-104351097D01*
X175913808Y-104348603D01*
X175913936Y-104346108D01*
X175914261Y-104343631D01*
X175914781Y-104341190D01*
X175915495Y-104338804D01*
X175916401Y-104336490D01*
X175917498Y-104334269D01*
X175918118Y-104333198D01*
X175918785Y-104332157D01*
X175919499Y-104331148D01*
X175920261Y-104330174D01*
X175921069Y-104329237D01*
X175921924Y-104328338D01*
X176307845Y-103942417D01*
X176308736Y-103941569D01*
X176309668Y-103940766D01*
X176310637Y-103940009D01*
X176311641Y-103939298D01*
X176312678Y-103938633D01*
X176313745Y-103938014D01*
X176314841Y-103937442D01*
X176315962Y-103936917D01*
X176317107Y-103936438D01*
X176318272Y-103936007D01*
X176320657Y-103935289D01*
X176323098Y-103934762D01*
X176325575Y-103934430D01*
X176328070Y-103934294D01*
X176330563Y-103934356D01*
X176333037Y-103934619D01*
X176334260Y-103934826D01*
X176335471Y-103935084D01*
X176336667Y-103935392D01*
X176337847Y-103935752D01*
X176339007Y-103936164D01*
X176340146Y-103936627D01*
X176341260Y-103937143D01*
X176342348Y-103937711D01*
X176343408Y-103938331D01*
X176344436Y-103939004D01*
X176802668Y-104253488D01*
X176804794Y-104254815D01*
X176807079Y-104255997D01*
X176809501Y-104257033D01*
X176812041Y-104257920D01*
X176814675Y-104258658D01*
X176817384Y-104259244D01*
X176820146Y-104259678D01*
X176822939Y-104259957D01*
X176825742Y-104260079D01*
X176828534Y-104260044D01*
X176831294Y-104259849D01*
X176834000Y-104259493D01*
X176836632Y-104258974D01*
X176839167Y-104258291D01*
X176841585Y-104257441D01*
X176843864Y-104256425D01*
X177211449Y-104105930D01*
X177212617Y-104105514D01*
X177213781Y-104105043D01*
X177214940Y-104104518D01*
X177216093Y-104103942D01*
X177218371Y-104102641D01*
X177220601Y-104101158D01*
X177222770Y-104099508D01*
X177224862Y-104097707D01*
X177226865Y-104095771D01*
X177228763Y-104093716D01*
X177230544Y-104091557D01*
X177232192Y-104089311D01*
X177233693Y-104086994D01*
X177235035Y-104084621D01*
X177236202Y-104082209D01*
X177237181Y-104079773D01*
X177237595Y-104078551D01*
X177237957Y-104077329D01*
X177238265Y-104076110D01*
X177238516Y-104074894D01*
X177340593Y-103526413D01*
X177340846Y-103525207D01*
X177341158Y-103524017D01*
X177341528Y-103522843D01*
X177341953Y-103521688D01*
X177342432Y-103520554D01*
X177342962Y-103519440D01*
X177343542Y-103518349D01*
X177344171Y-103517283D01*
X177344845Y-103516243D01*
X177345564Y-103515230D01*
X177346325Y-103514246D01*
X177347127Y-103513293D01*
X177347967Y-103512371D01*
X177348845Y-103511483D01*
X177349757Y-103510630D01*
X177350703Y-103509813D01*
X177351680Y-103509034D01*
X177352687Y-103508295D01*
X177353721Y-103507596D01*
X177354782Y-103506940D01*
X177355866Y-103506328D01*
X177356972Y-103505761D01*
X177358099Y-103505241D01*
X177359245Y-103504769D01*
X177360406Y-103504348D01*
X177361583Y-103503977D01*
X177362773Y-103503660D01*
X177363973Y-103503397D01*
X177365183Y-103503189D01*
X177366401Y-103503039D01*
X177367624Y-103502948D01*
X177368850Y-103502918D01*
X177914712Y-103502918D01*
X177915938Y-103502948D01*
G37*
G36*
X178311132Y-109093097D02*
G01*
X178309661Y-109133203D01*
X178308494Y-109150483D01*
X178307012Y-109166119D01*
X178305196Y-109180268D01*
X178303024Y-109193083D01*
X178300478Y-109204720D01*
X178297538Y-109215333D01*
X178294181Y-109225077D01*
X178290390Y-109234106D01*
X178286144Y-109242576D01*
X178281422Y-109250642D01*
X178276204Y-109258457D01*
X178270471Y-109266178D01*
X178264050Y-109274179D01*
X178257197Y-109281883D01*
X178249912Y-109289259D01*
X178242192Y-109296276D01*
X178234037Y-109302906D01*
X178225444Y-109309116D01*
X178216413Y-109314879D01*
X178206941Y-109320162D01*
X178197027Y-109324937D01*
X178191905Y-109327124D01*
X178186671Y-109329173D01*
X178181325Y-109331079D01*
X178175869Y-109332839D01*
X178170301Y-109334450D01*
X178164621Y-109335907D01*
X178158829Y-109337207D01*
X178152925Y-109338345D01*
X178146908Y-109339319D01*
X178140779Y-109340124D01*
X178134537Y-109340757D01*
X178128183Y-109341214D01*
X178121715Y-109341490D01*
X178115134Y-109341584D01*
X178104057Y-109341265D01*
X178093133Y-109340326D01*
X178082378Y-109338786D01*
X178071808Y-109336668D01*
X178061439Y-109333995D01*
X178051290Y-109330788D01*
X178041375Y-109327070D01*
X178031711Y-109322861D01*
X178022315Y-109318184D01*
X178013204Y-109313062D01*
X178004393Y-109307516D01*
X177995900Y-109301567D01*
X177987741Y-109295239D01*
X177979933Y-109288553D01*
X177972491Y-109281531D01*
X177965433Y-109274194D01*
X177965433Y-109334757D01*
X177965433Y-109334837D01*
X177848910Y-109334837D01*
X177848910Y-109044721D01*
X177965354Y-109044721D01*
X177965811Y-109076425D01*
X177966597Y-109092349D01*
X177967943Y-109108106D01*
X177969993Y-109123532D01*
X177972888Y-109138467D01*
X177976771Y-109152748D01*
X177981784Y-109166214D01*
X177984759Y-109172590D01*
X177988070Y-109178702D01*
X177991734Y-109184529D01*
X177995770Y-109190051D01*
X178000196Y-109195247D01*
X178005028Y-109200097D01*
X178010285Y-109204582D01*
X178015985Y-109208681D01*
X178022145Y-109212373D01*
X178028784Y-109215639D01*
X178035918Y-109218458D01*
X178043566Y-109220809D01*
X178051746Y-109222674D01*
X178060476Y-109224030D01*
X178069772Y-109224859D01*
X178079653Y-109225140D01*
X178089538Y-109224878D01*
X178098844Y-109224104D01*
X178107588Y-109222835D01*
X178115788Y-109221086D01*
X178123462Y-109218874D01*
X178130626Y-109216217D01*
X178137298Y-109213130D01*
X178143496Y-109209630D01*
X178149236Y-109205733D01*
X178154537Y-109201456D01*
X178159415Y-109196816D01*
X178163888Y-109191830D01*
X178167974Y-109186512D01*
X178171689Y-109180881D01*
X178175052Y-109174953D01*
X178178079Y-109168744D01*
X178180787Y-109162271D01*
X178183195Y-109155550D01*
X178185320Y-109148599D01*
X178187179Y-109141432D01*
X178188789Y-109134068D01*
X178190168Y-109126522D01*
X178192302Y-109110952D01*
X178193719Y-109094855D01*
X178194559Y-109078362D01*
X178194962Y-109061607D01*
X178195065Y-109044721D01*
X178194605Y-109011121D01*
X178193814Y-108994676D01*
X178192458Y-108978639D01*
X178190392Y-108963141D01*
X178187472Y-108948311D01*
X178183554Y-108934279D01*
X178181177Y-108927603D01*
X178178495Y-108921174D01*
X178175493Y-108915010D01*
X178172151Y-108909126D01*
X178168451Y-108903538D01*
X178164377Y-108898264D01*
X178159909Y-108893318D01*
X178155029Y-108888717D01*
X178149721Y-108884478D01*
X178143965Y-108880616D01*
X178137743Y-108877148D01*
X178131039Y-108874090D01*
X178123833Y-108871457D01*
X178116107Y-108869267D01*
X178107845Y-108867536D01*
X178099027Y-108866279D01*
X178089636Y-108865513D01*
X178079653Y-108865254D01*
X178069772Y-108865532D01*
X178060476Y-108866353D01*
X178051746Y-108867697D01*
X178043566Y-108869544D01*
X178035918Y-108871874D01*
X178028784Y-108874668D01*
X178022145Y-108877904D01*
X178015985Y-108881565D01*
X178010285Y-108885628D01*
X178005028Y-108890076D01*
X178000196Y-108894887D01*
X177995770Y-108900042D01*
X177991734Y-108905522D01*
X177988070Y-108911305D01*
X177984759Y-108917372D01*
X177981784Y-108923704D01*
X177979127Y-108930280D01*
X177976771Y-108937081D01*
X177974697Y-108944086D01*
X177972888Y-108951276D01*
X177971326Y-108958631D01*
X177969993Y-108966131D01*
X177967943Y-108981485D01*
X177966597Y-108997181D01*
X177965811Y-109013058D01*
X177965444Y-109028958D01*
X177965354Y-109044721D01*
X177848910Y-109044721D01*
X177848910Y-108521322D01*
X177965433Y-108521322D01*
X177965433Y-108817232D01*
X177973616Y-108809686D01*
X177981893Y-108802481D01*
X177990276Y-108795635D01*
X177998780Y-108789171D01*
X178007418Y-108783107D01*
X178016204Y-108777465D01*
X178025150Y-108772263D01*
X178034271Y-108767524D01*
X178043579Y-108763266D01*
X178053089Y-108759510D01*
X178062814Y-108756277D01*
X178072768Y-108753586D01*
X178082963Y-108751458D01*
X178093413Y-108749913D01*
X178104132Y-108748971D01*
X178115134Y-108748652D01*
X178128183Y-108749021D01*
X178140779Y-108750108D01*
X178152925Y-108751884D01*
X178164621Y-108754318D01*
X178175869Y-108757381D01*
X178186671Y-108761042D01*
X178197027Y-108765273D01*
X178206941Y-108770044D01*
X178216413Y-108775324D01*
X178225444Y-108781084D01*
X178234037Y-108787295D01*
X178242192Y-108793926D01*
X178249912Y-108800947D01*
X178257197Y-108808330D01*
X178264050Y-108816043D01*
X178270471Y-108824058D01*
X178276204Y-108831740D01*
X178281422Y-108839501D01*
X178286144Y-108847498D01*
X178290390Y-108855889D01*
X178292342Y-108860281D01*
X178294181Y-108864831D01*
X178295913Y-108869558D01*
X178297538Y-108874482D01*
X178299059Y-108879622D01*
X178300478Y-108884998D01*
X178303024Y-108896538D01*
X178305196Y-108909258D01*
X178307012Y-108923315D01*
X178308494Y-108938868D01*
X178309661Y-108956073D01*
X178310534Y-108975088D01*
X178311132Y-108996069D01*
X178311477Y-109019175D01*
X178311587Y-109044563D01*
X178311585Y-109044721D01*
X178311132Y-109093097D01*
G37*
G36*
X175960605Y-107834044D02*
G01*
X175971839Y-107834848D01*
X175982840Y-107836187D01*
X175993598Y-107838062D01*
X176004102Y-107840473D01*
X176014343Y-107843420D01*
X176024309Y-107846903D01*
X176033991Y-107850921D01*
X176043378Y-107855475D01*
X176052460Y-107860565D01*
X176061226Y-107866191D01*
X176069666Y-107872352D01*
X176077771Y-107879050D01*
X176085528Y-107886283D01*
X176092928Y-107894052D01*
X176099962Y-107902356D01*
X176102184Y-107902356D01*
X176102184Y-107840682D01*
X176218707Y-107840682D01*
X176218707Y-108419881D01*
X176102184Y-108419881D01*
X176102184Y-108071425D01*
X176102022Y-108063640D01*
X176101542Y-108056134D01*
X176100754Y-108048904D01*
X176099668Y-108041950D01*
X176098295Y-108035267D01*
X176096643Y-108028856D01*
X176094724Y-108022713D01*
X176092548Y-108016836D01*
X176090123Y-108011223D01*
X176087461Y-108005873D01*
X176084572Y-108000783D01*
X176081465Y-107995951D01*
X176078150Y-107991374D01*
X176074638Y-107987052D01*
X176070938Y-107982982D01*
X176067061Y-107979161D01*
X176063016Y-107975588D01*
X176058814Y-107972261D01*
X176054465Y-107969177D01*
X176049978Y-107966334D01*
X176045364Y-107963731D01*
X176040633Y-107961365D01*
X176035794Y-107959234D01*
X176030858Y-107957337D01*
X176020735Y-107954232D01*
X176010343Y-107952036D01*
X175999763Y-107950730D01*
X175989075Y-107950298D01*
X175983611Y-107950393D01*
X175978364Y-107950683D01*
X175973307Y-107951174D01*
X175968412Y-107951872D01*
X175963654Y-107952785D01*
X175959004Y-107953919D01*
X175954436Y-107955281D01*
X175949923Y-107956877D01*
X175945438Y-107958714D01*
X175940954Y-107960798D01*
X175936443Y-107963136D01*
X175931880Y-107965736D01*
X175927237Y-107968602D01*
X175922487Y-107971743D01*
X175917602Y-107975165D01*
X175912557Y-107978873D01*
X175828023Y-107878305D01*
X175834715Y-107873292D01*
X175841490Y-107868530D01*
X175848356Y-107864027D01*
X175855320Y-107859795D01*
X175862389Y-107855843D01*
X175869571Y-107852182D01*
X175876872Y-107848821D01*
X175884300Y-107845772D01*
X175891861Y-107843043D01*
X175899564Y-107840645D01*
X175907415Y-107838588D01*
X175915422Y-107836883D01*
X175923592Y-107835539D01*
X175931931Y-107834566D01*
X175940448Y-107833975D01*
X175949149Y-107833776D01*
X175960605Y-107834044D01*
G37*
G36*
X175340004Y-108091555D02*
G01*
X175341087Y-108111334D01*
X175341454Y-108131988D01*
X175341054Y-108153735D01*
X175339873Y-108174448D01*
X175337940Y-108194149D01*
X175335284Y-108212860D01*
X175331934Y-108230604D01*
X175327918Y-108247405D01*
X175323265Y-108263283D01*
X175318004Y-108278262D01*
X175312164Y-108292365D01*
X175305775Y-108305614D01*
X175298863Y-108318031D01*
X175291459Y-108329640D01*
X175283592Y-108340462D01*
X175275290Y-108350520D01*
X175266581Y-108359837D01*
X175257496Y-108368436D01*
X175248062Y-108376339D01*
X175238308Y-108383568D01*
X175228264Y-108390146D01*
X175217958Y-108396097D01*
X175207419Y-108401441D01*
X175196676Y-108406202D01*
X175174693Y-108414065D01*
X175152239Y-108419867D01*
X175129544Y-108423788D01*
X175106841Y-108426007D01*
X175084359Y-108426707D01*
X175069832Y-108426383D01*
X175055405Y-108425401D01*
X175041099Y-108423743D01*
X175026933Y-108421393D01*
X175012929Y-108418333D01*
X174999105Y-108414547D01*
X174985483Y-108410019D01*
X174972083Y-108404730D01*
X174958924Y-108398665D01*
X174946028Y-108391806D01*
X174933413Y-108384137D01*
X174921102Y-108375641D01*
X174909113Y-108366300D01*
X174897467Y-108356099D01*
X174886184Y-108345019D01*
X174875285Y-108333045D01*
X174959820Y-108261131D01*
X174966405Y-108267595D01*
X174973285Y-108273703D01*
X174980435Y-108279449D01*
X174987830Y-108284822D01*
X174995445Y-108289815D01*
X175003255Y-108294419D01*
X175011235Y-108298626D01*
X175019361Y-108302426D01*
X175027606Y-108305811D01*
X175035946Y-108308773D01*
X175044356Y-108311303D01*
X175052811Y-108313392D01*
X175061286Y-108315032D01*
X175069756Y-108316214D01*
X175078196Y-108316929D01*
X175086581Y-108317170D01*
X175094017Y-108317029D01*
X175101318Y-108316607D01*
X175108478Y-108315905D01*
X175115491Y-108314921D01*
X175122348Y-108313657D01*
X175129045Y-108312113D01*
X175135574Y-108310289D01*
X175141928Y-108308184D01*
X175148101Y-108305801D01*
X175154086Y-108303137D01*
X175159877Y-108300195D01*
X175165466Y-108296973D01*
X175170848Y-108293473D01*
X175176016Y-108289695D01*
X175180962Y-108285637D01*
X175185681Y-108281302D01*
X175190165Y-108276689D01*
X175194408Y-108271799D01*
X175198403Y-108266630D01*
X175202144Y-108261185D01*
X175205624Y-108255463D01*
X175208837Y-108249463D01*
X175211775Y-108243187D01*
X175214432Y-108236635D01*
X175216801Y-108229807D01*
X175218876Y-108222703D01*
X175220650Y-108215323D01*
X175222117Y-108207667D01*
X175223269Y-108199737D01*
X175224100Y-108191531D01*
X175224603Y-108183050D01*
X175224773Y-108174295D01*
X174863934Y-108174295D01*
X174863934Y-108078410D01*
X174980456Y-108078410D01*
X175224931Y-108078410D01*
X175224932Y-108078410D01*
X175224580Y-108070278D01*
X175223946Y-108062389D01*
X175223035Y-108054743D01*
X175221854Y-108047342D01*
X175220408Y-108040186D01*
X175218702Y-108033277D01*
X175216744Y-108026615D01*
X175214538Y-108020202D01*
X175212091Y-108014038D01*
X175209409Y-108008126D01*
X175206497Y-108002465D01*
X175203361Y-107997056D01*
X175200007Y-107991902D01*
X175196441Y-107987002D01*
X175192669Y-107982358D01*
X175188697Y-107977971D01*
X175184530Y-107973841D01*
X175180175Y-107969971D01*
X175175637Y-107966361D01*
X175170922Y-107963011D01*
X175166037Y-107959924D01*
X175160986Y-107957100D01*
X175155776Y-107954540D01*
X175150413Y-107952245D01*
X175144903Y-107950216D01*
X175139251Y-107948454D01*
X175133463Y-107946960D01*
X175127545Y-107945736D01*
X175121504Y-107944782D01*
X175115344Y-107944099D01*
X175109072Y-107943689D01*
X175102694Y-107943552D01*
X175096319Y-107943689D01*
X175090058Y-107944099D01*
X175083915Y-107944782D01*
X175077895Y-107945736D01*
X175072004Y-107946960D01*
X175066246Y-107948454D01*
X175060628Y-107950216D01*
X175055153Y-107952245D01*
X175049828Y-107954540D01*
X175044657Y-107957100D01*
X175039646Y-107959924D01*
X175034800Y-107963012D01*
X175030124Y-107966361D01*
X175025623Y-107969971D01*
X175021302Y-107973842D01*
X175017167Y-107977971D01*
X175013223Y-107982358D01*
X175009474Y-107987002D01*
X175005927Y-107991902D01*
X175002585Y-107997056D01*
X174999455Y-108002465D01*
X174996542Y-108008126D01*
X174993850Y-108014039D01*
X174991385Y-108020202D01*
X174989152Y-108026615D01*
X174987157Y-108033277D01*
X174985404Y-108040186D01*
X174983898Y-108047342D01*
X174982646Y-108054743D01*
X174981651Y-108062389D01*
X174980919Y-108070278D01*
X174980456Y-108078410D01*
X174863934Y-108078410D01*
X174863934Y-108078330D01*
X174864256Y-108064458D01*
X174865211Y-108050914D01*
X174866781Y-108037706D01*
X174868949Y-108024841D01*
X174871698Y-108012328D01*
X174875010Y-108000172D01*
X174878870Y-107988381D01*
X174883258Y-107976964D01*
X174888159Y-107965926D01*
X174893555Y-107955275D01*
X174899429Y-107945019D01*
X174905763Y-107935165D01*
X174912540Y-107925720D01*
X174919744Y-107916692D01*
X174927357Y-107908088D01*
X174935362Y-107899915D01*
X174943741Y-107892181D01*
X174952478Y-107884892D01*
X174961555Y-107878057D01*
X174970955Y-107871683D01*
X174980661Y-107865776D01*
X174990655Y-107860344D01*
X175000921Y-107855395D01*
X175011442Y-107850936D01*
X175022199Y-107846974D01*
X175033176Y-107843516D01*
X175044356Y-107840571D01*
X175055722Y-107838144D01*
X175067255Y-107836244D01*
X175078940Y-107834878D01*
X175090759Y-107834053D01*
X175102695Y-107833776D01*
X175123833Y-107834653D01*
X175145109Y-107837360D01*
X175155735Y-107839436D01*
X175166318Y-107842013D01*
X175176831Y-107845105D01*
X175187250Y-107848727D01*
X175197548Y-107852893D01*
X175207699Y-107857617D01*
X175217677Y-107862914D01*
X175227457Y-107868798D01*
X175237013Y-107875284D01*
X175246318Y-107882386D01*
X175255347Y-107890119D01*
X175264074Y-107898496D01*
X175272472Y-107907533D01*
X175280517Y-107917243D01*
X175288181Y-107927642D01*
X175295440Y-107938742D01*
X175302267Y-107950560D01*
X175308636Y-107963109D01*
X175314522Y-107976404D01*
X175319898Y-107990458D01*
X175324739Y-108005288D01*
X175329018Y-108020906D01*
X175332710Y-108037327D01*
X175335789Y-108054566D01*
X175338229Y-108072638D01*
X175338770Y-108078410D01*
X175340004Y-108091555D01*
G37*
G36*
X179843604Y-109334757D02*
G01*
X179727082Y-109334757D01*
X179727082Y-108989714D01*
X179726936Y-108982415D01*
X179726502Y-108975313D01*
X179725788Y-108968411D01*
X179724799Y-108961710D01*
X179723542Y-108955213D01*
X179722023Y-108948923D01*
X179720248Y-108942841D01*
X179718225Y-108936969D01*
X179715960Y-108931311D01*
X179713458Y-108925868D01*
X179710727Y-108920642D01*
X179707773Y-108915637D01*
X179704602Y-108910853D01*
X179701221Y-108906294D01*
X179697636Y-108901961D01*
X179693853Y-108897857D01*
X179689880Y-108893985D01*
X179685722Y-108890345D01*
X179681387Y-108886942D01*
X179676879Y-108883776D01*
X179672207Y-108880851D01*
X179667376Y-108878168D01*
X179662392Y-108875730D01*
X179657263Y-108873539D01*
X179651994Y-108871597D01*
X179646592Y-108869907D01*
X179641064Y-108868470D01*
X179635415Y-108867290D01*
X179629653Y-108866368D01*
X179623784Y-108865707D01*
X179617814Y-108865308D01*
X179611750Y-108865175D01*
X179605688Y-108865308D01*
X179599727Y-108865707D01*
X179593872Y-108866368D01*
X179588128Y-108867290D01*
X179582503Y-108868470D01*
X179577003Y-108869907D01*
X179571632Y-108871597D01*
X179566398Y-108873539D01*
X179561306Y-108875730D01*
X179556363Y-108878168D01*
X179551575Y-108880851D01*
X179546947Y-108883776D01*
X179542485Y-108886942D01*
X179538197Y-108890345D01*
X179534087Y-108893985D01*
X179530162Y-108897857D01*
X179526428Y-108901961D01*
X179522891Y-108906294D01*
X179519557Y-108910853D01*
X179516432Y-108915637D01*
X179513523Y-108920642D01*
X179510834Y-108925868D01*
X179508373Y-108931311D01*
X179506145Y-108936969D01*
X179504157Y-108942841D01*
X179502414Y-108948923D01*
X179500922Y-108955213D01*
X179499688Y-108961710D01*
X179498718Y-108968411D01*
X179498017Y-108975313D01*
X179497593Y-108982415D01*
X179497450Y-108989714D01*
X179497450Y-109334757D01*
X179380927Y-109334757D01*
X179380927Y-108949709D01*
X179381225Y-108937575D01*
X179382104Y-108925803D01*
X179383543Y-108914396D01*
X179385520Y-108903354D01*
X179388016Y-108892680D01*
X179391008Y-108882374D01*
X179394476Y-108872438D01*
X179398398Y-108862874D01*
X179402754Y-108853684D01*
X179407522Y-108844867D01*
X179412681Y-108836427D01*
X179418210Y-108828365D01*
X179424088Y-108820681D01*
X179430294Y-108813378D01*
X179436806Y-108806457D01*
X179443604Y-108799919D01*
X179450666Y-108793766D01*
X179457971Y-108787999D01*
X179465499Y-108782620D01*
X179473228Y-108777631D01*
X179481136Y-108773032D01*
X179489204Y-108768825D01*
X179497409Y-108765012D01*
X179505731Y-108761594D01*
X179514148Y-108758573D01*
X179522639Y-108755950D01*
X179531184Y-108753726D01*
X179539761Y-108751903D01*
X179548349Y-108750483D01*
X179556927Y-108749467D01*
X179565473Y-108748856D01*
X179573967Y-108748652D01*
X179585423Y-108748921D01*
X179596658Y-108749727D01*
X179607666Y-108751070D01*
X179618440Y-108752950D01*
X179628972Y-108755366D01*
X179639257Y-108758317D01*
X179649288Y-108761805D01*
X179659057Y-108765827D01*
X179668559Y-108770384D01*
X179677786Y-108775476D01*
X179686731Y-108781102D01*
X179695389Y-108787262D01*
X179703751Y-108793955D01*
X179711812Y-108801182D01*
X179719565Y-108808941D01*
X179727002Y-108817232D01*
X179726605Y-108358207D01*
X179718422Y-108365766D01*
X179710146Y-108372981D01*
X179701762Y-108379833D01*
X179693258Y-108386302D01*
X179684620Y-108392367D01*
X179675834Y-108398009D01*
X179666888Y-108403209D01*
X179657767Y-108407945D01*
X179648459Y-108412199D01*
X179638949Y-108415950D01*
X179629224Y-108419178D01*
X179619270Y-108421864D01*
X179609075Y-108423988D01*
X179598625Y-108425530D01*
X179587906Y-108426469D01*
X179576904Y-108426787D01*
X179570323Y-108426694D01*
X179563854Y-108426417D01*
X179557499Y-108425960D01*
X179551256Y-108425328D01*
X179545125Y-108424522D01*
X179539106Y-108423549D01*
X179533200Y-108422410D01*
X179527405Y-108421110D01*
X179521722Y-108419653D01*
X179516151Y-108418043D01*
X179510691Y-108416282D01*
X179505342Y-108414376D01*
X179500105Y-108412327D01*
X179494978Y-108410140D01*
X179485057Y-108405365D01*
X179475578Y-108400082D01*
X179466539Y-108394320D01*
X179457940Y-108388109D01*
X179449779Y-108381480D01*
X179442054Y-108374462D01*
X179434765Y-108367086D01*
X179427910Y-108359382D01*
X179421488Y-108351380D01*
X179415755Y-108343711D01*
X179410537Y-108335984D01*
X179405815Y-108328036D01*
X179401568Y-108319707D01*
X179397777Y-108310834D01*
X179394421Y-108301254D01*
X179391480Y-108290806D01*
X179388934Y-108279328D01*
X179386763Y-108266657D01*
X179384947Y-108252631D01*
X179383465Y-108237089D01*
X179382298Y-108219868D01*
X179380826Y-108179742D01*
X179380372Y-108130956D01*
X179380372Y-108130877D01*
X179496973Y-108130877D01*
X179497064Y-108147568D01*
X179497433Y-108164155D01*
X179498224Y-108180503D01*
X179499580Y-108196478D01*
X179501647Y-108211946D01*
X179502991Y-108219448D01*
X179504566Y-108226773D01*
X179506392Y-108233905D01*
X179508484Y-108240825D01*
X179510862Y-108247519D01*
X179513543Y-108253968D01*
X179516546Y-108260156D01*
X179519888Y-108266067D01*
X179523587Y-108271683D01*
X179527661Y-108276987D01*
X179532130Y-108281964D01*
X179537009Y-108286596D01*
X179542318Y-108290867D01*
X179548074Y-108294759D01*
X179554295Y-108298256D01*
X179561000Y-108301341D01*
X179568206Y-108303998D01*
X179575931Y-108306209D01*
X179584193Y-108307958D01*
X179593011Y-108309228D01*
X179602402Y-108310003D01*
X179612385Y-108310264D01*
X179622266Y-108309990D01*
X179631563Y-108309179D01*
X179640292Y-108307850D01*
X179648472Y-108306024D01*
X179656120Y-108303718D01*
X179663255Y-108300954D01*
X179669893Y-108297749D01*
X179676053Y-108294123D01*
X179681753Y-108290095D01*
X179687010Y-108285685D01*
X179691843Y-108280912D01*
X179696268Y-108275794D01*
X179700304Y-108270352D01*
X179703968Y-108264605D01*
X179707279Y-108258572D01*
X179710254Y-108252271D01*
X179712911Y-108245723D01*
X179715267Y-108238946D01*
X179719150Y-108224785D01*
X179722045Y-108209941D01*
X179724095Y-108194569D01*
X179725442Y-108178823D01*
X179726227Y-108162856D01*
X179726685Y-108130877D01*
X179726606Y-108114919D01*
X179726273Y-108098851D01*
X179725537Y-108082829D01*
X179724251Y-108067011D01*
X179722269Y-108051555D01*
X179720971Y-108044012D01*
X179719443Y-108036617D01*
X179717668Y-108029392D01*
X179715626Y-108022356D01*
X179713300Y-108015528D01*
X179710671Y-108008927D01*
X179707720Y-108002575D01*
X179704430Y-107996490D01*
X179700781Y-107990692D01*
X179696756Y-107985200D01*
X179692336Y-107980035D01*
X179687503Y-107975216D01*
X179682238Y-107970762D01*
X179676522Y-107966694D01*
X179670338Y-107963030D01*
X179663667Y-107959792D01*
X179656491Y-107956997D01*
X179648791Y-107954667D01*
X179640549Y-107952820D01*
X179631746Y-107951477D01*
X179622364Y-107950656D01*
X179612385Y-107950378D01*
X179602402Y-107950643D01*
X179593011Y-107951427D01*
X179584193Y-107952712D01*
X179575931Y-107954481D01*
X179568206Y-107956718D01*
X179561000Y-107959404D01*
X179554295Y-107962523D01*
X179548074Y-107966057D01*
X179542318Y-107969990D01*
X179537009Y-107974304D01*
X179532130Y-107978982D01*
X179527661Y-107984007D01*
X179523587Y-107989362D01*
X179519888Y-107995028D01*
X179516546Y-108000991D01*
X179513543Y-108007231D01*
X179510862Y-108013732D01*
X179508484Y-108020477D01*
X179504566Y-108034629D01*
X179501647Y-108049550D01*
X179499580Y-108065103D01*
X179498224Y-108081149D01*
X179497433Y-108097552D01*
X179496973Y-108130877D01*
X179380372Y-108130877D01*
X179380482Y-108105387D01*
X179380826Y-108082122D01*
X179381425Y-108061002D01*
X179382298Y-108041869D01*
X179383465Y-108024563D01*
X179384947Y-108008925D01*
X179386763Y-107994797D01*
X179388934Y-107982019D01*
X179391480Y-107970433D01*
X179392900Y-107965037D01*
X179394421Y-107959879D01*
X179396046Y-107954940D01*
X179397777Y-107950199D01*
X179399617Y-107945637D01*
X179401568Y-107941234D01*
X179405815Y-107932824D01*
X179410537Y-107924812D01*
X179415755Y-107917037D01*
X179421488Y-107909341D01*
X179427923Y-107901339D01*
X179434788Y-107893635D01*
X179442084Y-107886260D01*
X179449812Y-107879242D01*
X179457975Y-107872613D01*
X179466574Y-107866402D01*
X179475611Y-107860640D01*
X179485087Y-107855356D01*
X179495004Y-107850582D01*
X179505363Y-107846346D01*
X179516167Y-107842679D01*
X179527416Y-107839611D01*
X179539113Y-107837173D01*
X179551259Y-107835394D01*
X179563855Y-107834305D01*
X179576904Y-107833935D01*
X179587981Y-107834252D01*
X179598905Y-107835190D01*
X179609660Y-107836726D01*
X179620230Y-107838839D01*
X179630599Y-107841507D01*
X179640749Y-107844709D01*
X179650664Y-107848423D01*
X179660327Y-107852628D01*
X179669723Y-107857301D01*
X179678834Y-107862422D01*
X179687645Y-107867968D01*
X179696138Y-107873918D01*
X179704297Y-107880250D01*
X179712105Y-107886943D01*
X179719547Y-107893975D01*
X179726605Y-107901324D01*
X179726605Y-107840761D01*
X179843604Y-107840761D01*
X179843604Y-108130877D01*
X179843604Y-109334757D01*
G37*
G36*
X179298933Y-109164578D02*
G01*
X179298713Y-109173934D01*
X179298054Y-109183140D01*
X179296963Y-109192185D01*
X179295441Y-109201061D01*
X179293493Y-109209757D01*
X179291123Y-109218265D01*
X179288336Y-109226574D01*
X179285134Y-109234675D01*
X179281522Y-109242558D01*
X179277505Y-109250213D01*
X179273085Y-109257632D01*
X179268268Y-109264804D01*
X179263056Y-109271720D01*
X179257454Y-109278370D01*
X179251467Y-109284744D01*
X179245097Y-109290834D01*
X179238349Y-109296629D01*
X179231227Y-109302119D01*
X179223734Y-109307296D01*
X179215876Y-109312150D01*
X179207655Y-109316670D01*
X179199076Y-109320848D01*
X179190143Y-109324673D01*
X179180860Y-109328136D01*
X179171231Y-109331228D01*
X179161259Y-109333939D01*
X179150949Y-109336259D01*
X179140304Y-109338179D01*
X179129329Y-109339689D01*
X179118028Y-109340780D01*
X179106405Y-109341441D01*
X179094463Y-109341664D01*
X179080134Y-109341449D01*
X179066681Y-109340801D01*
X179054071Y-109339715D01*
X179042270Y-109338186D01*
X179031246Y-109336209D01*
X179020965Y-109333778D01*
X179011393Y-109330888D01*
X179002497Y-109327535D01*
X178994244Y-109323713D01*
X178986601Y-109319417D01*
X178979533Y-109314642D01*
X178973008Y-109309383D01*
X178966992Y-109303634D01*
X178961453Y-109297392D01*
X178956355Y-109290649D01*
X178951667Y-109283402D01*
X178949365Y-109283402D01*
X178949365Y-109334837D01*
X178949286Y-109334837D01*
X178832763Y-109334837D01*
X178832763Y-109089171D01*
X178949286Y-109089171D01*
X178949286Y-109131478D01*
X178949384Y-109139714D01*
X178949681Y-109147493D01*
X178950184Y-109154829D01*
X178950898Y-109161733D01*
X178951828Y-109168220D01*
X178952981Y-109174301D01*
X178954362Y-109179990D01*
X178955976Y-109185299D01*
X178957829Y-109190241D01*
X178959928Y-109194829D01*
X178962277Y-109199075D01*
X178964882Y-109202993D01*
X178967750Y-109206596D01*
X178970885Y-109209895D01*
X178974293Y-109212904D01*
X178977980Y-109215635D01*
X178981952Y-109218102D01*
X178986214Y-109220317D01*
X178990772Y-109222293D01*
X178995632Y-109224043D01*
X179000799Y-109225579D01*
X179006279Y-109226914D01*
X179012078Y-109228062D01*
X179018201Y-109229034D01*
X179031442Y-109230505D01*
X179046049Y-109231429D01*
X179062067Y-109231909D01*
X179079540Y-109232046D01*
X179093761Y-109231651D01*
X179106884Y-109230497D01*
X179118932Y-109228625D01*
X179129932Y-109226081D01*
X179135047Y-109224571D01*
X179139909Y-109222908D01*
X179144521Y-109221099D01*
X179148886Y-109219149D01*
X179153009Y-109217064D01*
X179156890Y-109214848D01*
X179160535Y-109212508D01*
X179163946Y-109210049D01*
X179167126Y-109207476D01*
X179170077Y-109204795D01*
X179172805Y-109202011D01*
X179175311Y-109199129D01*
X179177598Y-109196156D01*
X179179670Y-109193096D01*
X179181530Y-109189955D01*
X179183181Y-109186739D01*
X179185868Y-109180101D01*
X179187756Y-109173227D01*
X179188871Y-109166159D01*
X179189237Y-109158941D01*
X179189143Y-109155019D01*
X179188861Y-109151186D01*
X179188389Y-109147444D01*
X179187728Y-109143797D01*
X179186876Y-109140245D01*
X179185833Y-109136792D01*
X179184596Y-109133440D01*
X179183167Y-109130191D01*
X179181543Y-109127048D01*
X179179725Y-109124012D01*
X179177710Y-109121087D01*
X179175499Y-109118274D01*
X179173090Y-109115575D01*
X179170483Y-109112994D01*
X179167677Y-109110532D01*
X179164670Y-109108191D01*
X179161463Y-109105974D01*
X179158054Y-109103884D01*
X179154442Y-109101922D01*
X179150627Y-109100092D01*
X179146607Y-109098394D01*
X179142383Y-109096832D01*
X179137952Y-109095407D01*
X179133315Y-109094123D01*
X179128469Y-109092981D01*
X179123416Y-109091984D01*
X179118153Y-109091134D01*
X179112680Y-109090434D01*
X179106996Y-109089885D01*
X179101100Y-109089490D01*
X179094991Y-109089251D01*
X179088669Y-109089171D01*
X178949286Y-109089171D01*
X178832763Y-109089171D01*
X178832763Y-108939549D01*
X178833050Y-108926438D01*
X178833902Y-108913874D01*
X178835310Y-108901848D01*
X178837265Y-108890352D01*
X178839756Y-108879377D01*
X178842773Y-108868914D01*
X178846308Y-108858955D01*
X178850349Y-108849492D01*
X178854887Y-108840515D01*
X178859913Y-108832017D01*
X178865415Y-108823989D01*
X178871386Y-108816421D01*
X178877814Y-108809307D01*
X178884690Y-108802636D01*
X178892004Y-108796400D01*
X178899746Y-108790592D01*
X178907907Y-108785202D01*
X178916476Y-108780222D01*
X178925443Y-108775643D01*
X178934800Y-108771456D01*
X178944535Y-108767654D01*
X178954640Y-108764227D01*
X178965104Y-108761168D01*
X178975918Y-108758466D01*
X178987071Y-108756115D01*
X178998554Y-108754105D01*
X179022469Y-108751074D01*
X179047586Y-108749306D01*
X179073825Y-108748732D01*
X179089840Y-108749002D01*
X179105324Y-108749831D01*
X179120282Y-108751241D01*
X179134720Y-108753256D01*
X179148641Y-108755900D01*
X179162052Y-108759196D01*
X179174957Y-108763169D01*
X179187361Y-108767841D01*
X179199270Y-108773237D01*
X179210688Y-108779381D01*
X179221619Y-108786296D01*
X179232071Y-108794005D01*
X179242046Y-108802533D01*
X179251550Y-108811904D01*
X179260589Y-108822140D01*
X179269167Y-108833266D01*
X179177807Y-108902958D01*
X179175855Y-108899918D01*
X179173852Y-108897002D01*
X179171794Y-108894209D01*
X179169675Y-108891538D01*
X179167491Y-108888985D01*
X179165239Y-108886550D01*
X179162914Y-108884230D01*
X179160510Y-108882024D01*
X179158025Y-108879929D01*
X179155453Y-108877945D01*
X179152790Y-108876068D01*
X179150033Y-108874298D01*
X179147175Y-108872632D01*
X179144213Y-108871068D01*
X179141143Y-108869605D01*
X179137960Y-108868241D01*
X179134660Y-108866974D01*
X179131239Y-108865802D01*
X179127691Y-108864723D01*
X179124013Y-108863736D01*
X179120200Y-108862839D01*
X179116248Y-108862029D01*
X179112153Y-108861305D01*
X179107909Y-108860665D01*
X179098961Y-108859629D01*
X179089369Y-108858908D01*
X179079097Y-108858486D01*
X179068110Y-108858349D01*
X179053028Y-108858581D01*
X179039053Y-108859292D01*
X179026166Y-108860505D01*
X179014350Y-108862245D01*
X179003585Y-108864533D01*
X178993853Y-108867395D01*
X178985136Y-108870852D01*
X178981152Y-108872811D01*
X178977415Y-108874929D01*
X178973922Y-108877207D01*
X178970671Y-108879648D01*
X178967660Y-108882256D01*
X178964886Y-108885034D01*
X178962348Y-108887983D01*
X178960043Y-108891109D01*
X178957968Y-108894412D01*
X178956121Y-108897897D01*
X178954500Y-108901565D01*
X178953103Y-108905421D01*
X178951927Y-108909466D01*
X178950970Y-108913704D01*
X178950230Y-108918138D01*
X178949704Y-108922771D01*
X178949286Y-108932644D01*
X178949286Y-108993207D01*
X179110417Y-108993207D01*
X179121915Y-108993436D01*
X179133058Y-108994116D01*
X179143844Y-108995234D01*
X179154274Y-108996778D01*
X179164346Y-108998737D01*
X179174061Y-109001098D01*
X179183416Y-109003850D01*
X179192413Y-109006980D01*
X179201049Y-109010477D01*
X179209326Y-109014328D01*
X179217241Y-109018523D01*
X179224794Y-109023048D01*
X179231985Y-109027891D01*
X179238813Y-109033042D01*
X179245277Y-109038487D01*
X179251377Y-109044215D01*
X179257113Y-109050215D01*
X179262482Y-109056473D01*
X179267486Y-109062978D01*
X179272123Y-109069718D01*
X179276392Y-109076681D01*
X179280294Y-109083855D01*
X179283827Y-109091229D01*
X179286991Y-109098790D01*
X179289784Y-109106525D01*
X179292208Y-109114425D01*
X179294260Y-109122475D01*
X179295941Y-109130665D01*
X179297249Y-109138982D01*
X179298184Y-109147414D01*
X179298746Y-109155950D01*
X179298810Y-109158941D01*
X179298933Y-109164578D01*
G37*
G36*
X177200416Y-109161164D02*
G01*
X177202798Y-109161164D01*
X177334164Y-108755637D01*
X177418698Y-108755637D01*
X177550063Y-109161164D01*
X177552366Y-109161164D01*
X177663173Y-108755637D01*
X177786522Y-108755637D01*
X177601499Y-109334837D01*
X177498628Y-109334837D01*
X177377582Y-108929231D01*
X177375280Y-108929231D01*
X177254154Y-109334837D01*
X177151284Y-109334837D01*
X176966260Y-108755637D01*
X177089688Y-108755637D01*
X177200416Y-109161164D01*
G37*
G36*
X175604002Y-107834857D02*
G01*
X175616394Y-107836121D01*
X175628690Y-107837903D01*
X175640869Y-107840213D01*
X175652906Y-107843058D01*
X175664779Y-107846446D01*
X175676467Y-107850385D01*
X175687944Y-107854882D01*
X175699190Y-107859947D01*
X175710181Y-107865586D01*
X175720894Y-107871809D01*
X175731307Y-107878622D01*
X175741397Y-107886033D01*
X175751140Y-107894051D01*
X175760515Y-107902684D01*
X175769498Y-107911939D01*
X175778067Y-107921825D01*
X175786198Y-107932349D01*
X175793870Y-107943520D01*
X175801058Y-107955345D01*
X175807742Y-107967832D01*
X175813896Y-107980989D01*
X175819500Y-107994825D01*
X175824530Y-108009346D01*
X175828963Y-108024562D01*
X175832777Y-108040480D01*
X175835948Y-108057107D01*
X175838454Y-108074453D01*
X175840273Y-108092525D01*
X175841381Y-108111330D01*
X175841755Y-108130877D01*
X175841381Y-108150421D01*
X175840273Y-108169217D01*
X175838454Y-108187273D01*
X175835948Y-108204599D01*
X175832777Y-108221201D01*
X175828963Y-108237089D01*
X175824530Y-108252271D01*
X175819500Y-108266756D01*
X175813896Y-108280551D01*
X175807741Y-108293665D01*
X175801058Y-108306106D01*
X175793869Y-108317883D01*
X175786198Y-108329004D01*
X175778066Y-108339477D01*
X175769498Y-108349311D01*
X175760515Y-108358515D01*
X175751140Y-108367095D01*
X175741396Y-108375062D01*
X175731307Y-108382423D01*
X175720894Y-108389186D01*
X175710181Y-108395360D01*
X175699190Y-108400954D01*
X175687944Y-108405975D01*
X175676466Y-108410432D01*
X175652906Y-108417688D01*
X175628690Y-108422788D01*
X175604002Y-108425799D01*
X175579024Y-108426787D01*
X175562747Y-108426298D01*
X175546898Y-108424856D01*
X175531480Y-108422499D01*
X175516494Y-108419268D01*
X175501942Y-108415199D01*
X175487827Y-108410333D01*
X175474150Y-108404707D01*
X175460914Y-108398361D01*
X175448121Y-108391333D01*
X175435772Y-108383662D01*
X175423871Y-108375386D01*
X175412418Y-108366545D01*
X175401417Y-108357177D01*
X175390869Y-108347321D01*
X175380776Y-108337015D01*
X175371141Y-108326299D01*
X175456786Y-108249781D01*
X175456786Y-108249701D01*
X175462290Y-108256215D01*
X175468079Y-108262468D01*
X175474145Y-108268436D01*
X175480480Y-108274099D01*
X175487075Y-108279435D01*
X175493923Y-108284421D01*
X175501014Y-108289036D01*
X175508340Y-108293258D01*
X175515894Y-108297066D01*
X175523666Y-108300436D01*
X175531648Y-108303348D01*
X175539832Y-108305780D01*
X175548210Y-108307709D01*
X175556773Y-108309114D01*
X175561121Y-108309613D01*
X175565512Y-108309973D01*
X175569946Y-108310191D01*
X175574420Y-108310264D01*
X175583191Y-108310106D01*
X175591732Y-108309630D01*
X175600039Y-108308833D01*
X175608111Y-108307710D01*
X175615942Y-108306259D01*
X175623531Y-108304477D01*
X175630873Y-108302359D01*
X175637967Y-108299903D01*
X175644808Y-108297106D01*
X175651394Y-108293964D01*
X175657721Y-108290474D01*
X175663787Y-108286631D01*
X175669587Y-108282434D01*
X175675119Y-108277879D01*
X175680380Y-108272962D01*
X175685366Y-108267680D01*
X175690075Y-108262029D01*
X175694503Y-108256007D01*
X175698647Y-108249610D01*
X175702504Y-108242834D01*
X175706070Y-108235677D01*
X175709343Y-108228135D01*
X175712319Y-108220204D01*
X175714996Y-108211882D01*
X175717369Y-108203164D01*
X175719436Y-108194048D01*
X175721194Y-108184530D01*
X175722639Y-108174607D01*
X175723769Y-108164276D01*
X175724580Y-108153533D01*
X175725069Y-108142375D01*
X175725233Y-108130798D01*
X175724580Y-108108052D01*
X175722639Y-108086947D01*
X175721194Y-108077003D01*
X175719436Y-108067459D01*
X175717369Y-108058315D01*
X175714996Y-108049565D01*
X175712319Y-108041208D01*
X175709343Y-108033240D01*
X175706070Y-108025658D01*
X175702504Y-108018460D01*
X175698647Y-108011642D01*
X175694503Y-108005201D01*
X175690075Y-107999134D01*
X175685366Y-107993439D01*
X175680380Y-107988113D01*
X175675119Y-107983151D01*
X175669587Y-107978552D01*
X175663787Y-107974313D01*
X175657721Y-107970430D01*
X175651394Y-107966900D01*
X175644808Y-107963720D01*
X175637967Y-107960888D01*
X175630873Y-107958401D01*
X175623531Y-107956254D01*
X175615942Y-107954446D01*
X175608111Y-107952974D01*
X175591732Y-107951023D01*
X175574420Y-107950378D01*
X175565511Y-107950670D01*
X175556769Y-107951529D01*
X175548203Y-107952934D01*
X175539821Y-107954863D01*
X175531632Y-107957295D01*
X175523645Y-107960207D01*
X175515868Y-107963577D01*
X175508311Y-107967385D01*
X175500981Y-107971607D01*
X175493888Y-107976222D01*
X175487040Y-107981208D01*
X175480446Y-107986544D01*
X175474115Y-107992207D01*
X175468056Y-107998175D01*
X175462277Y-108004427D01*
X175456786Y-108010941D01*
X175371141Y-107934424D01*
X175380789Y-107923693D01*
X175390892Y-107913375D01*
X175401446Y-107903508D01*
X175412452Y-107894131D01*
X175423906Y-107885282D01*
X175435807Y-107877001D01*
X175448154Y-107869324D01*
X175460944Y-107862292D01*
X175474175Y-107855943D01*
X175487848Y-107850314D01*
X175501958Y-107845446D01*
X175516505Y-107841377D01*
X175531487Y-107838144D01*
X175546902Y-107835788D01*
X175554771Y-107834950D01*
X175562748Y-107834345D01*
X175570832Y-107833979D01*
X175579024Y-107833856D01*
X175604002Y-107834857D01*
G37*
G36*
X176104908Y-108748999D02*
G01*
X176116139Y-108749803D01*
X176127137Y-108751142D01*
X176137890Y-108753017D01*
X176148390Y-108755428D01*
X176158625Y-108758375D01*
X176168587Y-108761858D01*
X176178265Y-108765876D01*
X176187649Y-108770430D01*
X176196729Y-108775520D01*
X176205494Y-108781146D01*
X176213936Y-108787308D01*
X176222045Y-108794005D01*
X176229809Y-108801238D01*
X176237219Y-108809007D01*
X176244265Y-108817311D01*
X176246567Y-108817311D01*
X176246567Y-108755637D01*
X176363089Y-108755637D01*
X176363089Y-109334837D01*
X176363010Y-109334837D01*
X176246488Y-109334837D01*
X176246488Y-108986380D01*
X176246326Y-108978602D01*
X176245846Y-108971102D01*
X176245058Y-108963878D01*
X176243972Y-108956928D01*
X176242598Y-108950249D01*
X176240947Y-108943841D01*
X176239028Y-108937700D01*
X176236851Y-108931825D01*
X176234427Y-108926213D01*
X176231765Y-108920863D01*
X176228876Y-108915773D01*
X176225768Y-108910941D01*
X176222454Y-108906364D01*
X176218941Y-108902041D01*
X176215242Y-108897969D01*
X176211365Y-108894146D01*
X176207320Y-108890571D01*
X176203118Y-108887242D01*
X176198769Y-108884155D01*
X176194282Y-108881311D01*
X176189668Y-108878705D01*
X176184937Y-108876337D01*
X176180098Y-108874203D01*
X176175162Y-108872303D01*
X176165039Y-108869195D01*
X176154647Y-108866995D01*
X176144067Y-108865686D01*
X176133379Y-108865254D01*
X176127915Y-108865349D01*
X176122668Y-108865639D01*
X176117611Y-108866129D01*
X176112716Y-108866828D01*
X176107958Y-108867741D01*
X176103308Y-108868875D01*
X176098740Y-108870236D01*
X176094227Y-108871832D01*
X176089742Y-108873669D01*
X176085258Y-108875753D01*
X176080747Y-108878092D01*
X176076184Y-108880691D01*
X176071541Y-108883558D01*
X176066790Y-108886698D01*
X176061906Y-108890120D01*
X176056861Y-108893828D01*
X175972326Y-108793261D01*
X175979006Y-108788248D01*
X175985774Y-108783485D01*
X175992637Y-108778982D01*
X175999602Y-108774750D01*
X176006674Y-108770798D01*
X176013861Y-108767137D01*
X176021168Y-108763776D01*
X176028603Y-108760727D01*
X176036172Y-108757998D01*
X176043882Y-108755600D01*
X176051738Y-108753543D01*
X176059748Y-108751838D01*
X176067918Y-108750494D01*
X176076254Y-108749521D01*
X176084764Y-108748930D01*
X176093453Y-108748731D01*
X176104908Y-108748999D01*
G37*
G36*
X175968654Y-109006433D02*
G01*
X175969737Y-109026211D01*
X175970105Y-109046865D01*
X175969704Y-109068619D01*
X175968524Y-109089339D01*
X175966591Y-109109046D01*
X175963934Y-109127763D01*
X175960584Y-109145513D01*
X175956568Y-109162318D01*
X175951915Y-109178201D01*
X175946654Y-109193185D01*
X175940814Y-109207292D01*
X175934425Y-109220544D01*
X175927513Y-109232965D01*
X175920110Y-109244576D01*
X175912242Y-109255401D01*
X175903940Y-109265462D01*
X175895231Y-109274782D01*
X175886146Y-109283382D01*
X175876712Y-109291287D01*
X175866958Y-109298518D01*
X175856914Y-109305097D01*
X175846608Y-109311049D01*
X175836069Y-109316394D01*
X175825326Y-109321156D01*
X175803343Y-109329021D01*
X175780889Y-109334823D01*
X175758194Y-109338744D01*
X175735491Y-109340964D01*
X175713009Y-109341664D01*
X175698483Y-109341340D01*
X175684059Y-109340358D01*
X175669756Y-109338700D01*
X175655595Y-109336349D01*
X175641595Y-109333290D01*
X175627776Y-109329504D01*
X175614159Y-109324975D01*
X175600763Y-109319687D01*
X175587607Y-109313621D01*
X175574712Y-109306763D01*
X175562099Y-109299093D01*
X175549785Y-109290597D01*
X175537792Y-109281256D01*
X175526140Y-109271055D01*
X175514847Y-109259975D01*
X175503935Y-109248001D01*
X175588470Y-109176008D01*
X175595056Y-109182484D01*
X175601938Y-109188603D01*
X175609092Y-109194355D01*
X175616491Y-109199732D01*
X175624111Y-109204727D01*
X175631926Y-109209331D01*
X175639911Y-109213536D01*
X175648040Y-109217333D01*
X175656289Y-109220714D01*
X175664631Y-109223671D01*
X175673041Y-109226196D01*
X175681495Y-109228280D01*
X175689966Y-109229916D01*
X175698429Y-109231094D01*
X175706859Y-109231807D01*
X175715231Y-109232047D01*
X175722667Y-109231906D01*
X175729968Y-109231484D01*
X175737129Y-109230782D01*
X175744141Y-109229798D01*
X175750998Y-109228534D01*
X175757695Y-109226990D01*
X175764224Y-109225166D01*
X175770578Y-109223062D01*
X175776751Y-109220679D01*
X175782736Y-109218017D01*
X175788527Y-109215075D01*
X175794117Y-109211854D01*
X175799498Y-109208355D01*
X175804666Y-109204578D01*
X175809612Y-109200522D01*
X175814331Y-109196189D01*
X175818815Y-109191578D01*
X175823058Y-109186690D01*
X175827053Y-109181524D01*
X175830794Y-109176081D01*
X175834275Y-109170362D01*
X175837487Y-109164366D01*
X175840425Y-109158094D01*
X175843082Y-109151546D01*
X175845451Y-109144722D01*
X175847526Y-109137622D01*
X175849300Y-109130247D01*
X175850767Y-109122597D01*
X175851919Y-109114672D01*
X175852750Y-109106473D01*
X175853253Y-109097999D01*
X175853423Y-109089251D01*
X175492664Y-109089251D01*
X175492664Y-108993207D01*
X175609106Y-108993207D01*
X175853581Y-108993207D01*
X175853582Y-108993207D01*
X175853230Y-108985082D01*
X175852596Y-108977199D01*
X175851685Y-108969558D01*
X175850504Y-108962161D01*
X175849058Y-108955009D01*
X175847352Y-108948103D01*
X175845394Y-108941443D01*
X175843188Y-108935032D01*
X175840741Y-108928870D01*
X175838059Y-108922958D01*
X175835147Y-108917296D01*
X175832011Y-108911888D01*
X175828657Y-108906732D01*
X175825091Y-108901831D01*
X175821319Y-108897186D01*
X175817347Y-108892797D01*
X175813180Y-108888666D01*
X175808825Y-108884794D01*
X175804287Y-108881181D01*
X175799572Y-108877829D01*
X175794687Y-108874739D01*
X175789636Y-108871913D01*
X175784426Y-108869350D01*
X175779063Y-108867052D01*
X175773553Y-108865021D01*
X175767901Y-108863257D01*
X175762113Y-108861762D01*
X175756195Y-108860536D01*
X175750154Y-108859581D01*
X175743994Y-108858897D01*
X175737722Y-108858486D01*
X175731344Y-108858349D01*
X175724969Y-108858486D01*
X175718707Y-108858897D01*
X175712563Y-108859581D01*
X175706542Y-108860536D01*
X175700649Y-108861762D01*
X175694889Y-108863257D01*
X175689269Y-108865021D01*
X175683792Y-108867052D01*
X175678465Y-108869350D01*
X175673292Y-108871913D01*
X175668278Y-108874739D01*
X175663429Y-108877829D01*
X175658751Y-108881181D01*
X175654248Y-108884794D01*
X175649925Y-108888666D01*
X175645788Y-108892797D01*
X175641841Y-108897186D01*
X175638091Y-108901831D01*
X175634543Y-108906732D01*
X175631200Y-108911888D01*
X175628070Y-108917296D01*
X175625157Y-108922958D01*
X175622465Y-108928870D01*
X175620002Y-108935032D01*
X175617771Y-108941443D01*
X175615778Y-108948103D01*
X175614027Y-108955009D01*
X175612526Y-108962161D01*
X175611277Y-108969558D01*
X175610288Y-108977199D01*
X175609562Y-108985082D01*
X175609106Y-108993207D01*
X175492664Y-108993207D01*
X175492986Y-108979342D01*
X175493939Y-108965805D01*
X175495508Y-108952603D01*
X175497675Y-108939745D01*
X175500422Y-108927236D01*
X175503733Y-108915086D01*
X175507590Y-108903300D01*
X175511976Y-108891886D01*
X175516874Y-108880853D01*
X175522266Y-108870206D01*
X175528137Y-108859953D01*
X175534467Y-108850102D01*
X175541241Y-108840660D01*
X175548442Y-108831635D01*
X175556051Y-108823033D01*
X175564052Y-108814862D01*
X175572427Y-108807129D01*
X175581160Y-108799842D01*
X175590234Y-108793008D01*
X175599630Y-108786635D01*
X175609333Y-108780729D01*
X175619324Y-108775298D01*
X175629587Y-108770350D01*
X175640104Y-108765891D01*
X175650859Y-108761930D01*
X175661834Y-108758472D01*
X175673012Y-108755527D01*
X175684375Y-108753100D01*
X175695907Y-108751200D01*
X175707591Y-108749834D01*
X175719409Y-108749009D01*
X175731345Y-108748732D01*
X175752483Y-108749608D01*
X175773759Y-108752313D01*
X175784385Y-108754387D01*
X175794968Y-108756962D01*
X175805481Y-108760052D01*
X175815900Y-108763671D01*
X175826198Y-108767834D01*
X175836349Y-108772555D01*
X175846328Y-108777849D01*
X175856108Y-108783730D01*
X175865663Y-108790212D01*
X175874968Y-108797311D01*
X175883997Y-108805040D01*
X175892724Y-108813413D01*
X175901122Y-108822446D01*
X175909167Y-108832153D01*
X175916831Y-108842547D01*
X175924090Y-108853645D01*
X175930917Y-108865459D01*
X175937286Y-108878005D01*
X175943172Y-108891296D01*
X175948548Y-108905348D01*
X175953389Y-108920175D01*
X175957668Y-108935790D01*
X175961360Y-108952209D01*
X175964439Y-108969447D01*
X175966879Y-108987517D01*
X175967413Y-108993207D01*
X175968654Y-109006433D01*
G37*
G36*
X176957370Y-109164578D02*
G01*
X176957150Y-109173934D01*
X176956492Y-109183140D01*
X176955400Y-109192185D01*
X176953878Y-109201061D01*
X176951930Y-109209757D01*
X176949560Y-109218265D01*
X176946772Y-109226574D01*
X176943570Y-109234675D01*
X176939958Y-109242558D01*
X176935940Y-109250213D01*
X176931520Y-109257632D01*
X176926701Y-109264804D01*
X176921488Y-109271720D01*
X176915885Y-109278370D01*
X176909896Y-109284744D01*
X176903524Y-109290834D01*
X176896774Y-109296629D01*
X176889650Y-109302119D01*
X176882155Y-109307296D01*
X176874294Y-109312150D01*
X176866070Y-109316670D01*
X176857488Y-109320848D01*
X176848551Y-109324673D01*
X176839264Y-109328136D01*
X176829630Y-109331228D01*
X176819654Y-109333939D01*
X176809338Y-109336259D01*
X176798688Y-109338179D01*
X176787708Y-109339689D01*
X176776400Y-109340780D01*
X176764770Y-109341441D01*
X176752821Y-109341664D01*
X176738492Y-109341449D01*
X176725039Y-109340801D01*
X176712428Y-109339715D01*
X176700627Y-109338186D01*
X176689602Y-109336209D01*
X176679319Y-109333778D01*
X176669744Y-109330888D01*
X176660845Y-109327535D01*
X176652588Y-109323713D01*
X176644939Y-109319417D01*
X176637865Y-109314642D01*
X176631333Y-109309383D01*
X176625308Y-109303634D01*
X176619758Y-109297392D01*
X176614648Y-109290649D01*
X176609946Y-109283402D01*
X176607724Y-109283402D01*
X176607724Y-109334837D01*
X176607644Y-109334837D01*
X176491122Y-109334837D01*
X176491122Y-109089171D01*
X176607644Y-109089171D01*
X176607644Y-109131478D01*
X176607742Y-109139714D01*
X176608040Y-109147493D01*
X176608542Y-109154829D01*
X176609256Y-109161733D01*
X176610186Y-109168220D01*
X176611339Y-109174301D01*
X176612720Y-109179990D01*
X176614334Y-109185299D01*
X176616187Y-109190241D01*
X176618286Y-109194829D01*
X176620635Y-109199075D01*
X176623240Y-109202993D01*
X176626108Y-109206596D01*
X176629243Y-109209895D01*
X176632651Y-109212904D01*
X176636338Y-109215635D01*
X176640310Y-109218102D01*
X176644572Y-109220317D01*
X176649130Y-109222293D01*
X176653990Y-109224043D01*
X176659157Y-109225579D01*
X176664637Y-109226914D01*
X176670436Y-109228062D01*
X176676559Y-109229034D01*
X176689801Y-109230505D01*
X176704408Y-109231429D01*
X176720425Y-109231909D01*
X176737898Y-109232046D01*
X176752119Y-109231651D01*
X176765242Y-109230497D01*
X176777290Y-109228625D01*
X176788290Y-109226081D01*
X176793405Y-109224571D01*
X176798267Y-109222908D01*
X176802879Y-109221099D01*
X176807245Y-109219149D01*
X176811367Y-109217064D01*
X176815249Y-109214848D01*
X176818893Y-109212508D01*
X176822304Y-109210049D01*
X176825484Y-109207476D01*
X176828436Y-109204795D01*
X176831163Y-109202011D01*
X176833669Y-109199129D01*
X176835956Y-109196156D01*
X176838028Y-109193096D01*
X176839888Y-109189955D01*
X176841539Y-109186739D01*
X176844226Y-109180101D01*
X176846114Y-109173227D01*
X176847229Y-109166159D01*
X176847595Y-109158941D01*
X176847501Y-109155019D01*
X176847219Y-109151186D01*
X176846748Y-109147444D01*
X176846086Y-109143797D01*
X176845234Y-109140245D01*
X176844191Y-109136792D01*
X176842955Y-109133440D01*
X176841525Y-109130191D01*
X176839902Y-109127048D01*
X176838083Y-109124012D01*
X176836068Y-109121087D01*
X176833857Y-109118274D01*
X176831448Y-109115575D01*
X176828841Y-109112994D01*
X176826035Y-109110532D01*
X176823028Y-109108191D01*
X176819821Y-109105974D01*
X176816412Y-109103884D01*
X176812800Y-109101922D01*
X176808985Y-109100092D01*
X176804965Y-109098394D01*
X176800741Y-109096832D01*
X176796310Y-109095407D01*
X176791673Y-109094123D01*
X176786828Y-109092981D01*
X176781774Y-109091984D01*
X176776511Y-109091134D01*
X176771038Y-109090434D01*
X176765354Y-109089885D01*
X176759458Y-109089490D01*
X176753349Y-109089251D01*
X176747027Y-109089171D01*
X176607644Y-109089171D01*
X176491122Y-109089171D01*
X176491122Y-108939549D01*
X176491408Y-108926438D01*
X176492260Y-108913874D01*
X176493668Y-108901848D01*
X176495623Y-108890352D01*
X176498114Y-108879377D01*
X176501131Y-108868914D01*
X176504666Y-108858955D01*
X176508707Y-108849492D01*
X176513245Y-108840515D01*
X176518271Y-108832017D01*
X176523773Y-108823989D01*
X176529744Y-108816421D01*
X176536172Y-108809307D01*
X176543048Y-108802636D01*
X176550362Y-108796400D01*
X176558104Y-108790592D01*
X176566265Y-108785202D01*
X176574834Y-108780222D01*
X176583802Y-108775643D01*
X176593158Y-108771456D01*
X176602894Y-108767654D01*
X176612998Y-108764227D01*
X176623462Y-108761168D01*
X176634276Y-108758466D01*
X176645429Y-108756115D01*
X176656912Y-108754105D01*
X176680827Y-108751074D01*
X176705944Y-108749306D01*
X176732184Y-108748732D01*
X176748198Y-108749002D01*
X176763682Y-108749831D01*
X176778641Y-108751241D01*
X176793079Y-108753256D01*
X176807002Y-108755900D01*
X176820414Y-108759196D01*
X176833322Y-108763169D01*
X176845730Y-108767841D01*
X176857642Y-108773237D01*
X176869065Y-108779381D01*
X176880003Y-108786296D01*
X176890462Y-108794005D01*
X176900447Y-108802533D01*
X176909962Y-108811904D01*
X176919013Y-108822140D01*
X176927605Y-108833266D01*
X176836165Y-108902958D01*
X176834213Y-108899918D01*
X176832211Y-108897002D01*
X176830154Y-108894209D01*
X176828036Y-108891538D01*
X176825855Y-108888985D01*
X176823605Y-108886550D01*
X176821282Y-108884230D01*
X176818881Y-108882024D01*
X176816398Y-108879929D01*
X176813830Y-108877945D01*
X176811170Y-108876068D01*
X176808416Y-108874298D01*
X176805562Y-108872632D01*
X176802604Y-108871068D01*
X176799537Y-108869605D01*
X176796358Y-108868241D01*
X176793062Y-108866974D01*
X176789644Y-108865802D01*
X176786100Y-108864723D01*
X176782425Y-108863736D01*
X176778616Y-108862839D01*
X176774668Y-108862029D01*
X176770575Y-108861305D01*
X176766335Y-108860665D01*
X176757392Y-108859629D01*
X176747803Y-108858908D01*
X176737534Y-108858486D01*
X176726548Y-108858349D01*
X176711466Y-108858581D01*
X176697491Y-108859292D01*
X176684604Y-108860505D01*
X176672787Y-108862245D01*
X176662022Y-108864533D01*
X176652291Y-108867395D01*
X176643573Y-108870852D01*
X176639589Y-108872811D01*
X176635852Y-108874929D01*
X176632359Y-108877207D01*
X176629108Y-108879648D01*
X176626097Y-108882256D01*
X176623324Y-108885034D01*
X176620786Y-108887983D01*
X176618480Y-108891109D01*
X176616405Y-108894412D01*
X176614558Y-108897897D01*
X176612938Y-108901565D01*
X176611540Y-108905421D01*
X176610365Y-108909466D01*
X176609408Y-108913704D01*
X176608667Y-108918138D01*
X176608141Y-108922771D01*
X176607724Y-108932644D01*
X176607724Y-108993207D01*
X176768855Y-108993207D01*
X176780346Y-108993436D01*
X176791482Y-108994116D01*
X176802263Y-108995234D01*
X176812689Y-108996778D01*
X176822757Y-108998737D01*
X176832469Y-109001098D01*
X176841822Y-109003850D01*
X176850817Y-109006980D01*
X176859452Y-109010477D01*
X176867728Y-109014328D01*
X176875643Y-109018523D01*
X176883197Y-109023048D01*
X176890388Y-109027891D01*
X176897217Y-109033042D01*
X176903683Y-109038487D01*
X176909785Y-109044215D01*
X176915522Y-109050215D01*
X176920894Y-109056473D01*
X176925900Y-109062978D01*
X176930539Y-109069718D01*
X176934811Y-109076681D01*
X176938715Y-109083855D01*
X176942251Y-109091229D01*
X176945417Y-109098790D01*
X176948213Y-109106525D01*
X176950638Y-109114425D01*
X176952693Y-109122475D01*
X176954375Y-109130665D01*
X176955684Y-109138982D01*
X176956621Y-109147414D01*
X176957183Y-109155950D01*
X176957248Y-109158941D01*
X176957370Y-109164578D01*
G37*
G36*
X177385938Y-108152435D02*
G01*
X177385279Y-108173400D01*
X177384169Y-108192776D01*
X177382594Y-108210679D01*
X177380543Y-108227223D01*
X177378005Y-108242525D01*
X177374968Y-108256700D01*
X177371420Y-108269863D01*
X177367351Y-108282129D01*
X177362749Y-108293613D01*
X177357601Y-108304432D01*
X177351898Y-108314700D01*
X177345626Y-108324532D01*
X177338775Y-108334045D01*
X177331333Y-108343353D01*
X177323289Y-108352571D01*
X177317034Y-108359239D01*
X177310249Y-108365924D01*
X177302912Y-108372566D01*
X177295002Y-108379102D01*
X177286496Y-108385471D01*
X177277374Y-108391611D01*
X177267612Y-108397459D01*
X177257190Y-108402955D01*
X177251724Y-108405551D01*
X177246084Y-108408035D01*
X177240269Y-108410400D01*
X177234274Y-108412639D01*
X177228098Y-108414743D01*
X177221738Y-108416704D01*
X177215191Y-108418515D01*
X177208453Y-108420169D01*
X177201524Y-108421657D01*
X177194398Y-108422971D01*
X177187075Y-108424105D01*
X177179552Y-108425050D01*
X177171824Y-108425798D01*
X177163891Y-108426342D01*
X177155748Y-108426674D01*
X177147394Y-108426787D01*
X177130897Y-108426342D01*
X177115233Y-108425050D01*
X177100382Y-108422971D01*
X177086322Y-108420169D01*
X177073032Y-108416704D01*
X177060489Y-108412639D01*
X177048672Y-108408035D01*
X177037559Y-108402954D01*
X177027129Y-108397459D01*
X177017360Y-108391611D01*
X177008231Y-108385471D01*
X176999719Y-108379102D01*
X176991804Y-108372566D01*
X176984464Y-108365924D01*
X176977676Y-108359239D01*
X176971420Y-108352571D01*
X176963376Y-108343353D01*
X176955937Y-108334045D01*
X176949090Y-108324532D01*
X176942824Y-108314700D01*
X176937126Y-108304432D01*
X176931985Y-108293613D01*
X176927390Y-108282129D01*
X176923328Y-108269863D01*
X176919788Y-108256700D01*
X176916759Y-108242525D01*
X176914227Y-108227223D01*
X176912182Y-108210679D01*
X176910612Y-108192776D01*
X176909505Y-108173400D01*
X176908850Y-108152435D01*
X176908645Y-108130876D01*
X177025157Y-108130876D01*
X177025492Y-108159452D01*
X177025930Y-108171859D01*
X177026563Y-108183148D01*
X177027404Y-108193417D01*
X177028463Y-108202769D01*
X177029754Y-108211304D01*
X177031288Y-108219122D01*
X177033077Y-108226324D01*
X177035133Y-108233012D01*
X177037467Y-108239284D01*
X177040092Y-108245244D01*
X177043019Y-108250990D01*
X177046260Y-108256624D01*
X177049827Y-108262246D01*
X177053732Y-108267957D01*
X177055395Y-108270188D01*
X177057170Y-108272383D01*
X177061038Y-108276658D01*
X177065314Y-108280763D01*
X177069974Y-108284681D01*
X177074995Y-108288392D01*
X177080353Y-108291878D01*
X177086026Y-108295120D01*
X177091990Y-108298100D01*
X177098222Y-108300799D01*
X177104699Y-108303199D01*
X177111397Y-108305280D01*
X177118293Y-108307025D01*
X177125364Y-108308414D01*
X177132587Y-108309430D01*
X177139938Y-108310053D01*
X177147394Y-108310264D01*
X177154850Y-108310054D01*
X177162201Y-108309433D01*
X177169423Y-108308421D01*
X177176494Y-108307036D01*
X177183389Y-108305296D01*
X177190085Y-108303220D01*
X177196559Y-108300825D01*
X177202788Y-108298130D01*
X177208748Y-108295153D01*
X177214416Y-108291913D01*
X177219768Y-108288427D01*
X177224781Y-108284714D01*
X177229432Y-108280793D01*
X177233697Y-108276681D01*
X177237553Y-108272396D01*
X177240977Y-108267957D01*
X177244882Y-108262246D01*
X177248449Y-108256622D01*
X177251690Y-108250983D01*
X177254617Y-108245226D01*
X177257242Y-108239251D01*
X177259576Y-108232953D01*
X177261632Y-108226231D01*
X177263421Y-108218983D01*
X177264954Y-108211106D01*
X177266245Y-108202498D01*
X177267305Y-108193056D01*
X177268146Y-108182679D01*
X177268779Y-108171263D01*
X177269216Y-108158708D01*
X177269470Y-108144909D01*
X177269552Y-108129765D01*
X177269213Y-108100868D01*
X177268772Y-108088364D01*
X177268135Y-108077015D01*
X177267289Y-108066717D01*
X177266225Y-108057364D01*
X177264929Y-108048852D01*
X177263391Y-108041074D01*
X177261599Y-108033926D01*
X177259541Y-108027303D01*
X177257207Y-108021099D01*
X177254584Y-108015209D01*
X177251661Y-108009528D01*
X177248427Y-108003950D01*
X177244869Y-107998371D01*
X177240977Y-107992685D01*
X177239321Y-107990455D01*
X177237553Y-107988259D01*
X177233694Y-107983985D01*
X177229425Y-107979879D01*
X177224770Y-107975962D01*
X177219752Y-107972251D01*
X177214395Y-107968765D01*
X177208722Y-107965522D01*
X177202758Y-107962542D01*
X177196526Y-107959843D01*
X177190050Y-107957444D01*
X177183354Y-107955362D01*
X177176460Y-107953617D01*
X177169394Y-107952228D01*
X177162178Y-107951213D01*
X177154837Y-107950590D01*
X177147394Y-107950378D01*
X177139951Y-107950589D01*
X177132610Y-107951209D01*
X177125394Y-107952221D01*
X177118327Y-107953606D01*
X177111432Y-107955346D01*
X177104734Y-107957423D01*
X177098255Y-107959817D01*
X177092020Y-107962512D01*
X177086052Y-107965489D01*
X177080374Y-107968730D01*
X177075011Y-107972215D01*
X177069985Y-107975928D01*
X177065321Y-107979850D01*
X177061041Y-107983962D01*
X177057170Y-107988246D01*
X177053732Y-107992685D01*
X177049827Y-107998383D01*
X177046260Y-108003998D01*
X177043019Y-108009630D01*
X177040092Y-108015382D01*
X177037467Y-108021357D01*
X177035133Y-108027654D01*
X177033077Y-108034378D01*
X177031288Y-108041630D01*
X177029754Y-108049511D01*
X177028463Y-108058124D01*
X177027404Y-108067570D01*
X177026563Y-108077952D01*
X177025930Y-108089372D01*
X177025492Y-108101931D01*
X177025239Y-108115732D01*
X177025157Y-108130876D01*
X176908645Y-108130876D01*
X176908634Y-108129765D01*
X176908850Y-108107109D01*
X176909505Y-108086179D01*
X176910612Y-108066858D01*
X176912182Y-108049028D01*
X176914227Y-108032568D01*
X176916759Y-108017362D01*
X176919788Y-108003290D01*
X176923328Y-107990234D01*
X176927390Y-107978076D01*
X176931985Y-107966697D01*
X176937126Y-107955979D01*
X176942824Y-107945803D01*
X176949090Y-107936051D01*
X176955937Y-107926603D01*
X176963376Y-107917343D01*
X176971420Y-107908151D01*
X176977675Y-107901482D01*
X176984460Y-107894794D01*
X176991797Y-107888149D01*
X176999708Y-107881607D01*
X177008215Y-107875232D01*
X177017339Y-107869086D01*
X177027103Y-107863231D01*
X177037529Y-107857728D01*
X177042997Y-107855128D01*
X177048639Y-107852640D01*
X177054457Y-107850271D01*
X177060454Y-107848029D01*
X177066633Y-107845922D01*
X177072997Y-107843957D01*
X177079548Y-107842143D01*
X177086289Y-107840486D01*
X177093223Y-107838996D01*
X177100353Y-107837679D01*
X177107681Y-107836543D01*
X177115210Y-107835596D01*
X177122944Y-107834847D01*
X177130884Y-107834302D01*
X177139033Y-107833969D01*
X177147394Y-107833856D01*
X177163904Y-107834302D01*
X177179574Y-107835596D01*
X177194428Y-107837679D01*
X177208487Y-107840486D01*
X177221773Y-107843957D01*
X177234309Y-107848029D01*
X177246117Y-107852640D01*
X177257219Y-107857728D01*
X177267638Y-107863231D01*
X177277395Y-107869086D01*
X177286512Y-107875233D01*
X177295013Y-107881607D01*
X177302919Y-107888149D01*
X177310252Y-107894794D01*
X177317035Y-107901482D01*
X177323289Y-107908151D01*
X177331333Y-107917368D01*
X177338775Y-107926672D01*
X177345626Y-107936175D01*
X177351898Y-107945993D01*
X177357601Y-107956238D01*
X177362749Y-107967025D01*
X177367351Y-107978468D01*
X177371420Y-107990681D01*
X177374967Y-108003777D01*
X177378004Y-108017871D01*
X177380543Y-108033077D01*
X177382594Y-108049508D01*
X177384169Y-108067278D01*
X177385279Y-108086502D01*
X177385938Y-108107293D01*
X177386154Y-108129765D01*
X177385938Y-108152435D01*
G37*
G36*
X179300419Y-108091555D02*
G01*
X179301503Y-108111334D01*
X179301870Y-108131988D01*
X179301470Y-108153735D01*
X179300289Y-108174448D01*
X179298356Y-108194149D01*
X179295700Y-108212860D01*
X179292349Y-108230604D01*
X179288333Y-108247405D01*
X179283681Y-108263283D01*
X179278421Y-108278262D01*
X179272581Y-108292365D01*
X179266192Y-108305614D01*
X179259282Y-108318031D01*
X179251879Y-108329640D01*
X179244012Y-108340462D01*
X179235711Y-108350520D01*
X179227004Y-108359837D01*
X179217921Y-108368436D01*
X179208489Y-108376339D01*
X179198738Y-108383568D01*
X179188696Y-108390146D01*
X179178393Y-108396097D01*
X179167857Y-108401441D01*
X179157117Y-108406202D01*
X179135141Y-108414065D01*
X179112696Y-108419867D01*
X179090013Y-108423788D01*
X179067321Y-108426007D01*
X179044853Y-108426707D01*
X179030327Y-108426383D01*
X179015903Y-108425401D01*
X179001600Y-108423743D01*
X178987439Y-108421393D01*
X178973440Y-108418333D01*
X178959621Y-108414547D01*
X178946004Y-108410019D01*
X178932607Y-108404730D01*
X178919452Y-108398665D01*
X178906557Y-108391806D01*
X178893943Y-108384137D01*
X178881630Y-108375641D01*
X178869637Y-108366300D01*
X178857984Y-108356099D01*
X178846692Y-108345019D01*
X178835780Y-108333045D01*
X178920314Y-108261131D01*
X178926899Y-108267595D01*
X178933779Y-108273703D01*
X178940930Y-108279449D01*
X178948325Y-108284822D01*
X178955940Y-108289815D01*
X178963750Y-108294419D01*
X178971730Y-108298626D01*
X178979855Y-108302426D01*
X178988100Y-108305811D01*
X178996440Y-108308773D01*
X179004850Y-108311303D01*
X179013306Y-108313392D01*
X179021781Y-108315032D01*
X179030251Y-108316214D01*
X179038691Y-108316929D01*
X179047076Y-108317170D01*
X179054512Y-108317029D01*
X179061814Y-108316607D01*
X179068975Y-108315905D01*
X179075989Y-108314921D01*
X179082848Y-108313657D01*
X179089547Y-108312113D01*
X179096078Y-108310289D01*
X179102435Y-108308184D01*
X179108611Y-108305801D01*
X179114599Y-108303137D01*
X179120393Y-108300195D01*
X179125986Y-108296973D01*
X179131372Y-108293473D01*
X179136543Y-108289695D01*
X179141493Y-108285637D01*
X179146215Y-108281302D01*
X179150703Y-108276689D01*
X179154950Y-108271799D01*
X179158949Y-108266630D01*
X179162694Y-108261185D01*
X179166177Y-108255463D01*
X179169393Y-108249463D01*
X179172334Y-108243187D01*
X179174994Y-108236635D01*
X179177366Y-108229807D01*
X179179443Y-108222703D01*
X179181219Y-108215323D01*
X179182687Y-108207667D01*
X179183841Y-108199737D01*
X179184673Y-108191531D01*
X179185178Y-108183050D01*
X179185347Y-108174295D01*
X178824350Y-108174295D01*
X178824350Y-108078410D01*
X178940872Y-108078410D01*
X179185347Y-108078410D01*
X179184988Y-108070278D01*
X179184348Y-108062389D01*
X179183431Y-108054743D01*
X179182243Y-108047342D01*
X179180792Y-108040186D01*
X179179082Y-108033277D01*
X179177119Y-108026615D01*
X179174909Y-108020202D01*
X179172459Y-108014038D01*
X179169773Y-108008126D01*
X179166859Y-108002465D01*
X179163721Y-107997056D01*
X179160365Y-107991902D01*
X179156798Y-107987002D01*
X179153025Y-107982358D01*
X179149053Y-107977971D01*
X179144887Y-107973841D01*
X179140532Y-107969971D01*
X179135995Y-107966361D01*
X179131282Y-107963011D01*
X179126399Y-107959924D01*
X179121351Y-107957100D01*
X179116144Y-107954540D01*
X179110784Y-107952245D01*
X179105278Y-107950216D01*
X179099630Y-107948454D01*
X179093847Y-107946960D01*
X179087935Y-107945736D01*
X179081899Y-107944782D01*
X179075746Y-107944099D01*
X179069481Y-107943689D01*
X179063110Y-107943552D01*
X179056742Y-107943689D01*
X179050486Y-107944099D01*
X179044347Y-107944782D01*
X179038330Y-107945736D01*
X179032441Y-107946960D01*
X179026685Y-107948454D01*
X179021066Y-107950216D01*
X179015591Y-107952245D01*
X179010265Y-107954540D01*
X179005093Y-107957100D01*
X179000079Y-107959924D01*
X178995230Y-107963012D01*
X178990551Y-107966361D01*
X178986046Y-107969971D01*
X178981722Y-107973842D01*
X178977583Y-107977971D01*
X178973635Y-107982358D01*
X178969883Y-107987002D01*
X178966332Y-107991902D01*
X178962987Y-107997056D01*
X178959854Y-108002465D01*
X178956938Y-108008126D01*
X178954245Y-108014039D01*
X178951779Y-108020202D01*
X178949546Y-108026615D01*
X178947550Y-108033277D01*
X178945798Y-108040186D01*
X178944295Y-108047342D01*
X178943045Y-108054743D01*
X178942055Y-108062389D01*
X178941329Y-108070278D01*
X178940872Y-108078410D01*
X178824350Y-108078410D01*
X178824350Y-108078330D01*
X178824671Y-108064458D01*
X178825625Y-108050914D01*
X178827194Y-108037706D01*
X178829361Y-108024841D01*
X178832108Y-108012328D01*
X178835419Y-108000172D01*
X178839276Y-107988381D01*
X178843663Y-107976964D01*
X178848561Y-107965926D01*
X178853954Y-107955275D01*
X178859826Y-107945019D01*
X178866157Y-107935165D01*
X178872933Y-107925720D01*
X178880134Y-107916692D01*
X178887745Y-107908088D01*
X178895748Y-107899915D01*
X178904125Y-107892181D01*
X178912860Y-107884892D01*
X178921936Y-107878057D01*
X178931335Y-107871683D01*
X178941041Y-107865776D01*
X178951036Y-107860344D01*
X178961302Y-107855395D01*
X178971824Y-107850936D01*
X178982583Y-107846974D01*
X178993562Y-107843516D01*
X179004745Y-107840571D01*
X179016114Y-107838144D01*
X179027652Y-107836244D01*
X179039342Y-107834878D01*
X179051167Y-107834053D01*
X179063110Y-107833776D01*
X179084248Y-107834653D01*
X179105525Y-107837360D01*
X179116150Y-107839436D01*
X179126733Y-107842013D01*
X179137246Y-107845105D01*
X179147665Y-107848727D01*
X179157963Y-107852893D01*
X179168114Y-107857617D01*
X179178093Y-107862914D01*
X179187873Y-107868798D01*
X179197428Y-107875284D01*
X179206733Y-107882386D01*
X179215762Y-107890119D01*
X179224489Y-107898496D01*
X179232887Y-107907533D01*
X179240932Y-107917243D01*
X179248597Y-107927642D01*
X179255855Y-107938742D01*
X179262682Y-107950560D01*
X179269051Y-107963109D01*
X179274937Y-107976404D01*
X179280313Y-107990458D01*
X179285154Y-108005288D01*
X179289433Y-108020906D01*
X179293125Y-108037327D01*
X179296204Y-108054566D01*
X179298644Y-108072638D01*
X179299185Y-108078410D01*
X179300419Y-108091555D01*
G37*
G36*
X178446630Y-108748999D02*
G01*
X178457864Y-108749803D01*
X178468865Y-108751142D01*
X178479623Y-108753017D01*
X178490127Y-108755428D01*
X178500368Y-108758375D01*
X178510334Y-108761858D01*
X178520016Y-108765876D01*
X178529403Y-108770430D01*
X178538485Y-108775520D01*
X178547251Y-108781146D01*
X178555691Y-108787308D01*
X178563795Y-108794005D01*
X178571553Y-108801238D01*
X178578953Y-108809007D01*
X178585987Y-108817311D01*
X178588288Y-108817311D01*
X178588288Y-108755637D01*
X178704811Y-108755637D01*
X178704811Y-109334837D01*
X178704732Y-109334837D01*
X178588209Y-109334837D01*
X178588209Y-108986380D01*
X178588047Y-108978602D01*
X178587566Y-108971102D01*
X178586777Y-108963878D01*
X178585690Y-108956928D01*
X178584315Y-108950249D01*
X178582661Y-108943841D01*
X178580740Y-108937700D01*
X178578561Y-108931825D01*
X178576135Y-108926213D01*
X178573470Y-108920863D01*
X178570578Y-108915773D01*
X178567469Y-108910941D01*
X178564152Y-108906364D01*
X178560637Y-108902041D01*
X178556935Y-108897969D01*
X178553056Y-108894146D01*
X178549010Y-108890571D01*
X178544806Y-108887242D01*
X178540456Y-108884155D01*
X178535968Y-108881311D01*
X178531354Y-108878705D01*
X178526623Y-108876337D01*
X178521785Y-108874203D01*
X178516850Y-108872303D01*
X178506731Y-108869195D01*
X178496346Y-108866995D01*
X178485775Y-108865686D01*
X178475100Y-108865254D01*
X178469649Y-108865349D01*
X178464412Y-108865639D01*
X178459361Y-108866129D01*
X178454471Y-108866828D01*
X178449714Y-108867741D01*
X178445064Y-108868875D01*
X178440494Y-108870236D01*
X178435978Y-108871832D01*
X178431489Y-108873669D01*
X178427000Y-108875753D01*
X178422485Y-108878092D01*
X178417916Y-108880691D01*
X178413269Y-108883558D01*
X178408515Y-108886698D01*
X178403628Y-108890120D01*
X178398582Y-108893828D01*
X178314048Y-108793261D01*
X178320727Y-108788248D01*
X178327492Y-108783485D01*
X178334352Y-108778982D01*
X178341312Y-108774750D01*
X178348379Y-108770798D01*
X178355561Y-108767137D01*
X178362864Y-108763776D01*
X178370295Y-108760727D01*
X178377861Y-108757998D01*
X178385568Y-108755600D01*
X178393424Y-108753543D01*
X178401436Y-108751838D01*
X178409610Y-108750494D01*
X178417953Y-108749521D01*
X178426472Y-108748930D01*
X178435174Y-108748731D01*
X178446630Y-108748999D01*
G37*
G36*
X180419968Y-108152435D02*
G01*
X180419313Y-108173399D01*
X180418206Y-108192776D01*
X180416636Y-108210678D01*
X180414591Y-108227223D01*
X180412059Y-108242525D01*
X180409030Y-108256700D01*
X180405490Y-108269862D01*
X180401428Y-108282128D01*
X180396833Y-108293613D01*
X180391692Y-108304432D01*
X180385994Y-108314699D01*
X180379728Y-108324532D01*
X180372881Y-108334044D01*
X180365442Y-108343352D01*
X180357398Y-108352571D01*
X180351142Y-108359238D01*
X180344355Y-108365924D01*
X180337014Y-108372566D01*
X180329099Y-108379102D01*
X180320587Y-108385471D01*
X180311458Y-108391610D01*
X180301689Y-108397459D01*
X180291259Y-108402954D01*
X180285790Y-108405550D01*
X180280146Y-108408035D01*
X180274327Y-108410400D01*
X180268329Y-108412638D01*
X180262150Y-108414742D01*
X180255786Y-108416704D01*
X180249236Y-108418515D01*
X180242496Y-108420168D01*
X180235563Y-108421656D01*
X180228436Y-108422971D01*
X180221110Y-108424105D01*
X180213585Y-108425049D01*
X180205856Y-108425798D01*
X180197921Y-108426342D01*
X180189778Y-108426674D01*
X180181424Y-108426786D01*
X180164927Y-108426342D01*
X180149266Y-108425049D01*
X180134419Y-108422971D01*
X180120364Y-108420168D01*
X180107078Y-108416704D01*
X180094540Y-108412638D01*
X180082727Y-108408034D01*
X180071619Y-108402954D01*
X180061192Y-108397459D01*
X180051425Y-108391610D01*
X180042296Y-108385471D01*
X180033783Y-108379102D01*
X180025864Y-108372566D01*
X180018516Y-108365924D01*
X180011719Y-108359238D01*
X180005450Y-108352571D01*
X179997405Y-108343352D01*
X179989964Y-108334044D01*
X179983113Y-108324532D01*
X179976841Y-108314699D01*
X179971137Y-108304431D01*
X179965990Y-108293613D01*
X179961388Y-108282128D01*
X179957319Y-108269862D01*
X179953771Y-108256700D01*
X179950734Y-108242525D01*
X179948196Y-108227223D01*
X179946145Y-108210678D01*
X179944570Y-108192775D01*
X179943459Y-108173399D01*
X179942801Y-108152434D01*
X179942596Y-108130876D01*
X180059187Y-108130876D01*
X180059522Y-108159452D01*
X180059960Y-108171859D01*
X180060593Y-108183148D01*
X180061433Y-108193417D01*
X180062493Y-108202769D01*
X180063784Y-108211304D01*
X180065318Y-108219122D01*
X180067107Y-108226324D01*
X180069163Y-108233012D01*
X180071497Y-108239284D01*
X180074121Y-108245244D01*
X180077048Y-108250990D01*
X180080289Y-108256624D01*
X180083857Y-108262246D01*
X180087762Y-108267957D01*
X180089425Y-108270188D01*
X180091200Y-108272383D01*
X180095071Y-108276658D01*
X180099350Y-108280763D01*
X180104015Y-108284681D01*
X180109041Y-108288392D01*
X180114404Y-108291878D01*
X180120082Y-108295120D01*
X180126050Y-108298100D01*
X180132285Y-108300799D01*
X180138764Y-108303199D01*
X180145462Y-108305280D01*
X180152357Y-108307025D01*
X180159424Y-108308414D01*
X180166640Y-108309430D01*
X180173981Y-108310053D01*
X180181424Y-108310264D01*
X180188867Y-108310054D01*
X180196208Y-108309433D01*
X180203424Y-108308421D01*
X180210491Y-108307036D01*
X180217386Y-108305296D01*
X180224084Y-108303220D01*
X180230563Y-108300825D01*
X180236798Y-108298130D01*
X180242766Y-108295153D01*
X180248444Y-108291913D01*
X180253807Y-108288427D01*
X180258833Y-108284714D01*
X180263498Y-108280793D01*
X180267777Y-108276681D01*
X180271648Y-108272396D01*
X180275086Y-108267957D01*
X180278991Y-108262246D01*
X180282559Y-108256622D01*
X180285800Y-108250983D01*
X180288727Y-108245226D01*
X180291351Y-108239251D01*
X180293685Y-108232953D01*
X180295741Y-108226231D01*
X180297530Y-108218983D01*
X180299064Y-108211106D01*
X180300355Y-108202498D01*
X180301415Y-108193056D01*
X180302255Y-108182679D01*
X180302888Y-108171263D01*
X180303326Y-108158708D01*
X180303580Y-108144909D01*
X180303661Y-108129765D01*
X180303322Y-108100868D01*
X180302881Y-108088364D01*
X180302244Y-108077015D01*
X180301399Y-108066717D01*
X180300334Y-108057364D01*
X180299038Y-108048852D01*
X180297500Y-108041074D01*
X180295708Y-108033926D01*
X180293650Y-108027303D01*
X180291316Y-108021099D01*
X180288693Y-108015209D01*
X180285770Y-108009528D01*
X180282536Y-108003950D01*
X180278978Y-107998371D01*
X180275086Y-107992685D01*
X180273423Y-107990455D01*
X180271649Y-107988259D01*
X180267780Y-107983985D01*
X180263504Y-107979879D01*
X180258844Y-107975962D01*
X180253823Y-107972251D01*
X180248465Y-107968765D01*
X180242792Y-107965522D01*
X180236828Y-107962542D01*
X180230596Y-107959843D01*
X180224119Y-107957444D01*
X180217421Y-107955362D01*
X180210525Y-107953617D01*
X180203454Y-107952228D01*
X180196231Y-107951213D01*
X180188880Y-107950590D01*
X180181424Y-107950378D01*
X180173968Y-107950589D01*
X180166617Y-107951209D01*
X180159394Y-107952221D01*
X180152323Y-107953606D01*
X180145427Y-107955346D01*
X180138729Y-107957423D01*
X180132252Y-107959817D01*
X180126020Y-107962512D01*
X180120056Y-107965489D01*
X180114383Y-107968730D01*
X180109025Y-107972215D01*
X180104004Y-107975928D01*
X180099344Y-107979850D01*
X180095068Y-107983962D01*
X180091199Y-107988246D01*
X180087762Y-107992685D01*
X180083857Y-107998383D01*
X180080289Y-108003998D01*
X180077048Y-108009630D01*
X180074121Y-108015382D01*
X180071497Y-108021357D01*
X180069163Y-108027654D01*
X180067107Y-108034378D01*
X180065318Y-108041630D01*
X180063784Y-108049511D01*
X180062493Y-108058124D01*
X180061433Y-108067570D01*
X180060593Y-108077952D01*
X180059960Y-108089372D01*
X180059522Y-108101931D01*
X180059269Y-108115732D01*
X180059187Y-108130876D01*
X179942596Y-108130876D01*
X179942585Y-108129765D01*
X179942801Y-108107109D01*
X179943456Y-108086179D01*
X179944563Y-108066858D01*
X179946134Y-108049027D01*
X179948180Y-108032568D01*
X179950713Y-108017361D01*
X179953746Y-108003290D01*
X179957289Y-107990234D01*
X179961355Y-107978076D01*
X179965955Y-107966697D01*
X179971102Y-107955979D01*
X179976808Y-107945803D01*
X179983083Y-107936050D01*
X179989941Y-107926603D01*
X179997392Y-107917342D01*
X180005450Y-107908150D01*
X180011706Y-107901482D01*
X180018494Y-107894794D01*
X180025834Y-107888148D01*
X180033749Y-107881607D01*
X180042261Y-107875232D01*
X180051390Y-107869086D01*
X180061159Y-107863230D01*
X180071589Y-107857727D01*
X180077059Y-107855128D01*
X180082702Y-107852640D01*
X180088521Y-107850271D01*
X180094519Y-107848029D01*
X180100698Y-107845921D01*
X180107062Y-107843957D01*
X180113612Y-107842142D01*
X180120352Y-107840486D01*
X180127285Y-107838995D01*
X180134412Y-107837678D01*
X180141738Y-107836543D01*
X180149263Y-107835596D01*
X180156992Y-107834846D01*
X180164927Y-107834301D01*
X180173070Y-107833968D01*
X180181424Y-107833856D01*
X180197921Y-107834301D01*
X180213585Y-107835596D01*
X180228436Y-107837678D01*
X180242496Y-107840486D01*
X180255786Y-107843957D01*
X180268329Y-107848029D01*
X180280146Y-107852640D01*
X180291259Y-107857728D01*
X180301689Y-107863230D01*
X180311458Y-107869086D01*
X180320587Y-107875232D01*
X180329099Y-107881607D01*
X180337014Y-107888148D01*
X180344355Y-107894794D01*
X180351142Y-107901482D01*
X180357398Y-107908150D01*
X180365442Y-107917368D01*
X180372881Y-107926671D01*
X180379728Y-107936175D01*
X180385994Y-107945992D01*
X180391692Y-107956238D01*
X180396833Y-107967025D01*
X180401428Y-107978468D01*
X180405490Y-107990681D01*
X180409030Y-108003777D01*
X180412059Y-108017871D01*
X180414591Y-108033076D01*
X180416636Y-108049507D01*
X180418206Y-108067278D01*
X180419313Y-108086502D01*
X180419968Y-108107293D01*
X180420184Y-108129765D01*
X180419968Y-108152435D01*
G37*
G36*
X177716063Y-107834564D02*
G01*
X177737867Y-107836687D01*
X177758810Y-107840220D01*
X177778798Y-107845156D01*
X177797734Y-107851492D01*
X177806778Y-107855182D01*
X177815524Y-107859221D01*
X177823959Y-107863607D01*
X177832072Y-107868339D01*
X177839851Y-107873417D01*
X177847283Y-107878841D01*
X177854358Y-107884609D01*
X177861062Y-107890721D01*
X177867384Y-107897177D01*
X177873313Y-107903975D01*
X177878835Y-107911115D01*
X177883940Y-107918597D01*
X177888616Y-107926419D01*
X177892849Y-107934582D01*
X177896630Y-107943084D01*
X177899945Y-107951925D01*
X177902782Y-107961104D01*
X177905131Y-107970621D01*
X177906978Y-107980475D01*
X177908312Y-107990665D01*
X177909122Y-108001191D01*
X177909394Y-108012052D01*
X177909188Y-108021245D01*
X177908576Y-108030189D01*
X177907565Y-108038883D01*
X177906164Y-108047326D01*
X177904383Y-108055516D01*
X177902228Y-108063453D01*
X177899708Y-108071134D01*
X177896832Y-108078560D01*
X177893608Y-108085727D01*
X177890044Y-108092636D01*
X177886149Y-108099285D01*
X177881931Y-108105673D01*
X177877399Y-108111798D01*
X177872560Y-108117659D01*
X177867423Y-108123255D01*
X177861997Y-108128584D01*
X177856290Y-108133646D01*
X177850310Y-108138439D01*
X177844066Y-108142962D01*
X177837565Y-108147213D01*
X177830817Y-108151192D01*
X177823829Y-108154897D01*
X177816611Y-108158326D01*
X177809170Y-108161479D01*
X177801514Y-108164354D01*
X177793653Y-108166950D01*
X177785594Y-108169266D01*
X177777345Y-108171300D01*
X177760315Y-108174519D01*
X177742627Y-108176596D01*
X177639757Y-108185724D01*
X177632370Y-108186477D01*
X177625229Y-108187474D01*
X177618368Y-108188743D01*
X177611817Y-108190312D01*
X177605609Y-108192210D01*
X177599775Y-108194466D01*
X177594346Y-108197107D01*
X177591793Y-108198580D01*
X177589354Y-108200161D01*
X177587032Y-108201852D01*
X177584831Y-108203657D01*
X177582756Y-108205580D01*
X177580809Y-108207623D01*
X177578995Y-108209791D01*
X177577319Y-108212088D01*
X177575783Y-108214516D01*
X177574392Y-108217079D01*
X177573150Y-108219781D01*
X177572061Y-108222625D01*
X177571128Y-108225615D01*
X177570356Y-108228754D01*
X177569749Y-108232046D01*
X177569311Y-108235495D01*
X177569044Y-108239103D01*
X177568955Y-108242875D01*
X177569095Y-108247411D01*
X177569510Y-108251805D01*
X177570197Y-108256058D01*
X177571148Y-108260170D01*
X177572359Y-108264140D01*
X177573823Y-108267969D01*
X177575537Y-108271655D01*
X177577494Y-108275199D01*
X177579688Y-108278601D01*
X177582115Y-108281859D01*
X177584769Y-108284976D01*
X177587644Y-108287949D01*
X177590736Y-108290779D01*
X177594037Y-108293465D01*
X177597544Y-108296008D01*
X177601251Y-108298407D01*
X177605151Y-108300663D01*
X177609240Y-108302774D01*
X177613513Y-108304741D01*
X177617963Y-108306563D01*
X177622586Y-108308241D01*
X177627376Y-108309773D01*
X177632327Y-108311161D01*
X177637434Y-108312403D01*
X177642692Y-108313500D01*
X177648095Y-108314452D01*
X177653638Y-108315257D01*
X177659314Y-108315916D01*
X177665120Y-108316430D01*
X177671049Y-108316796D01*
X177677096Y-108317017D01*
X177683255Y-108317090D01*
X177697562Y-108316796D01*
X177711359Y-108315916D01*
X177724675Y-108314452D01*
X177737535Y-108312403D01*
X177749966Y-108309773D01*
X177761995Y-108306563D01*
X177773649Y-108302774D01*
X177784954Y-108298407D01*
X177795937Y-108293465D01*
X177806626Y-108287949D01*
X177817045Y-108281859D01*
X177827224Y-108275199D01*
X177837187Y-108267969D01*
X177846962Y-108260170D01*
X177856576Y-108251805D01*
X177866055Y-108242875D01*
X177947177Y-108322805D01*
X177947097Y-108322805D01*
X177933021Y-108335458D01*
X177918660Y-108347282D01*
X177904021Y-108358280D01*
X177889114Y-108368453D01*
X177873946Y-108377803D01*
X177858526Y-108386332D01*
X177842862Y-108394040D01*
X177826963Y-108400930D01*
X177810837Y-108407003D01*
X177794493Y-108412262D01*
X177777938Y-108416707D01*
X177761181Y-108420340D01*
X177744231Y-108423163D01*
X177727096Y-108425177D01*
X177709784Y-108426384D01*
X177692303Y-108426786D01*
X177667398Y-108426028D01*
X177643297Y-108423769D01*
X177620111Y-108420034D01*
X177597951Y-108414849D01*
X177576928Y-108408239D01*
X177557153Y-108400228D01*
X177538735Y-108390841D01*
X177530070Y-108385640D01*
X177521786Y-108380104D01*
X177513897Y-108374237D01*
X177506417Y-108368041D01*
X177499359Y-108361521D01*
X177492737Y-108354678D01*
X177486566Y-108347517D01*
X177480859Y-108340040D01*
X177475629Y-108332250D01*
X177470892Y-108324151D01*
X177466660Y-108315745D01*
X177462947Y-108307036D01*
X177459767Y-108298027D01*
X177457135Y-108288721D01*
X177455063Y-108279121D01*
X177453567Y-108269231D01*
X177452658Y-108259052D01*
X177452353Y-108248589D01*
X177452920Y-108231488D01*
X177454647Y-108214906D01*
X177457568Y-108198911D01*
X177459488Y-108191154D01*
X177461719Y-108183569D01*
X177464267Y-108176164D01*
X177467135Y-108168948D01*
X177470328Y-108161929D01*
X177473851Y-108155115D01*
X177477708Y-108148515D01*
X177481903Y-108142137D01*
X177486441Y-108135990D01*
X177491326Y-108130082D01*
X177496563Y-108124422D01*
X177502155Y-108119017D01*
X177508108Y-108113877D01*
X177514427Y-108109009D01*
X177521114Y-108104422D01*
X177528175Y-108100124D01*
X177535614Y-108096125D01*
X177543436Y-108092431D01*
X177551644Y-108089053D01*
X177560244Y-108085997D01*
X177569240Y-108083273D01*
X177578636Y-108080888D01*
X177588437Y-108078852D01*
X177598646Y-108077172D01*
X177609269Y-108075858D01*
X177620310Y-108074917D01*
X177716274Y-108068091D01*
X177726735Y-108066991D01*
X177736290Y-108065441D01*
X177744971Y-108063469D01*
X177752809Y-108061106D01*
X177759838Y-108058381D01*
X177763058Y-108056894D01*
X177766088Y-108055327D01*
X177768932Y-108053685D01*
X177771592Y-108051971D01*
X177774074Y-108050191D01*
X177776381Y-108048346D01*
X177778518Y-108046441D01*
X177780488Y-108044481D01*
X177783943Y-108040405D01*
X177786780Y-108036151D01*
X177789029Y-108031747D01*
X177790723Y-108027224D01*
X177791894Y-108022612D01*
X177792573Y-108017941D01*
X177792792Y-108013243D01*
X177792718Y-108009530D01*
X177792491Y-108005880D01*
X177792109Y-108002298D01*
X177791566Y-107998785D01*
X177790858Y-107995346D01*
X177789981Y-107991985D01*
X177788930Y-107988705D01*
X177787701Y-107985510D01*
X177786290Y-107982403D01*
X177784691Y-107979387D01*
X177782902Y-107976467D01*
X177780917Y-107973646D01*
X177778732Y-107970928D01*
X177776343Y-107968316D01*
X177773745Y-107965814D01*
X177770934Y-107963425D01*
X177767906Y-107961153D01*
X177764656Y-107959002D01*
X177761179Y-107956974D01*
X177757473Y-107955075D01*
X177753531Y-107953307D01*
X177749350Y-107951673D01*
X177744925Y-107950179D01*
X177740252Y-107948826D01*
X177735327Y-107947619D01*
X177730145Y-107946561D01*
X177724702Y-107945657D01*
X177718993Y-107944908D01*
X177713014Y-107944320D01*
X177706761Y-107943895D01*
X177700229Y-107943638D01*
X177693415Y-107943551D01*
X177681811Y-107943803D01*
X177670560Y-107944548D01*
X177659639Y-107945769D01*
X177649028Y-107947448D01*
X177638705Y-107949569D01*
X177628648Y-107952116D01*
X177618836Y-107955069D01*
X177609248Y-107958414D01*
X177599861Y-107962133D01*
X177590654Y-107966209D01*
X177581607Y-107970625D01*
X177572697Y-107975363D01*
X177563902Y-107980408D01*
X177555202Y-107985742D01*
X177546575Y-107991348D01*
X177537999Y-107997209D01*
X177466085Y-107912754D01*
X177476939Y-107903954D01*
X177488091Y-107895576D01*
X177499573Y-107887640D01*
X177511418Y-107880167D01*
X177523657Y-107873175D01*
X177536323Y-107866686D01*
X177549447Y-107860720D01*
X177563061Y-107855296D01*
X177577199Y-107850435D01*
X177591891Y-107846157D01*
X177607171Y-107842482D01*
X177623069Y-107839430D01*
X177639618Y-107837021D01*
X177656851Y-107835276D01*
X177674799Y-107834214D01*
X177693494Y-107833855D01*
X177716063Y-107834564D01*
G37*
G36*
X176463023Y-108185725D02*
G01*
X176463166Y-108193017D01*
X176463590Y-108200113D01*
X176464291Y-108207010D01*
X176465261Y-108213706D01*
X176466495Y-108220200D01*
X176467986Y-108226487D01*
X176469729Y-108232567D01*
X176471718Y-108238437D01*
X176473946Y-108244094D01*
X176476407Y-108249536D01*
X176479095Y-108254762D01*
X176482005Y-108259768D01*
X176485130Y-108264552D01*
X176488464Y-108269113D01*
X176492001Y-108273447D01*
X176495735Y-108277552D01*
X176499660Y-108281427D01*
X176503770Y-108285068D01*
X176508058Y-108288474D01*
X176512520Y-108291642D01*
X176517148Y-108294570D01*
X176521936Y-108297256D01*
X176526879Y-108299696D01*
X176531971Y-108301890D01*
X176537205Y-108303834D01*
X176542575Y-108305526D01*
X176548076Y-108306964D01*
X176553701Y-108308146D01*
X176559444Y-108309070D01*
X176565300Y-108309732D01*
X176571261Y-108310131D01*
X176577323Y-108310265D01*
X176583387Y-108310131D01*
X176589357Y-108309732D01*
X176595226Y-108309070D01*
X176600988Y-108308146D01*
X176606637Y-108306964D01*
X176612165Y-108305526D01*
X176617567Y-108303834D01*
X176622835Y-108301890D01*
X176627965Y-108299696D01*
X176632948Y-108297256D01*
X176637780Y-108294570D01*
X176642452Y-108291642D01*
X176646959Y-108288474D01*
X176651295Y-108285068D01*
X176655453Y-108281427D01*
X176659426Y-108277552D01*
X176663208Y-108273447D01*
X176666793Y-108269113D01*
X176670174Y-108264552D01*
X176673345Y-108259768D01*
X176676300Y-108254762D01*
X176679031Y-108249536D01*
X176681532Y-108244094D01*
X176683798Y-108238437D01*
X176685821Y-108232567D01*
X176687595Y-108226487D01*
X176689114Y-108220200D01*
X176690372Y-108213706D01*
X176691361Y-108207010D01*
X176692075Y-108200113D01*
X176692509Y-108193017D01*
X176692654Y-108185725D01*
X176692654Y-107840683D01*
X176809177Y-107840683D01*
X176809177Y-108225731D01*
X176809098Y-108225730D01*
X176808800Y-108237864D01*
X176807920Y-108249636D01*
X176806480Y-108261044D01*
X176804499Y-108272085D01*
X176802000Y-108282760D01*
X176799002Y-108293065D01*
X176795528Y-108303001D01*
X176791597Y-108312565D01*
X176787231Y-108321756D01*
X176782451Y-108330572D01*
X176777277Y-108339012D01*
X176771731Y-108347075D01*
X176765834Y-108354758D01*
X176759606Y-108362061D01*
X176753069Y-108368983D01*
X176746243Y-108375520D01*
X176739149Y-108381673D01*
X176731809Y-108387440D01*
X176724243Y-108392819D01*
X176716472Y-108397809D01*
X176708517Y-108402407D01*
X176700399Y-108406614D01*
X176692140Y-108410427D01*
X176683759Y-108413845D01*
X176675278Y-108416866D01*
X176666718Y-108419489D01*
X176649444Y-108423536D01*
X176632104Y-108425972D01*
X176623463Y-108426583D01*
X176614867Y-108426787D01*
X176603621Y-108426519D01*
X176592570Y-108425715D01*
X176581728Y-108424376D01*
X176571107Y-108422501D01*
X176560718Y-108420089D01*
X176550574Y-108417143D01*
X176540686Y-108413660D01*
X176531067Y-108409642D01*
X176521729Y-108405088D01*
X176512684Y-108399998D01*
X176503945Y-108394372D01*
X176495522Y-108388210D01*
X176487429Y-108381513D01*
X176479677Y-108374280D01*
X176472278Y-108366511D01*
X176465245Y-108358207D01*
X176463023Y-108358207D01*
X176463023Y-108419961D01*
X176346500Y-108419961D01*
X176346500Y-107840682D01*
X176463023Y-107840682D01*
X176463023Y-108185725D01*
G37*
G36*
X178466633Y-107834044D02*
G01*
X178477867Y-107834848D01*
X178488868Y-107836187D01*
X178499625Y-107838062D01*
X178510130Y-107840473D01*
X178520370Y-107843420D01*
X178530337Y-107846903D01*
X178540019Y-107850921D01*
X178549406Y-107855475D01*
X178558487Y-107860565D01*
X178567254Y-107866191D01*
X178575694Y-107872352D01*
X178583798Y-107879050D01*
X178591555Y-107886283D01*
X178598956Y-107894052D01*
X178605989Y-107902356D01*
X178608291Y-107902356D01*
X178608291Y-107840682D01*
X178724813Y-107840682D01*
X178724813Y-108419881D01*
X178608370Y-108419881D01*
X178608370Y-108074917D01*
X178608227Y-108067618D01*
X178607802Y-108060516D01*
X178607101Y-108053614D01*
X178606130Y-108046913D01*
X178604894Y-108040417D01*
X178603399Y-108034126D01*
X178601652Y-108028044D01*
X178599658Y-108022172D01*
X178597422Y-108016514D01*
X178594952Y-108011071D01*
X178592252Y-108005846D01*
X178589329Y-108000840D01*
X178586188Y-107996056D01*
X178582836Y-107991497D01*
X178579277Y-107987164D01*
X178575519Y-107983061D01*
X178571566Y-107979188D01*
X178567425Y-107975549D01*
X178563102Y-107972145D01*
X178558602Y-107968980D01*
X178553931Y-107966054D01*
X178549096Y-107963371D01*
X178544101Y-107960933D01*
X178538953Y-107958742D01*
X178533658Y-107956800D01*
X178528221Y-107955110D01*
X178522649Y-107953674D01*
X178516947Y-107952493D01*
X178511121Y-107951571D01*
X178505178Y-107950910D01*
X178499121Y-107950511D01*
X178492959Y-107950378D01*
X178486800Y-107950511D01*
X178480753Y-107950910D01*
X178474824Y-107951571D01*
X178469019Y-107952493D01*
X178463342Y-107953674D01*
X178457799Y-107955110D01*
X178452396Y-107956800D01*
X178447139Y-107958742D01*
X178442031Y-107960933D01*
X178437080Y-107963371D01*
X178432291Y-107966054D01*
X178427668Y-107968980D01*
X178423217Y-107972145D01*
X178418945Y-107975549D01*
X178414855Y-107979188D01*
X178410955Y-107983061D01*
X178407248Y-107987164D01*
X178403742Y-107991497D01*
X178400440Y-107996056D01*
X178397349Y-108000840D01*
X178394473Y-108005846D01*
X178391820Y-108011071D01*
X178389393Y-108016514D01*
X178387198Y-108022172D01*
X178385241Y-108028044D01*
X178383528Y-108034126D01*
X178382063Y-108040417D01*
X178380852Y-108046913D01*
X178379901Y-108053614D01*
X178379214Y-108060516D01*
X178378799Y-108067618D01*
X178378659Y-108074917D01*
X178378659Y-108419881D01*
X178262137Y-108419881D01*
X178262137Y-108034912D01*
X178262434Y-108022771D01*
X178263313Y-108010992D01*
X178264752Y-107999578D01*
X178266730Y-107988531D01*
X178269225Y-107977851D01*
X178272218Y-107967540D01*
X178275685Y-107957600D01*
X178279608Y-107948032D01*
X178283963Y-107938837D01*
X178288731Y-107930017D01*
X178293890Y-107921573D01*
X178299419Y-107913508D01*
X178305297Y-107905821D01*
X178311503Y-107898516D01*
X178318015Y-107891592D01*
X178324813Y-107885052D01*
X178331875Y-107878898D01*
X178339181Y-107873129D01*
X178346708Y-107867749D01*
X178354437Y-107862759D01*
X178362346Y-107858159D01*
X178370413Y-107853951D01*
X178378618Y-107850138D01*
X178386940Y-107846719D01*
X178403849Y-107841074D01*
X178420971Y-107837027D01*
X178438136Y-107834591D01*
X178446683Y-107833980D01*
X178455177Y-107833776D01*
X178466633Y-107834044D01*
G37*
D11*
G36*
X130246144Y-111584893D02*
G01*
X130246144Y-111757206D01*
X130451491Y-111757206D01*
X130451491Y-112406953D01*
X130246144Y-112406953D01*
X130246144Y-112580000D01*
X130892288Y-112580000D01*
X130892288Y-112406953D01*
X130687002Y-112406953D01*
X130687002Y-111757206D01*
X130892288Y-111757206D01*
X130892288Y-111584893D01*
X130246144Y-111584893D01*
G37*
G36*
X129634560Y-112425638D02*
G01*
X129589079Y-112421022D01*
X129546632Y-112407320D01*
X129505966Y-112386703D01*
X129464445Y-112360303D01*
X129363206Y-112503918D01*
X129417710Y-112542670D01*
X129485633Y-112575725D01*
X129534483Y-112591396D01*
X129587968Y-112601080D01*
X129646772Y-112604424D01*
X129727321Y-112598410D01*
X129797084Y-112581271D01*
X129857859Y-112553804D01*
X129912321Y-112515552D01*
X129957284Y-112468929D01*
X129993536Y-112413121D01*
X130019351Y-112351403D01*
X130035351Y-112282104D01*
X130040919Y-112203804D01*
X130035284Y-112125540D01*
X130018984Y-112055256D01*
X129992498Y-111991680D01*
X129955458Y-111933891D01*
X129909742Y-111885468D01*
X129854623Y-111845561D01*
X129792996Y-111816645D01*
X129722852Y-111798706D01*
X129642437Y-111792438D01*
X129558525Y-111798741D01*
X129487770Y-111816496D01*
X129422911Y-111846224D01*
X129363206Y-111887876D01*
X129461514Y-112024286D01*
X129501552Y-111999997D01*
X129543396Y-111981971D01*
X129587231Y-111970681D01*
X129633155Y-111966889D01*
X129681889Y-111973142D01*
X129722518Y-111991106D01*
X129756987Y-112021111D01*
X129780981Y-112060338D01*
X129797573Y-112118909D01*
X129804003Y-112203804D01*
X129797757Y-112282899D01*
X129781777Y-112336306D01*
X129754671Y-112378624D01*
X129721083Y-112405183D01*
X129680785Y-112420396D01*
X129634560Y-112425638D01*
G37*
G36*
X128918932Y-111798968D02*
G01*
X128985836Y-111817529D01*
X129043431Y-111847332D01*
X129094233Y-111888026D01*
X129136048Y-111936779D01*
X129169460Y-111994488D01*
X129193089Y-112057283D01*
X129207547Y-112125297D01*
X129212508Y-112199469D01*
X129207286Y-112277422D01*
X129192253Y-112346893D01*
X129167995Y-112409152D01*
X129133401Y-112465657D01*
X129089422Y-112513126D01*
X129035188Y-112552400D01*
X128974240Y-112580403D01*
X128902035Y-112598124D01*
X128816224Y-112604424D01*
X128751639Y-112600950D01*
X128693899Y-112590974D01*
X128642140Y-112574993D01*
X128570119Y-112540733D01*
X128511837Y-112499583D01*
X128603000Y-112376118D01*
X128649338Y-112402040D01*
X128697095Y-112422035D01*
X128746706Y-112434937D01*
X128798272Y-112439255D01*
X128845139Y-112434519D01*
X128885365Y-112420935D01*
X128920333Y-112398710D01*
X128947575Y-112368201D01*
X128968245Y-112324861D01*
X128981332Y-112264804D01*
X128487412Y-112264804D01*
X128484176Y-112225359D01*
X128483077Y-112183715D01*
X128486705Y-112128394D01*
X128704239Y-112128394D01*
X128984202Y-112128394D01*
X128974523Y-112065138D01*
X128958984Y-112019911D01*
X128939017Y-111988443D01*
X128911567Y-111964144D01*
X128879292Y-111949641D01*
X128840648Y-111944602D01*
X128795030Y-111950715D01*
X128761342Y-111967532D01*
X128736540Y-111994855D01*
X128719693Y-112029771D01*
X128708591Y-112073588D01*
X128704239Y-112128394D01*
X128486705Y-112128394D01*
X128488383Y-112102806D01*
X128503408Y-112033278D01*
X128527224Y-111973361D01*
X128561113Y-111918883D01*
X128602337Y-111874482D01*
X128651421Y-111839089D01*
X128706542Y-111813689D01*
X128769114Y-111797937D01*
X128840648Y-111792438D01*
X128918932Y-111798968D01*
G37*
G36*
X127948577Y-111798612D02*
G01*
X128004361Y-111817901D01*
X128039033Y-111837822D01*
X128072927Y-111865774D01*
X128106271Y-111902958D01*
X128116346Y-111817534D01*
X128317358Y-111817534D01*
X128317358Y-112898065D01*
X128090457Y-112874373D01*
X128090457Y-112524740D01*
X128052980Y-112559650D01*
X128011022Y-112584237D01*
X127963663Y-112599228D01*
X127909534Y-112604424D01*
X127849208Y-112598301D01*
X127796890Y-112580659D01*
X127750898Y-112551667D01*
X127711648Y-112513122D01*
X127678386Y-112465268D01*
X127651125Y-112406648D01*
X127632402Y-112344231D01*
X127620702Y-112274557D01*
X127616775Y-112199469D01*
X127850671Y-112199469D01*
X127855425Y-112285562D01*
X127867528Y-112344367D01*
X127884438Y-112382957D01*
X127910491Y-112413986D01*
X127941272Y-112431773D01*
X127978471Y-112437850D01*
X128012525Y-112433574D01*
X128040570Y-112421364D01*
X128065120Y-112401208D01*
X128090457Y-112369645D01*
X128090457Y-112047978D01*
X128063301Y-112010450D01*
X128035197Y-111983375D01*
X128002827Y-111965651D01*
X127965526Y-111959684D01*
X127931859Y-111964907D01*
X127903855Y-111980139D01*
X127882333Y-112006173D01*
X127864349Y-112052679D01*
X127854612Y-112110048D01*
X127850671Y-112199469D01*
X127616775Y-112199469D01*
X127616625Y-112196599D01*
X127620090Y-112113951D01*
X127629833Y-112042896D01*
X127645019Y-111981971D01*
X127668458Y-111924419D01*
X127698292Y-111878334D01*
X127734412Y-111841959D01*
X127777591Y-111815259D01*
X127830358Y-111798451D01*
X127895184Y-111792438D01*
X127948577Y-111798612D01*
G37*
G36*
X127127834Y-111418381D02*
G01*
X127090094Y-111422666D01*
X127058495Y-111434904D01*
X127031664Y-111455017D01*
X127010928Y-111481360D01*
X126998558Y-111511359D01*
X126994295Y-111546181D01*
X126998547Y-111580975D01*
X127010910Y-111611106D01*
X127031664Y-111637711D01*
X127058517Y-111658004D01*
X127090116Y-111670337D01*
X127127834Y-111674652D01*
X127166053Y-111670327D01*
X127198010Y-111657982D01*
X127225104Y-111637711D01*
X127246041Y-111611084D01*
X127258497Y-111580954D01*
X127262779Y-111546181D01*
X127258486Y-111511380D01*
X127246023Y-111481382D01*
X127225104Y-111455017D01*
X127198032Y-111434925D01*
X127166075Y-111422675D01*
X127127834Y-111418381D01*
G37*
G36*
X126990692Y-111817534D02*
G01*
X126990692Y-112424905D01*
X126796824Y-112424905D01*
X126796824Y-112580000D01*
X127433688Y-112580000D01*
X127433688Y-112424905D01*
X127217533Y-112424905D01*
X127217533Y-111972629D01*
X127426482Y-111972629D01*
X127426482Y-111817534D01*
X126990692Y-111817534D01*
G37*
G36*
X125502581Y-112392604D02*
G01*
X125028750Y-112392604D01*
X125053175Y-112580000D01*
X125779736Y-112580000D01*
X125779736Y-112404084D01*
X125307309Y-111766549D01*
X125728018Y-111766549D01*
X125728018Y-111584893D01*
X125039497Y-111584893D01*
X125039497Y-111762274D01*
X125502581Y-112392604D01*
G37*
G36*
X124615373Y-111798968D02*
G01*
X124682277Y-111817529D01*
X124739872Y-111847332D01*
X124790674Y-111888026D01*
X124832489Y-111936779D01*
X124865901Y-111994488D01*
X124889530Y-112057283D01*
X124903988Y-112125297D01*
X124908949Y-112199469D01*
X124903727Y-112277422D01*
X124888694Y-112346893D01*
X124864436Y-112409152D01*
X124829842Y-112465657D01*
X124785863Y-112513126D01*
X124731629Y-112552400D01*
X124670681Y-112580403D01*
X124598476Y-112598124D01*
X124512665Y-112604424D01*
X124448080Y-112600950D01*
X124390340Y-112590974D01*
X124338581Y-112574993D01*
X124266560Y-112540733D01*
X124208278Y-112499583D01*
X124299441Y-112376118D01*
X124345779Y-112402040D01*
X124393536Y-112422035D01*
X124443147Y-112434937D01*
X124494713Y-112439255D01*
X124541580Y-112434519D01*
X124581806Y-112420935D01*
X124616774Y-112398710D01*
X124644016Y-112368201D01*
X124664686Y-112324861D01*
X124677773Y-112264804D01*
X124183853Y-112264804D01*
X124180617Y-112225359D01*
X124179518Y-112183715D01*
X124183146Y-112128394D01*
X124400680Y-112128394D01*
X124680643Y-112128394D01*
X124670964Y-112065138D01*
X124655425Y-112019911D01*
X124635458Y-111988443D01*
X124608008Y-111964144D01*
X124575733Y-111949641D01*
X124537090Y-111944602D01*
X124491471Y-111950715D01*
X124457783Y-111967532D01*
X124432981Y-111994855D01*
X124416134Y-112029771D01*
X124405032Y-112073588D01*
X124400680Y-112128394D01*
X124183146Y-112128394D01*
X124184824Y-112102806D01*
X124199850Y-112033278D01*
X124223665Y-111973361D01*
X124257554Y-111918883D01*
X124298778Y-111874482D01*
X124347862Y-111839089D01*
X124402983Y-111813689D01*
X124465555Y-111797937D01*
X124537090Y-111792438D01*
X124615373Y-111798968D01*
G37*
G36*
X124006594Y-112580000D02*
G01*
X124006594Y-112427775D01*
X123906088Y-112427775D01*
X123906088Y-111968293D01*
X124006594Y-111968293D01*
X124006594Y-111817534D01*
X123733103Y-111817534D01*
X123691460Y-111989115D01*
X123659933Y-111926277D01*
X123625049Y-111878291D01*
X123586985Y-111842691D01*
X123542436Y-111816391D01*
X123491169Y-111800224D01*
X123431524Y-111794576D01*
X123362648Y-111800682D01*
X123305922Y-111817534D01*
X123348237Y-112136332D01*
X123490387Y-112136332D01*
X123490387Y-111995587D01*
X123530913Y-112008096D01*
X123568493Y-112030965D01*
X123603899Y-112065624D01*
X123633256Y-112106479D01*
X123658430Y-112154152D01*
X123679248Y-112209544D01*
X123679248Y-112427775D01*
X123528489Y-112427775D01*
X123528489Y-112580000D01*
X124006594Y-112580000D01*
G37*
G36*
X122898936Y-111798480D02*
G01*
X122964751Y-111815715D01*
X123022051Y-111843424D01*
X123072847Y-111881690D01*
X123115011Y-111928735D01*
X123149118Y-111985573D01*
X123173087Y-112047798D01*
X123188040Y-112118156D01*
X123193265Y-112198065D01*
X123186355Y-112294391D01*
X123167011Y-112374636D01*
X123136631Y-112441586D01*
X123095629Y-112497445D01*
X123054621Y-112535085D01*
X123007821Y-112564544D01*
X122954398Y-112586141D01*
X122893199Y-112599673D01*
X122822810Y-112604424D01*
X122752500Y-112599622D01*
X122691342Y-112585939D01*
X122637917Y-112564082D01*
X122591075Y-112534233D01*
X122549991Y-112496041D01*
X122508884Y-112439465D01*
X122478506Y-112372184D01*
X122459223Y-112292111D01*
X122452355Y-112196599D01*
X122686400Y-112196599D01*
X122691061Y-112282164D01*
X122703003Y-112341477D01*
X122719801Y-112381125D01*
X122746101Y-112412647D01*
X122779636Y-112431284D01*
X122822810Y-112437850D01*
X122866025Y-112431282D01*
X122899578Y-112412643D01*
X122925881Y-112381125D01*
X122942678Y-112341504D01*
X122954583Y-112282609D01*
X122959220Y-112198065D01*
X122954616Y-112115025D01*
X122942739Y-112056593D01*
X122925881Y-112016775D01*
X122899550Y-111985030D01*
X122865994Y-111966284D01*
X122822810Y-111959684D01*
X122779636Y-111966250D01*
X122746101Y-111984887D01*
X122719801Y-112016409D01*
X122702907Y-112055992D01*
X122691011Y-112114068D01*
X122686400Y-112196599D01*
X122452355Y-112196599D01*
X122457562Y-112116178D01*
X122472431Y-112045720D01*
X122496196Y-111983742D01*
X122530068Y-111927203D01*
X122571987Y-111880530D01*
X122622531Y-111842691D01*
X122679569Y-111815457D01*
X122745695Y-111798431D01*
X122822810Y-111792438D01*
X122898936Y-111798480D01*
G37*
G36*
X120712247Y-111817534D02*
G01*
X120966442Y-112580000D01*
X121233522Y-112580000D01*
X121490526Y-111817534D01*
X121245734Y-111817534D01*
X121097112Y-112406282D01*
X120942018Y-111817534D01*
X120712247Y-111817534D01*
G37*
G36*
X119880294Y-112408419D02*
G01*
X119880294Y-112580000D01*
X120527172Y-112580000D01*
X120527172Y-112408419D01*
X120287325Y-112408419D01*
X120287325Y-111808192D01*
X120492001Y-111935992D01*
X120588171Y-111780226D01*
X120267236Y-111584893D01*
X120066224Y-111584893D01*
X120066224Y-112408419D01*
X119880294Y-112408419D01*
G37*
G36*
X119540064Y-112444323D02*
G01*
X119534641Y-112402233D01*
X119518571Y-112364272D01*
X119493285Y-112331644D01*
X119460380Y-112306142D01*
X119422082Y-112289736D01*
X119379963Y-112284221D01*
X119337274Y-112289770D01*
X119299241Y-112306142D01*
X119266636Y-112331618D01*
X119241416Y-112364272D01*
X119225300Y-112402237D01*
X119219862Y-112444323D01*
X119225267Y-112485830D01*
X119241416Y-112524007D01*
X119266663Y-112556962D01*
X119299241Y-112582503D01*
X119337274Y-112598875D01*
X119379963Y-112604424D01*
X119422082Y-112598910D01*
X119460380Y-112582503D01*
X119493259Y-112556936D01*
X119518571Y-112524007D01*
X119534673Y-112485833D01*
X119540064Y-112444323D01*
G37*
G36*
X118559490Y-111559797D02*
G01*
X118488295Y-111564025D01*
X118427686Y-111575922D01*
X118376064Y-111594602D01*
X118328207Y-111621257D01*
X118290114Y-111652113D01*
X118260476Y-111687231D01*
X118238239Y-111727288D01*
X118225050Y-111769488D01*
X118220603Y-111814665D01*
X118227197Y-111875628D01*
X118245874Y-111925963D01*
X118276229Y-111967988D01*
X118316183Y-112002613D01*
X118364873Y-112031018D01*
X118423752Y-112053046D01*
X118357426Y-112067485D01*
X118301796Y-112090946D01*
X118255102Y-112123021D01*
X118227526Y-112153303D01*
X118207035Y-112191582D01*
X118193829Y-112239663D01*
X118189035Y-112299975D01*
X118194230Y-112354582D01*
X118209580Y-112405238D01*
X118235319Y-112452932D01*
X118269785Y-112494992D01*
X118313495Y-112531680D01*
X118367759Y-112563147D01*
X118426582Y-112585402D01*
X118494723Y-112599460D01*
X118573839Y-112604424D01*
X118647182Y-112599856D01*
X118713384Y-112586649D01*
X118773447Y-112565284D01*
X118829705Y-112535476D01*
X118879770Y-112498838D01*
X118924206Y-112455069D01*
X118796406Y-112335879D01*
X118750080Y-112379316D01*
X118700540Y-112408053D01*
X118646429Y-112424962D01*
X118588921Y-112430645D01*
X118540928Y-112426116D01*
X118501294Y-112413370D01*
X118468326Y-112392971D01*
X118442840Y-112364865D01*
X118427201Y-112329385D01*
X118421615Y-112284221D01*
X118427220Y-112233529D01*
X118442290Y-112196782D01*
X118465762Y-112170404D01*
X118497061Y-112151979D01*
X118537722Y-112140000D01*
X118590326Y-112135600D01*
X118680818Y-112135600D01*
X118654928Y-111979101D01*
X118590326Y-111979101D01*
X118547387Y-111975208D01*
X118511872Y-111964262D01*
X118482309Y-111946800D01*
X118459517Y-111922398D01*
X118445398Y-111890623D01*
X118440300Y-111849103D01*
X118444969Y-111813704D01*
X118458305Y-111784794D01*
X118480539Y-111760809D01*
X118508925Y-111743331D01*
X118543116Y-111732397D01*
X118584586Y-111728508D01*
X118642100Y-111734412D01*
X118692663Y-111751528D01*
X118739097Y-111778461D01*
X118783461Y-111814665D01*
X118899781Y-111694070D01*
X118852101Y-111653295D01*
X118801249Y-111620050D01*
X118746885Y-111593930D01*
X118689469Y-111575238D01*
X118627248Y-111563746D01*
X118559490Y-111559797D01*
G37*
D12*
%TO.C,C22*%
X147215000Y-103352164D02*
X147215000Y-103567836D01*
X147935000Y-103352164D02*
X147935000Y-103567836D01*
%TO.C,C43*%
X161817164Y-111265000D02*
X162032836Y-111265000D01*
X161817164Y-111985000D02*
X162032836Y-111985000D01*
%TO.C,R20*%
X142470000Y-105886359D02*
X142470000Y-106193641D01*
X143230000Y-105886359D02*
X143230000Y-106193641D01*
%TO.C,C15*%
X148852164Y-105660000D02*
X149067836Y-105660000D01*
X148852164Y-106380000D02*
X149067836Y-106380000D01*
%TO.C,D13*%
X150275000Y-110025000D02*
X150275000Y-111985000D01*
X151475000Y-110025000D02*
X151475000Y-111985000D01*
X151475000Y-111985000D02*
X150275000Y-111985000D01*
%TO.C,R6*%
X128753641Y-102820000D02*
X128446359Y-102820000D01*
X128753641Y-103580000D02*
X128446359Y-103580000D01*
%TO.C,D12*%
X162900000Y-117040000D02*
X164100000Y-117040000D01*
X162900000Y-119000000D02*
X162900000Y-117040000D01*
X164100000Y-119000000D02*
X164100000Y-117040000D01*
%TO.C,C52*%
X149840000Y-103102164D02*
X149840000Y-103317836D01*
X150560000Y-103102164D02*
X150560000Y-103317836D01*
%TO.C,R4*%
X169526359Y-111830000D02*
X169833641Y-111830000D01*
X169526359Y-112590000D02*
X169833641Y-112590000D01*
D13*
%TO.C,SW2*%
X160400000Y-102950000D02*
X160400000Y-103450000D01*
X160400000Y-102950000D02*
X164400000Y-102950000D01*
X160400000Y-106150000D02*
X160400000Y-105650000D01*
X160400000Y-106150000D02*
X164400000Y-106150000D01*
X164400000Y-102950000D02*
X164400000Y-103450000D01*
X164400000Y-106150000D02*
X164400000Y-105650000D01*
D12*
%TO.C,TP2*%
X130300000Y-115540000D02*
G75*
G02*
X127900000Y-115540000I-1200000J0D01*
G01*
X127900000Y-115540000D02*
G75*
G02*
X130300000Y-115540000I1200000J0D01*
G01*
%TO.C,TP4*%
X134180000Y-97820000D02*
G75*
G02*
X131780000Y-97820000I-1200000J0D01*
G01*
X131780000Y-97820000D02*
G75*
G02*
X134180000Y-97820000I1200000J0D01*
G01*
%TO.C,C38*%
X131777836Y-116060000D02*
X131562164Y-116060000D01*
X131777836Y-116780000D02*
X131562164Y-116780000D01*
%TO.C,C12*%
X150900000Y-103172164D02*
X150900000Y-103387836D01*
X151620000Y-103172164D02*
X151620000Y-103387836D01*
%TO.C,C19*%
X134640000Y-102857836D02*
X134640000Y-102642164D01*
X135360000Y-102857836D02*
X135360000Y-102642164D01*
%TO.C,TP1*%
X175020000Y-101610000D02*
G75*
G02*
X172620000Y-101610000I-1200000J0D01*
G01*
X172620000Y-101610000D02*
G75*
G02*
X175020000Y-101610000I1200000J0D01*
G01*
%TO.C,C7*%
X130640000Y-102607836D02*
X130640000Y-102392164D01*
X131360000Y-102607836D02*
X131360000Y-102392164D01*
%TO.C,C2*%
X150979420Y-101050000D02*
X151260580Y-101050000D01*
X150979420Y-102070000D02*
X151260580Y-102070000D01*
%TO.C,C47*%
X120280000Y-101560580D02*
X120280000Y-101279420D01*
X121300000Y-101560580D02*
X121300000Y-101279420D01*
D13*
%TO.C,SW1*%
X160400000Y-99550000D02*
X160400000Y-100050000D01*
X160400000Y-99550000D02*
X164400000Y-99550000D01*
X160400000Y-102750000D02*
X160400000Y-102250000D01*
X160400000Y-102750000D02*
X164400000Y-102750000D01*
X164400000Y-99550000D02*
X164400000Y-100050000D01*
X164400000Y-102750000D02*
X164400000Y-102250000D01*
D12*
%TO.C,TP14*%
X157600000Y-102850000D02*
G75*
G02*
X156200000Y-102850000I-700000J0D01*
G01*
X156200000Y-102850000D02*
G75*
G02*
X157600000Y-102850000I700000J0D01*
G01*
%TO.C,R34*%
X150446359Y-114890000D02*
X150753641Y-114890000D01*
X150446359Y-115650000D02*
X150753641Y-115650000D01*
%TO.C,R29*%
X168140000Y-114866359D02*
X168140000Y-115173641D01*
X168900000Y-114866359D02*
X168900000Y-115173641D01*
%TO.C,R48*%
X145833641Y-105180000D02*
X145526359Y-105180000D01*
X145833641Y-105940000D02*
X145526359Y-105940000D01*
%TO.C,C41*%
X165792164Y-112840000D02*
X166007836Y-112840000D01*
X165792164Y-113560000D02*
X166007836Y-113560000D01*
%TO.C,R42*%
X152620000Y-111978641D02*
X152620000Y-111671359D01*
X153380000Y-111978641D02*
X153380000Y-111671359D01*
%TO.C,C51*%
X153452164Y-101550000D02*
X153667836Y-101550000D01*
X153452164Y-102270000D02*
X153667836Y-102270000D01*
%TO.C,D9*%
X149520000Y-115850000D02*
X151480000Y-115850000D01*
X149520000Y-117050000D02*
X151480000Y-117050000D01*
X151480000Y-115850000D02*
X151480000Y-117050000D01*
%TO.C,R41*%
X151670000Y-110896359D02*
X151670000Y-111203641D01*
X152430000Y-110896359D02*
X152430000Y-111203641D01*
%TO.C,D11*%
X161425000Y-116775000D02*
X161425000Y-118735000D01*
X162625000Y-116775000D02*
X162625000Y-118735000D01*
X162625000Y-118735000D02*
X161425000Y-118735000D01*
%TO.C,C42*%
X161809420Y-109915000D02*
X162090580Y-109915000D01*
X161809420Y-110935000D02*
X162090580Y-110935000D01*
%TO.C,TP8*%
X145770000Y-118400000D02*
G75*
G02*
X143370000Y-118400000I-1200000J0D01*
G01*
X143370000Y-118400000D02*
G75*
G02*
X145770000Y-118400000I1200000J0D01*
G01*
%TO.C,D14*%
X149990000Y-113300000D02*
X149990000Y-112100000D01*
X151950000Y-112100000D02*
X149990000Y-112100000D01*
X151950000Y-113300000D02*
X149990000Y-113300000D01*
%TO.C,R46*%
X140080000Y-106343641D02*
X140080000Y-106036359D01*
X140840000Y-106343641D02*
X140840000Y-106036359D01*
%TO.C,FB1*%
X136980378Y-103240000D02*
X137779622Y-103240000D01*
X136980378Y-104360000D02*
X137779622Y-104360000D01*
%TO.C,TP10*%
X136000000Y-118350000D02*
G75*
G02*
X134600000Y-118350000I-700000J0D01*
G01*
X134600000Y-118350000D02*
G75*
G02*
X136000000Y-118350000I700000J0D01*
G01*
%TO.C,TP5*%
X138340000Y-106250000D02*
G75*
G02*
X135940000Y-106250000I-1200000J0D01*
G01*
X135940000Y-106250000D02*
G75*
G02*
X138340000Y-106250000I1200000J0D01*
G01*
%TO.C,R43*%
X145556359Y-104220000D02*
X145863641Y-104220000D01*
X145556359Y-104980000D02*
X145863641Y-104980000D01*
%TO.C,C46*%
X147692164Y-101550000D02*
X147907836Y-101550000D01*
X147692164Y-102270000D02*
X147907836Y-102270000D01*
%TO.C,TP11*%
X147600000Y-117225000D02*
G75*
G02*
X146200000Y-117225000I-700000J0D01*
G01*
X146200000Y-117225000D02*
G75*
G02*
X147600000Y-117225000I700000J0D01*
G01*
%TO.C,C45*%
X147864420Y-100210000D02*
X148145580Y-100210000D01*
X147864420Y-101230000D02*
X148145580Y-101230000D01*
%TO.C,C40*%
X168657836Y-110800000D02*
X168442164Y-110800000D01*
X168657836Y-111520000D02*
X168442164Y-111520000D01*
D10*
%TO.C,LOGO1*%
G36*
X166419014Y-104199366D02*
G01*
X171931094Y-104199366D01*
X171931094Y-101919801D01*
X167241192Y-101919801D01*
X167241192Y-101675835D01*
X172175059Y-101675835D01*
X172175060Y-101675835D01*
X172175060Y-104443332D01*
X166175048Y-104443332D01*
X166175048Y-101675835D01*
X166413780Y-101675835D01*
X166419014Y-104199366D01*
G37*
G36*
X168430590Y-102959679D02*
G01*
X168957603Y-102959679D01*
X168957603Y-102376431D01*
X169151057Y-102376431D01*
X169151057Y-103799261D01*
X168957603Y-103799261D01*
X168957603Y-103121673D01*
X168430590Y-103121673D01*
X168430590Y-103799261D01*
X168237123Y-103799261D01*
X168237123Y-102376431D01*
X168430590Y-102376431D01*
X168430590Y-102959679D01*
G37*
G36*
X167256249Y-103533368D02*
G01*
X167420168Y-102767149D01*
X167621242Y-102767149D01*
X167783262Y-103531456D01*
X167919545Y-102376431D01*
X168107289Y-102376431D01*
X167894769Y-103799261D01*
X167712734Y-103799261D01*
X167520230Y-102953944D01*
X167326763Y-103799261D01*
X167144742Y-103799261D01*
X166606917Y-101319228D01*
X166794661Y-101319228D01*
X167256249Y-103533368D01*
G37*
G36*
X171517872Y-103135171D02*
G01*
X171516499Y-103179622D01*
X171514209Y-103222577D01*
X171511003Y-103264035D01*
X171506882Y-103303997D01*
X171501845Y-103342463D01*
X171495892Y-103379432D01*
X171489023Y-103414905D01*
X171481239Y-103448882D01*
X171472539Y-103481362D01*
X171462923Y-103512347D01*
X171452392Y-103541834D01*
X171440946Y-103569826D01*
X171428584Y-103596321D01*
X171415307Y-103621320D01*
X171401114Y-103644822D01*
X171385977Y-103666863D01*
X171369872Y-103687483D01*
X171352800Y-103706680D01*
X171334759Y-103724455D01*
X171315751Y-103740809D01*
X171295775Y-103755740D01*
X171274831Y-103769250D01*
X171252919Y-103781337D01*
X171230039Y-103792003D01*
X171206191Y-103801246D01*
X171181375Y-103809068D01*
X171155592Y-103815467D01*
X171128841Y-103820445D01*
X171101121Y-103824000D01*
X171072434Y-103826133D01*
X171042779Y-103826844D01*
X171013124Y-103826130D01*
X170984437Y-103823985D01*
X170956718Y-103820411D01*
X170943221Y-103818088D01*
X170929967Y-103815408D01*
X170916954Y-103812370D01*
X170904183Y-103808975D01*
X170891654Y-103805223D01*
X170879368Y-103801113D01*
X170867323Y-103796646D01*
X170855520Y-103791821D01*
X170843959Y-103786639D01*
X170832640Y-103781100D01*
X170821563Y-103775203D01*
X170810728Y-103768949D01*
X170800135Y-103762338D01*
X170789784Y-103755369D01*
X170779675Y-103748043D01*
X170769808Y-103740360D01*
X170760182Y-103732319D01*
X170750799Y-103723921D01*
X170741658Y-103715166D01*
X170732759Y-103706053D01*
X170724101Y-103696583D01*
X170715686Y-103686756D01*
X170707513Y-103676571D01*
X170699581Y-103666029D01*
X170691892Y-103655130D01*
X170684445Y-103643873D01*
X170670135Y-103620263D01*
X170656748Y-103595178D01*
X170644285Y-103568619D01*
X170632745Y-103540586D01*
X170622129Y-103511079D01*
X170612435Y-103480097D01*
X170603665Y-103447641D01*
X170595818Y-103413710D01*
X170588895Y-103378306D01*
X170582895Y-103341427D01*
X170577817Y-103303074D01*
X170573663Y-103263247D01*
X170570433Y-103221946D01*
X170568125Y-103179170D01*
X170566740Y-103134921D01*
X170566279Y-103089215D01*
X170767367Y-103089215D01*
X170767620Y-103127694D01*
X170768379Y-103164791D01*
X170769644Y-103200487D01*
X170771416Y-103234783D01*
X170773694Y-103267678D01*
X170776479Y-103299173D01*
X170779769Y-103329268D01*
X170783566Y-103357963D01*
X170787869Y-103385258D01*
X170792679Y-103411153D01*
X170797995Y-103435648D01*
X170803818Y-103458743D01*
X170810146Y-103480438D01*
X170816982Y-103500734D01*
X170824323Y-103519629D01*
X170832172Y-103537126D01*
X170840476Y-103553282D01*
X170849428Y-103568396D01*
X170859029Y-103582468D01*
X170869277Y-103595497D01*
X170880173Y-103607484D01*
X170891717Y-103618429D01*
X170903909Y-103628331D01*
X170916748Y-103637191D01*
X170930235Y-103645009D01*
X170944370Y-103651784D01*
X170959153Y-103657517D01*
X170974583Y-103662208D01*
X170990661Y-103665856D01*
X171007386Y-103668462D01*
X171024759Y-103670026D01*
X171042779Y-103670547D01*
X171060690Y-103670022D01*
X171069408Y-103669366D01*
X171077968Y-103668447D01*
X171086370Y-103667266D01*
X171094613Y-103665823D01*
X171102698Y-103664117D01*
X171110625Y-103662149D01*
X171118393Y-103659918D01*
X171126004Y-103657425D01*
X171133456Y-103654669D01*
X171140749Y-103651651D01*
X171147885Y-103648370D01*
X171154862Y-103644828D01*
X171161681Y-103641022D01*
X171168342Y-103636954D01*
X171174844Y-103632624D01*
X171181189Y-103628031D01*
X171187375Y-103623176D01*
X171193403Y-103618058D01*
X171199273Y-103612678D01*
X171204984Y-103607036D01*
X171210537Y-103601131D01*
X171215933Y-103594964D01*
X171221170Y-103588534D01*
X171226248Y-103581841D01*
X171231169Y-103574887D01*
X171235931Y-103567670D01*
X171240536Y-103560190D01*
X171244982Y-103552448D01*
X171253400Y-103536176D01*
X171261131Y-103518686D01*
X171268363Y-103499803D01*
X171275096Y-103479528D01*
X171281331Y-103457859D01*
X171287067Y-103434798D01*
X171292304Y-103410345D01*
X171297042Y-103384498D01*
X171301282Y-103357260D01*
X171308265Y-103298605D01*
X171313252Y-103234380D01*
X171316245Y-103164587D01*
X171317243Y-103089224D01*
X171316993Y-103050729D01*
X171316245Y-103013634D01*
X171314998Y-102977939D01*
X171313252Y-102943644D01*
X171311008Y-102910749D01*
X171308265Y-102879254D01*
X171305023Y-102849159D01*
X171301282Y-102820463D01*
X171297042Y-102793168D01*
X171292304Y-102767272D01*
X171287067Y-102742776D01*
X171281331Y-102719680D01*
X171275096Y-102697984D01*
X171268363Y-102677688D01*
X171261131Y-102658792D01*
X171253400Y-102641296D01*
X171244982Y-102625024D01*
X171235931Y-102609803D01*
X171226247Y-102595631D01*
X171215931Y-102582509D01*
X171204981Y-102570436D01*
X171193399Y-102559414D01*
X171181185Y-102549441D01*
X171168337Y-102540518D01*
X171154857Y-102532645D01*
X171140743Y-102525821D01*
X171125998Y-102520048D01*
X171110619Y-102515324D01*
X171094608Y-102511649D01*
X171077964Y-102509025D01*
X171060688Y-102507450D01*
X171042779Y-102506925D01*
X171024759Y-102507450D01*
X171015992Y-102508106D01*
X171007386Y-102509025D01*
X170998943Y-102510206D01*
X170990661Y-102511649D01*
X170982541Y-102513355D01*
X170974583Y-102515324D01*
X170966787Y-102517554D01*
X170959153Y-102520047D01*
X170951681Y-102522803D01*
X170944370Y-102525821D01*
X170937222Y-102529102D01*
X170930235Y-102532645D01*
X170923411Y-102536450D01*
X170916748Y-102540518D01*
X170910248Y-102544848D01*
X170903909Y-102549441D01*
X170897732Y-102554296D01*
X170891717Y-102559414D01*
X170885864Y-102564794D01*
X170880173Y-102570436D01*
X170874644Y-102576341D01*
X170869277Y-102582509D01*
X170864072Y-102588939D01*
X170859029Y-102595631D01*
X170854148Y-102602586D01*
X170849428Y-102609803D01*
X170844871Y-102617282D01*
X170840476Y-102625024D01*
X170832172Y-102641296D01*
X170824323Y-102658794D01*
X170816982Y-102677693D01*
X170810146Y-102697990D01*
X170803818Y-102719688D01*
X170797995Y-102742785D01*
X170792679Y-102767281D01*
X170787869Y-102793177D01*
X170783566Y-102820473D01*
X170776479Y-102879263D01*
X170771416Y-102943652D01*
X170768379Y-103013639D01*
X170767367Y-103089215D01*
X170566279Y-103089215D01*
X170566279Y-103089211D01*
X170566740Y-103043385D01*
X170568125Y-102999029D01*
X170570433Y-102956154D01*
X170573663Y-102914761D01*
X170577817Y-102874850D01*
X170582895Y-102836421D01*
X170588895Y-102799473D01*
X170595818Y-102764007D01*
X170603665Y-102730023D01*
X170612435Y-102697521D01*
X170622129Y-102666500D01*
X170632745Y-102636962D01*
X170644285Y-102608905D01*
X170656748Y-102582330D01*
X170670135Y-102557237D01*
X170684445Y-102533625D01*
X170699581Y-102511467D01*
X170715686Y-102490738D01*
X170732759Y-102471439D01*
X170750799Y-102453570D01*
X170769808Y-102437130D01*
X170789784Y-102422119D01*
X170810728Y-102408538D01*
X170832640Y-102396387D01*
X170855520Y-102385665D01*
X170879368Y-102376373D01*
X170904183Y-102368510D01*
X170929967Y-102362077D01*
X170956718Y-102357074D01*
X170984437Y-102353500D01*
X171013124Y-102351356D01*
X171042779Y-102350641D01*
X171072323Y-102351356D01*
X171100914Y-102353500D01*
X171128551Y-102357074D01*
X171155236Y-102362077D01*
X171168221Y-102365115D01*
X171180968Y-102368510D01*
X171193476Y-102372263D01*
X171205746Y-102376373D01*
X171217778Y-102380840D01*
X171229572Y-102385665D01*
X171241127Y-102390847D01*
X171252444Y-102396387D01*
X171263523Y-102402284D01*
X171274363Y-102408538D01*
X171284966Y-102415150D01*
X171295330Y-102422119D01*
X171305455Y-102429446D01*
X171315343Y-102437130D01*
X171324992Y-102445171D01*
X171334403Y-102453570D01*
X171343576Y-102462326D01*
X171352510Y-102471439D01*
X171361207Y-102480910D01*
X171369665Y-102490738D01*
X171377884Y-102500924D01*
X171385866Y-102511467D01*
X171393609Y-102522367D01*
X171401114Y-102533625D01*
X171415307Y-102557237D01*
X171428584Y-102582330D01*
X171440946Y-102608905D01*
X171452392Y-102636962D01*
X171462923Y-102666500D01*
X171472539Y-102697521D01*
X171481239Y-102730023D01*
X171489023Y-102764007D01*
X171495892Y-102799473D01*
X171501845Y-102836421D01*
X171506882Y-102874850D01*
X171511003Y-102914761D01*
X171514209Y-102956154D01*
X171516499Y-102999029D01*
X171517872Y-103043385D01*
X171518330Y-103089224D01*
X171517872Y-103135171D01*
G37*
G36*
X169880329Y-102351342D02*
G01*
X169905910Y-102352693D01*
X169930836Y-102354945D01*
X169955108Y-102358098D01*
X169978723Y-102362152D01*
X170001684Y-102367106D01*
X170023990Y-102372961D01*
X170045640Y-102379717D01*
X170066636Y-102387374D01*
X170086976Y-102395932D01*
X170106661Y-102405391D01*
X170125691Y-102415750D01*
X170144066Y-102427010D01*
X170161786Y-102439171D01*
X170178850Y-102452233D01*
X170195260Y-102466196D01*
X170210724Y-102480791D01*
X170225191Y-102495980D01*
X170238660Y-102511765D01*
X170251132Y-102528146D01*
X170262606Y-102545122D01*
X170273082Y-102562693D01*
X170282561Y-102580860D01*
X170291042Y-102599622D01*
X170298526Y-102618980D01*
X170305011Y-102638934D01*
X170310499Y-102659484D01*
X170314989Y-102680629D01*
X170318482Y-102702370D01*
X170320976Y-102724708D01*
X170322473Y-102747641D01*
X170322972Y-102771170D01*
X170322622Y-102789987D01*
X170321572Y-102808320D01*
X170319822Y-102826169D01*
X170317372Y-102843534D01*
X170314223Y-102860416D01*
X170310373Y-102876814D01*
X170305823Y-102892729D01*
X170300574Y-102908160D01*
X170294624Y-102923106D01*
X170287974Y-102937569D01*
X170280625Y-102951549D01*
X170272576Y-102965044D01*
X170263826Y-102978056D01*
X170254377Y-102990583D01*
X170244228Y-103002627D01*
X170233378Y-103014187D01*
X170221757Y-103025324D01*
X170209287Y-103036103D01*
X170195968Y-103046525D01*
X170181800Y-103056590D01*
X170166783Y-103066298D01*
X170150918Y-103075649D01*
X170134203Y-103084642D01*
X170116640Y-103093278D01*
X170098227Y-103101557D01*
X170078966Y-103109479D01*
X170058856Y-103117043D01*
X170037897Y-103124250D01*
X170016089Y-103131100D01*
X169993432Y-103137593D01*
X169969926Y-103143728D01*
X169945571Y-103149507D01*
X169842661Y-103173332D01*
X169825711Y-103177245D01*
X169809409Y-103181358D01*
X169793755Y-103185673D01*
X169778749Y-103190188D01*
X169764390Y-103194904D01*
X169750679Y-103199822D01*
X169737616Y-103204940D01*
X169725200Y-103210259D01*
X169713433Y-103215779D01*
X169702312Y-103221501D01*
X169691840Y-103227423D01*
X169682015Y-103233547D01*
X169672839Y-103239871D01*
X169664309Y-103246397D01*
X169656428Y-103253124D01*
X169649194Y-103260052D01*
X169642385Y-103267277D01*
X169636016Y-103274898D01*
X169630086Y-103282913D01*
X169624595Y-103291323D01*
X169619544Y-103300127D01*
X169614932Y-103309326D01*
X169610760Y-103318920D01*
X169607026Y-103328908D01*
X169603732Y-103339291D01*
X169600878Y-103350068D01*
X169598462Y-103361241D01*
X169596486Y-103372807D01*
X169594949Y-103384769D01*
X169593851Y-103397125D01*
X169593192Y-103409875D01*
X169592973Y-103423021D01*
X169593289Y-103437473D01*
X169594238Y-103451522D01*
X169595821Y-103465170D01*
X169598036Y-103478416D01*
X169600883Y-103491259D01*
X169604364Y-103503701D01*
X169608477Y-103515740D01*
X169613223Y-103527377D01*
X169618602Y-103538612D01*
X169624614Y-103549444D01*
X169631258Y-103559875D01*
X169638535Y-103569903D01*
X169646445Y-103579528D01*
X169654987Y-103588752D01*
X169664162Y-103597573D01*
X169673969Y-103605992D01*
X169684349Y-103613840D01*
X169695234Y-103621182D01*
X169706626Y-103628017D01*
X169718524Y-103634346D01*
X169730928Y-103640169D01*
X169743839Y-103645485D01*
X169757256Y-103650294D01*
X169771179Y-103654598D01*
X169785609Y-103658395D01*
X169800545Y-103661685D01*
X169815987Y-103664470D01*
X169831936Y-103666748D01*
X169848391Y-103668519D01*
X169865352Y-103669785D01*
X169882820Y-103670544D01*
X169900795Y-103670797D01*
X169925556Y-103670291D01*
X169950289Y-103668773D01*
X169974991Y-103666242D01*
X169999664Y-103662698D01*
X170024307Y-103658143D01*
X170048921Y-103652575D01*
X170073505Y-103645994D01*
X170098059Y-103638401D01*
X170122554Y-103629721D01*
X170147437Y-103619879D01*
X170172706Y-103608875D01*
X170198363Y-103596710D01*
X170224408Y-103583382D01*
X170250840Y-103568892D01*
X170277661Y-103553240D01*
X170304869Y-103536427D01*
X170304869Y-103741325D01*
X170279390Y-103751703D01*
X170253941Y-103761397D01*
X170228521Y-103770406D01*
X170203132Y-103778731D01*
X170177772Y-103786372D01*
X170152441Y-103793327D01*
X170127140Y-103799597D01*
X170101869Y-103805181D01*
X170076632Y-103810317D01*
X170051424Y-103814768D01*
X170026245Y-103818535D01*
X170001095Y-103821616D01*
X169975974Y-103824013D01*
X169950884Y-103825725D01*
X169925824Y-103826753D01*
X169900795Y-103827095D01*
X169871221Y-103826678D01*
X169842541Y-103825427D01*
X169814754Y-103823343D01*
X169787861Y-103820425D01*
X169761861Y-103816673D01*
X169736755Y-103812087D01*
X169712542Y-103806667D01*
X169689223Y-103800413D01*
X169666797Y-103793325D01*
X169645265Y-103785404D01*
X169624627Y-103776648D01*
X169604882Y-103767059D01*
X169586031Y-103756635D01*
X169568073Y-103745378D01*
X169551009Y-103733286D01*
X169534839Y-103720361D01*
X169519605Y-103706642D01*
X169505353Y-103692172D01*
X169492085Y-103676949D01*
X169479800Y-103660975D01*
X169468497Y-103644249D01*
X169458178Y-103626771D01*
X169448841Y-103608540D01*
X169440487Y-103589558D01*
X169433116Y-103569824D01*
X169426728Y-103549338D01*
X169421323Y-103528100D01*
X169416901Y-103506109D01*
X169413461Y-103483367D01*
X169411004Y-103459872D01*
X169409530Y-103435626D01*
X169409039Y-103410627D01*
X169409396Y-103389349D01*
X169410468Y-103368637D01*
X169412255Y-103348491D01*
X169414757Y-103328910D01*
X169417974Y-103309895D01*
X169421905Y-103291446D01*
X169426551Y-103273562D01*
X169431912Y-103256244D01*
X169437987Y-103239492D01*
X169444778Y-103223306D01*
X169452283Y-103207686D01*
X169460503Y-103192632D01*
X169469438Y-103178144D01*
X169479087Y-103164221D01*
X169489452Y-103150865D01*
X169500531Y-103138075D01*
X169512392Y-103125776D01*
X169525101Y-103113894D01*
X169538659Y-103102429D01*
X169553066Y-103091380D01*
X169568321Y-103080748D01*
X169584426Y-103070533D01*
X169601378Y-103060734D01*
X169619180Y-103051353D01*
X169637830Y-103042388D01*
X169657329Y-103033840D01*
X169677677Y-103025709D01*
X169698873Y-103017995D01*
X169720919Y-103010698D01*
X169743813Y-103003819D01*
X169767556Y-102997356D01*
X169792148Y-102991310D01*
X169893160Y-102968434D01*
X169910561Y-102964203D01*
X169927262Y-102959844D01*
X169943262Y-102955359D01*
X169958563Y-102950748D01*
X169973164Y-102946010D01*
X169987065Y-102941145D01*
X170000266Y-102936153D01*
X170012767Y-102931034D01*
X170024568Y-102925789D01*
X170035669Y-102920417D01*
X170046070Y-102914919D01*
X170055771Y-102909294D01*
X170064772Y-102903542D01*
X170073074Y-102897663D01*
X170080675Y-102891658D01*
X170087576Y-102885526D01*
X170093808Y-102879155D01*
X170099638Y-102872435D01*
X170105065Y-102865365D01*
X170110091Y-102857945D01*
X170114714Y-102850176D01*
X170118936Y-102842056D01*
X170122755Y-102833587D01*
X170126173Y-102824768D01*
X170129188Y-102815599D01*
X170131801Y-102806081D01*
X170134013Y-102796212D01*
X170135822Y-102785994D01*
X170137229Y-102775426D01*
X170138234Y-102764508D01*
X170138837Y-102753240D01*
X170139038Y-102741622D01*
X170138729Y-102728336D01*
X170137802Y-102715399D01*
X170136257Y-102702812D01*
X170134094Y-102690576D01*
X170131313Y-102678689D01*
X170127914Y-102667152D01*
X170123897Y-102655965D01*
X170119262Y-102645128D01*
X170114009Y-102634641D01*
X170108139Y-102624503D01*
X170101650Y-102614716D01*
X170094544Y-102605279D01*
X170086819Y-102596192D01*
X170078477Y-102587455D01*
X170069518Y-102579068D01*
X170059940Y-102571032D01*
X170049828Y-102563301D01*
X170039270Y-102556069D01*
X170028265Y-102549335D01*
X170016814Y-102543100D01*
X170004916Y-102537364D01*
X169992572Y-102532127D01*
X169979782Y-102527388D01*
X169966544Y-102523148D01*
X169952860Y-102519407D01*
X169938730Y-102516164D01*
X169924152Y-102513419D01*
X169909128Y-102511174D01*
X169893656Y-102509426D01*
X169877738Y-102508178D01*
X169861372Y-102507427D01*
X169844560Y-102507176D01*
X169822192Y-102507626D01*
X169799884Y-102508969D01*
X169777636Y-102511203D01*
X169755449Y-102514330D01*
X169733322Y-102518351D01*
X169711254Y-102523264D01*
X169689246Y-102529072D01*
X169667298Y-102535775D01*
X169645156Y-102543352D01*
X169623045Y-102551794D01*
X169600963Y-102561101D01*
X169578911Y-102571271D01*
X169556888Y-102582305D01*
X169534895Y-102594201D01*
X169512932Y-102606961D01*
X169490998Y-102620582D01*
X169490998Y-102425229D01*
X169515864Y-102416233D01*
X169540432Y-102407832D01*
X169564704Y-102400028D01*
X169588677Y-102392820D01*
X169612353Y-102386208D01*
X169635731Y-102380192D01*
X169658810Y-102374771D01*
X169681590Y-102369944D01*
X169704092Y-102365480D01*
X169726325Y-102361610D01*
X169748290Y-102358336D01*
X169769987Y-102355656D01*
X169791416Y-102353572D01*
X169812576Y-102352083D01*
X169833468Y-102351189D01*
X169854092Y-102350891D01*
X169880329Y-102351342D01*
G37*
D12*
%TO.C,C20*%
X137800580Y-101710000D02*
X137519420Y-101710000D01*
X137800580Y-102730000D02*
X137519420Y-102730000D01*
%TO.C,TP7*%
X143075000Y-116825000D02*
G75*
G02*
X140675000Y-116825000I-1200000J0D01*
G01*
X140675000Y-116825000D02*
G75*
G02*
X143075000Y-116825000I1200000J0D01*
G01*
%TO.C,R23*%
X138478641Y-115345000D02*
X138171359Y-115345000D01*
X138478641Y-116105000D02*
X138171359Y-116105000D01*
%TO.C,C3*%
X148820000Y-102517836D02*
X148820000Y-102302164D01*
X149540000Y-102517836D02*
X149540000Y-102302164D01*
%TO.C,R22*%
X148196359Y-111870000D02*
X148503641Y-111870000D01*
X148196359Y-112630000D02*
X148503641Y-112630000D01*
%TO.C,C16*%
X148852164Y-104740000D02*
X149067836Y-104740000D01*
X148852164Y-105460000D02*
X149067836Y-105460000D01*
%TO.C,R21*%
X143910000Y-108123641D02*
X143910000Y-107816359D01*
X144670000Y-108123641D02*
X144670000Y-107816359D01*
%TO.C,U7*%
X145022500Y-115437500D02*
X145572500Y-115437500D01*
X145022500Y-116737500D02*
X145572500Y-116737500D01*
X145572500Y-115437500D02*
X145572500Y-115637500D01*
X145572500Y-116737500D02*
X145572500Y-116537500D01*
X144592500Y-117127500D02*
X144312500Y-116847500D01*
X144592500Y-116847500D01*
X144592500Y-117127500D01*
G36*
X144592500Y-117127500D02*
G01*
X144312500Y-116847500D01*
X144592500Y-116847500D01*
X144592500Y-117127500D01*
G37*
%TO.C,R25*%
X145036359Y-113710000D02*
X145343641Y-113710000D01*
X145036359Y-114470000D02*
X145343641Y-114470000D01*
%TO.C,R44*%
X144393641Y-103270000D02*
X144086359Y-103270000D01*
X144393641Y-104030000D02*
X144086359Y-104030000D01*
%TO.C,R9*%
X132420000Y-106286359D02*
X132420000Y-106593641D01*
X133180000Y-106286359D02*
X133180000Y-106593641D01*
%TO.C,R49*%
X147200000Y-105453641D02*
X147200000Y-105146359D01*
X147960000Y-105453641D02*
X147960000Y-105146359D01*
%TO.C,D10*%
X149120000Y-114700000D02*
X149120000Y-113500000D01*
X151080000Y-113500000D02*
X149120000Y-113500000D01*
X151080000Y-114700000D02*
X149120000Y-114700000D01*
%TO.C,R50*%
X141530000Y-105886359D02*
X141530000Y-106193641D01*
X142290000Y-105886359D02*
X142290000Y-106193641D01*
%TO.C,R32*%
X152593641Y-115980000D02*
X152286359Y-115980000D01*
X152593641Y-116740000D02*
X152286359Y-116740000D01*
D10*
%TO.C,G\u002A\u002A\u002A*%
G36*
X175484828Y-99360961D02*
G01*
X175484828Y-99441968D01*
X175403821Y-99441968D01*
X175322815Y-99441968D01*
X175322815Y-99360961D01*
X175322815Y-99279955D01*
X175403821Y-99279955D01*
X175484828Y-99279955D01*
X175484828Y-99360961D01*
G37*
G36*
X175484828Y-101959166D02*
G01*
X175484828Y-102040172D01*
X175403821Y-102040172D01*
X175322815Y-102040172D01*
X175322815Y-101959166D01*
X175322815Y-101878159D01*
X175403821Y-101878159D01*
X175484828Y-101878159D01*
X175484828Y-101959166D01*
G37*
G36*
X176132879Y-98064859D02*
G01*
X176132879Y-98307878D01*
X175889860Y-98307878D01*
X175646841Y-98307878D01*
X175646841Y-98064859D01*
X175646841Y-97821840D01*
X175889860Y-97821840D01*
X176132879Y-97821840D01*
X176132879Y-98064859D01*
G37*
G36*
X176462905Y-101143102D02*
G01*
X176462905Y-101224108D01*
X176381898Y-101224108D01*
X176300892Y-101224108D01*
X176300892Y-101143102D01*
X176300892Y-101062095D01*
X176381898Y-101062095D01*
X176462905Y-101062095D01*
X176462905Y-101143102D01*
G37*
G36*
X176948943Y-101797153D02*
G01*
X176948943Y-101878159D01*
X176867937Y-101878159D01*
X176786930Y-101878159D01*
X176786930Y-101797153D01*
X176786930Y-101716147D01*
X176867937Y-101716147D01*
X176948943Y-101716147D01*
X176948943Y-101797153D01*
G37*
G36*
X177110956Y-98874923D02*
G01*
X177110956Y-98955929D01*
X177029949Y-98955929D01*
X176948943Y-98955929D01*
X176948943Y-98874923D01*
X176948943Y-98793917D01*
X177029949Y-98793917D01*
X177110956Y-98793917D01*
X177110956Y-98874923D01*
G37*
G36*
X177272969Y-98388885D02*
G01*
X177272969Y-98469891D01*
X177191962Y-98469891D01*
X177110956Y-98469891D01*
X177110956Y-98388885D01*
X177110956Y-98307878D01*
X177191962Y-98307878D01*
X177272969Y-98307878D01*
X177272969Y-98388885D01*
G37*
G36*
X177272969Y-101797153D02*
G01*
X177272969Y-101878159D01*
X177191962Y-101878159D01*
X177110956Y-101878159D01*
X177110956Y-101797153D01*
X177110956Y-101716147D01*
X177191962Y-101716147D01*
X177272969Y-101716147D01*
X177272969Y-101797153D01*
G37*
G36*
X177759007Y-98550897D02*
G01*
X177759007Y-98631904D01*
X177678000Y-98631904D01*
X177596994Y-98631904D01*
X177596994Y-98550897D01*
X177596994Y-98469891D01*
X177678000Y-98469891D01*
X177759007Y-98469891D01*
X177759007Y-98550897D01*
G37*
G36*
X177759007Y-100009012D02*
G01*
X177759007Y-100090019D01*
X177678000Y-100090019D01*
X177596994Y-100090019D01*
X177596994Y-100009012D01*
X177596994Y-99928006D01*
X177678000Y-99928006D01*
X177759007Y-99928006D01*
X177759007Y-100009012D01*
G37*
G36*
X177759007Y-101308115D02*
G01*
X177759007Y-101392121D01*
X177678000Y-101392121D01*
X177596994Y-101392121D01*
X177596994Y-101308115D01*
X177596994Y-101224108D01*
X177678000Y-101224108D01*
X177759007Y-101224108D01*
X177759007Y-101308115D01*
G37*
G36*
X178245045Y-100495051D02*
G01*
X178245045Y-100576057D01*
X178164039Y-100576057D01*
X178083032Y-100576057D01*
X178083032Y-100495051D01*
X178083032Y-100414044D01*
X178164039Y-100414044D01*
X178245045Y-100414044D01*
X178245045Y-100495051D01*
G37*
G36*
X178569071Y-100495051D02*
G01*
X178569071Y-100576057D01*
X178488064Y-100576057D01*
X178407058Y-100576057D01*
X178407058Y-100495051D01*
X178407058Y-100414044D01*
X178488064Y-100414044D01*
X178569071Y-100414044D01*
X178569071Y-100495051D01*
G37*
G36*
X178731083Y-100333038D02*
G01*
X178731083Y-100414044D01*
X178650077Y-100414044D01*
X178569071Y-100414044D01*
X178569071Y-100333038D01*
X178569071Y-100252031D01*
X178650077Y-100252031D01*
X178731083Y-100252031D01*
X178731083Y-100333038D01*
G37*
G36*
X179055109Y-100495051D02*
G01*
X179055109Y-100576057D01*
X178974103Y-100576057D01*
X178893096Y-100576057D01*
X178893096Y-100495051D01*
X178893096Y-100414044D01*
X178974103Y-100414044D01*
X179055109Y-100414044D01*
X179055109Y-100495051D01*
G37*
G36*
X179703160Y-98064859D02*
G01*
X179703160Y-98307878D01*
X179460141Y-98307878D01*
X179217122Y-98307878D01*
X179217122Y-98064859D01*
X179217122Y-97821840D01*
X179460141Y-97821840D01*
X179703160Y-97821840D01*
X179703160Y-98064859D01*
G37*
G36*
X179703160Y-101635140D02*
G01*
X179703160Y-101878159D01*
X179460141Y-101878159D01*
X179217122Y-101878159D01*
X179217122Y-101635140D01*
X179217122Y-101392121D01*
X179460141Y-101392121D01*
X179703160Y-101392121D01*
X179703160Y-101635140D01*
G37*
G36*
X179379134Y-100009012D02*
G01*
X179379134Y-100090019D01*
X179298128Y-100090019D01*
X179217122Y-100090019D01*
X179217122Y-100171025D01*
X179217122Y-100252031D01*
X179055109Y-100252031D01*
X178893096Y-100252031D01*
X178893096Y-100171025D01*
X178893096Y-100090019D01*
X178974103Y-100090019D01*
X179055109Y-100090019D01*
X179055109Y-100009012D01*
X179055109Y-99928006D01*
X179217122Y-99928006D01*
X179379134Y-99928006D01*
X179379134Y-100009012D01*
G37*
G36*
X176462905Y-98631904D02*
G01*
X175892860Y-98631904D01*
X175322815Y-98631904D01*
X175322815Y-98064859D01*
X175322815Y-97659827D01*
X175484828Y-97659827D01*
X175484828Y-98064859D01*
X175484828Y-98469891D01*
X175892860Y-98469891D01*
X176300892Y-98469891D01*
X176300892Y-98064859D01*
X176300892Y-97659827D01*
X175892860Y-97659827D01*
X175484828Y-97659827D01*
X175322815Y-97659827D01*
X175322815Y-97497815D01*
X175892860Y-97497815D01*
X176462905Y-97497815D01*
X176462905Y-98064859D01*
X176462905Y-98631904D01*
G37*
G36*
X180027185Y-98631904D02*
G01*
X179460141Y-98631904D01*
X178893096Y-98631904D01*
X178893096Y-98064859D01*
X178893096Y-97659827D01*
X179055109Y-97659827D01*
X179055109Y-98064859D01*
X179055109Y-98469891D01*
X179460141Y-98469891D01*
X179865173Y-98469891D01*
X179865173Y-98064859D01*
X179865173Y-97659827D01*
X179460141Y-97659827D01*
X179055109Y-97659827D01*
X178893096Y-97659827D01*
X178893096Y-97497815D01*
X179460141Y-97497815D01*
X180027185Y-97497815D01*
X180027185Y-98064859D01*
X180027185Y-98631904D01*
G37*
G36*
X180027185Y-102202185D02*
G01*
X179460141Y-102202185D01*
X178893096Y-102202185D01*
X178893096Y-101632140D01*
X178893096Y-101224108D01*
X179055109Y-101224108D01*
X179055109Y-101632140D01*
X179055109Y-102040172D01*
X179460141Y-102040172D01*
X179865173Y-102040172D01*
X179865173Y-101632140D01*
X179865173Y-101224108D01*
X179460141Y-101224108D01*
X179055109Y-101224108D01*
X178893096Y-101224108D01*
X178893096Y-101062095D01*
X179460141Y-101062095D01*
X180027185Y-101062095D01*
X180027185Y-101632140D01*
X180027185Y-102202185D01*
G37*
G36*
X175808853Y-101797153D02*
G01*
X175808853Y-101878159D01*
X175889860Y-101878159D01*
X175970866Y-101878159D01*
X175970866Y-101959166D01*
X175970866Y-102040172D01*
X176051872Y-102040172D01*
X176132879Y-102040172D01*
X176132879Y-102121179D01*
X176132879Y-102202185D01*
X175889860Y-102202185D01*
X175646841Y-102202185D01*
X175646841Y-102040172D01*
X175646841Y-101878159D01*
X175565834Y-101878159D01*
X175484828Y-101878159D01*
X175484828Y-101797153D01*
X175484828Y-101716147D01*
X175646841Y-101716147D01*
X175808853Y-101716147D01*
X175808853Y-101797153D01*
G37*
G36*
X177434981Y-99279955D02*
G01*
X177434981Y-99441968D01*
X177596994Y-99441968D01*
X177759007Y-99441968D01*
X177759007Y-99522974D01*
X177759007Y-99603980D01*
X177678000Y-99603980D01*
X177596994Y-99603980D01*
X177596994Y-99684987D01*
X177596994Y-99765993D01*
X177434981Y-99765993D01*
X177272969Y-99765993D01*
X177272969Y-99522974D01*
X177272969Y-99279955D01*
X177191962Y-99279955D01*
X177110956Y-99279955D01*
X177110956Y-99198948D01*
X177110956Y-99117942D01*
X177272969Y-99117942D01*
X177434981Y-99117942D01*
X177434981Y-99279955D01*
G37*
G36*
X177515988Y-98793917D02*
G01*
X177596994Y-98793917D01*
X177596994Y-98874923D01*
X177596994Y-98955929D01*
X177515988Y-98955929D01*
X177434981Y-98955929D01*
X177434981Y-98874923D01*
X177434981Y-98793917D01*
X177515988Y-98793917D01*
G37*
G36*
X177434981Y-98631904D02*
G01*
X177434981Y-98793917D01*
X177272969Y-98793917D01*
X177110956Y-98793917D01*
X177110956Y-98712910D01*
X177110956Y-98631904D01*
X177191962Y-98631904D01*
X177272969Y-98631904D01*
X177272969Y-98550897D01*
X177272969Y-98469891D01*
X177353975Y-98469891D01*
X177434981Y-98469891D01*
X177434981Y-98631904D01*
G37*
G36*
X178245045Y-101062095D02*
G01*
X178245045Y-101224108D01*
X178164039Y-101224108D01*
X178083032Y-101224108D01*
X178083032Y-101308115D01*
X178083032Y-101392121D01*
X178002026Y-101392121D01*
X177921020Y-101392121D01*
X177921020Y-101227108D01*
X177921020Y-101062095D01*
X178002026Y-101062095D01*
X178083032Y-101062095D01*
X178083032Y-100981089D01*
X178083032Y-100900082D01*
X178164039Y-100900082D01*
X178245045Y-100900082D01*
X178245045Y-101062095D01*
G37*
G36*
X178326052Y-101224108D02*
G01*
X178407058Y-101224108D01*
X178407058Y-101308115D01*
X178407058Y-101392121D01*
X178326052Y-101392121D01*
X178245045Y-101392121D01*
X178245045Y-101308115D01*
X178245045Y-101224108D01*
X178326052Y-101224108D01*
G37*
G36*
X176786930Y-98550897D02*
G01*
X176786930Y-98631904D01*
X176867937Y-98631904D01*
X176948943Y-98631904D01*
X176948943Y-98550897D01*
X176948943Y-98469891D01*
X177029949Y-98469891D01*
X177110956Y-98469891D01*
X177110956Y-98550897D01*
X177110956Y-98631904D01*
X177029949Y-98631904D01*
X176948943Y-98631904D01*
X176948943Y-98712910D01*
X176948943Y-98793917D01*
X176867937Y-98793917D01*
X176786930Y-98793917D01*
X176786930Y-98874923D01*
X176786930Y-98955929D01*
X176867937Y-98955929D01*
X176948943Y-98955929D01*
X176948943Y-99117942D01*
X176948943Y-99279955D01*
X177029949Y-99279955D01*
X177110956Y-99279955D01*
X177110956Y-99441968D01*
X177110956Y-99603980D01*
X177029949Y-99603980D01*
X176948943Y-99603980D01*
X176948943Y-99522974D01*
X176948943Y-99441968D01*
X176867937Y-99441968D01*
X176786930Y-99441968D01*
X176786930Y-99603980D01*
X176786930Y-99765993D01*
X176624918Y-99765993D01*
X176462905Y-99765993D01*
X176462905Y-99684987D01*
X176462905Y-99603980D01*
X176216885Y-99603980D01*
X175970866Y-99603980D01*
X175970866Y-99522974D01*
X175970866Y-99441968D01*
X175889860Y-99441968D01*
X175808853Y-99441968D01*
X175808853Y-99360961D01*
X175808853Y-99279955D01*
X175727847Y-99279955D01*
X175646841Y-99279955D01*
X175646841Y-99198948D01*
X175646841Y-99117942D01*
X175565834Y-99117942D01*
X175484828Y-99117942D01*
X175484828Y-99036936D01*
X175484828Y-98955929D01*
X175565834Y-98955929D01*
X175646841Y-98955929D01*
X175646841Y-99036936D01*
X175646841Y-99117942D01*
X175727847Y-99117942D01*
X175808853Y-99117942D01*
X175970866Y-99117942D01*
X175970866Y-99198948D01*
X175970866Y-99279955D01*
X176051872Y-99279955D01*
X176132879Y-99279955D01*
X176300892Y-99279955D01*
X176462905Y-99279955D01*
X176624918Y-99279955D01*
X176624918Y-99360961D01*
X176624918Y-99441968D01*
X176705924Y-99441968D01*
X176786930Y-99441968D01*
X176786930Y-99279955D01*
X176786930Y-99117942D01*
X176624918Y-99117942D01*
X176462905Y-99117942D01*
X176462905Y-99036936D01*
X176462905Y-98955929D01*
X176381898Y-98955929D01*
X176300892Y-98955929D01*
X176300892Y-99117942D01*
X176300892Y-99198948D01*
X176300892Y-99279955D01*
X176132879Y-99279955D01*
X176132879Y-99198948D01*
X176132879Y-99117942D01*
X176051872Y-99117942D01*
X175970866Y-99117942D01*
X175808853Y-99117942D01*
X175808853Y-99036936D01*
X175808853Y-98955929D01*
X175727847Y-98955929D01*
X175646841Y-98955929D01*
X175646841Y-98874923D01*
X175646841Y-98793917D01*
X176054873Y-98793917D01*
X176462905Y-98793917D01*
X176462905Y-98874923D01*
X176462905Y-98955929D01*
X176543911Y-98955929D01*
X176624918Y-98955929D01*
X176624918Y-98712910D01*
X176624918Y-98469891D01*
X176705924Y-98469891D01*
X176786930Y-98469891D01*
X176786930Y-98550897D01*
G37*
G36*
X178326052Y-98469891D02*
G01*
X178407058Y-98469891D01*
X178407058Y-98793917D01*
X178407058Y-99117942D01*
X178326052Y-99117942D01*
X178245045Y-99117942D01*
X178245045Y-98793917D01*
X178245045Y-98469891D01*
X178326052Y-98469891D01*
G37*
G36*
X178407058Y-97821840D02*
G01*
X178569071Y-97821840D01*
X178731083Y-97821840D01*
X178731083Y-97902846D01*
X178731083Y-98064859D01*
X178731083Y-98307878D01*
X178731083Y-98793917D01*
X178650077Y-98793917D01*
X178569071Y-98793917D01*
X178569071Y-98550897D01*
X178569071Y-98307878D01*
X178407058Y-98307878D01*
X178245045Y-98307878D01*
X178245045Y-98388885D01*
X178245045Y-98469891D01*
X178164039Y-98469891D01*
X178083032Y-98469891D01*
X178083032Y-98712910D01*
X178083032Y-98955929D01*
X178002026Y-98955929D01*
X177921020Y-98955929D01*
X177921020Y-98550897D01*
X177921020Y-98145866D01*
X177840013Y-98145866D01*
X177759007Y-98145866D01*
X177759007Y-98226872D01*
X177759007Y-98307878D01*
X177678000Y-98307878D01*
X177596994Y-98307878D01*
X177596994Y-98388885D01*
X177596994Y-98469891D01*
X177515988Y-98469891D01*
X177434981Y-98469891D01*
X177434981Y-98388885D01*
X177434981Y-98307878D01*
X177353975Y-98307878D01*
X177272969Y-98307878D01*
X177272969Y-98064859D01*
X177272969Y-97821840D01*
X177434981Y-97821840D01*
X177434981Y-97902846D01*
X177434981Y-97983853D01*
X177596994Y-97983853D01*
X177759007Y-97983853D01*
X177921020Y-97983853D01*
X177921020Y-98064859D01*
X177921020Y-98145866D01*
X178002026Y-98145866D01*
X178083032Y-98145866D01*
X178083032Y-98064859D01*
X178083032Y-97983853D01*
X178002026Y-97983853D01*
X177921020Y-97983853D01*
X177759007Y-97983853D01*
X177759007Y-97902846D01*
X177759007Y-97821840D01*
X177596994Y-97821840D01*
X177434981Y-97821840D01*
X177272969Y-97821840D01*
X177191962Y-97821840D01*
X177110956Y-97821840D01*
X177110956Y-97902846D01*
X177110956Y-97983853D01*
X176948943Y-97983853D01*
X176786930Y-97983853D01*
X176786930Y-98064859D01*
X176786930Y-98145866D01*
X176705924Y-98145866D01*
X176624918Y-98145866D01*
X176624918Y-97983853D01*
X176624918Y-97821840D01*
X176705924Y-97821840D01*
X176786930Y-97821840D01*
X176786930Y-97740834D01*
X176786930Y-97659827D01*
X176867937Y-97659827D01*
X176948943Y-97659827D01*
X176948943Y-97740834D01*
X176948943Y-97821840D01*
X177029949Y-97821840D01*
X177110956Y-97821840D01*
X177110956Y-97740834D01*
X177110956Y-97659827D01*
X177029949Y-97659827D01*
X176948943Y-97659827D01*
X176948943Y-97578821D01*
X176948943Y-97497815D01*
X177029949Y-97497815D01*
X177110956Y-97497815D01*
X177110956Y-97578821D01*
X177110956Y-97659827D01*
X177515988Y-97659827D01*
X177921020Y-97659827D01*
X177921020Y-97740834D01*
X177921020Y-97821840D01*
X178002026Y-97821840D01*
X178083032Y-97821840D01*
X178083032Y-97740834D01*
X178083032Y-97659827D01*
X178002026Y-97659827D01*
X177921020Y-97659827D01*
X177921020Y-97578821D01*
X177921020Y-97497815D01*
X178083032Y-97497815D01*
X178245045Y-97497815D01*
X178245045Y-97578821D01*
X178245045Y-97659827D01*
X178326052Y-97659827D01*
X178407058Y-97659827D01*
X178407058Y-97578821D01*
X178407058Y-97497815D01*
X178488064Y-97497815D01*
X178569071Y-97497815D01*
X178569071Y-97578821D01*
X178569071Y-97659827D01*
X178488064Y-97659827D01*
X178407058Y-97659827D01*
X178407058Y-97740834D01*
X178407058Y-97821840D01*
G37*
G36*
X176867937Y-98145866D02*
G01*
X176948943Y-98145866D01*
X176948943Y-98226872D01*
X176948943Y-98307878D01*
X176867937Y-98307878D01*
X176786930Y-98307878D01*
X176786930Y-98226872D01*
X176786930Y-98145866D01*
X176867937Y-98145866D01*
G37*
G36*
X176948943Y-101224108D02*
G01*
X177029949Y-101224108D01*
X177110956Y-101224108D01*
X177110956Y-101143102D01*
X177110956Y-101062095D01*
X177272969Y-101062095D01*
X177434981Y-101062095D01*
X177434981Y-100900082D01*
X177434981Y-100738070D01*
X177596994Y-100738070D01*
X177759007Y-100738070D01*
X177759007Y-100819076D01*
X177759007Y-100900082D01*
X177678000Y-100900082D01*
X177596994Y-100900082D01*
X177596994Y-101062095D01*
X177596994Y-101224108D01*
X177515988Y-101224108D01*
X177434981Y-101224108D01*
X177434981Y-101308115D01*
X177434981Y-101392121D01*
X177515988Y-101392121D01*
X177596994Y-101392121D01*
X177596994Y-101473128D01*
X177596994Y-101554134D01*
X177678000Y-101554134D01*
X177759007Y-101554134D01*
X177759007Y-101635140D01*
X177759007Y-101716147D01*
X177840013Y-101716147D01*
X177921020Y-101716147D01*
X177921020Y-101797153D01*
X177921020Y-101878159D01*
X178002026Y-101878159D01*
X178083032Y-101878159D01*
X178083032Y-101716147D01*
X178083032Y-101554134D01*
X178164039Y-101554134D01*
X178245045Y-101554134D01*
X178245045Y-101635140D01*
X178245045Y-101716147D01*
X178326052Y-101716147D01*
X178407058Y-101716147D01*
X178407058Y-101635140D01*
X178407058Y-101554134D01*
X178488064Y-101554134D01*
X178569071Y-101554134D01*
X178569071Y-101389121D01*
X178569071Y-101224108D01*
X178650077Y-101224108D01*
X178731083Y-101224108D01*
X178731083Y-101551134D01*
X178731083Y-101878159D01*
X178650077Y-101878159D01*
X178569071Y-101878159D01*
X178569071Y-101797153D01*
X178569071Y-101716147D01*
X178488064Y-101716147D01*
X178407058Y-101716147D01*
X178407058Y-101878159D01*
X178407058Y-102040172D01*
X178164039Y-102040172D01*
X177921020Y-102040172D01*
X177921020Y-101959166D01*
X177921020Y-101878159D01*
X177678000Y-101878159D01*
X177434981Y-101878159D01*
X177434981Y-101797153D01*
X177434981Y-101716147D01*
X177353975Y-101716147D01*
X177272969Y-101716147D01*
X177272969Y-101554134D01*
X177272969Y-101392121D01*
X177191962Y-101392121D01*
X177110956Y-101392121D01*
X177110956Y-101473128D01*
X177110956Y-101554134D01*
X177029949Y-101554134D01*
X176948943Y-101554134D01*
X176948943Y-101389121D01*
X176948943Y-101224108D01*
X176867937Y-101224108D01*
X176786930Y-101224108D01*
X176786930Y-101470127D01*
X176786930Y-101635140D01*
X176786930Y-101716147D01*
X176705924Y-101716147D01*
X176624918Y-101716147D01*
X176624918Y-101797153D01*
X176624918Y-101878159D01*
X176705924Y-101878159D01*
X176786930Y-101878159D01*
X176786930Y-101959166D01*
X176786930Y-102040172D01*
X176867937Y-102040172D01*
X176948943Y-102040172D01*
X176948943Y-101959166D01*
X176948943Y-101878159D01*
X177029949Y-101878159D01*
X177110956Y-101878159D01*
X177110956Y-101959166D01*
X177110956Y-102040172D01*
X177191962Y-102040172D01*
X177272969Y-102040172D01*
X177272969Y-101959166D01*
X177272969Y-101878159D01*
X177353975Y-101878159D01*
X177434981Y-101878159D01*
X177434981Y-101959166D01*
X177434981Y-102040172D01*
X177596994Y-102040172D01*
X177759007Y-102040172D01*
X177759007Y-102121179D01*
X177759007Y-102202185D01*
X177029949Y-102202185D01*
X176300892Y-102202185D01*
X176300892Y-102121179D01*
X176300892Y-102040172D01*
X176381898Y-102040172D01*
X176462905Y-102040172D01*
X176462905Y-101959166D01*
X176462905Y-101878159D01*
X176297892Y-101878159D01*
X176132879Y-101878159D01*
X176132879Y-101716147D01*
X176132879Y-101554134D01*
X176300892Y-101554134D01*
X176300892Y-101635140D01*
X176300892Y-101716147D01*
X176381898Y-101716147D01*
X176462905Y-101716147D01*
X176462905Y-101635140D01*
X176462905Y-101554134D01*
X176381898Y-101554134D01*
X176300892Y-101554134D01*
X176132879Y-101554134D01*
X176051872Y-101554134D01*
X175970866Y-101554134D01*
X175970866Y-101389121D01*
X175970866Y-101224108D01*
X175889860Y-101224108D01*
X175808853Y-101224108D01*
X175808853Y-101389121D01*
X175808853Y-101554134D01*
X175565834Y-101554134D01*
X175322815Y-101554134D01*
X175322815Y-101389121D01*
X175322815Y-101224108D01*
X175484828Y-101224108D01*
X175646841Y-101224108D01*
X175646841Y-101146102D01*
X176132879Y-101146102D01*
X176132879Y-101392121D01*
X176378898Y-101392121D01*
X176624918Y-101392121D01*
X176624918Y-101146102D01*
X176624918Y-100900082D01*
X176378898Y-100900082D01*
X176132879Y-100900082D01*
X176132879Y-100981089D01*
X176132879Y-101146102D01*
X175646841Y-101146102D01*
X175646841Y-101143102D01*
X175646841Y-101062095D01*
X175565834Y-101062095D01*
X175484828Y-101062095D01*
X175484828Y-100900082D01*
X175646841Y-100900082D01*
X175646841Y-100981089D01*
X175646841Y-101062095D01*
X175808853Y-101062095D01*
X175970866Y-101062095D01*
X175970866Y-100981089D01*
X175970866Y-100900082D01*
X175808853Y-100900082D01*
X175646841Y-100900082D01*
X175484828Y-100900082D01*
X175484828Y-100738070D01*
X175403821Y-100738070D01*
X175322815Y-100738070D01*
X175322815Y-100657063D01*
X175322815Y-100576057D01*
X175484828Y-100576057D01*
X175646841Y-100576057D01*
X175646841Y-100657063D01*
X175646841Y-100738070D01*
X175808853Y-100738070D01*
X175970866Y-100738070D01*
X175970866Y-100657063D01*
X175970866Y-100576057D01*
X175808853Y-100576057D01*
X175646841Y-100576057D01*
X175646841Y-100495051D01*
X175646841Y-100414044D01*
X175565834Y-100414044D01*
X175484828Y-100414044D01*
X175484828Y-100333038D01*
X175484828Y-100252031D01*
X175565834Y-100252031D01*
X175646841Y-100252031D01*
X175646841Y-100333038D01*
X175646841Y-100414044D01*
X175727847Y-100414044D01*
X175808853Y-100414044D01*
X175808853Y-100333038D01*
X175808853Y-100252031D01*
X175970866Y-100252031D01*
X176132879Y-100252031D01*
X176132879Y-100171025D01*
X176132879Y-100090019D01*
X176051872Y-100090019D01*
X175970866Y-100090019D01*
X175970866Y-100009012D01*
X175970866Y-99928006D01*
X176216885Y-99928006D01*
X176462905Y-99928006D01*
X176462905Y-100009012D01*
X176462905Y-100090019D01*
X176381898Y-100090019D01*
X176300892Y-100090019D01*
X176300892Y-100252031D01*
X176300892Y-100414044D01*
X176135879Y-100414044D01*
X175970866Y-100414044D01*
X175970866Y-100495051D01*
X175970866Y-100576057D01*
X176378898Y-100576057D01*
X176786930Y-100576057D01*
X176786930Y-100495051D01*
X176786930Y-100414044D01*
X176705924Y-100414044D01*
X176624918Y-100414044D01*
X176624918Y-100171025D01*
X176624918Y-99928006D01*
X176705924Y-99928006D01*
X176786930Y-99928006D01*
X176786930Y-99847000D01*
X176786930Y-99765993D01*
X176867937Y-99765993D01*
X176948943Y-99765993D01*
X176948943Y-99847000D01*
X176948943Y-99928006D01*
X177029949Y-99928006D01*
X177110956Y-99928006D01*
X177110956Y-99847000D01*
X177110956Y-99765993D01*
X177191962Y-99765993D01*
X177272969Y-99765993D01*
X177272969Y-99928006D01*
X177272969Y-100090019D01*
X177434981Y-100090019D01*
X177596994Y-100090019D01*
X177596994Y-100171025D01*
X177596994Y-100252031D01*
X177840013Y-100252031D01*
X178083032Y-100252031D01*
X178083032Y-100333038D01*
X178083032Y-100414044D01*
X178002026Y-100414044D01*
X177921020Y-100414044D01*
X177921020Y-100576057D01*
X177921020Y-100738070D01*
X177840013Y-100738070D01*
X177759007Y-100738070D01*
X177759007Y-100657063D01*
X177759007Y-100576057D01*
X177678000Y-100576057D01*
X177596994Y-100576057D01*
X177596994Y-100495051D01*
X177596994Y-100414044D01*
X177515988Y-100414044D01*
X177434981Y-100414044D01*
X177434981Y-100333038D01*
X177434981Y-100252031D01*
X177272969Y-100252031D01*
X177110956Y-100252031D01*
X177110956Y-100171025D01*
X177110956Y-100090019D01*
X176948943Y-100090019D01*
X176786930Y-100090019D01*
X176786930Y-100171025D01*
X176786930Y-100252031D01*
X176867937Y-100252031D01*
X176948943Y-100252031D01*
X176948943Y-100333038D01*
X176948943Y-100414044D01*
X177110956Y-100414044D01*
X177272969Y-100414044D01*
X177272969Y-100495051D01*
X177272969Y-100576057D01*
X177353975Y-100576057D01*
X177434981Y-100576057D01*
X177434981Y-100657063D01*
X177434981Y-100738070D01*
X177353975Y-100738070D01*
X177272969Y-100738070D01*
X177272969Y-100819076D01*
X177272969Y-100900082D01*
X177191962Y-100900082D01*
X177110956Y-100900082D01*
X177110956Y-100819076D01*
X177110956Y-100738070D01*
X176948943Y-100738070D01*
X176786930Y-100738070D01*
X176786930Y-100819076D01*
X176786930Y-100900082D01*
X176867937Y-100900082D01*
X176948943Y-100900082D01*
X176948943Y-101062095D01*
X176948943Y-101146102D01*
X176948943Y-101224108D01*
G37*
G36*
X178569071Y-102040172D02*
G01*
X178731083Y-102040172D01*
X178731083Y-102121179D01*
X178731083Y-102202185D01*
X178569071Y-102202185D01*
X178407058Y-102202185D01*
X178407058Y-102121179D01*
X178407058Y-102040172D01*
X178569071Y-102040172D01*
G37*
G36*
X179865173Y-99279955D02*
G01*
X179784166Y-99279955D01*
X179703160Y-99279955D01*
X179703160Y-99522974D01*
X179703160Y-99765993D01*
X179865173Y-99765993D01*
X180027185Y-99765993D01*
X180027185Y-100333038D01*
X180027185Y-100900082D01*
X179946179Y-100900082D01*
X179865173Y-100900082D01*
X179865173Y-100657063D01*
X179865173Y-100414044D01*
X179784166Y-100414044D01*
X179703160Y-100414044D01*
X179703160Y-100333038D01*
X179703160Y-100252031D01*
X179622154Y-100252031D01*
X179541147Y-100252031D01*
X179541147Y-100495051D01*
X179541147Y-100738070D01*
X179379134Y-100738070D01*
X179217122Y-100738070D01*
X179217122Y-100819076D01*
X179217122Y-100900082D01*
X179055109Y-100900082D01*
X178893096Y-100900082D01*
X178893096Y-100819076D01*
X178893096Y-100738070D01*
X178812090Y-100738070D01*
X178731083Y-100738070D01*
X178731083Y-100900082D01*
X178731083Y-101062095D01*
X178650077Y-101062095D01*
X178569071Y-101062095D01*
X178569071Y-101143102D01*
X178569071Y-101224108D01*
X178488064Y-101224108D01*
X178407058Y-101224108D01*
X178407058Y-101062095D01*
X178407058Y-100900082D01*
X178326052Y-100900082D01*
X178245045Y-100900082D01*
X178245045Y-100738070D01*
X178245045Y-100576057D01*
X178326052Y-100576057D01*
X178407058Y-100576057D01*
X178407058Y-100657063D01*
X178407058Y-100738070D01*
X178488064Y-100738070D01*
X178569071Y-100738070D01*
X178569071Y-100657063D01*
X178569071Y-100576057D01*
X178731083Y-100576057D01*
X178893096Y-100576057D01*
X178893096Y-100657063D01*
X178893096Y-100738070D01*
X179055109Y-100738070D01*
X179217122Y-100738070D01*
X179217122Y-100657063D01*
X179217122Y-100576057D01*
X179298128Y-100576057D01*
X179379134Y-100576057D01*
X179379134Y-100333038D01*
X179379134Y-100090019D01*
X179541147Y-100090019D01*
X179703160Y-100090019D01*
X179703160Y-100171025D01*
X179703160Y-100252031D01*
X179784166Y-100252031D01*
X179865173Y-100252031D01*
X179865173Y-100090019D01*
X179865173Y-99928006D01*
X179622154Y-99928006D01*
X179379134Y-99928006D01*
X179379134Y-99847000D01*
X179379134Y-99765993D01*
X179217122Y-99765993D01*
X179055109Y-99765993D01*
X179055109Y-99847000D01*
X179055109Y-99928006D01*
X178893096Y-99928006D01*
X178731083Y-99928006D01*
X178731083Y-99847000D01*
X178731083Y-99765993D01*
X178650077Y-99765993D01*
X178569071Y-99765993D01*
X178569071Y-100009012D01*
X178569071Y-100252031D01*
X178407058Y-100252031D01*
X178245045Y-100252031D01*
X178245045Y-100009012D01*
X178245045Y-99765993D01*
X178164039Y-99765993D01*
X178083032Y-99765993D01*
X178083032Y-99928006D01*
X178083032Y-100090019D01*
X178002026Y-100090019D01*
X177921020Y-100090019D01*
X177921020Y-99765993D01*
X177921020Y-99684987D01*
X178893096Y-99684987D01*
X178893096Y-99765993D01*
X178974103Y-99765993D01*
X179055109Y-99765993D01*
X179055109Y-99684987D01*
X179055109Y-99603980D01*
X178974103Y-99603980D01*
X178893096Y-99603980D01*
X178893096Y-99684987D01*
X177921020Y-99684987D01*
X177921020Y-99441968D01*
X177840013Y-99441968D01*
X177759007Y-99441968D01*
X177759007Y-99360961D01*
X177759007Y-99279955D01*
X177678000Y-99279955D01*
X177596994Y-99279955D01*
X177596994Y-99198948D01*
X177596994Y-99117942D01*
X177678000Y-99117942D01*
X177759007Y-99117942D01*
X177759007Y-99036936D01*
X177759007Y-98955929D01*
X177840013Y-98955929D01*
X177921020Y-98955929D01*
X177921020Y-99117942D01*
X177921020Y-99279955D01*
X178083032Y-99279955D01*
X178245045Y-99279955D01*
X178245045Y-99360961D01*
X178245045Y-99441968D01*
X178488064Y-99441968D01*
X178731083Y-99441968D01*
X178731083Y-99522974D01*
X178731083Y-99603980D01*
X178812090Y-99603980D01*
X178893096Y-99603980D01*
X178893096Y-99522974D01*
X178893096Y-99441968D01*
X179055109Y-99441968D01*
X179217122Y-99441968D01*
X179217122Y-99522974D01*
X179217122Y-99603980D01*
X179298128Y-99603980D01*
X179379134Y-99603980D01*
X179379134Y-99684987D01*
X179379134Y-99765993D01*
X179460141Y-99765993D01*
X179541147Y-99765993D01*
X179541147Y-99522974D01*
X179541147Y-99279955D01*
X179460141Y-99279955D01*
X179379134Y-99279955D01*
X179379134Y-99198948D01*
X179379134Y-99117942D01*
X179541147Y-99117942D01*
X179541147Y-99198948D01*
X179541147Y-99279955D01*
X179622154Y-99279955D01*
X179703160Y-99279955D01*
X179703160Y-99198948D01*
X179703160Y-99117942D01*
X179622154Y-99117942D01*
X179541147Y-99117942D01*
X179379134Y-99117942D01*
X179217122Y-99117942D01*
X179055109Y-99117942D01*
X179055109Y-99198948D01*
X179055109Y-99279955D01*
X178812090Y-99279955D01*
X178569071Y-99279955D01*
X178569071Y-99117942D01*
X178569071Y-98955929D01*
X178650077Y-98955929D01*
X178731083Y-98955929D01*
X178731083Y-99036936D01*
X178731083Y-99117942D01*
X178893096Y-99117942D01*
X179055109Y-99117942D01*
X179055109Y-99036936D01*
X179055109Y-98955929D01*
X178974103Y-98955929D01*
X178893096Y-98955929D01*
X178893096Y-98874923D01*
X178893096Y-98793917D01*
X179298128Y-98793917D01*
X179703160Y-98793917D01*
X179703160Y-98874923D01*
X179703160Y-98955929D01*
X179784166Y-98955929D01*
X179865173Y-98955929D01*
X179865173Y-98874923D01*
X179865173Y-98793917D01*
X179946179Y-98793917D01*
X180027185Y-98793917D01*
X180027185Y-98874923D01*
X180027185Y-98955929D01*
X179946179Y-98955929D01*
X179865173Y-98955929D01*
X179865173Y-99117942D01*
X179865173Y-99198948D01*
X179865173Y-99279955D01*
G37*
G36*
X179622154Y-100738070D02*
G01*
X179703160Y-100738070D01*
X179703160Y-100819076D01*
X179703160Y-100900082D01*
X179622154Y-100900082D01*
X179541147Y-100900082D01*
X179541147Y-100819076D01*
X179541147Y-100738070D01*
X179622154Y-100738070D01*
G37*
G36*
X175646841Y-99684987D02*
G01*
X175646841Y-99765993D01*
X175727847Y-99765993D01*
X175808853Y-99765993D01*
X175808853Y-99684987D01*
X175808853Y-99603980D01*
X175889860Y-99603980D01*
X175970866Y-99603980D01*
X175970866Y-99765993D01*
X175970866Y-99928006D01*
X175808853Y-99928006D01*
X175646841Y-99928006D01*
X175646841Y-100009012D01*
X175646841Y-100090019D01*
X175484828Y-100090019D01*
X175322815Y-100090019D01*
X175322815Y-99928006D01*
X175322815Y-99765993D01*
X175403821Y-99765993D01*
X175484828Y-99765993D01*
X175484828Y-99684987D01*
X175484828Y-99603980D01*
X175565834Y-99603980D01*
X175646841Y-99603980D01*
X175646841Y-99684987D01*
G37*
G36*
X179946179Y-99279955D02*
G01*
X180027185Y-99279955D01*
X180027185Y-99360961D01*
X180027185Y-99441968D01*
X179946179Y-99441968D01*
X179865173Y-99441968D01*
X179865173Y-99360961D01*
X179865173Y-99279955D01*
X179946179Y-99279955D01*
G37*
D12*
%TO.C,C49*%
X154709420Y-106965000D02*
X154990580Y-106965000D01*
X154709420Y-107985000D02*
X154990580Y-107985000D01*
%TO.C,C8*%
X149509420Y-107615000D02*
X149790580Y-107615000D01*
X149509420Y-108635000D02*
X149790580Y-108635000D01*
%TO.C,C9*%
X153049420Y-104565000D02*
X153330580Y-104565000D01*
X153049420Y-105585000D02*
X153330580Y-105585000D01*
%TO.C,R7*%
X126853641Y-102820000D02*
X126546359Y-102820000D01*
X126853641Y-103580000D02*
X126546359Y-103580000D01*
%TO.C,TP6*%
X129990000Y-105180000D02*
G75*
G02*
X127590000Y-105180000I-1200000J0D01*
G01*
X127590000Y-105180000D02*
G75*
G02*
X129990000Y-105180000I1200000J0D01*
G01*
%TO.C,D7*%
X162200000Y-114800000D02*
X164160000Y-114800000D01*
X162200000Y-116000000D02*
X164160000Y-116000000D01*
X164160000Y-114800000D02*
X164160000Y-116000000D01*
%TO.C,C11*%
X151815000Y-103332164D02*
X151815000Y-103547836D01*
X152535000Y-103332164D02*
X152535000Y-103547836D01*
%TO.C,C10*%
X153984420Y-102590000D02*
X154265580Y-102590000D01*
X153984420Y-103610000D02*
X154265580Y-103610000D01*
%TO.C,C48*%
X151890000Y-107592164D02*
X151890000Y-107807836D01*
X152610000Y-107592164D02*
X152610000Y-107807836D01*
%TO.C,R45*%
X144003641Y-104230000D02*
X143696359Y-104230000D01*
X144003641Y-104990000D02*
X143696359Y-104990000D01*
%TO.C,TP3*%
X119120000Y-107580000D02*
G75*
G02*
X116720000Y-107580000I-1200000J0D01*
G01*
X116720000Y-107580000D02*
G75*
G02*
X119120000Y-107580000I1200000J0D01*
G01*
%TO.C,R11*%
X136810000Y-98126359D02*
X136810000Y-98433641D01*
X137570000Y-98126359D02*
X137570000Y-98433641D01*
%TO.C,R5*%
X177846359Y-111870000D02*
X178153641Y-111870000D01*
X177846359Y-112630000D02*
X178153641Y-112630000D01*
%TO.C,R3*%
X175246359Y-111860000D02*
X175553641Y-111860000D01*
X175246359Y-112620000D02*
X175553641Y-112620000D01*
%TO.C,R31*%
X169080000Y-115173641D02*
X169080000Y-114866359D01*
X169840000Y-115173641D02*
X169840000Y-114866359D01*
%TO.C,R37*%
X157646359Y-113660000D02*
X157953641Y-113660000D01*
X157646359Y-114420000D02*
X157953641Y-114420000D01*
%TO.C,R2*%
X172706359Y-111800000D02*
X173013641Y-111800000D01*
X172706359Y-112560000D02*
X173013641Y-112560000D01*
%TO.C,D6*%
X161640000Y-114600000D02*
X161640000Y-113400000D01*
X163600000Y-113400000D02*
X161640000Y-113400000D01*
X163600000Y-114600000D02*
X161640000Y-114600000D01*
%TO.C,C50*%
X154812164Y-105915000D02*
X155027836Y-105915000D01*
X154812164Y-106635000D02*
X155027836Y-106635000D01*
%TO.C,C21*%
X152642164Y-105915000D02*
X152857836Y-105915000D01*
X152642164Y-106635000D02*
X152857836Y-106635000D01*
%TO.C,TP9*%
X137975000Y-118050000D02*
G75*
G02*
X136575000Y-118050000I-700000J0D01*
G01*
X136575000Y-118050000D02*
G75*
G02*
X137975000Y-118050000I700000J0D01*
G01*
%TO.C,C27*%
X147237836Y-106330000D02*
X147022164Y-106330000D01*
X147237836Y-107050000D02*
X147022164Y-107050000D01*
%TO.C,R1*%
X166406359Y-111890000D02*
X166713641Y-111890000D01*
X166406359Y-112650000D02*
X166713641Y-112650000D01*
%TO.C,C25*%
X139392164Y-96890000D02*
X139607836Y-96890000D01*
X139392164Y-97610000D02*
X139607836Y-97610000D01*
%TO.C,TP12*%
X139950000Y-117200000D02*
G75*
G02*
X138550000Y-117200000I-700000J0D01*
G01*
X138550000Y-117200000D02*
G75*
G02*
X139950000Y-117200000I700000J0D01*
G01*
%TO.C,R10*%
X135870000Y-97096359D02*
X135870000Y-97403641D01*
X136630000Y-97096359D02*
X136630000Y-97403641D01*
%TO.C,C39*%
X178357836Y-108740000D02*
X178142164Y-108740000D01*
X178357836Y-109460000D02*
X178142164Y-109460000D01*
%TO.C,C28*%
X147220000Y-107952164D02*
X147220000Y-108167836D01*
X147940000Y-107952164D02*
X147940000Y-108167836D01*
%TO.C,TP13*%
X157600000Y-104850000D02*
G75*
G02*
X156200000Y-104850000I-700000J0D01*
G01*
X156200000Y-104850000D02*
G75*
G02*
X157600000Y-104850000I700000J0D01*
G01*
%TO.C,R36*%
X155789609Y-113660000D02*
X156096891Y-113660000D01*
X155789609Y-114420000D02*
X156096891Y-114420000D01*
%TO.C,C1*%
X139312164Y-98630000D02*
X139527836Y-98630000D01*
X139312164Y-99350000D02*
X139527836Y-99350000D01*
%TO.C,R47*%
X145946359Y-103120000D02*
X146253641Y-103120000D01*
X145946359Y-103880000D02*
X146253641Y-103880000D01*
%TO.C,C13*%
X150890000Y-105217836D02*
X150890000Y-105002164D01*
X151610000Y-105217836D02*
X151610000Y-105002164D01*
%TO.C,R24*%
X143176359Y-113710000D02*
X143483641Y-113710000D01*
X143176359Y-114470000D02*
X143483641Y-114470000D01*
%TO.C,C26*%
X144980000Y-107769420D02*
X144980000Y-108050580D01*
X146000000Y-107769420D02*
X146000000Y-108050580D01*
%TO.C,C14*%
X148842164Y-106580000D02*
X149057836Y-106580000D01*
X148842164Y-107300000D02*
X149057836Y-107300000D01*
%TD*%
%LPC*%
D14*
%TO.C,H3*%
X119500000Y-116500000D03*
%TD*%
D15*
%TO.C,J1*%
X124375000Y-94775000D03*
D16*
X124375000Y-92235000D03*
X126915000Y-94775000D03*
X126915000Y-92235000D03*
X129455000Y-94775000D03*
X129455000Y-92235000D03*
X131995000Y-94775000D03*
X131995000Y-92235000D03*
X134535000Y-94775000D03*
X134535000Y-92235000D03*
X137075000Y-94775000D03*
X137075000Y-92235000D03*
X139615000Y-94775000D03*
X139615000Y-92235000D03*
X142155000Y-94775000D03*
X142155000Y-92235000D03*
X144695000Y-94775000D03*
X144695000Y-92235000D03*
X147235000Y-94775000D03*
X147235000Y-92235000D03*
X149775000Y-94775000D03*
X149775000Y-92235000D03*
X152315000Y-94775000D03*
X152315000Y-92235000D03*
X154855000Y-94775000D03*
X154855000Y-92235000D03*
X157395000Y-94775000D03*
X157395000Y-92235000D03*
X159935000Y-94775000D03*
X159935000Y-92235000D03*
X162475000Y-94775000D03*
X162475000Y-92235000D03*
X165015000Y-94775000D03*
X165015000Y-92235000D03*
X167555000Y-94775000D03*
X167555000Y-92235000D03*
X170095000Y-94775000D03*
X170095000Y-92235000D03*
X172635000Y-94775000D03*
X172635000Y-92235000D03*
%TD*%
D17*
%TO.C,J4*%
X166110000Y-115145000D03*
X171890000Y-115145000D03*
D18*
X164680000Y-114645000D03*
D19*
X164680000Y-118825000D03*
D18*
X173320000Y-114645000D03*
D19*
X173320000Y-118825000D03*
%TD*%
D17*
%TO.C,J5*%
X153610000Y-115145000D03*
X159390000Y-115145000D03*
D18*
X152180000Y-114645000D03*
D19*
X152180000Y-118825000D03*
D18*
X160820000Y-114645000D03*
D19*
X160820000Y-118825000D03*
%TD*%
D14*
%TO.C,H1*%
X119500000Y-93500000D03*
%TD*%
D17*
%TO.C,J3*%
X141110000Y-115145000D03*
X146890000Y-115145000D03*
D18*
X139680000Y-114645000D03*
D19*
X139680000Y-118825000D03*
D18*
X148320000Y-114645000D03*
D19*
X148320000Y-118825000D03*
%TD*%
D14*
%TO.C,H4*%
X177500000Y-116500000D03*
%TD*%
D20*
%TO.C,J2*%
X124650000Y-115150000D03*
X132150000Y-115150000D03*
D21*
X122975000Y-114350000D03*
X123000000Y-118850000D03*
X133825000Y-114350000D03*
X133825000Y-118850000D03*
%TD*%
D14*
%TO.C,H2*%
X177500000Y-93500000D03*
%TD*%
D22*
%TO.C,C22*%
X147575000Y-102980000D03*
X147575000Y-103940000D03*
%TD*%
D23*
%TO.C,C43*%
X161445000Y-111625000D03*
X162405000Y-111625000D03*
%TD*%
D24*
%TO.C,R20*%
X142850000Y-105530000D03*
X142850000Y-106550000D03*
%TD*%
D23*
%TO.C,C15*%
X148480000Y-106020000D03*
X149440000Y-106020000D03*
%TD*%
D25*
%TO.C,D13*%
X150875000Y-111425000D03*
X150875000Y-110025000D03*
%TD*%
D26*
%TO.C,R6*%
X129110000Y-103200000D03*
X128090000Y-103200000D03*
%TD*%
D27*
%TO.C,D12*%
X163500000Y-117600000D03*
X163500000Y-119000000D03*
%TD*%
D22*
%TO.C,C52*%
X150200000Y-102730000D03*
X150200000Y-103690000D03*
%TD*%
D28*
%TO.C,R4*%
X169170000Y-112210000D03*
X170190000Y-112210000D03*
%TD*%
D29*
%TO.C,SW2*%
X160175000Y-104550000D03*
X164625000Y-104550000D03*
%TD*%
D30*
%TO.C,TP2*%
X129100000Y-115540000D03*
%TD*%
%TO.C,TP4*%
X132980000Y-97820000D03*
%TD*%
D31*
%TO.C,C38*%
X132150000Y-116420000D03*
X131190000Y-116420000D03*
%TD*%
D22*
%TO.C,C12*%
X151260000Y-102800000D03*
X151260000Y-103760000D03*
%TD*%
D32*
%TO.C,C19*%
X135000000Y-103230000D03*
X135000000Y-102270000D03*
%TD*%
D30*
%TO.C,TP1*%
X173820000Y-101610000D03*
%TD*%
D32*
%TO.C,C7*%
X131000000Y-102980000D03*
X131000000Y-102020000D03*
%TD*%
D33*
%TO.C,C2*%
X150345000Y-101560000D03*
X151895000Y-101560000D03*
%TD*%
D34*
%TO.C,C47*%
X120790000Y-102195000D03*
X120790000Y-100645000D03*
%TD*%
D29*
%TO.C,SW1*%
X160175000Y-101150000D03*
X164625000Y-101150000D03*
%TD*%
D20*
%TO.C,TP14*%
X156900000Y-102850000D03*
%TD*%
D28*
%TO.C,R34*%
X150090000Y-115270000D03*
X151110000Y-115270000D03*
%TD*%
D24*
%TO.C,R29*%
X168520000Y-114510000D03*
X168520000Y-115530000D03*
%TD*%
D26*
%TO.C,R48*%
X146190000Y-105560000D03*
X145170000Y-105560000D03*
%TD*%
D23*
%TO.C,C41*%
X165420000Y-113200000D03*
X166380000Y-113200000D03*
%TD*%
D35*
%TO.C,R42*%
X153000000Y-112335000D03*
X153000000Y-111315000D03*
%TD*%
D23*
%TO.C,C51*%
X153080000Y-101910000D03*
X154040000Y-101910000D03*
%TD*%
D36*
%TO.C,D9*%
X150920000Y-116450000D03*
X149520000Y-116450000D03*
%TD*%
D24*
%TO.C,R41*%
X152050000Y-110540000D03*
X152050000Y-111560000D03*
%TD*%
D25*
%TO.C,D11*%
X162025000Y-118175000D03*
X162025000Y-116775000D03*
%TD*%
D33*
%TO.C,C42*%
X161175000Y-110425000D03*
X162725000Y-110425000D03*
%TD*%
D30*
%TO.C,TP8*%
X144570000Y-118400000D03*
%TD*%
D37*
%TO.C,D14*%
X150550000Y-112700000D03*
X151950000Y-112700000D03*
%TD*%
D35*
%TO.C,R46*%
X140460000Y-106700000D03*
X140460000Y-105680000D03*
%TD*%
D38*
%TO.C,FB1*%
X136317500Y-103800000D03*
X138442500Y-103800000D03*
%TD*%
D20*
%TO.C,TP10*%
X135300000Y-118350000D03*
%TD*%
D30*
%TO.C,TP5*%
X137140000Y-106250000D03*
%TD*%
D28*
%TO.C,R43*%
X145200000Y-104600000D03*
X146220000Y-104600000D03*
%TD*%
D23*
%TO.C,C46*%
X147320000Y-101910000D03*
X148280000Y-101910000D03*
%TD*%
D20*
%TO.C,TP11*%
X146900000Y-117225000D03*
%TD*%
D33*
%TO.C,C45*%
X147230000Y-100720000D03*
X148780000Y-100720000D03*
%TD*%
D31*
%TO.C,C40*%
X169030000Y-111160000D03*
X168070000Y-111160000D03*
%TD*%
D39*
%TO.C,C20*%
X138435000Y-102220000D03*
X136885000Y-102220000D03*
%TD*%
D30*
%TO.C,TP7*%
X141875000Y-116825000D03*
%TD*%
D26*
%TO.C,R23*%
X138835000Y-115725000D03*
X137815000Y-115725000D03*
%TD*%
D32*
%TO.C,C3*%
X149180000Y-102890000D03*
X149180000Y-101930000D03*
%TD*%
D28*
%TO.C,R22*%
X147840000Y-112250000D03*
X148860000Y-112250000D03*
%TD*%
D23*
%TO.C,C16*%
X148480000Y-105100000D03*
X149440000Y-105100000D03*
%TD*%
D35*
%TO.C,R21*%
X144290000Y-108480000D03*
X144290000Y-107460000D03*
%TD*%
D40*
%TO.C,U7*%
X144597500Y-116437500D03*
X144597500Y-115737500D03*
X145447500Y-116087500D03*
%TD*%
D28*
%TO.C,R25*%
X144680000Y-114090000D03*
X145700000Y-114090000D03*
%TD*%
D26*
%TO.C,R44*%
X144750000Y-103650000D03*
X143730000Y-103650000D03*
%TD*%
D24*
%TO.C,R9*%
X132800000Y-105930000D03*
X132800000Y-106950000D03*
%TD*%
D35*
%TO.C,R49*%
X147580000Y-105810000D03*
X147580000Y-104790000D03*
%TD*%
D37*
%TO.C,D10*%
X149680000Y-114100000D03*
X151080000Y-114100000D03*
%TD*%
D24*
%TO.C,R50*%
X141910000Y-105530000D03*
X141910000Y-106550000D03*
%TD*%
D26*
%TO.C,R32*%
X152950000Y-116360000D03*
X151930000Y-116360000D03*
%TD*%
D33*
%TO.C,C49*%
X154075000Y-107475000D03*
X155625000Y-107475000D03*
%TD*%
%TO.C,C8*%
X148875000Y-108125000D03*
X150425000Y-108125000D03*
%TD*%
%TO.C,C9*%
X152415000Y-105075000D03*
X153965000Y-105075000D03*
%TD*%
D26*
%TO.C,R7*%
X127210000Y-103200000D03*
X126190000Y-103200000D03*
%TD*%
D30*
%TO.C,TP6*%
X128790000Y-105180000D03*
%TD*%
D36*
%TO.C,D7*%
X163600000Y-115400000D03*
X162200000Y-115400000D03*
%TD*%
D22*
%TO.C,C11*%
X152175000Y-102960000D03*
X152175000Y-103920000D03*
%TD*%
D33*
%TO.C,C10*%
X153350000Y-103100000D03*
X154900000Y-103100000D03*
%TD*%
D22*
%TO.C,C48*%
X152250000Y-107220000D03*
X152250000Y-108180000D03*
%TD*%
D26*
%TO.C,R45*%
X144360000Y-104610000D03*
X143340000Y-104610000D03*
%TD*%
D30*
%TO.C,TP3*%
X117920000Y-107580000D03*
%TD*%
D24*
%TO.C,R11*%
X137190000Y-97770000D03*
X137190000Y-98790000D03*
%TD*%
D28*
%TO.C,R5*%
X177490000Y-112250000D03*
X178510000Y-112250000D03*
%TD*%
%TO.C,R3*%
X174890000Y-112240000D03*
X175910000Y-112240000D03*
%TD*%
D35*
%TO.C,R31*%
X169460000Y-115530000D03*
X169460000Y-114510000D03*
%TD*%
D28*
%TO.C,R37*%
X157290000Y-114040000D03*
X158310000Y-114040000D03*
%TD*%
%TO.C,R2*%
X172350000Y-112180000D03*
X173370000Y-112180000D03*
%TD*%
D37*
%TO.C,D6*%
X162200000Y-114000000D03*
X163600000Y-114000000D03*
%TD*%
D23*
%TO.C,C50*%
X154440000Y-106275000D03*
X155400000Y-106275000D03*
%TD*%
%TO.C,C21*%
X152270000Y-106275000D03*
X153230000Y-106275000D03*
%TD*%
D20*
%TO.C,TP9*%
X137275000Y-118050000D03*
%TD*%
D31*
%TO.C,C27*%
X147610000Y-106690000D03*
X146650000Y-106690000D03*
%TD*%
D28*
%TO.C,R1*%
X166050000Y-112270000D03*
X167070000Y-112270000D03*
%TD*%
D23*
%TO.C,C25*%
X139020000Y-97250000D03*
X139980000Y-97250000D03*
%TD*%
D20*
%TO.C,TP12*%
X139250000Y-117200000D03*
%TD*%
D24*
%TO.C,R10*%
X136250000Y-96740000D03*
X136250000Y-97760000D03*
%TD*%
D31*
%TO.C,C39*%
X178730000Y-109100000D03*
X177770000Y-109100000D03*
%TD*%
D22*
%TO.C,C28*%
X147580000Y-107580000D03*
X147580000Y-108540000D03*
%TD*%
D20*
%TO.C,TP13*%
X156900000Y-104850000D03*
%TD*%
D28*
%TO.C,R36*%
X155433250Y-114040000D03*
X156453250Y-114040000D03*
%TD*%
D23*
%TO.C,C1*%
X138940000Y-98990000D03*
X139900000Y-98990000D03*
%TD*%
D28*
%TO.C,R47*%
X145590000Y-103500000D03*
X146610000Y-103500000D03*
%TD*%
D32*
%TO.C,C13*%
X151250000Y-105590000D03*
X151250000Y-104630000D03*
%TD*%
D28*
%TO.C,R24*%
X142820000Y-114090000D03*
X143840000Y-114090000D03*
%TD*%
D41*
%TO.C,C26*%
X145490000Y-107135000D03*
X145490000Y-108685000D03*
%TD*%
D23*
%TO.C,C14*%
X148470000Y-106940000D03*
X149430000Y-106940000D03*
%TD*%
%LPD*%
M02*
