%TF.GenerationSoftware,KiCad,Pcbnew,9.0.3*%
%TF.CreationDate,2025-07-23T11:06:21+02:00*%
%TF.ProjectId,icepi-zero,69636570-692d-47a6-9572-6f2e6b696361,v1.3*%
%TF.SameCoordinates,Original*%
%TF.FileFunction,Paste,Bot*%
%TF.FilePolarity,Positive*%
%FSLAX46Y46*%
G04 Gerber Fmt 4.6, Leading zero omitted, Abs format (unit mm)*
G04 Created by KiCad (PCBNEW 9.0.3) date 2025-07-23 11:06:21*
%MOMM*%
%LPD*%
G01*
G04 APERTURE LIST*
G04 Aperture macros list*
%AMRoundRect*
0 Rectangle with rounded corners*
0 $1 Rounding radius*
0 $2 $3 $4 $5 $6 $7 $8 $9 X,Y pos of 4 corners*
0 Add a 4 corners polygon primitive as box body*
4,1,4,$2,$3,$4,$5,$6,$7,$8,$9,$2,$3,0*
0 Add four circle primitives for the rounded corners*
1,1,$1+$1,$2,$3*
1,1,$1+$1,$4,$5*
1,1,$1+$1,$6,$7*
1,1,$1+$1,$8,$9*
0 Add four rect primitives between the rounded corners*
20,1,$1+$1,$2,$3,$4,$5,0*
20,1,$1+$1,$4,$5,$6,$7,0*
20,1,$1+$1,$6,$7,$8,$9,0*
20,1,$1+$1,$8,$9,$2,$3,0*%
G04 Aperture macros list end*
%ADD10RoundRect,0.140000X-0.170000X0.140000X-0.170000X-0.140000X0.170000X-0.140000X0.170000X0.140000X0*%
%ADD11RoundRect,0.140000X-0.140000X-0.170000X0.140000X-0.170000X0.140000X0.170000X-0.140000X0.170000X0*%
%ADD12RoundRect,0.135000X-0.185000X0.135000X-0.185000X-0.135000X0.185000X-0.135000X0.185000X0.135000X0*%
%ADD13RoundRect,0.150000X-0.200000X0.150000X-0.200000X-0.150000X0.200000X-0.150000X0.200000X0.150000X0*%
%ADD14RoundRect,0.135000X0.135000X0.185000X-0.135000X0.185000X-0.135000X-0.185000X0.135000X-0.185000X0*%
%ADD15RoundRect,0.150000X0.200000X-0.150000X0.200000X0.150000X-0.200000X0.150000X-0.200000X-0.150000X0*%
%ADD16RoundRect,0.135000X-0.135000X-0.185000X0.135000X-0.185000X0.135000X0.185000X-0.135000X0.185000X0*%
%ADD17RoundRect,0.157500X-0.367500X-0.842500X0.367500X-0.842500X0.367500X0.842500X-0.367500X0.842500X0*%
%ADD18RoundRect,0.140000X0.140000X0.170000X-0.140000X0.170000X-0.140000X-0.170000X0.140000X-0.170000X0*%
%ADD19RoundRect,0.140000X0.170000X-0.140000X0.170000X0.140000X-0.170000X0.140000X-0.170000X-0.140000X0*%
%ADD20RoundRect,0.225000X-0.225000X-0.250000X0.225000X-0.250000X0.225000X0.250000X-0.225000X0.250000X0*%
%ADD21RoundRect,0.225000X0.250000X-0.225000X0.250000X0.225000X-0.250000X0.225000X-0.250000X-0.225000X0*%
%ADD22RoundRect,0.135000X0.185000X-0.135000X0.185000X0.135000X-0.185000X0.135000X-0.185000X-0.135000X0*%
%ADD23RoundRect,0.150000X-0.150000X-0.200000X0.150000X-0.200000X0.150000X0.200000X-0.150000X0.200000X0*%
%ADD24RoundRect,0.150000X0.150000X0.200000X-0.150000X0.200000X-0.150000X-0.200000X0.150000X-0.200000X0*%
%ADD25RoundRect,0.218750X-0.218750X-0.381250X0.218750X-0.381250X0.218750X0.381250X-0.218750X0.381250X0*%
%ADD26RoundRect,0.225000X0.225000X0.250000X-0.225000X0.250000X-0.225000X-0.250000X0.225000X-0.250000X0*%
%ADD27RoundRect,0.075000X0.075000X-0.075000X0.075000X0.075000X-0.075000X0.075000X-0.075000X-0.075000X0*%
%ADD28RoundRect,0.225000X-0.250000X0.225000X-0.250000X-0.225000X0.250000X-0.225000X0.250000X0.225000X0*%
G04 APERTURE END LIST*
D10*
%TO.C,C22*%
X147575000Y-102980000D03*
X147575000Y-103940000D03*
%TD*%
D11*
%TO.C,C43*%
X161445000Y-111625000D03*
X162405000Y-111625000D03*
%TD*%
D12*
%TO.C,R20*%
X142850000Y-105530000D03*
X142850000Y-106550000D03*
%TD*%
D11*
%TO.C,C15*%
X148480000Y-106020000D03*
X149440000Y-106020000D03*
%TD*%
D13*
%TO.C,D13*%
X150875000Y-111425000D03*
X150875000Y-110025000D03*
%TD*%
D14*
%TO.C,R6*%
X129110000Y-103200000D03*
X128090000Y-103200000D03*
%TD*%
D15*
%TO.C,D12*%
X163500000Y-117600000D03*
X163500000Y-119000000D03*
%TD*%
D10*
%TO.C,C52*%
X150200000Y-102730000D03*
X150200000Y-103690000D03*
%TD*%
D16*
%TO.C,R4*%
X169170000Y-112210000D03*
X170190000Y-112210000D03*
%TD*%
D17*
%TO.C,SW2*%
X160175000Y-104550000D03*
X164625000Y-104550000D03*
%TD*%
D18*
%TO.C,C38*%
X132150000Y-116420000D03*
X131190000Y-116420000D03*
%TD*%
D10*
%TO.C,C12*%
X151260000Y-102800000D03*
X151260000Y-103760000D03*
%TD*%
D19*
%TO.C,C19*%
X135000000Y-103230000D03*
X135000000Y-102270000D03*
%TD*%
%TO.C,C7*%
X131000000Y-102980000D03*
X131000000Y-102020000D03*
%TD*%
D20*
%TO.C,C2*%
X150345000Y-101560000D03*
X151895000Y-101560000D03*
%TD*%
D21*
%TO.C,C47*%
X120790000Y-102195000D03*
X120790000Y-100645000D03*
%TD*%
D17*
%TO.C,SW1*%
X160175000Y-101150000D03*
X164625000Y-101150000D03*
%TD*%
D16*
%TO.C,R34*%
X150090000Y-115270000D03*
X151110000Y-115270000D03*
%TD*%
D12*
%TO.C,R29*%
X168520000Y-114510000D03*
X168520000Y-115530000D03*
%TD*%
D14*
%TO.C,R48*%
X146190000Y-105560000D03*
X145170000Y-105560000D03*
%TD*%
D11*
%TO.C,C41*%
X165420000Y-113200000D03*
X166380000Y-113200000D03*
%TD*%
D22*
%TO.C,R42*%
X153000000Y-112335000D03*
X153000000Y-111315000D03*
%TD*%
D11*
%TO.C,C51*%
X153080000Y-101910000D03*
X154040000Y-101910000D03*
%TD*%
D23*
%TO.C,D9*%
X150920000Y-116450000D03*
X149520000Y-116450000D03*
%TD*%
D12*
%TO.C,R41*%
X152050000Y-110540000D03*
X152050000Y-111560000D03*
%TD*%
D13*
%TO.C,D11*%
X162025000Y-118175000D03*
X162025000Y-116775000D03*
%TD*%
D20*
%TO.C,C42*%
X161175000Y-110425000D03*
X162725000Y-110425000D03*
%TD*%
D24*
%TO.C,D14*%
X150550000Y-112700000D03*
X151950000Y-112700000D03*
%TD*%
D22*
%TO.C,R46*%
X140460000Y-106700000D03*
X140460000Y-105680000D03*
%TD*%
D25*
%TO.C,FB1*%
X136317500Y-103800000D03*
X138442500Y-103800000D03*
%TD*%
D16*
%TO.C,R43*%
X145200000Y-104600000D03*
X146220000Y-104600000D03*
%TD*%
D11*
%TO.C,C46*%
X147320000Y-101910000D03*
X148280000Y-101910000D03*
%TD*%
D20*
%TO.C,C45*%
X147230000Y-100720000D03*
X148780000Y-100720000D03*
%TD*%
D18*
%TO.C,C40*%
X169030000Y-111160000D03*
X168070000Y-111160000D03*
%TD*%
D26*
%TO.C,C20*%
X138435000Y-102220000D03*
X136885000Y-102220000D03*
%TD*%
D14*
%TO.C,R23*%
X138835000Y-115725000D03*
X137815000Y-115725000D03*
%TD*%
D19*
%TO.C,C3*%
X149180000Y-102890000D03*
X149180000Y-101930000D03*
%TD*%
D16*
%TO.C,R22*%
X147840000Y-112250000D03*
X148860000Y-112250000D03*
%TD*%
D11*
%TO.C,C16*%
X148480000Y-105100000D03*
X149440000Y-105100000D03*
%TD*%
D22*
%TO.C,R21*%
X144290000Y-108480000D03*
X144290000Y-107460000D03*
%TD*%
D27*
%TO.C,U7*%
X144597500Y-116437500D03*
X144597500Y-115737500D03*
X145447500Y-116087500D03*
%TD*%
D16*
%TO.C,R25*%
X144680000Y-114090000D03*
X145700000Y-114090000D03*
%TD*%
D14*
%TO.C,R44*%
X144750000Y-103650000D03*
X143730000Y-103650000D03*
%TD*%
D12*
%TO.C,R9*%
X132800000Y-105930000D03*
X132800000Y-106950000D03*
%TD*%
D22*
%TO.C,R49*%
X147580000Y-105810000D03*
X147580000Y-104790000D03*
%TD*%
D24*
%TO.C,D10*%
X149680000Y-114100000D03*
X151080000Y-114100000D03*
%TD*%
D12*
%TO.C,R50*%
X141910000Y-105530000D03*
X141910000Y-106550000D03*
%TD*%
D14*
%TO.C,R32*%
X152950000Y-116360000D03*
X151930000Y-116360000D03*
%TD*%
D20*
%TO.C,C49*%
X154075000Y-107475000D03*
X155625000Y-107475000D03*
%TD*%
%TO.C,C8*%
X148875000Y-108125000D03*
X150425000Y-108125000D03*
%TD*%
%TO.C,C9*%
X152415000Y-105075000D03*
X153965000Y-105075000D03*
%TD*%
D14*
%TO.C,R7*%
X127210000Y-103200000D03*
X126190000Y-103200000D03*
%TD*%
D23*
%TO.C,D7*%
X163600000Y-115400000D03*
X162200000Y-115400000D03*
%TD*%
D10*
%TO.C,C11*%
X152175000Y-102960000D03*
X152175000Y-103920000D03*
%TD*%
D20*
%TO.C,C10*%
X153350000Y-103100000D03*
X154900000Y-103100000D03*
%TD*%
D10*
%TO.C,C48*%
X152250000Y-107220000D03*
X152250000Y-108180000D03*
%TD*%
D14*
%TO.C,R45*%
X144360000Y-104610000D03*
X143340000Y-104610000D03*
%TD*%
D12*
%TO.C,R11*%
X137190000Y-97770000D03*
X137190000Y-98790000D03*
%TD*%
D16*
%TO.C,R5*%
X177490000Y-112250000D03*
X178510000Y-112250000D03*
%TD*%
%TO.C,R3*%
X174890000Y-112240000D03*
X175910000Y-112240000D03*
%TD*%
D22*
%TO.C,R31*%
X169460000Y-115530000D03*
X169460000Y-114510000D03*
%TD*%
D16*
%TO.C,R37*%
X157290000Y-114040000D03*
X158310000Y-114040000D03*
%TD*%
%TO.C,R2*%
X172350000Y-112180000D03*
X173370000Y-112180000D03*
%TD*%
D24*
%TO.C,D6*%
X162200000Y-114000000D03*
X163600000Y-114000000D03*
%TD*%
D11*
%TO.C,C50*%
X154440000Y-106275000D03*
X155400000Y-106275000D03*
%TD*%
%TO.C,C21*%
X152270000Y-106275000D03*
X153230000Y-106275000D03*
%TD*%
D18*
%TO.C,C27*%
X147610000Y-106690000D03*
X146650000Y-106690000D03*
%TD*%
D16*
%TO.C,R1*%
X166050000Y-112270000D03*
X167070000Y-112270000D03*
%TD*%
D11*
%TO.C,C25*%
X139020000Y-97250000D03*
X139980000Y-97250000D03*
%TD*%
D12*
%TO.C,R10*%
X136250000Y-96740000D03*
X136250000Y-97760000D03*
%TD*%
D18*
%TO.C,C39*%
X178730000Y-109100000D03*
X177770000Y-109100000D03*
%TD*%
D10*
%TO.C,C28*%
X147580000Y-107580000D03*
X147580000Y-108540000D03*
%TD*%
D16*
%TO.C,R36*%
X155433250Y-114040000D03*
X156453250Y-114040000D03*
%TD*%
D11*
%TO.C,C1*%
X138940000Y-98990000D03*
X139900000Y-98990000D03*
%TD*%
D16*
%TO.C,R47*%
X145590000Y-103500000D03*
X146610000Y-103500000D03*
%TD*%
D19*
%TO.C,C13*%
X151250000Y-105590000D03*
X151250000Y-104630000D03*
%TD*%
D16*
%TO.C,R24*%
X142820000Y-114090000D03*
X143840000Y-114090000D03*
%TD*%
D28*
%TO.C,C26*%
X145490000Y-107135000D03*
X145490000Y-108685000D03*
%TD*%
D11*
%TO.C,C14*%
X148470000Y-106940000D03*
X149430000Y-106940000D03*
%TD*%
M02*
