M48
; DRILL file {KiCad 9.0.3} date 2025-07-23T11:06:39+0200
; FORMAT={-:-/ absolute / metric / decimal}
; #@! TF.CreationDate,2025-07-23T11:06:39+02:00
; #@! TF.GenerationSoftware,Kicad,Pcbnew,9.0.3
; #@! TF.FileFunction,Plated,1,4,PTH
FMAT,2
METRIC
; #@! TA.AperFunction,Plated,PTH,ViaDrill
T1C0.200
; #@! TA.AperFunction,Plated,PTH,ViaDrill
T2C0.300
; #@! TA.AperFunction,Plated,PTH,ComponentDrill
T3C0.600
; #@! TA.AperFunction,Plated,PTH,ComponentDrill
T4C0.650
; #@! TA.AperFunction,Plated,PTH,ComponentDrill
T5C1.000
%
G90
G05
T1
X120.18Y-109.96
X124.805Y-112.235
X133.744Y-117.135
X134.12Y-116.68
X139.402Y-102.749
X139.981Y-102.859
X141.0Y-105.4
X141.3Y-106.975
X141.685Y-107.968
X142.22Y-102.739
X142.25Y-97.5
X142.3Y-107.176
X142.805Y-103.085
X142.897Y-104.4
X143.134Y-115.442
X143.236Y-103.5
X143.43Y-101.46
X143.45Y-115.95
X143.534Y-105.709
X143.55Y-106.35
X143.652Y-107.108
X143.761Y-111.19
X144.383Y-101.509
X144.4Y-107.21
X144.429Y-106.279
X144.495Y-105.523
X144.75Y-113.05
X145.038Y-109.469
X145.156Y-116.516
X145.183Y-101.509
X145.2Y-110.41
X145.2Y-106.35
X145.2Y-103.21
X145.251Y-100.758
X145.85Y-117.185
X145.925Y-100.738
X145.94Y-110.35
X145.971Y-99.121
X146.008Y-109.499
X146.01Y-101.49
X146.044Y-107.936
X146.191Y-106.268
X146.749Y-109.543
X146.8Y-104.01
X146.8Y-104.75
X146.825Y-105.517
X146.86Y-110.35
X147.2Y-111.438
X147.2Y-112.046
X147.478Y-110.305
X147.571Y-109.521
X147.6Y-102.29
X147.625Y-106.33
X147.65Y-107.1
X148.1Y-111.175
X148.332Y-103.156
X148.372Y-103.979
X148.4Y-104.75
X148.4Y-105.55
X148.41Y-106.36
X148.42Y-102.34
X148.425Y-109.525
X148.425Y-110.325
X148.515Y-111.608
X149.18Y-105.56
X149.191Y-99.901
X149.2Y-110.41
X149.2Y-101.49
X149.209Y-106.4
X149.214Y-103.137
X149.24Y-104.76
X149.57Y-119.43
X149.87Y-105.52
X149.906Y-106.323
X149.96Y-107.96
X150.02Y-99.93
X150.02Y-102.38
X150.075Y-107.138
X150.21Y-116.64
X150.709Y-108.963
X150.81Y-103.12
X150.81Y-103.94
X150.829Y-99.921
X150.85Y-104.7
X150.931Y-109.601
X151.25Y-112.475
X151.56Y-99.932
X151.56Y-104.73
X151.56Y-107.95
X151.57Y-105.52
X151.59Y-103.99
X151.59Y-115.892
X151.6Y-107.138
X151.6Y-108.73
X151.6Y-109.5
X151.61Y-103.11
X151.61Y-106.31
X151.69Y-111.95
X152.34Y-108.75
X152.39Y-100.77
X152.4Y-109.49
X152.425Y-102.32
X152.45Y-101.55
X152.46Y-99.95
X153.14Y-110.35
X153.2Y-105.548
X153.21Y-100.74
X153.254Y-107.945
X153.259Y-108.75
X153.26Y-107.15
X153.884Y-108.84
X153.97Y-106.34
X153.99Y-99.94
X153.99Y-100.76
X154.013Y-101.504
X154.05Y-103.95
X154.776Y-102.26
X154.792Y-101.601
X154.8Y-104.75
X154.8Y-105.55
X154.81Y-108.702
X154.82Y-103.96
X154.85Y-107.95
X156.7Y-98.686
X160.475Y-98.128
X160.917Y-111.342
X161.675Y-117.65
X161.685Y-114.1
X161.685Y-115.1
X162.64Y-118.746
X162.75Y-116.85
X164.46Y-112.88
X167.15Y-113.1
X167.561Y-109.398
X167.789Y-111.914
X167.85Y-113.21
X169.82Y-113.12
X170.08Y-115.11
X172.45Y-113.15
T2
X116.84Y-113.97
X116.91Y-95.78
X119.0Y-109.675
X119.6Y-107.735
X119.65Y-99.175
X119.65Y-101.375
X119.65Y-105.775
X119.65Y-106.875
X119.67Y-100.275
X119.68Y-98.075
X119.68Y-102.475
X119.69Y-104.675
X119.7Y-103.575
X119.953Y-110.725
X121.975Y-113.175
X122.275Y-109.85
X122.33Y-91.1
X123.0Y-110.55
X124.3Y-105.24
X124.39Y-106.19
X124.875Y-98.15
X124.94Y-117.09
X125.72Y-104.95
X125.77Y-96.09
X126.52Y-102.05
X126.99Y-104.33
X127.62Y-117.72
X127.8Y-100.1
X127.99Y-107.806
X128.09Y-97.89
X128.69Y-107.08
X129.3Y-103.8
X130.125Y-103.8
X130.49Y-98.03
X130.6Y-105.3
X130.851Y-106.43
X130.9Y-104.65
X131.0Y-103.8
X131.16Y-99.47
X131.2Y-118.8
X131.43Y-98.079
X131.8Y-104.2
X132.05Y-101.66
X132.56Y-113.93
X132.6Y-104.2
X132.68Y-97.245
X132.745Y-117.1
X132.79Y-105.01
X132.86Y-101.53
X133.015Y-98.28
X133.435Y-116.546
X133.775Y-98.37
X134.25Y-101.5
X134.28Y-97.79
X134.7Y-105.11
X135.0Y-119.4
X135.69Y-105.93
X135.69Y-115.74
X135.7Y-116.625
X135.95Y-119.426
X136.25Y-99.75
X136.262Y-113.721
X136.393Y-98.877
X136.543Y-116.515
X136.69Y-119.45
X136.99Y-115.76
X137.07Y-99.72
X137.43Y-119.448
X137.5Y-103.0
X137.721Y-97.929
X138.21Y-114.203
X138.57Y-99.7
X138.69Y-118.617
X138.94Y-98.05
X139.1Y-107.05
X140.25Y-98.05
X140.255Y-99.45
X140.458Y-107.334
X141.07Y-119.12
X141.18Y-106.14
X141.36Y-99.77
X141.823Y-113.192
X141.98Y-115.048
X142.2Y-99.25
X142.481Y-100.441
X142.837Y-113.18
X142.92Y-107.57
X142.983Y-99.897
X143.61Y-98.17
X145.705Y-113.22
X146.441Y-113.116
X150.2Y-98.11
X150.25Y-96.27
X153.759Y-112.152
X154.207Y-113.257
X154.45Y-119.1
X154.58Y-115.33
X155.567Y-115.189
X156.71Y-110.88
X157.924Y-115.075
X158.0Y-118.75
X158.35Y-98.75
X158.461Y-110.869
X158.6Y-115.9
X162.78Y-111.66
X162.933Y-97.847
X164.75Y-112.2
X165.269Y-97.879
X167.12Y-115.12
X167.9Y-97.875
X168.25Y-118.25
X169.011Y-109.313
X169.26Y-100.12
X170.27Y-96.86
X170.765Y-111.682
X170.96Y-115.12
X171.22Y-113.02
X171.83Y-116.65
X173.758Y-111.694
X174.68Y-96.56
X175.41Y-104.6
X176.753Y-111.695
X177.25Y-102.75
X177.5Y-106.75
X178.518Y-111.695
X179.5Y-109.1
X179.6Y-102.45
X179.8Y-97.35
X179.8Y-106.15
X180.1Y-113.55
T5
X124.375Y-92.235
X124.375Y-94.775
X126.915Y-92.235
X126.915Y-94.775
X129.455Y-92.235
X129.455Y-94.775
X131.995Y-92.235
X131.995Y-94.775
X134.535Y-92.235
X134.535Y-94.775
X137.075Y-92.235
X137.075Y-94.775
X139.615Y-92.235
X139.615Y-94.775
X142.155Y-92.235
X142.155Y-94.775
X144.695Y-92.235
X144.695Y-94.775
X147.235Y-92.235
X147.235Y-94.775
X149.775Y-92.235
X149.775Y-94.775
X152.315Y-92.235
X152.315Y-94.775
X154.855Y-92.235
X154.855Y-94.775
X157.395Y-92.235
X157.395Y-94.775
X159.935Y-92.235
X159.935Y-94.775
X162.475Y-92.235
X162.475Y-94.775
X165.015Y-92.235
X165.015Y-94.775
X167.555Y-92.235
X167.555Y-94.775
X170.095Y-92.235
X170.095Y-94.775
X172.635Y-92.235
X172.635Y-94.775
T3
G00X139.68Y-114.095
M15
G01X139.68Y-115.195
M16
G05
G00X139.68Y-118.425
M15
G01X139.68Y-119.225
M16
G05
G00X148.32Y-114.095
M15
G01X148.32Y-115.195
M16
G05
G00X148.32Y-118.425
M15
G01X148.32Y-119.225
M16
G05
G00X152.18Y-114.095
M15
G01X152.18Y-115.195
M16
G05
G00X152.18Y-118.425
M15
G01X152.18Y-119.225
M16
G05
G00X160.82Y-114.095
M15
G01X160.82Y-115.195
M16
G05
G00X160.82Y-118.425
M15
G01X160.82Y-119.225
M16
G05
G00X164.68Y-114.095
M15
G01X164.68Y-115.195
M16
G05
G00X164.68Y-118.425
M15
G01X164.68Y-119.225
M16
G05
G00X173.32Y-114.095
M15
G01X173.32Y-115.195
M16
G05
G00X173.32Y-118.425
M15
G01X173.32Y-119.225
M16
G05
T4
G00X122.975Y-114.075
M15
G01X122.975Y-114.625
M16
G05
G00X123.0Y-118.575
M15
G01X123.0Y-119.125
M16
G05
G00X133.825Y-114.075
M15
G01X133.825Y-114.625
M16
G05
G00X133.825Y-118.575
M15
G01X133.825Y-119.125
M16
G05
M30
